%TF.GenerationSoftware,KiCad,Pcbnew,(6.0.9-dirty)*%
%TF.CreationDate,2022-12-30T08:50:27-06:00*%
%TF.ProjectId,parthiv_pcb_v2,70617274-6869-4765-9f70-63625f76322e,rev?*%
%TF.SameCoordinates,Original*%
%TF.FileFunction,Legend,Top*%
%TF.FilePolarity,Positive*%
%FSLAX46Y46*%
G04 Gerber Fmt 4.6, Leading zero omitted, Abs format (unit mm)*
G04 Created by KiCad (PCBNEW (6.0.9-dirty)) date 2022-12-30 08:50:27*
%MOMM*%
%LPD*%
G01*
G04 APERTURE LIST*
G04 Aperture macros list*
%AMRoundRect*
0 Rectangle with rounded corners*
0 $1 Rounding radius*
0 $2 $3 $4 $5 $6 $7 $8 $9 X,Y pos of 4 corners*
0 Add a 4 corners polygon primitive as box body*
4,1,4,$2,$3,$4,$5,$6,$7,$8,$9,$2,$3,0*
0 Add four circle primitives for the rounded corners*
1,1,$1+$1,$2,$3*
1,1,$1+$1,$4,$5*
1,1,$1+$1,$6,$7*
1,1,$1+$1,$8,$9*
0 Add four rect primitives between the rounded corners*
20,1,$1+$1,$2,$3,$4,$5,0*
20,1,$1+$1,$4,$5,$6,$7,0*
20,1,$1+$1,$6,$7,$8,$9,0*
20,1,$1+$1,$8,$9,$2,$3,0*%
G04 Aperture macros list end*
%ADD10C,0.100000*%
%ADD11C,0.150000*%
%ADD12C,0.080000*%
%ADD13C,0.120000*%
%ADD14R,1.200000X2.200000*%
%ADD15R,5.800000X6.400000*%
%ADD16RoundRect,0.225000X-0.250000X0.225000X-0.250000X-0.225000X0.250000X-0.225000X0.250000X0.225000X0*%
%ADD17RoundRect,0.243750X0.456250X-0.243750X0.456250X0.243750X-0.456250X0.243750X-0.456250X-0.243750X0*%
%ADD18RoundRect,0.225000X-0.225000X-0.250000X0.225000X-0.250000X0.225000X0.250000X-0.225000X0.250000X0*%
%ADD19RoundRect,0.200000X-0.200000X-0.275000X0.200000X-0.275000X0.200000X0.275000X-0.200000X0.275000X0*%
%ADD20R,1.000000X3.150000*%
%ADD21R,1.700000X1.700000*%
%ADD22O,1.700000X1.700000*%
%ADD23RoundRect,0.200000X-0.275000X0.200000X-0.275000X-0.200000X0.275000X-0.200000X0.275000X0.200000X0*%
%ADD24RoundRect,0.200000X0.200000X0.275000X-0.200000X0.275000X-0.200000X-0.275000X0.200000X-0.275000X0*%
%ADD25RoundRect,0.251500X-0.386000X-0.251500X0.386000X-0.251500X0.386000X0.251500X-0.386000X0.251500X0*%
%ADD26RoundRect,0.257750X-0.379750X-0.257750X0.379750X-0.257750X0.379750X0.257750X-0.379750X0.257750X0*%
%ADD27RoundRect,0.237500X-0.387500X-0.237500X0.387500X-0.237500X0.387500X0.237500X-0.387500X0.237500X0*%
%ADD28R,0.300000X0.300000*%
%ADD29R,0.900000X0.300000*%
%ADD30R,0.300000X0.900000*%
%ADD31R,1.800000X1.800000*%
%ADD32R,1.350000X0.400000*%
%ADD33C,1.450000*%
%ADD34R,1.900000X1.200000*%
%ADD35R,1.900000X1.500000*%
%ADD36O,1.900000X1.200000*%
%ADD37RoundRect,0.225000X0.225000X0.250000X-0.225000X0.250000X-0.225000X-0.250000X0.225000X-0.250000X0*%
%ADD38R,1.000000X0.700000*%
%ADD39R,0.600000X0.700000*%
%ADD40RoundRect,0.200000X0.275000X-0.200000X0.275000X0.200000X-0.275000X0.200000X-0.275000X-0.200000X0*%
G04 APERTURE END LIST*
D10*
X156141000Y-119757000D02*
X157226000Y-119757000D01*
X138996000Y-119761000D02*
X140081000Y-119761000D01*
D11*
X132910714Y-127197380D02*
X132910714Y-126197380D01*
X133291666Y-126197380D01*
X133386904Y-126245000D01*
X133434523Y-126292619D01*
X133482142Y-126387857D01*
X133482142Y-126530714D01*
X133434523Y-126625952D01*
X133386904Y-126673571D01*
X133291666Y-126721190D01*
X132910714Y-126721190D01*
X134482142Y-127102142D02*
X134434523Y-127149761D01*
X134291666Y-127197380D01*
X134196428Y-127197380D01*
X134053571Y-127149761D01*
X133958333Y-127054523D01*
X133910714Y-126959285D01*
X133863095Y-126768809D01*
X133863095Y-126625952D01*
X133910714Y-126435476D01*
X133958333Y-126340238D01*
X134053571Y-126245000D01*
X134196428Y-126197380D01*
X134291666Y-126197380D01*
X134434523Y-126245000D01*
X134482142Y-126292619D01*
X135244047Y-126673571D02*
X135386904Y-126721190D01*
X135434523Y-126768809D01*
X135482142Y-126864047D01*
X135482142Y-127006904D01*
X135434523Y-127102142D01*
X135386904Y-127149761D01*
X135291666Y-127197380D01*
X134910714Y-127197380D01*
X134910714Y-126197380D01*
X135244047Y-126197380D01*
X135339285Y-126245000D01*
X135386904Y-126292619D01*
X135434523Y-126387857D01*
X135434523Y-126483095D01*
X135386904Y-126578333D01*
X135339285Y-126625952D01*
X135244047Y-126673571D01*
X134910714Y-126673571D01*
X135815476Y-126530714D02*
X136053571Y-127197380D01*
X136291666Y-126530714D01*
X137196428Y-127197380D02*
X136625000Y-127197380D01*
X136910714Y-127197380D02*
X136910714Y-126197380D01*
X136815476Y-126340238D01*
X136720238Y-126435476D01*
X136625000Y-126483095D01*
X137625000Y-127102142D02*
X137672619Y-127149761D01*
X137625000Y-127197380D01*
X137577380Y-127149761D01*
X137625000Y-127102142D01*
X137625000Y-127197380D01*
X138625000Y-127197380D02*
X138053571Y-127197380D01*
X138339285Y-127197380D02*
X138339285Y-126197380D01*
X138244047Y-126340238D01*
X138148809Y-126435476D01*
X138053571Y-126483095D01*
X139672619Y-126530714D02*
X140053571Y-126530714D01*
X139815476Y-127197380D02*
X139815476Y-126340238D01*
X139863095Y-126245000D01*
X139958333Y-126197380D01*
X140053571Y-126197380D01*
X140529761Y-127197380D02*
X140434523Y-127149761D01*
X140386904Y-127102142D01*
X140339285Y-127006904D01*
X140339285Y-126721190D01*
X140386904Y-126625952D01*
X140434523Y-126578333D01*
X140529761Y-126530714D01*
X140672619Y-126530714D01*
X140767857Y-126578333D01*
X140815476Y-126625952D01*
X140863095Y-126721190D01*
X140863095Y-127006904D01*
X140815476Y-127102142D01*
X140767857Y-127149761D01*
X140672619Y-127197380D01*
X140529761Y-127197380D01*
X141291666Y-127197380D02*
X141291666Y-126530714D01*
X141291666Y-126721190D02*
X141339285Y-126625952D01*
X141386904Y-126578333D01*
X141482142Y-126530714D01*
X141577380Y-126530714D01*
X143244047Y-127102142D02*
X143196428Y-127149761D01*
X143053571Y-127197380D01*
X142958333Y-127197380D01*
X142815476Y-127149761D01*
X142720238Y-127054523D01*
X142672619Y-126959285D01*
X142625000Y-126768809D01*
X142625000Y-126625952D01*
X142672619Y-126435476D01*
X142720238Y-126340238D01*
X142815476Y-126245000D01*
X142958333Y-126197380D01*
X143053571Y-126197380D01*
X143196428Y-126245000D01*
X143244047Y-126292619D01*
X143625000Y-127149761D02*
X143767857Y-127197380D01*
X144005952Y-127197380D01*
X144101190Y-127149761D01*
X144148809Y-127102142D01*
X144196428Y-127006904D01*
X144196428Y-126911666D01*
X144148809Y-126816428D01*
X144101190Y-126768809D01*
X144005952Y-126721190D01*
X143815476Y-126673571D01*
X143720238Y-126625952D01*
X143672619Y-126578333D01*
X143625000Y-126483095D01*
X143625000Y-126387857D01*
X143672619Y-126292619D01*
X143720238Y-126245000D01*
X143815476Y-126197380D01*
X144053571Y-126197380D01*
X144196428Y-126245000D01*
X145148809Y-127197380D02*
X144577380Y-127197380D01*
X144863095Y-127197380D02*
X144863095Y-126197380D01*
X144767857Y-126340238D01*
X144672619Y-126435476D01*
X144577380Y-126483095D01*
X146005952Y-126530714D02*
X146005952Y-127197380D01*
X145767857Y-126149761D02*
X145529761Y-126864047D01*
X146148809Y-126864047D01*
X146720238Y-126197380D02*
X146815476Y-126197380D01*
X146910714Y-126245000D01*
X146958333Y-126292619D01*
X147005952Y-126387857D01*
X147053571Y-126578333D01*
X147053571Y-126816428D01*
X147005952Y-127006904D01*
X146958333Y-127102142D01*
X146910714Y-127149761D01*
X146815476Y-127197380D01*
X146720238Y-127197380D01*
X146625000Y-127149761D01*
X146577380Y-127102142D01*
X146529761Y-127006904D01*
X146482142Y-126816428D01*
X146482142Y-126578333D01*
X146529761Y-126387857D01*
X146577380Y-126292619D01*
X146625000Y-126245000D01*
X146720238Y-126197380D01*
X147863095Y-127149761D02*
X147767857Y-127197380D01*
X147577380Y-127197380D01*
X147482142Y-127149761D01*
X147434523Y-127054523D01*
X147434523Y-126673571D01*
X147482142Y-126578333D01*
X147577380Y-126530714D01*
X147767857Y-126530714D01*
X147863095Y-126578333D01*
X147910714Y-126673571D01*
X147910714Y-126768809D01*
X147434523Y-126864047D01*
X149053571Y-126149761D02*
X148196428Y-127435476D01*
X149339285Y-126292619D02*
X149386904Y-126245000D01*
X149482142Y-126197380D01*
X149720238Y-126197380D01*
X149815476Y-126245000D01*
X149863095Y-126292619D01*
X149910714Y-126387857D01*
X149910714Y-126483095D01*
X149863095Y-126625952D01*
X149291666Y-127197380D01*
X149910714Y-127197380D01*
X150767857Y-126530714D02*
X150767857Y-127197380D01*
X150529761Y-126149761D02*
X150291666Y-126864047D01*
X150910714Y-126864047D01*
X151482142Y-126197380D02*
X151577380Y-126197380D01*
X151672619Y-126245000D01*
X151720238Y-126292619D01*
X151767857Y-126387857D01*
X151815476Y-126578333D01*
X151815476Y-126816428D01*
X151767857Y-127006904D01*
X151720238Y-127102142D01*
X151672619Y-127149761D01*
X151577380Y-127197380D01*
X151482142Y-127197380D01*
X151386904Y-127149761D01*
X151339285Y-127102142D01*
X151291666Y-127006904D01*
X151244047Y-126816428D01*
X151244047Y-126578333D01*
X151291666Y-126387857D01*
X151339285Y-126292619D01*
X151386904Y-126245000D01*
X151482142Y-126197380D01*
X152386904Y-127197380D02*
X152291666Y-127149761D01*
X152244047Y-127054523D01*
X152244047Y-126197380D01*
X152672619Y-127197380D02*
X153196428Y-126530714D01*
X152672619Y-126530714D02*
X153196428Y-127197380D01*
X154291666Y-126149761D02*
X153434523Y-127435476D01*
X154529761Y-126197380D02*
X155148809Y-126197380D01*
X154815476Y-126578333D01*
X154958333Y-126578333D01*
X155053571Y-126625952D01*
X155101190Y-126673571D01*
X155148809Y-126768809D01*
X155148809Y-127006904D01*
X155101190Y-127102142D01*
X155053571Y-127149761D01*
X154958333Y-127197380D01*
X154672619Y-127197380D01*
X154577380Y-127149761D01*
X154529761Y-127102142D01*
X156005952Y-126530714D02*
X156005952Y-127197380D01*
X155767857Y-126149761D02*
X155529761Y-126864047D01*
X156148809Y-126864047D01*
X156720238Y-126197380D02*
X156815476Y-126197380D01*
X156910714Y-126245000D01*
X156958333Y-126292619D01*
X157005952Y-126387857D01*
X157053571Y-126578333D01*
X157053571Y-126816428D01*
X157005952Y-127006904D01*
X156958333Y-127102142D01*
X156910714Y-127149761D01*
X156815476Y-127197380D01*
X156720238Y-127197380D01*
X156625000Y-127149761D01*
X156577380Y-127102142D01*
X156529761Y-127006904D01*
X156482142Y-126816428D01*
X156482142Y-126578333D01*
X156529761Y-126387857D01*
X156577380Y-126292619D01*
X156625000Y-126245000D01*
X156720238Y-126197380D01*
X157625000Y-127197380D02*
X157529761Y-127149761D01*
X157482142Y-127054523D01*
X157482142Y-126197380D01*
X157910714Y-127197380D02*
X158434523Y-126530714D01*
X157910714Y-126530714D02*
X158434523Y-127197380D01*
X134863095Y-128807380D02*
X134863095Y-127807380D01*
X135244047Y-127807380D01*
X135339285Y-127855000D01*
X135386904Y-127902619D01*
X135434523Y-127997857D01*
X135434523Y-128140714D01*
X135386904Y-128235952D01*
X135339285Y-128283571D01*
X135244047Y-128331190D01*
X134863095Y-128331190D01*
X136291666Y-128807380D02*
X136291666Y-128283571D01*
X136244047Y-128188333D01*
X136148809Y-128140714D01*
X135958333Y-128140714D01*
X135863095Y-128188333D01*
X136291666Y-128759761D02*
X136196428Y-128807380D01*
X135958333Y-128807380D01*
X135863095Y-128759761D01*
X135815476Y-128664523D01*
X135815476Y-128569285D01*
X135863095Y-128474047D01*
X135958333Y-128426428D01*
X136196428Y-128426428D01*
X136291666Y-128378809D01*
X136767857Y-128807380D02*
X136767857Y-128140714D01*
X136767857Y-128331190D02*
X136815476Y-128235952D01*
X136863095Y-128188333D01*
X136958333Y-128140714D01*
X137053571Y-128140714D01*
X137244047Y-128140714D02*
X137625000Y-128140714D01*
X137386904Y-127807380D02*
X137386904Y-128664523D01*
X137434523Y-128759761D01*
X137529761Y-128807380D01*
X137625000Y-128807380D01*
X137958333Y-128807380D02*
X137958333Y-127807380D01*
X138386904Y-128807380D02*
X138386904Y-128283571D01*
X138339285Y-128188333D01*
X138244047Y-128140714D01*
X138101190Y-128140714D01*
X138005952Y-128188333D01*
X137958333Y-128235952D01*
X138863095Y-128807380D02*
X138863095Y-128140714D01*
X138863095Y-127807380D02*
X138815476Y-127855000D01*
X138863095Y-127902619D01*
X138910714Y-127855000D01*
X138863095Y-127807380D01*
X138863095Y-127902619D01*
X139244047Y-128140714D02*
X139482142Y-128807380D01*
X139720238Y-128140714D01*
X140863095Y-128807380D02*
X140863095Y-127807380D01*
X141434523Y-128807380D02*
X141005952Y-128235952D01*
X141434523Y-127807380D02*
X140863095Y-128378809D01*
X141863095Y-128807380D02*
X141863095Y-128140714D01*
X141863095Y-128331190D02*
X141910714Y-128235952D01*
X141958333Y-128188333D01*
X142053571Y-128140714D01*
X142148809Y-128140714D01*
X142482142Y-128807380D02*
X142482142Y-128140714D01*
X142482142Y-127807380D02*
X142434523Y-127855000D01*
X142482142Y-127902619D01*
X142529761Y-127855000D01*
X142482142Y-127807380D01*
X142482142Y-127902619D01*
X142910714Y-128759761D02*
X143005952Y-128807380D01*
X143196428Y-128807380D01*
X143291666Y-128759761D01*
X143339285Y-128664523D01*
X143339285Y-128616904D01*
X143291666Y-128521666D01*
X143196428Y-128474047D01*
X143053571Y-128474047D01*
X142958333Y-128426428D01*
X142910714Y-128331190D01*
X142910714Y-128283571D01*
X142958333Y-128188333D01*
X143053571Y-128140714D01*
X143196428Y-128140714D01*
X143291666Y-128188333D01*
X143767857Y-128807380D02*
X143767857Y-127807380D01*
X144196428Y-128807380D02*
X144196428Y-128283571D01*
X144148809Y-128188333D01*
X144053571Y-128140714D01*
X143910714Y-128140714D01*
X143815476Y-128188333D01*
X143767857Y-128235952D01*
X144672619Y-128140714D02*
X144672619Y-128807380D01*
X144672619Y-128235952D02*
X144720238Y-128188333D01*
X144815476Y-128140714D01*
X144958333Y-128140714D01*
X145053571Y-128188333D01*
X145101190Y-128283571D01*
X145101190Y-128807380D01*
X146005952Y-128807380D02*
X146005952Y-128283571D01*
X145958333Y-128188333D01*
X145863095Y-128140714D01*
X145672619Y-128140714D01*
X145577380Y-128188333D01*
X146005952Y-128759761D02*
X145910714Y-128807380D01*
X145672619Y-128807380D01*
X145577380Y-128759761D01*
X145529761Y-128664523D01*
X145529761Y-128569285D01*
X145577380Y-128474047D01*
X145672619Y-128426428D01*
X145910714Y-128426428D01*
X146005952Y-128378809D01*
X146529761Y-128759761D02*
X146529761Y-128807380D01*
X146482142Y-128902619D01*
X146434523Y-128950238D01*
X147625000Y-127807380D02*
X147863095Y-128807380D01*
X148053571Y-128093095D01*
X148244047Y-128807380D01*
X148482142Y-127807380D01*
X148863095Y-128807380D02*
X148863095Y-128140714D01*
X148863095Y-127807380D02*
X148815476Y-127855000D01*
X148863095Y-127902619D01*
X148910714Y-127855000D01*
X148863095Y-127807380D01*
X148863095Y-127902619D01*
X149339285Y-128140714D02*
X149339285Y-128807380D01*
X149339285Y-128235952D02*
X149386904Y-128188333D01*
X149482142Y-128140714D01*
X149625000Y-128140714D01*
X149720238Y-128188333D01*
X149767857Y-128283571D01*
X149767857Y-128807380D01*
X150101190Y-128140714D02*
X150482142Y-128140714D01*
X150244047Y-127807380D02*
X150244047Y-128664523D01*
X150291666Y-128759761D01*
X150386904Y-128807380D01*
X150482142Y-128807380D01*
X151196428Y-128759761D02*
X151101190Y-128807380D01*
X150910714Y-128807380D01*
X150815476Y-128759761D01*
X150767857Y-128664523D01*
X150767857Y-128283571D01*
X150815476Y-128188333D01*
X150910714Y-128140714D01*
X151101190Y-128140714D01*
X151196428Y-128188333D01*
X151244047Y-128283571D01*
X151244047Y-128378809D01*
X150767857Y-128474047D01*
X151672619Y-128807380D02*
X151672619Y-128140714D01*
X151672619Y-128331190D02*
X151720238Y-128235952D01*
X151767857Y-128188333D01*
X151863095Y-128140714D01*
X151958333Y-128140714D01*
X153005952Y-127902619D02*
X153053571Y-127855000D01*
X153148809Y-127807380D01*
X153386904Y-127807380D01*
X153482142Y-127855000D01*
X153529761Y-127902619D01*
X153577380Y-127997857D01*
X153577380Y-128093095D01*
X153529761Y-128235952D01*
X152958333Y-128807380D01*
X153577380Y-128807380D01*
X154196428Y-127807380D02*
X154291666Y-127807380D01*
X154386904Y-127855000D01*
X154434523Y-127902619D01*
X154482142Y-127997857D01*
X154529761Y-128188333D01*
X154529761Y-128426428D01*
X154482142Y-128616904D01*
X154434523Y-128712142D01*
X154386904Y-128759761D01*
X154291666Y-128807380D01*
X154196428Y-128807380D01*
X154101190Y-128759761D01*
X154053571Y-128712142D01*
X154005952Y-128616904D01*
X153958333Y-128426428D01*
X153958333Y-128188333D01*
X154005952Y-127997857D01*
X154053571Y-127902619D01*
X154101190Y-127855000D01*
X154196428Y-127807380D01*
X154910714Y-127902619D02*
X154958333Y-127855000D01*
X155053571Y-127807380D01*
X155291666Y-127807380D01*
X155386904Y-127855000D01*
X155434523Y-127902619D01*
X155482142Y-127997857D01*
X155482142Y-128093095D01*
X155434523Y-128235952D01*
X154863095Y-128807380D01*
X155482142Y-128807380D01*
X155863095Y-127902619D02*
X155910714Y-127855000D01*
X156005952Y-127807380D01*
X156244047Y-127807380D01*
X156339285Y-127855000D01*
X156386904Y-127902619D01*
X156434523Y-127997857D01*
X156434523Y-128093095D01*
X156386904Y-128235952D01*
X155815476Y-128807380D01*
X156434523Y-128807380D01*
X149042380Y-108682357D02*
X149042380Y-109253785D01*
X149042380Y-108968071D02*
X148042380Y-108968071D01*
X148185238Y-109063309D01*
X148280476Y-109158547D01*
X148328095Y-109253785D01*
X148042380Y-107825214D02*
X148042380Y-108015690D01*
X148090000Y-108110928D01*
X148137619Y-108158547D01*
X148280476Y-108253785D01*
X148470952Y-108301404D01*
X148851904Y-108301404D01*
X148947142Y-108253785D01*
X148994761Y-108206166D01*
X149042380Y-108110928D01*
X149042380Y-107920452D01*
X148994761Y-107825214D01*
X148947142Y-107777595D01*
X148851904Y-107729976D01*
X148613809Y-107729976D01*
X148518571Y-107777595D01*
X148470952Y-107825214D01*
X148423333Y-107920452D01*
X148423333Y-108110928D01*
X148470952Y-108206166D01*
X148518571Y-108253785D01*
X148613809Y-108301404D01*
X131960952Y-108110928D02*
X131913333Y-108206166D01*
X131865714Y-108253785D01*
X131770476Y-108301404D01*
X131722857Y-108301404D01*
X131627619Y-108253785D01*
X131580000Y-108206166D01*
X131532380Y-108110928D01*
X131532380Y-107920452D01*
X131580000Y-107825214D01*
X131627619Y-107777595D01*
X131722857Y-107729976D01*
X131770476Y-107729976D01*
X131865714Y-107777595D01*
X131913333Y-107825214D01*
X131960952Y-107920452D01*
X131960952Y-108110928D01*
X132008571Y-108206166D01*
X132056190Y-108253785D01*
X132151428Y-108301404D01*
X132341904Y-108301404D01*
X132437142Y-108253785D01*
X132484761Y-108206166D01*
X132532380Y-108110928D01*
X132532380Y-107920452D01*
X132484761Y-107825214D01*
X132437142Y-107777595D01*
X132341904Y-107729976D01*
X132151428Y-107729976D01*
X132056190Y-107777595D01*
X132008571Y-107825214D01*
X131960952Y-107920452D01*
D10*
X127237619Y-122430190D02*
X127333333Y-122462095D01*
X127492857Y-122462095D01*
X127556666Y-122430190D01*
X127588571Y-122398285D01*
X127620476Y-122334476D01*
X127620476Y-122270666D01*
X127588571Y-122206857D01*
X127556666Y-122174952D01*
X127492857Y-122143047D01*
X127365238Y-122111142D01*
X127301428Y-122079238D01*
X127269523Y-122047333D01*
X127237619Y-121983523D01*
X127237619Y-121919714D01*
X127269523Y-121855904D01*
X127301428Y-121824000D01*
X127365238Y-121792095D01*
X127524761Y-121792095D01*
X127620476Y-121824000D01*
X127907619Y-122462095D02*
X127907619Y-121792095D01*
X128067142Y-121792095D01*
X128162857Y-121824000D01*
X128226666Y-121887809D01*
X128258571Y-121951619D01*
X128290476Y-122079238D01*
X128290476Y-122174952D01*
X128258571Y-122302571D01*
X128226666Y-122366380D01*
X128162857Y-122430190D01*
X128067142Y-122462095D01*
X127907619Y-122462095D01*
X128545714Y-122270666D02*
X128864761Y-122270666D01*
X128481904Y-122462095D02*
X128705238Y-121792095D01*
X128928571Y-122462095D01*
X129151904Y-122398285D02*
X129183809Y-122430190D01*
X129151904Y-122462095D01*
X129120000Y-122430190D01*
X129151904Y-122398285D01*
X129151904Y-122462095D01*
X129151904Y-122047333D02*
X129183809Y-122079238D01*
X129151904Y-122111142D01*
X129120000Y-122079238D01*
X129151904Y-122047333D01*
X129151904Y-122111142D01*
X129439047Y-121855904D02*
X129470952Y-121824000D01*
X129534761Y-121792095D01*
X129694285Y-121792095D01*
X129758095Y-121824000D01*
X129790000Y-121855904D01*
X129821904Y-121919714D01*
X129821904Y-121983523D01*
X129790000Y-122079238D01*
X129407142Y-122462095D01*
X129821904Y-122462095D01*
X163463095Y-98645285D02*
X163463095Y-98230523D01*
X163718333Y-98453857D01*
X163718333Y-98358142D01*
X163750238Y-98294333D01*
X163782142Y-98262428D01*
X163845952Y-98230523D01*
X164005476Y-98230523D01*
X164069285Y-98262428D01*
X164101190Y-98294333D01*
X164133095Y-98358142D01*
X164133095Y-98549571D01*
X164101190Y-98613380D01*
X164069285Y-98645285D01*
X163463095Y-98039095D02*
X164133095Y-97815761D01*
X163463095Y-97592428D01*
X163463095Y-97432904D02*
X163463095Y-97018142D01*
X163718333Y-97241476D01*
X163718333Y-97145761D01*
X163750238Y-97081952D01*
X163782142Y-97050047D01*
X163845952Y-97018142D01*
X164005476Y-97018142D01*
X164069285Y-97050047D01*
X164101190Y-97081952D01*
X164133095Y-97145761D01*
X164133095Y-97337190D01*
X164101190Y-97401000D01*
X164069285Y-97432904D01*
D11*
X123912380Y-98565642D02*
X123912380Y-97946595D01*
X124293333Y-98279928D01*
X124293333Y-98137071D01*
X124340952Y-98041833D01*
X124388571Y-97994214D01*
X124483809Y-97946595D01*
X124721904Y-97946595D01*
X124817142Y-97994214D01*
X124864761Y-98041833D01*
X124912380Y-98137071D01*
X124912380Y-98422785D01*
X124864761Y-98518023D01*
X124817142Y-98565642D01*
X151582380Y-97946595D02*
X151582380Y-98518023D01*
X151582380Y-98232309D02*
X150582380Y-98232309D01*
X150725238Y-98327547D01*
X150820476Y-98422785D01*
X150868095Y-98518023D01*
X151582380Y-97470404D02*
X151582380Y-97279928D01*
X151534761Y-97184690D01*
X151487142Y-97137071D01*
X151344285Y-97041833D01*
X151153809Y-96994214D01*
X150772857Y-96994214D01*
X150677619Y-97041833D01*
X150630000Y-97089452D01*
X150582380Y-97184690D01*
X150582380Y-97375166D01*
X150630000Y-97470404D01*
X150677619Y-97518023D01*
X150772857Y-97565642D01*
X151010952Y-97565642D01*
X151106190Y-97518023D01*
X151153809Y-97470404D01*
X151201428Y-97375166D01*
X151201428Y-97184690D01*
X151153809Y-97089452D01*
X151106190Y-97041833D01*
X151010952Y-96994214D01*
D10*
X139365000Y-109038428D02*
X139333095Y-109102238D01*
X139333095Y-109197952D01*
X139365000Y-109293666D01*
X139428809Y-109357476D01*
X139492619Y-109389380D01*
X139620238Y-109421285D01*
X139715952Y-109421285D01*
X139843571Y-109389380D01*
X139907380Y-109357476D01*
X139971190Y-109293666D01*
X140003095Y-109197952D01*
X140003095Y-109134142D01*
X139971190Y-109038428D01*
X139939285Y-109006523D01*
X139715952Y-109006523D01*
X139715952Y-109134142D01*
X140003095Y-108719380D02*
X139333095Y-108719380D01*
X140003095Y-108336523D01*
X139333095Y-108336523D01*
X140003095Y-108017476D02*
X139333095Y-108017476D01*
X139333095Y-107857952D01*
X139365000Y-107762238D01*
X139428809Y-107698428D01*
X139492619Y-107666523D01*
X139620238Y-107634619D01*
X139715952Y-107634619D01*
X139843571Y-107666523D01*
X139907380Y-107698428D01*
X139971190Y-107762238D01*
X140003095Y-107857952D01*
X140003095Y-108017476D01*
X139379714Y-118935285D02*
X139347809Y-118967190D01*
X139252095Y-118999095D01*
X139188285Y-118999095D01*
X139092571Y-118967190D01*
X139028761Y-118903380D01*
X138996857Y-118839571D01*
X138964952Y-118711952D01*
X138964952Y-118616238D01*
X138996857Y-118488619D01*
X139028761Y-118424809D01*
X139092571Y-118361000D01*
X139188285Y-118329095D01*
X139252095Y-118329095D01*
X139347809Y-118361000D01*
X139379714Y-118392904D01*
X139666857Y-118648142D02*
X139890190Y-118648142D01*
X139985904Y-118999095D02*
X139666857Y-118999095D01*
X139666857Y-118329095D01*
X139985904Y-118329095D01*
X140273047Y-118935285D02*
X140304952Y-118967190D01*
X140273047Y-118999095D01*
X140241142Y-118967190D01*
X140273047Y-118935285D01*
X140273047Y-118999095D01*
X140273047Y-118584333D02*
X140304952Y-118616238D01*
X140273047Y-118648142D01*
X140241142Y-118616238D01*
X140273047Y-118584333D01*
X140273047Y-118648142D01*
X140879238Y-118329095D02*
X140751619Y-118329095D01*
X140687809Y-118361000D01*
X140655904Y-118392904D01*
X140592095Y-118488619D01*
X140560190Y-118616238D01*
X140560190Y-118871476D01*
X140592095Y-118935285D01*
X140624000Y-118967190D01*
X140687809Y-118999095D01*
X140815428Y-118999095D01*
X140879238Y-118967190D01*
X140911142Y-118935285D01*
X140943047Y-118871476D01*
X140943047Y-118711952D01*
X140911142Y-118648142D01*
X140879238Y-118616238D01*
X140815428Y-118584333D01*
X140687809Y-118584333D01*
X140624000Y-118616238D01*
X140592095Y-118648142D01*
X140560190Y-118711952D01*
D11*
X122372380Y-97946595D02*
X122372380Y-98518023D01*
X122372380Y-98232309D02*
X121372380Y-98232309D01*
X121515238Y-98327547D01*
X121610476Y-98422785D01*
X121658095Y-98518023D01*
X128992380Y-107825214D02*
X128992380Y-108015690D01*
X129040000Y-108110928D01*
X129087619Y-108158547D01*
X129230476Y-108253785D01*
X129420952Y-108301404D01*
X129801904Y-108301404D01*
X129897142Y-108253785D01*
X129944761Y-108206166D01*
X129992380Y-108110928D01*
X129992380Y-107920452D01*
X129944761Y-107825214D01*
X129897142Y-107777595D01*
X129801904Y-107729976D01*
X129563809Y-107729976D01*
X129468571Y-107777595D01*
X129420952Y-107825214D01*
X129373333Y-107920452D01*
X129373333Y-108110928D01*
X129420952Y-108206166D01*
X129468571Y-108253785D01*
X129563809Y-108301404D01*
X121372380Y-108063309D02*
X121372380Y-107968071D01*
X121420000Y-107872833D01*
X121467619Y-107825214D01*
X121562857Y-107777595D01*
X121753333Y-107729976D01*
X121991428Y-107729976D01*
X122181904Y-107777595D01*
X122277142Y-107825214D01*
X122324761Y-107872833D01*
X122372380Y-107968071D01*
X122372380Y-108063309D01*
X122324761Y-108158547D01*
X122277142Y-108206166D01*
X122181904Y-108253785D01*
X121991428Y-108301404D01*
X121753333Y-108301404D01*
X121562857Y-108253785D01*
X121467619Y-108206166D01*
X121420000Y-108158547D01*
X121372380Y-108063309D01*
D10*
X156508761Y-120631285D02*
X156476857Y-120663190D01*
X156381142Y-120695095D01*
X156317333Y-120695095D01*
X156221619Y-120663190D01*
X156157809Y-120599380D01*
X156125904Y-120535571D01*
X156094000Y-120407952D01*
X156094000Y-120312238D01*
X156125904Y-120184619D01*
X156157809Y-120120809D01*
X156221619Y-120057000D01*
X156317333Y-120025095D01*
X156381142Y-120025095D01*
X156476857Y-120057000D01*
X156508761Y-120088904D01*
X156764000Y-120663190D02*
X156859714Y-120695095D01*
X157019238Y-120695095D01*
X157083047Y-120663190D01*
X157114952Y-120631285D01*
X157146857Y-120567476D01*
X157146857Y-120503666D01*
X157114952Y-120439857D01*
X157083047Y-120407952D01*
X157019238Y-120376047D01*
X156891619Y-120344142D01*
X156827809Y-120312238D01*
X156795904Y-120280333D01*
X156764000Y-120216523D01*
X156764000Y-120152714D01*
X156795904Y-120088904D01*
X156827809Y-120057000D01*
X156891619Y-120025095D01*
X157051142Y-120025095D01*
X157146857Y-120057000D01*
X157434000Y-120631285D02*
X157465904Y-120663190D01*
X157434000Y-120695095D01*
X157402095Y-120663190D01*
X157434000Y-120631285D01*
X157434000Y-120695095D01*
X157434000Y-120280333D02*
X157465904Y-120312238D01*
X157434000Y-120344142D01*
X157402095Y-120312238D01*
X157434000Y-120280333D01*
X157434000Y-120344142D01*
X157689238Y-120025095D02*
X158135904Y-120025095D01*
X157848761Y-120695095D01*
X161426038Y-129630295D02*
X161840800Y-129630295D01*
X161617466Y-129885533D01*
X161713180Y-129885533D01*
X161776990Y-129917438D01*
X161808895Y-129949342D01*
X161840800Y-130013152D01*
X161840800Y-130172676D01*
X161808895Y-130236485D01*
X161776990Y-130268390D01*
X161713180Y-130300295D01*
X161521752Y-130300295D01*
X161457942Y-130268390D01*
X161426038Y-130236485D01*
X162032228Y-129630295D02*
X162255561Y-130300295D01*
X162478895Y-129630295D01*
X162638419Y-129630295D02*
X163053180Y-129630295D01*
X162829847Y-129885533D01*
X162925561Y-129885533D01*
X162989371Y-129917438D01*
X163021276Y-129949342D01*
X163053180Y-130013152D01*
X163053180Y-130172676D01*
X163021276Y-130236485D01*
X162989371Y-130268390D01*
X162925561Y-130300295D01*
X162734133Y-130300295D01*
X162670323Y-130268390D01*
X162638419Y-130236485D01*
D11*
X153217619Y-98518023D02*
X153170000Y-98470404D01*
X153122380Y-98375166D01*
X153122380Y-98137071D01*
X153170000Y-98041833D01*
X153217619Y-97994214D01*
X153312857Y-97946595D01*
X153408095Y-97946595D01*
X153550952Y-97994214D01*
X154122380Y-98565642D01*
X154122380Y-97946595D01*
X154122380Y-96994214D02*
X154122380Y-97565642D01*
X154122380Y-97279928D02*
X153122380Y-97279928D01*
X153265238Y-97375166D01*
X153360476Y-97470404D01*
X153408095Y-97565642D01*
X149042380Y-97946595D02*
X149042380Y-98518023D01*
X149042380Y-98232309D02*
X148042380Y-98232309D01*
X148185238Y-98327547D01*
X148280476Y-98422785D01*
X148328095Y-98518023D01*
X148042380Y-97613261D02*
X148042380Y-96946595D01*
X149042380Y-97375166D01*
D10*
X139333095Y-98645285D02*
X139333095Y-98230523D01*
X139588333Y-98453857D01*
X139588333Y-98358142D01*
X139620238Y-98294333D01*
X139652142Y-98262428D01*
X139715952Y-98230523D01*
X139875476Y-98230523D01*
X139939285Y-98262428D01*
X139971190Y-98294333D01*
X140003095Y-98358142D01*
X140003095Y-98549571D01*
X139971190Y-98613380D01*
X139939285Y-98645285D01*
X139333095Y-98039095D02*
X140003095Y-97815761D01*
X139333095Y-97592428D01*
X139333095Y-97432904D02*
X139333095Y-97018142D01*
X139588333Y-97241476D01*
X139588333Y-97145761D01*
X139620238Y-97081952D01*
X139652142Y-97050047D01*
X139715952Y-97018142D01*
X139875476Y-97018142D01*
X139939285Y-97050047D01*
X139971190Y-97081952D01*
X140003095Y-97145761D01*
X140003095Y-97337190D01*
X139971190Y-97401000D01*
X139939285Y-97432904D01*
D11*
X135072380Y-97946595D02*
X135072380Y-98518023D01*
X135072380Y-98232309D02*
X134072380Y-98232309D01*
X134215238Y-98327547D01*
X134310476Y-98422785D01*
X134358095Y-98518023D01*
X135072380Y-96994214D02*
X135072380Y-97565642D01*
X135072380Y-97279928D02*
X134072380Y-97279928D01*
X134215238Y-97375166D01*
X134310476Y-97470404D01*
X134358095Y-97565642D01*
D10*
X127205714Y-119252095D02*
X127652380Y-119922095D01*
X127652380Y-119252095D02*
X127205714Y-119922095D01*
X127907619Y-119922095D02*
X127907619Y-119252095D01*
X128067142Y-119252095D01*
X128162857Y-119284000D01*
X128226666Y-119347809D01*
X128258571Y-119411619D01*
X128290476Y-119539238D01*
X128290476Y-119634952D01*
X128258571Y-119762571D01*
X128226666Y-119826380D01*
X128162857Y-119890190D01*
X128067142Y-119922095D01*
X127907619Y-119922095D01*
X128545714Y-119730666D02*
X128864761Y-119730666D01*
X128481904Y-119922095D02*
X128705238Y-119252095D01*
X128928571Y-119922095D01*
X129151904Y-119858285D02*
X129183809Y-119890190D01*
X129151904Y-119922095D01*
X129120000Y-119890190D01*
X129151904Y-119858285D01*
X129151904Y-119922095D01*
X129151904Y-119507333D02*
X129183809Y-119539238D01*
X129151904Y-119571142D01*
X129120000Y-119539238D01*
X129151904Y-119507333D01*
X129151904Y-119571142D01*
X129407142Y-119252095D02*
X129853809Y-119922095D01*
X129853809Y-119252095D02*
X129407142Y-119922095D01*
D11*
X132532380Y-98422785D02*
X132532380Y-98232309D01*
X132484761Y-98137071D01*
X132437142Y-98089452D01*
X132294285Y-97994214D01*
X132103809Y-97946595D01*
X131722857Y-97946595D01*
X131627619Y-97994214D01*
X131580000Y-98041833D01*
X131532380Y-98137071D01*
X131532380Y-98327547D01*
X131580000Y-98422785D01*
X131627619Y-98470404D01*
X131722857Y-98518023D01*
X131960952Y-98518023D01*
X132056190Y-98470404D01*
X132103809Y-98422785D01*
X132151428Y-98327547D01*
X132151428Y-98137071D01*
X132103809Y-98041833D01*
X132056190Y-97994214D01*
X131960952Y-97946595D01*
D10*
X127620476Y-126904000D02*
X127556666Y-126872095D01*
X127460952Y-126872095D01*
X127365238Y-126904000D01*
X127301428Y-126967809D01*
X127269523Y-127031619D01*
X127237619Y-127159238D01*
X127237619Y-127254952D01*
X127269523Y-127382571D01*
X127301428Y-127446380D01*
X127365238Y-127510190D01*
X127460952Y-127542095D01*
X127524761Y-127542095D01*
X127620476Y-127510190D01*
X127652380Y-127478285D01*
X127652380Y-127254952D01*
X127524761Y-127254952D01*
X127939523Y-127542095D02*
X127939523Y-126872095D01*
X128322380Y-127542095D01*
X128322380Y-126872095D01*
X128641428Y-127542095D02*
X128641428Y-126872095D01*
X128800952Y-126872095D01*
X128896666Y-126904000D01*
X128960476Y-126967809D01*
X128992380Y-127031619D01*
X129024285Y-127159238D01*
X129024285Y-127254952D01*
X128992380Y-127382571D01*
X128960476Y-127446380D01*
X128896666Y-127510190D01*
X128800952Y-127542095D01*
X128641428Y-127542095D01*
D11*
X137612380Y-97946595D02*
X137612380Y-98518023D01*
X137612380Y-98232309D02*
X136612380Y-98232309D01*
X136755238Y-98327547D01*
X136850476Y-98422785D01*
X136898095Y-98518023D01*
X136612380Y-97613261D02*
X136612380Y-96994214D01*
X136993333Y-97327547D01*
X136993333Y-97184690D01*
X137040952Y-97089452D01*
X137088571Y-97041833D01*
X137183809Y-96994214D01*
X137421904Y-96994214D01*
X137517142Y-97041833D01*
X137564761Y-97089452D01*
X137612380Y-97184690D01*
X137612380Y-97470404D01*
X137564761Y-97565642D01*
X137517142Y-97613261D01*
X153217619Y-109253785D02*
X153170000Y-109206166D01*
X153122380Y-109110928D01*
X153122380Y-108872833D01*
X153170000Y-108777595D01*
X153217619Y-108729976D01*
X153312857Y-108682357D01*
X153408095Y-108682357D01*
X153550952Y-108729976D01*
X154122380Y-109301404D01*
X154122380Y-108682357D01*
X153122380Y-108063309D02*
X153122380Y-107968071D01*
X153170000Y-107872833D01*
X153217619Y-107825214D01*
X153312857Y-107777595D01*
X153503333Y-107729976D01*
X153741428Y-107729976D01*
X153931904Y-107777595D01*
X154027142Y-107825214D01*
X154074761Y-107872833D01*
X154122380Y-107968071D01*
X154122380Y-108063309D01*
X154074761Y-108158547D01*
X154027142Y-108206166D01*
X153931904Y-108253785D01*
X153741428Y-108301404D01*
X153503333Y-108301404D01*
X153312857Y-108253785D01*
X153217619Y-108206166D01*
X153170000Y-108158547D01*
X153122380Y-108063309D01*
X155757619Y-98518023D02*
X155710000Y-98470404D01*
X155662380Y-98375166D01*
X155662380Y-98137071D01*
X155710000Y-98041833D01*
X155757619Y-97994214D01*
X155852857Y-97946595D01*
X155948095Y-97946595D01*
X156090952Y-97994214D01*
X156662380Y-98565642D01*
X156662380Y-97946595D01*
X155662380Y-97613261D02*
X155662380Y-96994214D01*
X156043333Y-97327547D01*
X156043333Y-97184690D01*
X156090952Y-97089452D01*
X156138571Y-97041833D01*
X156233809Y-96994214D01*
X156471904Y-96994214D01*
X156567142Y-97041833D01*
X156614761Y-97089452D01*
X156662380Y-97184690D01*
X156662380Y-97470404D01*
X156614761Y-97565642D01*
X156567142Y-97613261D01*
D10*
X107489523Y-115583095D02*
X107872380Y-115583095D01*
X107680952Y-116253095D02*
X107680952Y-115583095D01*
X108031904Y-115583095D02*
X108478571Y-116253095D01*
X108478571Y-115583095D02*
X108031904Y-116253095D01*
X130868571Y-119003095D02*
X130868571Y-118333095D01*
X131091904Y-118811666D01*
X131315238Y-118333095D01*
X131315238Y-119003095D01*
X131634285Y-119003095D02*
X131634285Y-118333095D01*
X131921428Y-118971190D02*
X132017142Y-119003095D01*
X132176666Y-119003095D01*
X132240476Y-118971190D01*
X132272380Y-118939285D01*
X132304285Y-118875476D01*
X132304285Y-118811666D01*
X132272380Y-118747857D01*
X132240476Y-118715952D01*
X132176666Y-118684047D01*
X132049047Y-118652142D01*
X131985238Y-118620238D01*
X131953333Y-118588333D01*
X131921428Y-118524523D01*
X131921428Y-118460714D01*
X131953333Y-118396904D01*
X131985238Y-118365000D01*
X132049047Y-118333095D01*
X132208571Y-118333095D01*
X132304285Y-118365000D01*
X132719047Y-118333095D02*
X132846666Y-118333095D01*
X132910476Y-118365000D01*
X132974285Y-118428809D01*
X133006190Y-118556428D01*
X133006190Y-118779761D01*
X132974285Y-118907380D01*
X132910476Y-118971190D01*
X132846666Y-119003095D01*
X132719047Y-119003095D01*
X132655238Y-118971190D01*
X132591428Y-118907380D01*
X132559523Y-118779761D01*
X132559523Y-118556428D01*
X132591428Y-118428809D01*
X132655238Y-118365000D01*
X132719047Y-118333095D01*
X133293333Y-118939285D02*
X133325238Y-118971190D01*
X133293333Y-119003095D01*
X133261428Y-118971190D01*
X133293333Y-118939285D01*
X133293333Y-119003095D01*
X133293333Y-118588333D02*
X133325238Y-118620238D01*
X133293333Y-118652142D01*
X133261428Y-118620238D01*
X133293333Y-118588333D01*
X133293333Y-118652142D01*
X133644285Y-119003095D02*
X133771904Y-119003095D01*
X133835714Y-118971190D01*
X133867619Y-118939285D01*
X133931428Y-118843571D01*
X133963333Y-118715952D01*
X133963333Y-118460714D01*
X133931428Y-118396904D01*
X133899523Y-118365000D01*
X133835714Y-118333095D01*
X133708095Y-118333095D01*
X133644285Y-118365000D01*
X133612380Y-118396904D01*
X133580476Y-118460714D01*
X133580476Y-118620238D01*
X133612380Y-118684047D01*
X133644285Y-118715952D01*
X133708095Y-118747857D01*
X133835714Y-118747857D01*
X133899523Y-118715952D01*
X133931428Y-118684047D01*
X133963333Y-118620238D01*
X151692523Y-120695095D02*
X151692523Y-120025095D01*
X151915857Y-120503666D01*
X152139190Y-120025095D01*
X152139190Y-120695095D01*
X152585857Y-120025095D02*
X152713476Y-120025095D01*
X152777285Y-120057000D01*
X152841095Y-120120809D01*
X152873000Y-120248428D01*
X152873000Y-120471761D01*
X152841095Y-120599380D01*
X152777285Y-120663190D01*
X152713476Y-120695095D01*
X152585857Y-120695095D01*
X152522047Y-120663190D01*
X152458238Y-120599380D01*
X152426333Y-120471761D01*
X152426333Y-120248428D01*
X152458238Y-120120809D01*
X152522047Y-120057000D01*
X152585857Y-120025095D01*
X153128238Y-120663190D02*
X153223952Y-120695095D01*
X153383476Y-120695095D01*
X153447285Y-120663190D01*
X153479190Y-120631285D01*
X153511095Y-120567476D01*
X153511095Y-120503666D01*
X153479190Y-120439857D01*
X153447285Y-120407952D01*
X153383476Y-120376047D01*
X153255857Y-120344142D01*
X153192047Y-120312238D01*
X153160142Y-120280333D01*
X153128238Y-120216523D01*
X153128238Y-120152714D01*
X153160142Y-120088904D01*
X153192047Y-120057000D01*
X153255857Y-120025095D01*
X153415380Y-120025095D01*
X153511095Y-120057000D01*
X153798238Y-120695095D02*
X153798238Y-120025095D01*
X154117285Y-120631285D02*
X154149190Y-120663190D01*
X154117285Y-120695095D01*
X154085380Y-120663190D01*
X154117285Y-120631285D01*
X154117285Y-120695095D01*
X154117285Y-120280333D02*
X154149190Y-120312238D01*
X154117285Y-120344142D01*
X154085380Y-120312238D01*
X154117285Y-120280333D01*
X154117285Y-120344142D01*
X154787285Y-120695095D02*
X154404428Y-120695095D01*
X154595857Y-120695095D02*
X154595857Y-120025095D01*
X154532047Y-120120809D01*
X154468238Y-120184619D01*
X154404428Y-120216523D01*
X155202047Y-120025095D02*
X155265857Y-120025095D01*
X155329666Y-120057000D01*
X155361571Y-120088904D01*
X155393476Y-120152714D01*
X155425380Y-120280333D01*
X155425380Y-120439857D01*
X155393476Y-120567476D01*
X155361571Y-120631285D01*
X155329666Y-120663190D01*
X155265857Y-120695095D01*
X155202047Y-120695095D01*
X155138238Y-120663190D01*
X155106333Y-120631285D01*
X155074428Y-120567476D01*
X155042523Y-120439857D01*
X155042523Y-120280333D01*
X155074428Y-120152714D01*
X155106333Y-120088904D01*
X155138238Y-120057000D01*
X155202047Y-120025095D01*
X156524714Y-118931285D02*
X156492809Y-118963190D01*
X156397095Y-118995095D01*
X156333285Y-118995095D01*
X156237571Y-118963190D01*
X156173761Y-118899380D01*
X156141857Y-118835571D01*
X156109952Y-118707952D01*
X156109952Y-118612238D01*
X156141857Y-118484619D01*
X156173761Y-118420809D01*
X156237571Y-118357000D01*
X156333285Y-118325095D01*
X156397095Y-118325095D01*
X156492809Y-118357000D01*
X156524714Y-118388904D01*
X156811857Y-118644142D02*
X157035190Y-118644142D01*
X157130904Y-118995095D02*
X156811857Y-118995095D01*
X156811857Y-118325095D01*
X157130904Y-118325095D01*
X157418047Y-118931285D02*
X157449952Y-118963190D01*
X157418047Y-118995095D01*
X157386142Y-118963190D01*
X157418047Y-118931285D01*
X157418047Y-118995095D01*
X157418047Y-118580333D02*
X157449952Y-118612238D01*
X157418047Y-118644142D01*
X157386142Y-118612238D01*
X157418047Y-118580333D01*
X157418047Y-118644142D01*
X158056142Y-118325095D02*
X157737095Y-118325095D01*
X157705190Y-118644142D01*
X157737095Y-118612238D01*
X157800904Y-118580333D01*
X157960428Y-118580333D01*
X158024238Y-118612238D01*
X158056142Y-118644142D01*
X158088047Y-118707952D01*
X158088047Y-118867476D01*
X158056142Y-118931285D01*
X158024238Y-118963190D01*
X157960428Y-118995095D01*
X157800904Y-118995095D01*
X157737095Y-118963190D01*
X157705190Y-118931285D01*
X158936476Y-120029095D02*
X159351238Y-120029095D01*
X159127904Y-120284333D01*
X159223619Y-120284333D01*
X159287428Y-120316238D01*
X159319333Y-120348142D01*
X159351238Y-120411952D01*
X159351238Y-120571476D01*
X159319333Y-120635285D01*
X159287428Y-120667190D01*
X159223619Y-120699095D01*
X159032190Y-120699095D01*
X158968380Y-120667190D01*
X158936476Y-120635285D01*
X159542666Y-120029095D02*
X159766000Y-120699095D01*
X159989333Y-120029095D01*
X160148857Y-120029095D02*
X160563619Y-120029095D01*
X160340285Y-120284333D01*
X160436000Y-120284333D01*
X160499809Y-120316238D01*
X160531714Y-120348142D01*
X160563619Y-120411952D01*
X160563619Y-120571476D01*
X160531714Y-120635285D01*
X160499809Y-120667190D01*
X160436000Y-120699095D01*
X160244571Y-120699095D01*
X160180761Y-120667190D01*
X160148857Y-120635285D01*
X127269523Y-112302095D02*
X127269523Y-111632095D01*
X127588571Y-112302095D02*
X127588571Y-111632095D01*
X127971428Y-112302095D01*
X127971428Y-111632095D01*
X128194761Y-111632095D02*
X128577619Y-111632095D01*
X128386190Y-112302095D02*
X128386190Y-111632095D01*
X128800952Y-112238285D02*
X128832857Y-112270190D01*
X128800952Y-112302095D01*
X128769047Y-112270190D01*
X128800952Y-112238285D01*
X128800952Y-112302095D01*
X128800952Y-111887333D02*
X128832857Y-111919238D01*
X128800952Y-111951142D01*
X128769047Y-111919238D01*
X128800952Y-111887333D01*
X128800952Y-111951142D01*
X129407142Y-111855428D02*
X129407142Y-112302095D01*
X129247619Y-111600190D02*
X129088095Y-112078761D01*
X129502857Y-112078761D01*
X143143095Y-98645285D02*
X143143095Y-98230523D01*
X143398333Y-98453857D01*
X143398333Y-98358142D01*
X143430238Y-98294333D01*
X143462142Y-98262428D01*
X143525952Y-98230523D01*
X143685476Y-98230523D01*
X143749285Y-98262428D01*
X143781190Y-98294333D01*
X143813095Y-98358142D01*
X143813095Y-98549571D01*
X143781190Y-98613380D01*
X143749285Y-98645285D01*
X143143095Y-98039095D02*
X143813095Y-97815761D01*
X143143095Y-97592428D01*
X143143095Y-97432904D02*
X143143095Y-97018142D01*
X143398333Y-97241476D01*
X143398333Y-97145761D01*
X143430238Y-97081952D01*
X143462142Y-97050047D01*
X143525952Y-97018142D01*
X143685476Y-97018142D01*
X143749285Y-97050047D01*
X143781190Y-97081952D01*
X143813095Y-97145761D01*
X143813095Y-97337190D01*
X143781190Y-97401000D01*
X143749285Y-97432904D01*
X159065085Y-124869342D02*
X159288419Y-124869342D01*
X159384133Y-125220295D02*
X159065085Y-125220295D01*
X159065085Y-124550295D01*
X159384133Y-124550295D01*
X160054133Y-125156485D02*
X160022228Y-125188390D01*
X159926514Y-125220295D01*
X159862704Y-125220295D01*
X159766990Y-125188390D01*
X159703180Y-125124580D01*
X159671276Y-125060771D01*
X159639371Y-124933152D01*
X159639371Y-124837438D01*
X159671276Y-124709819D01*
X159703180Y-124646009D01*
X159766990Y-124582200D01*
X159862704Y-124550295D01*
X159926514Y-124550295D01*
X160022228Y-124582200D01*
X160054133Y-124614104D01*
X160341276Y-125220295D02*
X160341276Y-124550295D01*
X160341276Y-124869342D02*
X160724133Y-124869342D01*
X160724133Y-125220295D02*
X160724133Y-124550295D01*
X161170800Y-124550295D02*
X161298419Y-124550295D01*
X161362228Y-124582200D01*
X161426038Y-124646009D01*
X161457942Y-124773628D01*
X161457942Y-124996961D01*
X161426038Y-125124580D01*
X161362228Y-125188390D01*
X161298419Y-125220295D01*
X161170800Y-125220295D01*
X161106990Y-125188390D01*
X161043180Y-125124580D01*
X161011276Y-124996961D01*
X161011276Y-124773628D01*
X161043180Y-124646009D01*
X161106990Y-124582200D01*
X161170800Y-124550295D01*
X161745085Y-125156485D02*
X161776990Y-125188390D01*
X161745085Y-125220295D01*
X161713180Y-125188390D01*
X161745085Y-125156485D01*
X161745085Y-125220295D01*
X161745085Y-124805533D02*
X161776990Y-124837438D01*
X161745085Y-124869342D01*
X161713180Y-124837438D01*
X161745085Y-124805533D01*
X161745085Y-124869342D01*
X162032228Y-124614104D02*
X162064133Y-124582200D01*
X162127942Y-124550295D01*
X162287466Y-124550295D01*
X162351276Y-124582200D01*
X162383180Y-124614104D01*
X162415085Y-124677914D01*
X162415085Y-124741723D01*
X162383180Y-124837438D01*
X162000323Y-125220295D01*
X162415085Y-125220295D01*
X162989371Y-124773628D02*
X162989371Y-125220295D01*
X162829847Y-124518390D02*
X162670323Y-124996961D01*
X163085085Y-124996961D01*
X127173809Y-129412095D02*
X127397142Y-130082095D01*
X127620476Y-129412095D01*
X128226666Y-130018285D02*
X128194761Y-130050190D01*
X128099047Y-130082095D01*
X128035238Y-130082095D01*
X127939523Y-130050190D01*
X127875714Y-129986380D01*
X127843809Y-129922571D01*
X127811904Y-129794952D01*
X127811904Y-129699238D01*
X127843809Y-129571619D01*
X127875714Y-129507809D01*
X127939523Y-129444000D01*
X128035238Y-129412095D01*
X128099047Y-129412095D01*
X128194761Y-129444000D01*
X128226666Y-129475904D01*
X128896666Y-130018285D02*
X128864761Y-130050190D01*
X128769047Y-130082095D01*
X128705238Y-130082095D01*
X128609523Y-130050190D01*
X128545714Y-129986380D01*
X128513809Y-129922571D01*
X128481904Y-129794952D01*
X128481904Y-129699238D01*
X128513809Y-129571619D01*
X128545714Y-129507809D01*
X128609523Y-129444000D01*
X128705238Y-129412095D01*
X128769047Y-129412095D01*
X128864761Y-129444000D01*
X128896666Y-129475904D01*
X151883952Y-118963190D02*
X151979666Y-118995095D01*
X152139190Y-118995095D01*
X152203000Y-118963190D01*
X152234904Y-118931285D01*
X152266809Y-118867476D01*
X152266809Y-118803666D01*
X152234904Y-118739857D01*
X152203000Y-118707952D01*
X152139190Y-118676047D01*
X152011571Y-118644142D01*
X151947761Y-118612238D01*
X151915857Y-118580333D01*
X151883952Y-118516523D01*
X151883952Y-118452714D01*
X151915857Y-118388904D01*
X151947761Y-118357000D01*
X152011571Y-118325095D01*
X152171095Y-118325095D01*
X152266809Y-118357000D01*
X152936809Y-118931285D02*
X152904904Y-118963190D01*
X152809190Y-118995095D01*
X152745380Y-118995095D01*
X152649666Y-118963190D01*
X152585857Y-118899380D01*
X152553952Y-118835571D01*
X152522047Y-118707952D01*
X152522047Y-118612238D01*
X152553952Y-118484619D01*
X152585857Y-118420809D01*
X152649666Y-118357000D01*
X152745380Y-118325095D01*
X152809190Y-118325095D01*
X152904904Y-118357000D01*
X152936809Y-118388904D01*
X153223952Y-118995095D02*
X153223952Y-118325095D01*
X153606809Y-118995095D02*
X153319666Y-118612238D01*
X153606809Y-118325095D02*
X153223952Y-118707952D01*
X153893952Y-118931285D02*
X153925857Y-118963190D01*
X153893952Y-118995095D01*
X153862047Y-118963190D01*
X153893952Y-118931285D01*
X153893952Y-118995095D01*
X153893952Y-118580333D02*
X153925857Y-118612238D01*
X153893952Y-118644142D01*
X153862047Y-118612238D01*
X153893952Y-118580333D01*
X153893952Y-118644142D01*
X154563952Y-118995095D02*
X154181095Y-118995095D01*
X154372523Y-118995095D02*
X154372523Y-118325095D01*
X154308714Y-118420809D01*
X154244904Y-118484619D01*
X154181095Y-118516523D01*
X155202047Y-118995095D02*
X154819190Y-118995095D01*
X155010619Y-118995095D02*
X155010619Y-118325095D01*
X154946809Y-118420809D01*
X154883000Y-118484619D01*
X154819190Y-118516523D01*
D11*
X160837619Y-98518023D02*
X160790000Y-98470404D01*
X160742380Y-98375166D01*
X160742380Y-98137071D01*
X160790000Y-98041833D01*
X160837619Y-97994214D01*
X160932857Y-97946595D01*
X161028095Y-97946595D01*
X161170952Y-97994214D01*
X161742380Y-98565642D01*
X161742380Y-97946595D01*
X160742380Y-97613261D02*
X160742380Y-96946595D01*
X161742380Y-97375166D01*
D10*
X159479847Y-127090295D02*
X159862704Y-127090295D01*
X159671276Y-127760295D02*
X159671276Y-127090295D01*
X160468895Y-127760295D02*
X160245561Y-127441247D01*
X160086038Y-127760295D02*
X160086038Y-127090295D01*
X160341276Y-127090295D01*
X160405085Y-127122200D01*
X160436990Y-127154104D01*
X160468895Y-127217914D01*
X160468895Y-127313628D01*
X160436990Y-127377438D01*
X160405085Y-127409342D01*
X160341276Y-127441247D01*
X160086038Y-127441247D01*
X160756038Y-127760295D02*
X160756038Y-127090295D01*
X161426038Y-127122200D02*
X161362228Y-127090295D01*
X161266514Y-127090295D01*
X161170800Y-127122200D01*
X161106990Y-127186009D01*
X161075085Y-127249819D01*
X161043180Y-127377438D01*
X161043180Y-127473152D01*
X161075085Y-127600771D01*
X161106990Y-127664580D01*
X161170800Y-127728390D01*
X161266514Y-127760295D01*
X161330323Y-127760295D01*
X161426038Y-127728390D01*
X161457942Y-127696485D01*
X161457942Y-127473152D01*
X161330323Y-127473152D01*
X161745085Y-127696485D02*
X161776990Y-127728390D01*
X161745085Y-127760295D01*
X161713180Y-127728390D01*
X161745085Y-127696485D01*
X161745085Y-127760295D01*
X161745085Y-127345533D02*
X161776990Y-127377438D01*
X161745085Y-127409342D01*
X161713180Y-127377438D01*
X161745085Y-127345533D01*
X161745085Y-127409342D01*
X162032228Y-127154104D02*
X162064133Y-127122200D01*
X162127942Y-127090295D01*
X162287466Y-127090295D01*
X162351276Y-127122200D01*
X162383180Y-127154104D01*
X162415085Y-127217914D01*
X162415085Y-127281723D01*
X162383180Y-127377438D01*
X162000323Y-127760295D01*
X162415085Y-127760295D01*
X162989371Y-127090295D02*
X162861752Y-127090295D01*
X162797942Y-127122200D01*
X162766038Y-127154104D01*
X162702228Y-127249819D01*
X162670323Y-127377438D01*
X162670323Y-127632676D01*
X162702228Y-127696485D01*
X162734133Y-127728390D01*
X162797942Y-127760295D01*
X162925561Y-127760295D01*
X162989371Y-127728390D01*
X163021276Y-127696485D01*
X163053180Y-127632676D01*
X163053180Y-127473152D01*
X163021276Y-127409342D01*
X162989371Y-127377438D01*
X162925561Y-127345533D01*
X162797942Y-127345533D01*
X162734133Y-127377438D01*
X162702228Y-127409342D01*
X162670323Y-127473152D01*
X130816428Y-120703095D02*
X130816428Y-120033095D01*
X131518333Y-120703095D02*
X131295000Y-120384047D01*
X131135476Y-120703095D02*
X131135476Y-120033095D01*
X131390714Y-120033095D01*
X131454523Y-120065000D01*
X131486428Y-120096904D01*
X131518333Y-120160714D01*
X131518333Y-120256428D01*
X131486428Y-120320238D01*
X131454523Y-120352142D01*
X131390714Y-120384047D01*
X131135476Y-120384047D01*
X132252142Y-120766904D02*
X132188333Y-120735000D01*
X132124523Y-120671190D01*
X132028809Y-120575476D01*
X131965000Y-120543571D01*
X131901190Y-120543571D01*
X131933095Y-120703095D02*
X131869285Y-120671190D01*
X131805476Y-120607380D01*
X131773571Y-120479761D01*
X131773571Y-120256428D01*
X131805476Y-120128809D01*
X131869285Y-120065000D01*
X131933095Y-120033095D01*
X132060714Y-120033095D01*
X132124523Y-120065000D01*
X132188333Y-120128809D01*
X132220238Y-120256428D01*
X132220238Y-120479761D01*
X132188333Y-120607380D01*
X132124523Y-120671190D01*
X132060714Y-120703095D01*
X131933095Y-120703095D01*
X132507380Y-120639285D02*
X132539285Y-120671190D01*
X132507380Y-120703095D01*
X132475476Y-120671190D01*
X132507380Y-120639285D01*
X132507380Y-120703095D01*
X132507380Y-120288333D02*
X132539285Y-120320238D01*
X132507380Y-120352142D01*
X132475476Y-120320238D01*
X132507380Y-120288333D01*
X132507380Y-120352142D01*
X132794523Y-120096904D02*
X132826428Y-120065000D01*
X132890238Y-120033095D01*
X133049761Y-120033095D01*
X133113571Y-120065000D01*
X133145476Y-120096904D01*
X133177380Y-120160714D01*
X133177380Y-120224523D01*
X133145476Y-120320238D01*
X132762619Y-120703095D01*
X133177380Y-120703095D01*
X133432619Y-120096904D02*
X133464523Y-120065000D01*
X133528333Y-120033095D01*
X133687857Y-120033095D01*
X133751666Y-120065000D01*
X133783571Y-120096904D01*
X133815476Y-120160714D01*
X133815476Y-120224523D01*
X133783571Y-120320238D01*
X133400714Y-120703095D01*
X133815476Y-120703095D01*
D11*
X110047619Y-123992380D02*
X110047619Y-124801904D01*
X110095238Y-124897142D01*
X110142857Y-124944761D01*
X110238095Y-124992380D01*
X110428571Y-124992380D01*
X110523809Y-124944761D01*
X110571428Y-124897142D01*
X110619047Y-124801904D01*
X110619047Y-123992380D01*
X111047619Y-124944761D02*
X111190476Y-124992380D01*
X111428571Y-124992380D01*
X111523809Y-124944761D01*
X111571428Y-124897142D01*
X111619047Y-124801904D01*
X111619047Y-124706666D01*
X111571428Y-124611428D01*
X111523809Y-124563809D01*
X111428571Y-124516190D01*
X111238095Y-124468571D01*
X111142857Y-124420952D01*
X111095238Y-124373333D01*
X111047619Y-124278095D01*
X111047619Y-124182857D01*
X111095238Y-124087619D01*
X111142857Y-124040000D01*
X111238095Y-123992380D01*
X111476190Y-123992380D01*
X111619047Y-124040000D01*
X112380952Y-124468571D02*
X112523809Y-124516190D01*
X112571428Y-124563809D01*
X112619047Y-124659047D01*
X112619047Y-124801904D01*
X112571428Y-124897142D01*
X112523809Y-124944761D01*
X112428571Y-124992380D01*
X112047619Y-124992380D01*
X112047619Y-123992380D01*
X112380952Y-123992380D01*
X112476190Y-124040000D01*
X112523809Y-124087619D01*
X112571428Y-124182857D01*
X112571428Y-124278095D01*
X112523809Y-124373333D01*
X112476190Y-124420952D01*
X112380952Y-124468571D01*
X112047619Y-124468571D01*
X113761904Y-123944761D02*
X112904761Y-125230476D01*
X114047619Y-124944761D02*
X114190476Y-124992380D01*
X114428571Y-124992380D01*
X114523809Y-124944761D01*
X114571428Y-124897142D01*
X114619047Y-124801904D01*
X114619047Y-124706666D01*
X114571428Y-124611428D01*
X114523809Y-124563809D01*
X114428571Y-124516190D01*
X114238095Y-124468571D01*
X114142857Y-124420952D01*
X114095238Y-124373333D01*
X114047619Y-124278095D01*
X114047619Y-124182857D01*
X114095238Y-124087619D01*
X114142857Y-124040000D01*
X114238095Y-123992380D01*
X114476190Y-123992380D01*
X114619047Y-124040000D01*
X115428571Y-124944761D02*
X115333333Y-124992380D01*
X115142857Y-124992380D01*
X115047619Y-124944761D01*
X115000000Y-124849523D01*
X115000000Y-124468571D01*
X115047619Y-124373333D01*
X115142857Y-124325714D01*
X115333333Y-124325714D01*
X115428571Y-124373333D01*
X115476190Y-124468571D01*
X115476190Y-124563809D01*
X115000000Y-124659047D01*
X115904761Y-124992380D02*
X115904761Y-124325714D01*
X115904761Y-124516190D02*
X115952380Y-124420952D01*
X116000000Y-124373333D01*
X116095238Y-124325714D01*
X116190476Y-124325714D01*
X116523809Y-124992380D02*
X116523809Y-124325714D01*
X116523809Y-123992380D02*
X116476190Y-124040000D01*
X116523809Y-124087619D01*
X116571428Y-124040000D01*
X116523809Y-123992380D01*
X116523809Y-124087619D01*
X117428571Y-124992380D02*
X117428571Y-124468571D01*
X117380952Y-124373333D01*
X117285714Y-124325714D01*
X117095238Y-124325714D01*
X117000000Y-124373333D01*
X117428571Y-124944761D02*
X117333333Y-124992380D01*
X117095238Y-124992380D01*
X117000000Y-124944761D01*
X116952380Y-124849523D01*
X116952380Y-124754285D01*
X117000000Y-124659047D01*
X117095238Y-124611428D01*
X117333333Y-124611428D01*
X117428571Y-124563809D01*
X118047619Y-124992380D02*
X117952380Y-124944761D01*
X117904761Y-124849523D01*
X117904761Y-123992380D01*
X112047619Y-125602380D02*
X112619047Y-125602380D01*
X112333333Y-126602380D02*
X112333333Y-125602380D01*
X112857142Y-125602380D02*
X113523809Y-126602380D01*
X113523809Y-125602380D02*
X112857142Y-126602380D01*
X113904761Y-126507142D02*
X113952380Y-126554761D01*
X113904761Y-126602380D01*
X113857142Y-126554761D01*
X113904761Y-126507142D01*
X113904761Y-126602380D01*
X113904761Y-125983333D02*
X113952380Y-126030952D01*
X113904761Y-126078571D01*
X113857142Y-126030952D01*
X113904761Y-125983333D01*
X113904761Y-126078571D01*
X114904761Y-126602380D02*
X114333333Y-126602380D01*
X114619047Y-126602380D02*
X114619047Y-125602380D01*
X114523809Y-125745238D01*
X114428571Y-125840476D01*
X114333333Y-125888095D01*
X115761904Y-125935714D02*
X115761904Y-126602380D01*
X115523809Y-125554761D02*
X115285714Y-126269047D01*
X115904761Y-126269047D01*
X112642857Y-128212380D02*
X112309523Y-127736190D01*
X112071428Y-128212380D02*
X112071428Y-127212380D01*
X112452380Y-127212380D01*
X112547619Y-127260000D01*
X112595238Y-127307619D01*
X112642857Y-127402857D01*
X112642857Y-127545714D01*
X112595238Y-127640952D01*
X112547619Y-127688571D01*
X112452380Y-127736190D01*
X112071428Y-127736190D01*
X112976190Y-127212380D02*
X113642857Y-128212380D01*
X113642857Y-127212380D02*
X112976190Y-128212380D01*
X114023809Y-128117142D02*
X114071428Y-128164761D01*
X114023809Y-128212380D01*
X113976190Y-128164761D01*
X114023809Y-128117142D01*
X114023809Y-128212380D01*
X114023809Y-127593333D02*
X114071428Y-127640952D01*
X114023809Y-127688571D01*
X113976190Y-127640952D01*
X114023809Y-127593333D01*
X114023809Y-127688571D01*
X115023809Y-128212380D02*
X114452380Y-128212380D01*
X114738095Y-128212380D02*
X114738095Y-127212380D01*
X114642857Y-127355238D01*
X114547619Y-127450476D01*
X114452380Y-127498095D01*
X115928571Y-127212380D02*
X115452380Y-127212380D01*
X115404761Y-127688571D01*
X115452380Y-127640952D01*
X115547619Y-127593333D01*
X115785714Y-127593333D01*
X115880952Y-127640952D01*
X115928571Y-127688571D01*
X115976190Y-127783809D01*
X115976190Y-128021904D01*
X115928571Y-128117142D01*
X115880952Y-128164761D01*
X115785714Y-128212380D01*
X115547619Y-128212380D01*
X115452380Y-128164761D01*
X115404761Y-128117142D01*
D10*
X105538333Y-116253095D02*
X105315000Y-115934047D01*
X105155476Y-116253095D02*
X105155476Y-115583095D01*
X105410714Y-115583095D01*
X105474523Y-115615000D01*
X105506428Y-115646904D01*
X105538333Y-115710714D01*
X105538333Y-115806428D01*
X105506428Y-115870238D01*
X105474523Y-115902142D01*
X105410714Y-115934047D01*
X105155476Y-115934047D01*
X105761666Y-115583095D02*
X106208333Y-116253095D01*
X106208333Y-115583095D02*
X105761666Y-116253095D01*
D11*
X106751619Y-93670380D02*
X106418285Y-93194190D01*
X106180190Y-93670380D02*
X106180190Y-92670380D01*
X106561142Y-92670380D01*
X106656380Y-92718000D01*
X106704000Y-92765619D01*
X106751619Y-92860857D01*
X106751619Y-93003714D01*
X106704000Y-93098952D01*
X106656380Y-93146571D01*
X106561142Y-93194190D01*
X106180190Y-93194190D01*
X107180190Y-93146571D02*
X107513523Y-93146571D01*
X107656380Y-93670380D02*
X107180190Y-93670380D01*
X107180190Y-92670380D01*
X107656380Y-92670380D01*
X108037333Y-93622761D02*
X108180190Y-93670380D01*
X108418285Y-93670380D01*
X108513523Y-93622761D01*
X108561142Y-93575142D01*
X108608761Y-93479904D01*
X108608761Y-93384666D01*
X108561142Y-93289428D01*
X108513523Y-93241809D01*
X108418285Y-93194190D01*
X108227809Y-93146571D01*
X108132571Y-93098952D01*
X108084952Y-93051333D01*
X108037333Y-92956095D01*
X108037333Y-92860857D01*
X108084952Y-92765619D01*
X108132571Y-92718000D01*
X108227809Y-92670380D01*
X108465904Y-92670380D01*
X108608761Y-92718000D01*
X109037333Y-93146571D02*
X109370666Y-93146571D01*
X109513523Y-93670380D02*
X109037333Y-93670380D01*
X109037333Y-92670380D01*
X109513523Y-92670380D01*
X109799238Y-92670380D02*
X110370666Y-92670380D01*
X110084952Y-93670380D02*
X110084952Y-92670380D01*
D10*
X141791476Y-120033095D02*
X142206238Y-120033095D01*
X141982904Y-120288333D01*
X142078619Y-120288333D01*
X142142428Y-120320238D01*
X142174333Y-120352142D01*
X142206238Y-120415952D01*
X142206238Y-120575476D01*
X142174333Y-120639285D01*
X142142428Y-120671190D01*
X142078619Y-120703095D01*
X141887190Y-120703095D01*
X141823380Y-120671190D01*
X141791476Y-120639285D01*
X142397666Y-120033095D02*
X142621000Y-120703095D01*
X142844333Y-120033095D01*
X143003857Y-120033095D02*
X143418619Y-120033095D01*
X143195285Y-120288333D01*
X143291000Y-120288333D01*
X143354809Y-120320238D01*
X143386714Y-120352142D01*
X143418619Y-120415952D01*
X143418619Y-120575476D01*
X143386714Y-120639285D01*
X143354809Y-120671190D01*
X143291000Y-120703095D01*
X143099571Y-120703095D01*
X143035761Y-120671190D01*
X143003857Y-120639285D01*
D11*
X160837619Y-109253785D02*
X160790000Y-109206166D01*
X160742380Y-109110928D01*
X160742380Y-108872833D01*
X160790000Y-108777595D01*
X160837619Y-108729976D01*
X160932857Y-108682357D01*
X161028095Y-108682357D01*
X161170952Y-108729976D01*
X161742380Y-109301404D01*
X161742380Y-108682357D01*
X160742380Y-107825214D02*
X160742380Y-108015690D01*
X160790000Y-108110928D01*
X160837619Y-108158547D01*
X160980476Y-108253785D01*
X161170952Y-108301404D01*
X161551904Y-108301404D01*
X161647142Y-108253785D01*
X161694761Y-108206166D01*
X161742380Y-108110928D01*
X161742380Y-107920452D01*
X161694761Y-107825214D01*
X161647142Y-107777595D01*
X161551904Y-107729976D01*
X161313809Y-107729976D01*
X161218571Y-107777595D01*
X161170952Y-107825214D01*
X161123333Y-107920452D01*
X161123333Y-108110928D01*
X161170952Y-108206166D01*
X161218571Y-108253785D01*
X161313809Y-108301404D01*
D10*
X161649371Y-122042200D02*
X161585561Y-122010295D01*
X161489847Y-122010295D01*
X161394133Y-122042200D01*
X161330323Y-122106009D01*
X161298419Y-122169819D01*
X161266514Y-122297438D01*
X161266514Y-122393152D01*
X161298419Y-122520771D01*
X161330323Y-122584580D01*
X161394133Y-122648390D01*
X161489847Y-122680295D01*
X161553657Y-122680295D01*
X161649371Y-122648390D01*
X161681276Y-122616485D01*
X161681276Y-122393152D01*
X161553657Y-122393152D01*
X161968419Y-122680295D02*
X161968419Y-122010295D01*
X162351276Y-122680295D01*
X162351276Y-122010295D01*
X162670323Y-122680295D02*
X162670323Y-122010295D01*
X162829847Y-122010295D01*
X162925561Y-122042200D01*
X162989371Y-122106009D01*
X163021276Y-122169819D01*
X163053180Y-122297438D01*
X163053180Y-122393152D01*
X163021276Y-122520771D01*
X162989371Y-122584580D01*
X162925561Y-122648390D01*
X162829847Y-122680295D01*
X162670323Y-122680295D01*
D11*
X152037809Y-116385714D02*
X152037809Y-117052380D01*
X152037809Y-116480952D02*
X152085428Y-116433333D01*
X152180666Y-116385714D01*
X152323523Y-116385714D01*
X152418761Y-116433333D01*
X152466380Y-116528571D01*
X152466380Y-117052380D01*
X153513999Y-117052380D02*
X153180666Y-116576190D01*
X152942570Y-117052380D02*
X152942570Y-116052380D01*
X153323523Y-116052380D01*
X153418761Y-116100000D01*
X153466380Y-116147619D01*
X153513999Y-116242857D01*
X153513999Y-116385714D01*
X153466380Y-116480952D01*
X153418761Y-116528571D01*
X153323523Y-116576190D01*
X152942570Y-116576190D01*
X154275904Y-116528571D02*
X153942570Y-116528571D01*
X153942570Y-117052380D02*
X153942570Y-116052380D01*
X154418761Y-116052380D01*
X154752094Y-116147619D02*
X154799713Y-116100000D01*
X154894951Y-116052380D01*
X155133047Y-116052380D01*
X155228285Y-116100000D01*
X155275904Y-116147619D01*
X155323523Y-116242857D01*
X155323523Y-116338095D01*
X155275904Y-116480952D01*
X154704475Y-117052380D01*
X155323523Y-117052380D01*
X156180666Y-116385714D02*
X156180666Y-117052380D01*
X155942570Y-116004761D02*
X155704475Y-116719047D01*
X156323523Y-116719047D01*
X157180666Y-117052380D02*
X156704475Y-117052380D01*
X156704475Y-116052380D01*
X157704475Y-116052380D02*
X157799713Y-116052380D01*
X157894951Y-116100000D01*
X157942570Y-116147619D01*
X157990190Y-116242857D01*
X158037809Y-116433333D01*
X158037809Y-116671428D01*
X157990190Y-116861904D01*
X157942570Y-116957142D01*
X157894951Y-117004761D01*
X157799713Y-117052380D01*
X157704475Y-117052380D01*
X157609237Y-117004761D01*
X157561618Y-116957142D01*
X157513999Y-116861904D01*
X157466380Y-116671428D01*
X157466380Y-116433333D01*
X157513999Y-116242857D01*
X157561618Y-116147619D01*
X157609237Y-116100000D01*
X157704475Y-116052380D01*
X158990190Y-117052380D02*
X158418761Y-117052380D01*
X158704475Y-117052380D02*
X158704475Y-116052380D01*
X158609237Y-116195238D01*
X158513999Y-116290476D01*
X158418761Y-116338095D01*
D10*
X134547523Y-120699095D02*
X134547523Y-120029095D01*
X134770857Y-120507666D01*
X134994190Y-120029095D01*
X134994190Y-120699095D01*
X135440857Y-120029095D02*
X135568476Y-120029095D01*
X135632285Y-120061000D01*
X135696095Y-120124809D01*
X135728000Y-120252428D01*
X135728000Y-120475761D01*
X135696095Y-120603380D01*
X135632285Y-120667190D01*
X135568476Y-120699095D01*
X135440857Y-120699095D01*
X135377047Y-120667190D01*
X135313238Y-120603380D01*
X135281333Y-120475761D01*
X135281333Y-120252428D01*
X135313238Y-120124809D01*
X135377047Y-120061000D01*
X135440857Y-120029095D01*
X135983238Y-120667190D02*
X136078952Y-120699095D01*
X136238476Y-120699095D01*
X136302285Y-120667190D01*
X136334190Y-120635285D01*
X136366095Y-120571476D01*
X136366095Y-120507666D01*
X136334190Y-120443857D01*
X136302285Y-120411952D01*
X136238476Y-120380047D01*
X136110857Y-120348142D01*
X136047047Y-120316238D01*
X136015142Y-120284333D01*
X135983238Y-120220523D01*
X135983238Y-120156714D01*
X136015142Y-120092904D01*
X136047047Y-120061000D01*
X136110857Y-120029095D01*
X136270380Y-120029095D01*
X136366095Y-120061000D01*
X136653238Y-120699095D02*
X136653238Y-120029095D01*
X136972285Y-120635285D02*
X137004190Y-120667190D01*
X136972285Y-120699095D01*
X136940380Y-120667190D01*
X136972285Y-120635285D01*
X136972285Y-120699095D01*
X136972285Y-120284333D02*
X137004190Y-120316238D01*
X136972285Y-120348142D01*
X136940380Y-120316238D01*
X136972285Y-120284333D01*
X136972285Y-120348142D01*
X137642285Y-120699095D02*
X137259428Y-120699095D01*
X137450857Y-120699095D02*
X137450857Y-120029095D01*
X137387047Y-120124809D01*
X137323238Y-120188619D01*
X137259428Y-120220523D01*
X138057047Y-120029095D02*
X138120857Y-120029095D01*
X138184666Y-120061000D01*
X138216571Y-120092904D01*
X138248476Y-120156714D01*
X138280380Y-120284333D01*
X138280380Y-120443857D01*
X138248476Y-120571476D01*
X138216571Y-120635285D01*
X138184666Y-120667190D01*
X138120857Y-120699095D01*
X138057047Y-120699095D01*
X137993238Y-120667190D01*
X137961333Y-120635285D01*
X137929428Y-120571476D01*
X137897523Y-120443857D01*
X137897523Y-120284333D01*
X137929428Y-120156714D01*
X137961333Y-120092904D01*
X137993238Y-120061000D01*
X138057047Y-120029095D01*
D11*
X151582380Y-108682357D02*
X151582380Y-109253785D01*
X151582380Y-108968071D02*
X150582380Y-108968071D01*
X150725238Y-109063309D01*
X150820476Y-109158547D01*
X150868095Y-109253785D01*
X151010952Y-108110928D02*
X150963333Y-108206166D01*
X150915714Y-108253785D01*
X150820476Y-108301404D01*
X150772857Y-108301404D01*
X150677619Y-108253785D01*
X150630000Y-108206166D01*
X150582380Y-108110928D01*
X150582380Y-107920452D01*
X150630000Y-107825214D01*
X150677619Y-107777595D01*
X150772857Y-107729976D01*
X150820476Y-107729976D01*
X150915714Y-107777595D01*
X150963333Y-107825214D01*
X151010952Y-107920452D01*
X151010952Y-108110928D01*
X151058571Y-108206166D01*
X151106190Y-108253785D01*
X151201428Y-108301404D01*
X151391904Y-108301404D01*
X151487142Y-108253785D01*
X151534761Y-108206166D01*
X151582380Y-108110928D01*
X151582380Y-107920452D01*
X151534761Y-107825214D01*
X151487142Y-107777595D01*
X151391904Y-107729976D01*
X151201428Y-107729976D01*
X151106190Y-107777595D01*
X151058571Y-107825214D01*
X151010952Y-107920452D01*
X168032180Y-127980628D02*
X168841704Y-127980628D01*
X168936942Y-127933009D01*
X168984561Y-127885390D01*
X169032180Y-127790152D01*
X169032180Y-127599676D01*
X168984561Y-127504438D01*
X168936942Y-127456819D01*
X168841704Y-127409200D01*
X168032180Y-127409200D01*
X169032180Y-126790152D02*
X168984561Y-126885390D01*
X168889323Y-126933009D01*
X168032180Y-126933009D01*
X168365514Y-126552057D02*
X168365514Y-126171104D01*
X168032180Y-126409200D02*
X168889323Y-126409200D01*
X168984561Y-126361580D01*
X169032180Y-126266342D01*
X169032180Y-126171104D01*
X169032180Y-125837771D02*
X168365514Y-125837771D01*
X168555990Y-125837771D02*
X168460752Y-125790152D01*
X168413133Y-125742533D01*
X168365514Y-125647295D01*
X168365514Y-125552057D01*
X169032180Y-124790152D02*
X168508371Y-124790152D01*
X168413133Y-124837771D01*
X168365514Y-124933009D01*
X168365514Y-125123485D01*
X168413133Y-125218723D01*
X168984561Y-124790152D02*
X169032180Y-124885390D01*
X169032180Y-125123485D01*
X168984561Y-125218723D01*
X168889323Y-125266342D01*
X168794085Y-125266342D01*
X168698847Y-125218723D01*
X168651228Y-125123485D01*
X168651228Y-124885390D01*
X168603609Y-124790152D01*
X168984561Y-124361580D02*
X169032180Y-124266342D01*
X169032180Y-124075866D01*
X168984561Y-123980628D01*
X168889323Y-123933009D01*
X168841704Y-123933009D01*
X168746466Y-123980628D01*
X168698847Y-124075866D01*
X168698847Y-124218723D01*
X168651228Y-124313961D01*
X168555990Y-124361580D01*
X168508371Y-124361580D01*
X168413133Y-124313961D01*
X168365514Y-124218723D01*
X168365514Y-124075866D01*
X168413133Y-123980628D01*
X169032180Y-123361580D02*
X168984561Y-123456819D01*
X168936942Y-123504438D01*
X168841704Y-123552057D01*
X168555990Y-123552057D01*
X168460752Y-123504438D01*
X168413133Y-123456819D01*
X168365514Y-123361580D01*
X168365514Y-123218723D01*
X168413133Y-123123485D01*
X168460752Y-123075866D01*
X168555990Y-123028247D01*
X168841704Y-123028247D01*
X168936942Y-123075866D01*
X168984561Y-123123485D01*
X169032180Y-123218723D01*
X169032180Y-123361580D01*
X168365514Y-122599676D02*
X169032180Y-122599676D01*
X168460752Y-122599676D02*
X168413133Y-122552057D01*
X168365514Y-122456819D01*
X168365514Y-122313961D01*
X168413133Y-122218723D01*
X168508371Y-122171104D01*
X169032180Y-122171104D01*
X169032180Y-121694914D02*
X168365514Y-121694914D01*
X168032180Y-121694914D02*
X168079800Y-121742533D01*
X168127419Y-121694914D01*
X168079800Y-121647295D01*
X168032180Y-121694914D01*
X168127419Y-121694914D01*
X168984561Y-120790152D02*
X169032180Y-120885390D01*
X169032180Y-121075866D01*
X168984561Y-121171104D01*
X168936942Y-121218723D01*
X168841704Y-121266342D01*
X168555990Y-121266342D01*
X168460752Y-121218723D01*
X168413133Y-121171104D01*
X168365514Y-121075866D01*
X168365514Y-120885390D01*
X168413133Y-120790152D01*
X128992380Y-98565642D02*
X128992380Y-97898976D01*
X129992380Y-98327547D01*
X124007619Y-108301404D02*
X123960000Y-108253785D01*
X123912380Y-108158547D01*
X123912380Y-107920452D01*
X123960000Y-107825214D01*
X124007619Y-107777595D01*
X124102857Y-107729976D01*
X124198095Y-107729976D01*
X124340952Y-107777595D01*
X124912380Y-108349023D01*
X124912380Y-107729976D01*
D10*
X134738952Y-118967190D02*
X134834666Y-118999095D01*
X134994190Y-118999095D01*
X135058000Y-118967190D01*
X135089904Y-118935285D01*
X135121809Y-118871476D01*
X135121809Y-118807666D01*
X135089904Y-118743857D01*
X135058000Y-118711952D01*
X134994190Y-118680047D01*
X134866571Y-118648142D01*
X134802761Y-118616238D01*
X134770857Y-118584333D01*
X134738952Y-118520523D01*
X134738952Y-118456714D01*
X134770857Y-118392904D01*
X134802761Y-118361000D01*
X134866571Y-118329095D01*
X135026095Y-118329095D01*
X135121809Y-118361000D01*
X135791809Y-118935285D02*
X135759904Y-118967190D01*
X135664190Y-118999095D01*
X135600380Y-118999095D01*
X135504666Y-118967190D01*
X135440857Y-118903380D01*
X135408952Y-118839571D01*
X135377047Y-118711952D01*
X135377047Y-118616238D01*
X135408952Y-118488619D01*
X135440857Y-118424809D01*
X135504666Y-118361000D01*
X135600380Y-118329095D01*
X135664190Y-118329095D01*
X135759904Y-118361000D01*
X135791809Y-118392904D01*
X136078952Y-118999095D02*
X136078952Y-118329095D01*
X136461809Y-118999095D02*
X136174666Y-118616238D01*
X136461809Y-118329095D02*
X136078952Y-118711952D01*
X136748952Y-118935285D02*
X136780857Y-118967190D01*
X136748952Y-118999095D01*
X136717047Y-118967190D01*
X136748952Y-118935285D01*
X136748952Y-118999095D01*
X136748952Y-118584333D02*
X136780857Y-118616238D01*
X136748952Y-118648142D01*
X136717047Y-118616238D01*
X136748952Y-118584333D01*
X136748952Y-118648142D01*
X137418952Y-118999095D02*
X137036095Y-118999095D01*
X137227523Y-118999095D02*
X137227523Y-118329095D01*
X137163714Y-118424809D01*
X137099904Y-118488619D01*
X137036095Y-118520523D01*
X138057047Y-118999095D02*
X137674190Y-118999095D01*
X137865619Y-118999095D02*
X137865619Y-118329095D01*
X137801809Y-118424809D01*
X137738000Y-118488619D01*
X137674190Y-118520523D01*
X139363761Y-120635285D02*
X139331857Y-120667190D01*
X139236142Y-120699095D01*
X139172333Y-120699095D01*
X139076619Y-120667190D01*
X139012809Y-120603380D01*
X138980904Y-120539571D01*
X138949000Y-120411952D01*
X138949000Y-120316238D01*
X138980904Y-120188619D01*
X139012809Y-120124809D01*
X139076619Y-120061000D01*
X139172333Y-120029095D01*
X139236142Y-120029095D01*
X139331857Y-120061000D01*
X139363761Y-120092904D01*
X139619000Y-120667190D02*
X139714714Y-120699095D01*
X139874238Y-120699095D01*
X139938047Y-120667190D01*
X139969952Y-120635285D01*
X140001857Y-120571476D01*
X140001857Y-120507666D01*
X139969952Y-120443857D01*
X139938047Y-120411952D01*
X139874238Y-120380047D01*
X139746619Y-120348142D01*
X139682809Y-120316238D01*
X139650904Y-120284333D01*
X139619000Y-120220523D01*
X139619000Y-120156714D01*
X139650904Y-120092904D01*
X139682809Y-120061000D01*
X139746619Y-120029095D01*
X139906142Y-120029095D01*
X140001857Y-120061000D01*
X140289000Y-120635285D02*
X140320904Y-120667190D01*
X140289000Y-120699095D01*
X140257095Y-120667190D01*
X140289000Y-120635285D01*
X140289000Y-120699095D01*
X140289000Y-120284333D02*
X140320904Y-120316238D01*
X140289000Y-120348142D01*
X140257095Y-120316238D01*
X140289000Y-120284333D01*
X140289000Y-120348142D01*
X140703761Y-120316238D02*
X140639952Y-120284333D01*
X140608047Y-120252428D01*
X140576142Y-120188619D01*
X140576142Y-120156714D01*
X140608047Y-120092904D01*
X140639952Y-120061000D01*
X140703761Y-120029095D01*
X140831380Y-120029095D01*
X140895190Y-120061000D01*
X140927095Y-120092904D01*
X140959000Y-120156714D01*
X140959000Y-120188619D01*
X140927095Y-120252428D01*
X140895190Y-120284333D01*
X140831380Y-120316238D01*
X140703761Y-120316238D01*
X140639952Y-120348142D01*
X140608047Y-120380047D01*
X140576142Y-120443857D01*
X140576142Y-120571476D01*
X140608047Y-120635285D01*
X140639952Y-120667190D01*
X140703761Y-120699095D01*
X140831380Y-120699095D01*
X140895190Y-120667190D01*
X140927095Y-120635285D01*
X140959000Y-120571476D01*
X140959000Y-120443857D01*
X140927095Y-120380047D01*
X140895190Y-120348142D01*
X140831380Y-120316238D01*
D11*
X158297619Y-109253785D02*
X158250000Y-109206166D01*
X158202380Y-109110928D01*
X158202380Y-108872833D01*
X158250000Y-108777595D01*
X158297619Y-108729976D01*
X158392857Y-108682357D01*
X158488095Y-108682357D01*
X158630952Y-108729976D01*
X159202380Y-109301404D01*
X159202380Y-108682357D01*
X158535714Y-107825214D02*
X159202380Y-107825214D01*
X158154761Y-108063309D02*
X158869047Y-108301404D01*
X158869047Y-107682357D01*
D10*
X159255523Y-118361000D02*
X159191714Y-118329095D01*
X159096000Y-118329095D01*
X159000285Y-118361000D01*
X158936476Y-118424809D01*
X158904571Y-118488619D01*
X158872666Y-118616238D01*
X158872666Y-118711952D01*
X158904571Y-118839571D01*
X158936476Y-118903380D01*
X159000285Y-118967190D01*
X159096000Y-118999095D01*
X159159809Y-118999095D01*
X159255523Y-118967190D01*
X159287428Y-118935285D01*
X159287428Y-118711952D01*
X159159809Y-118711952D01*
X159574571Y-118999095D02*
X159574571Y-118329095D01*
X159957428Y-118999095D01*
X159957428Y-118329095D01*
X160276476Y-118999095D02*
X160276476Y-118329095D01*
X160436000Y-118329095D01*
X160531714Y-118361000D01*
X160595523Y-118424809D01*
X160627428Y-118488619D01*
X160659333Y-118616238D01*
X160659333Y-118711952D01*
X160627428Y-118839571D01*
X160595523Y-118903380D01*
X160531714Y-118967190D01*
X160436000Y-118999095D01*
X160276476Y-118999095D01*
D11*
X155757619Y-109253785D02*
X155710000Y-109206166D01*
X155662380Y-109110928D01*
X155662380Y-108872833D01*
X155710000Y-108777595D01*
X155757619Y-108729976D01*
X155852857Y-108682357D01*
X155948095Y-108682357D01*
X156090952Y-108729976D01*
X156662380Y-109301404D01*
X156662380Y-108682357D01*
X155757619Y-108301404D02*
X155710000Y-108253785D01*
X155662380Y-108158547D01*
X155662380Y-107920452D01*
X155710000Y-107825214D01*
X155757619Y-107777595D01*
X155852857Y-107729976D01*
X155948095Y-107729976D01*
X156090952Y-107777595D01*
X156662380Y-108349023D01*
X156662380Y-107729976D01*
D10*
X127237619Y-114650666D02*
X127556666Y-114650666D01*
X127173809Y-114842095D02*
X127397142Y-114172095D01*
X127620476Y-114842095D01*
X127843809Y-114842095D02*
X127843809Y-114172095D01*
X128003333Y-114172095D01*
X128099047Y-114204000D01*
X128162857Y-114267809D01*
X128194761Y-114331619D01*
X128226666Y-114459238D01*
X128226666Y-114554952D01*
X128194761Y-114682571D01*
X128162857Y-114746380D01*
X128099047Y-114810190D01*
X128003333Y-114842095D01*
X127843809Y-114842095D01*
X128641428Y-114172095D02*
X128705238Y-114172095D01*
X128769047Y-114204000D01*
X128800952Y-114235904D01*
X128832857Y-114299714D01*
X128864761Y-114427333D01*
X128864761Y-114586857D01*
X128832857Y-114714476D01*
X128800952Y-114778285D01*
X128769047Y-114810190D01*
X128705238Y-114842095D01*
X128641428Y-114842095D01*
X128577619Y-114810190D01*
X128545714Y-114778285D01*
X128513809Y-114714476D01*
X128481904Y-114586857D01*
X128481904Y-114427333D01*
X128513809Y-114299714D01*
X128545714Y-114235904D01*
X128577619Y-114204000D01*
X128641428Y-114172095D01*
X129151904Y-114778285D02*
X129183809Y-114810190D01*
X129151904Y-114842095D01*
X129120000Y-114810190D01*
X129151904Y-114778285D01*
X129151904Y-114842095D01*
X129151904Y-114427333D02*
X129183809Y-114459238D01*
X129151904Y-114491142D01*
X129120000Y-114459238D01*
X129151904Y-114427333D01*
X129151904Y-114491142D01*
X129407142Y-114459238D02*
X130045238Y-114459238D01*
X129534761Y-114650666D02*
X129917619Y-114650666D01*
X129726190Y-114172095D02*
X129726190Y-114459238D01*
X129790000Y-114842095D02*
X129662380Y-114842095D01*
X163495000Y-109038428D02*
X163463095Y-109102238D01*
X163463095Y-109197952D01*
X163495000Y-109293666D01*
X163558809Y-109357476D01*
X163622619Y-109389380D01*
X163750238Y-109421285D01*
X163845952Y-109421285D01*
X163973571Y-109389380D01*
X164037380Y-109357476D01*
X164101190Y-109293666D01*
X164133095Y-109197952D01*
X164133095Y-109134142D01*
X164101190Y-109038428D01*
X164069285Y-109006523D01*
X163845952Y-109006523D01*
X163845952Y-109134142D01*
X164133095Y-108719380D02*
X163463095Y-108719380D01*
X164133095Y-108336523D01*
X163463095Y-108336523D01*
X164133095Y-108017476D02*
X163463095Y-108017476D01*
X163463095Y-107857952D01*
X163495000Y-107762238D01*
X163558809Y-107698428D01*
X163622619Y-107666523D01*
X163750238Y-107634619D01*
X163845952Y-107634619D01*
X163973571Y-107666523D01*
X164037380Y-107698428D01*
X164101190Y-107762238D01*
X164133095Y-107857952D01*
X164133095Y-108017476D01*
X119045000Y-109038428D02*
X119013095Y-109102238D01*
X119013095Y-109197952D01*
X119045000Y-109293666D01*
X119108809Y-109357476D01*
X119172619Y-109389380D01*
X119300238Y-109421285D01*
X119395952Y-109421285D01*
X119523571Y-109389380D01*
X119587380Y-109357476D01*
X119651190Y-109293666D01*
X119683095Y-109197952D01*
X119683095Y-109134142D01*
X119651190Y-109038428D01*
X119619285Y-109006523D01*
X119395952Y-109006523D01*
X119395952Y-109134142D01*
X119683095Y-108719380D02*
X119013095Y-108719380D01*
X119683095Y-108336523D01*
X119013095Y-108336523D01*
X119683095Y-108017476D02*
X119013095Y-108017476D01*
X119013095Y-107857952D01*
X119045000Y-107762238D01*
X119108809Y-107698428D01*
X119172619Y-107666523D01*
X119300238Y-107634619D01*
X119395952Y-107634619D01*
X119523571Y-107666523D01*
X119587380Y-107698428D01*
X119651190Y-107762238D01*
X119683095Y-107857952D01*
X119683095Y-108017476D01*
X166003095Y-98645285D02*
X166003095Y-98230523D01*
X166258333Y-98453857D01*
X166258333Y-98358142D01*
X166290238Y-98294333D01*
X166322142Y-98262428D01*
X166385952Y-98230523D01*
X166545476Y-98230523D01*
X166609285Y-98262428D01*
X166641190Y-98294333D01*
X166673095Y-98358142D01*
X166673095Y-98549571D01*
X166641190Y-98613380D01*
X166609285Y-98645285D01*
X166003095Y-98039095D02*
X166673095Y-97815761D01*
X166003095Y-97592428D01*
X166003095Y-97432904D02*
X166003095Y-97018142D01*
X166258333Y-97241476D01*
X166258333Y-97145761D01*
X166290238Y-97081952D01*
X166322142Y-97050047D01*
X166385952Y-97018142D01*
X166545476Y-97018142D01*
X166609285Y-97050047D01*
X166641190Y-97081952D01*
X166673095Y-97145761D01*
X166673095Y-97337190D01*
X166641190Y-97401000D01*
X166609285Y-97432904D01*
X127237619Y-124970190D02*
X127333333Y-125002095D01*
X127492857Y-125002095D01*
X127556666Y-124970190D01*
X127588571Y-124938285D01*
X127620476Y-124874476D01*
X127620476Y-124810666D01*
X127588571Y-124746857D01*
X127556666Y-124714952D01*
X127492857Y-124683047D01*
X127365238Y-124651142D01*
X127301428Y-124619238D01*
X127269523Y-124587333D01*
X127237619Y-124523523D01*
X127237619Y-124459714D01*
X127269523Y-124395904D01*
X127301428Y-124364000D01*
X127365238Y-124332095D01*
X127524761Y-124332095D01*
X127620476Y-124364000D01*
X128290476Y-124938285D02*
X128258571Y-124970190D01*
X128162857Y-125002095D01*
X128099047Y-125002095D01*
X128003333Y-124970190D01*
X127939523Y-124906380D01*
X127907619Y-124842571D01*
X127875714Y-124714952D01*
X127875714Y-124619238D01*
X127907619Y-124491619D01*
X127939523Y-124427809D01*
X128003333Y-124364000D01*
X128099047Y-124332095D01*
X128162857Y-124332095D01*
X128258571Y-124364000D01*
X128290476Y-124395904D01*
X128896666Y-125002095D02*
X128577619Y-125002095D01*
X128577619Y-124332095D01*
X129120000Y-124938285D02*
X129151904Y-124970190D01*
X129120000Y-125002095D01*
X129088095Y-124970190D01*
X129120000Y-124938285D01*
X129120000Y-125002095D01*
X129120000Y-124587333D02*
X129151904Y-124619238D01*
X129120000Y-124651142D01*
X129088095Y-124619238D01*
X129120000Y-124587333D01*
X129120000Y-124651142D01*
X129375238Y-124332095D02*
X129790000Y-124332095D01*
X129566666Y-124587333D01*
X129662380Y-124587333D01*
X129726190Y-124619238D01*
X129758095Y-124651142D01*
X129790000Y-124714952D01*
X129790000Y-124874476D01*
X129758095Y-124938285D01*
X129726190Y-124970190D01*
X129662380Y-125002095D01*
X129470952Y-125002095D01*
X129407142Y-124970190D01*
X129375238Y-124938285D01*
X147961428Y-120699095D02*
X147961428Y-120029095D01*
X148663333Y-120699095D02*
X148440000Y-120380047D01*
X148280476Y-120699095D02*
X148280476Y-120029095D01*
X148535714Y-120029095D01*
X148599523Y-120061000D01*
X148631428Y-120092904D01*
X148663333Y-120156714D01*
X148663333Y-120252428D01*
X148631428Y-120316238D01*
X148599523Y-120348142D01*
X148535714Y-120380047D01*
X148280476Y-120380047D01*
X149397142Y-120762904D02*
X149333333Y-120731000D01*
X149269523Y-120667190D01*
X149173809Y-120571476D01*
X149110000Y-120539571D01*
X149046190Y-120539571D01*
X149078095Y-120699095D02*
X149014285Y-120667190D01*
X148950476Y-120603380D01*
X148918571Y-120475761D01*
X148918571Y-120252428D01*
X148950476Y-120124809D01*
X149014285Y-120061000D01*
X149078095Y-120029095D01*
X149205714Y-120029095D01*
X149269523Y-120061000D01*
X149333333Y-120124809D01*
X149365238Y-120252428D01*
X149365238Y-120475761D01*
X149333333Y-120603380D01*
X149269523Y-120667190D01*
X149205714Y-120699095D01*
X149078095Y-120699095D01*
X149652380Y-120635285D02*
X149684285Y-120667190D01*
X149652380Y-120699095D01*
X149620476Y-120667190D01*
X149652380Y-120635285D01*
X149652380Y-120699095D01*
X149652380Y-120284333D02*
X149684285Y-120316238D01*
X149652380Y-120348142D01*
X149620476Y-120316238D01*
X149652380Y-120284333D01*
X149652380Y-120348142D01*
X149939523Y-120092904D02*
X149971428Y-120061000D01*
X150035238Y-120029095D01*
X150194761Y-120029095D01*
X150258571Y-120061000D01*
X150290476Y-120092904D01*
X150322380Y-120156714D01*
X150322380Y-120220523D01*
X150290476Y-120316238D01*
X149907619Y-120699095D01*
X150322380Y-120699095D01*
X150545714Y-120029095D02*
X150960476Y-120029095D01*
X150737142Y-120284333D01*
X150832857Y-120284333D01*
X150896666Y-120316238D01*
X150928571Y-120348142D01*
X150960476Y-120411952D01*
X150960476Y-120571476D01*
X150928571Y-120635285D01*
X150896666Y-120667190D01*
X150832857Y-120699095D01*
X150641428Y-120699095D01*
X150577619Y-120667190D01*
X150545714Y-120635285D01*
D11*
X137612380Y-108682357D02*
X137612380Y-109253785D01*
X137612380Y-108968071D02*
X136612380Y-108968071D01*
X136755238Y-109063309D01*
X136850476Y-109158547D01*
X136898095Y-109253785D01*
X136707619Y-108301404D02*
X136660000Y-108253785D01*
X136612380Y-108158547D01*
X136612380Y-107920452D01*
X136660000Y-107825214D01*
X136707619Y-107777595D01*
X136802857Y-107729976D01*
X136898095Y-107729976D01*
X137040952Y-107777595D01*
X137612380Y-108349023D01*
X137612380Y-107729976D01*
X135072380Y-108682357D02*
X135072380Y-109253785D01*
X135072380Y-108968071D02*
X134072380Y-108968071D01*
X134215238Y-109063309D01*
X134310476Y-109158547D01*
X134358095Y-109253785D01*
X134072380Y-108063309D02*
X134072380Y-107968071D01*
X134120000Y-107872833D01*
X134167619Y-107825214D01*
X134262857Y-107777595D01*
X134453333Y-107729976D01*
X134691428Y-107729976D01*
X134881904Y-107777595D01*
X134977142Y-107825214D01*
X135024761Y-107872833D01*
X135072380Y-107968071D01*
X135072380Y-108063309D01*
X135024761Y-108158547D01*
X134977142Y-108206166D01*
X134881904Y-108253785D01*
X134691428Y-108301404D01*
X134453333Y-108301404D01*
X134262857Y-108253785D01*
X134167619Y-108206166D01*
X134120000Y-108158547D01*
X134072380Y-108063309D01*
D10*
X119427857Y-98581476D02*
X119427857Y-98071000D01*
X119683095Y-98326238D02*
X119172619Y-98326238D01*
X119013095Y-97432904D02*
X119013095Y-97751952D01*
X119332142Y-97783857D01*
X119300238Y-97751952D01*
X119268333Y-97688142D01*
X119268333Y-97528619D01*
X119300238Y-97464809D01*
X119332142Y-97432904D01*
X119395952Y-97401000D01*
X119555476Y-97401000D01*
X119619285Y-97432904D01*
X119651190Y-97464809D01*
X119683095Y-97528619D01*
X119683095Y-97688142D01*
X119651190Y-97751952D01*
X119619285Y-97783857D01*
X119013095Y-97209571D02*
X119683095Y-96986238D01*
X119013095Y-96762904D01*
X143175000Y-109038428D02*
X143143095Y-109102238D01*
X143143095Y-109197952D01*
X143175000Y-109293666D01*
X143238809Y-109357476D01*
X143302619Y-109389380D01*
X143430238Y-109421285D01*
X143525952Y-109421285D01*
X143653571Y-109389380D01*
X143717380Y-109357476D01*
X143781190Y-109293666D01*
X143813095Y-109197952D01*
X143813095Y-109134142D01*
X143781190Y-109038428D01*
X143749285Y-109006523D01*
X143525952Y-109006523D01*
X143525952Y-109134142D01*
X143813095Y-108719380D02*
X143143095Y-108719380D01*
X143813095Y-108336523D01*
X143143095Y-108336523D01*
X143813095Y-108017476D02*
X143143095Y-108017476D01*
X143143095Y-107857952D01*
X143175000Y-107762238D01*
X143238809Y-107698428D01*
X143302619Y-107666523D01*
X143430238Y-107634619D01*
X143525952Y-107634619D01*
X143653571Y-107666523D01*
X143717380Y-107698428D01*
X143781190Y-107762238D01*
X143813095Y-107857952D01*
X143813095Y-108017476D01*
X142110523Y-118365000D02*
X142046714Y-118333095D01*
X141951000Y-118333095D01*
X141855285Y-118365000D01*
X141791476Y-118428809D01*
X141759571Y-118492619D01*
X141727666Y-118620238D01*
X141727666Y-118715952D01*
X141759571Y-118843571D01*
X141791476Y-118907380D01*
X141855285Y-118971190D01*
X141951000Y-119003095D01*
X142014809Y-119003095D01*
X142110523Y-118971190D01*
X142142428Y-118939285D01*
X142142428Y-118715952D01*
X142014809Y-118715952D01*
X142429571Y-119003095D02*
X142429571Y-118333095D01*
X142812428Y-119003095D01*
X142812428Y-118333095D01*
X143131476Y-119003095D02*
X143131476Y-118333095D01*
X143291000Y-118333095D01*
X143386714Y-118365000D01*
X143450523Y-118428809D01*
X143482428Y-118492619D01*
X143514333Y-118620238D01*
X143514333Y-118715952D01*
X143482428Y-118843571D01*
X143450523Y-118907380D01*
X143386714Y-118971190D01*
X143291000Y-119003095D01*
X143131476Y-119003095D01*
D11*
X126785714Y-107825214D02*
X127452380Y-107825214D01*
X126404761Y-108063309D02*
X127119047Y-108301404D01*
X127119047Y-107682357D01*
X162377666Y-111450380D02*
X161901476Y-111450380D01*
X161901476Y-110450380D01*
X162711000Y-110926571D02*
X163044333Y-110926571D01*
X163187190Y-111450380D02*
X162711000Y-111450380D01*
X162711000Y-110450380D01*
X163187190Y-110450380D01*
X163615761Y-111450380D02*
X163615761Y-110450380D01*
X163853857Y-110450380D01*
X163996714Y-110498000D01*
X164091952Y-110593238D01*
X164139571Y-110688476D01*
X164187190Y-110878952D01*
X164187190Y-111021809D01*
X164139571Y-111212285D01*
X164091952Y-111307523D01*
X163996714Y-111402761D01*
X163853857Y-111450380D01*
X163615761Y-111450380D01*
X164615761Y-111355142D02*
X164663380Y-111402761D01*
X164615761Y-111450380D01*
X164568142Y-111402761D01*
X164615761Y-111355142D01*
X164615761Y-111450380D01*
X164615761Y-110831333D02*
X164663380Y-110878952D01*
X164615761Y-110926571D01*
X164568142Y-110878952D01*
X164615761Y-110831333D01*
X164615761Y-110926571D01*
X165044333Y-110545619D02*
X165091952Y-110498000D01*
X165187190Y-110450380D01*
X165425285Y-110450380D01*
X165520523Y-110498000D01*
X165568142Y-110545619D01*
X165615761Y-110640857D01*
X165615761Y-110736095D01*
X165568142Y-110878952D01*
X164996714Y-111450380D01*
X165615761Y-111450380D01*
X165949095Y-110450380D02*
X166615761Y-110450380D01*
X166187190Y-111450380D01*
X123052380Y-127890476D02*
X122052380Y-127890476D01*
X122766666Y-127557142D01*
X122052380Y-127223809D01*
X123052380Y-127223809D01*
X123052380Y-126747619D02*
X122052380Y-126747619D01*
X122052380Y-126366666D01*
X122100000Y-126271428D01*
X122147619Y-126223809D01*
X122242857Y-126176190D01*
X122385714Y-126176190D01*
X122480952Y-126223809D01*
X122528571Y-126271428D01*
X122576190Y-126366666D01*
X122576190Y-126747619D01*
X122052380Y-125747619D02*
X122861904Y-125747619D01*
X122957142Y-125700000D01*
X123004761Y-125652380D01*
X123052380Y-125557142D01*
X123052380Y-125366666D01*
X123004761Y-125271428D01*
X122957142Y-125223809D01*
X122861904Y-125176190D01*
X122052380Y-125176190D01*
X122671428Y-124700000D02*
X122671428Y-123938095D01*
X122052380Y-123033333D02*
X122052380Y-123223809D01*
X122100000Y-123319047D01*
X122147619Y-123366666D01*
X122290476Y-123461904D01*
X122480952Y-123509523D01*
X122861904Y-123509523D01*
X122957142Y-123461904D01*
X123004761Y-123414285D01*
X123052380Y-123319047D01*
X123052380Y-123128571D01*
X123004761Y-123033333D01*
X122957142Y-122985714D01*
X122861904Y-122938095D01*
X122623809Y-122938095D01*
X122528571Y-122985714D01*
X122480952Y-123033333D01*
X122433333Y-123128571D01*
X122433333Y-123319047D01*
X122480952Y-123414285D01*
X122528571Y-123461904D01*
X122623809Y-123509523D01*
X122052380Y-122319047D02*
X122052380Y-122223809D01*
X122100000Y-122128571D01*
X122147619Y-122080952D01*
X122242857Y-122033333D01*
X122433333Y-121985714D01*
X122671428Y-121985714D01*
X122861904Y-122033333D01*
X122957142Y-122080952D01*
X123004761Y-122128571D01*
X123052380Y-122223809D01*
X123052380Y-122319047D01*
X123004761Y-122414285D01*
X122957142Y-122461904D01*
X122861904Y-122509523D01*
X122671428Y-122557142D01*
X122433333Y-122557142D01*
X122242857Y-122509523D01*
X122147619Y-122461904D01*
X122100000Y-122414285D01*
X122052380Y-122319047D01*
X122052380Y-121080952D02*
X122052380Y-121557142D01*
X122528571Y-121604761D01*
X122480952Y-121557142D01*
X122433333Y-121461904D01*
X122433333Y-121223809D01*
X122480952Y-121128571D01*
X122528571Y-121080952D01*
X122623809Y-121033333D01*
X122861904Y-121033333D01*
X122957142Y-121080952D01*
X123004761Y-121128571D01*
X123052380Y-121223809D01*
X123052380Y-121461904D01*
X123004761Y-121557142D01*
X122957142Y-121604761D01*
X122052380Y-120414285D02*
X122052380Y-120319047D01*
X122100000Y-120223809D01*
X122147619Y-120176190D01*
X122242857Y-120128571D01*
X122433333Y-120080952D01*
X122671428Y-120080952D01*
X122861904Y-120128571D01*
X122957142Y-120176190D01*
X123004761Y-120223809D01*
X123052380Y-120319047D01*
X123052380Y-120414285D01*
X123004761Y-120509523D01*
X122957142Y-120557142D01*
X122861904Y-120604761D01*
X122671428Y-120652380D01*
X122433333Y-120652380D01*
X122242857Y-120604761D01*
X122147619Y-120557142D01*
X122100000Y-120509523D01*
X122052380Y-120414285D01*
X123052380Y-118890476D02*
X122052380Y-118890476D01*
X122147619Y-118461904D02*
X122100000Y-118414285D01*
X122052380Y-118319047D01*
X122052380Y-118080952D01*
X122100000Y-117985714D01*
X122147619Y-117938095D01*
X122242857Y-117890476D01*
X122338095Y-117890476D01*
X122480952Y-117938095D01*
X123052380Y-118509523D01*
X123052380Y-117890476D01*
X122957142Y-116890476D02*
X123004761Y-116938095D01*
X123052380Y-117080952D01*
X123052380Y-117176190D01*
X123004761Y-117319047D01*
X122909523Y-117414285D01*
X122814285Y-117461904D01*
X122623809Y-117509523D01*
X122480952Y-117509523D01*
X122290476Y-117461904D01*
X122195238Y-117414285D01*
X122100000Y-117319047D01*
X122052380Y-117176190D01*
X122052380Y-117080952D01*
X122100000Y-116938095D01*
X122147619Y-116890476D01*
X123052380Y-115700000D02*
X122052380Y-115700000D01*
X123052380Y-115223809D02*
X122052380Y-115223809D01*
X122766666Y-114890476D01*
X122052380Y-114557142D01*
X123052380Y-114557142D01*
X122052380Y-114080952D02*
X122861904Y-114080952D01*
X122957142Y-114033333D01*
X123004761Y-113985714D01*
X123052380Y-113890476D01*
X123052380Y-113700000D01*
X123004761Y-113604761D01*
X122957142Y-113557142D01*
X122861904Y-113509523D01*
X122052380Y-113509523D01*
X134707143Y-116385714D02*
X134707143Y-117052380D01*
X134707143Y-116480952D02*
X134754762Y-116433333D01*
X134850000Y-116385714D01*
X134992857Y-116385714D01*
X135088095Y-116433333D01*
X135135714Y-116528571D01*
X135135714Y-117052380D01*
X136183333Y-117052380D02*
X135850000Y-116576190D01*
X135611904Y-117052380D02*
X135611904Y-116052380D01*
X135992857Y-116052380D01*
X136088095Y-116100000D01*
X136135714Y-116147619D01*
X136183333Y-116242857D01*
X136183333Y-116385714D01*
X136135714Y-116480952D01*
X136088095Y-116528571D01*
X135992857Y-116576190D01*
X135611904Y-116576190D01*
X136945238Y-116528571D02*
X136611904Y-116528571D01*
X136611904Y-117052380D02*
X136611904Y-116052380D01*
X137088095Y-116052380D01*
X137421428Y-116147619D02*
X137469047Y-116100000D01*
X137564285Y-116052380D01*
X137802381Y-116052380D01*
X137897619Y-116100000D01*
X137945238Y-116147619D01*
X137992857Y-116242857D01*
X137992857Y-116338095D01*
X137945238Y-116480952D01*
X137373809Y-117052380D01*
X137992857Y-117052380D01*
X138850000Y-116385714D02*
X138850000Y-117052380D01*
X138611904Y-116004761D02*
X138373809Y-116719047D01*
X138992857Y-116719047D01*
X139850000Y-117052380D02*
X139373809Y-117052380D01*
X139373809Y-116052380D01*
X140373809Y-116052380D02*
X140469047Y-116052380D01*
X140564285Y-116100000D01*
X140611904Y-116147619D01*
X140659524Y-116242857D01*
X140707143Y-116433333D01*
X140707143Y-116671428D01*
X140659524Y-116861904D01*
X140611904Y-116957142D01*
X140564285Y-117004761D01*
X140469047Y-117052380D01*
X140373809Y-117052380D01*
X140278571Y-117004761D01*
X140230952Y-116957142D01*
X140183333Y-116861904D01*
X140135714Y-116671428D01*
X140135714Y-116433333D01*
X140183333Y-116242857D01*
X140230952Y-116147619D01*
X140278571Y-116100000D01*
X140373809Y-116052380D01*
X141659524Y-117052380D02*
X141088095Y-117052380D01*
X141373809Y-117052380D02*
X141373809Y-116052380D01*
X141278571Y-116195238D01*
X141183333Y-116290476D01*
X141088095Y-116338095D01*
X126452380Y-97994214D02*
X126452380Y-98470404D01*
X126928571Y-98518023D01*
X126880952Y-98470404D01*
X126833333Y-98375166D01*
X126833333Y-98137071D01*
X126880952Y-98041833D01*
X126928571Y-97994214D01*
X127023809Y-97946595D01*
X127261904Y-97946595D01*
X127357142Y-97994214D01*
X127404761Y-98041833D01*
X127452380Y-98137071D01*
X127452380Y-98375166D01*
X127404761Y-98470404D01*
X127357142Y-98518023D01*
D10*
X116505000Y-109038428D02*
X116473095Y-109102238D01*
X116473095Y-109197952D01*
X116505000Y-109293666D01*
X116568809Y-109357476D01*
X116632619Y-109389380D01*
X116760238Y-109421285D01*
X116855952Y-109421285D01*
X116983571Y-109389380D01*
X117047380Y-109357476D01*
X117111190Y-109293666D01*
X117143095Y-109197952D01*
X117143095Y-109134142D01*
X117111190Y-109038428D01*
X117079285Y-109006523D01*
X116855952Y-109006523D01*
X116855952Y-109134142D01*
X117143095Y-108719380D02*
X116473095Y-108719380D01*
X117143095Y-108336523D01*
X116473095Y-108336523D01*
X117143095Y-108017476D02*
X116473095Y-108017476D01*
X116473095Y-107857952D01*
X116505000Y-107762238D01*
X116568809Y-107698428D01*
X116632619Y-107666523D01*
X116760238Y-107634619D01*
X116855952Y-107634619D01*
X116983571Y-107666523D01*
X117047380Y-107698428D01*
X117111190Y-107762238D01*
X117143095Y-107857952D01*
X117143095Y-108017476D01*
X166035000Y-109038428D02*
X166003095Y-109102238D01*
X166003095Y-109197952D01*
X166035000Y-109293666D01*
X166098809Y-109357476D01*
X166162619Y-109389380D01*
X166290238Y-109421285D01*
X166385952Y-109421285D01*
X166513571Y-109389380D01*
X166577380Y-109357476D01*
X166641190Y-109293666D01*
X166673095Y-109197952D01*
X166673095Y-109134142D01*
X166641190Y-109038428D01*
X166609285Y-109006523D01*
X166385952Y-109006523D01*
X166385952Y-109134142D01*
X166673095Y-108719380D02*
X166003095Y-108719380D01*
X166673095Y-108336523D01*
X166003095Y-108336523D01*
X166673095Y-108017476D02*
X166003095Y-108017476D01*
X166003095Y-107857952D01*
X166035000Y-107762238D01*
X166098809Y-107698428D01*
X166162619Y-107666523D01*
X166290238Y-107634619D01*
X166385952Y-107634619D01*
X166513571Y-107666523D01*
X166577380Y-107698428D01*
X166641190Y-107762238D01*
X166673095Y-107857952D01*
X166673095Y-108017476D01*
D11*
X146502380Y-108682357D02*
X146502380Y-109253785D01*
X146502380Y-108968071D02*
X145502380Y-108968071D01*
X145645238Y-109063309D01*
X145740476Y-109158547D01*
X145788095Y-109253785D01*
X145835714Y-107825214D02*
X146502380Y-107825214D01*
X145454761Y-108063309D02*
X146169047Y-108301404D01*
X146169047Y-107682357D01*
X158297619Y-98518023D02*
X158250000Y-98470404D01*
X158202380Y-98375166D01*
X158202380Y-98137071D01*
X158250000Y-98041833D01*
X158297619Y-97994214D01*
X158392857Y-97946595D01*
X158488095Y-97946595D01*
X158630952Y-97994214D01*
X159202380Y-98565642D01*
X159202380Y-97946595D01*
X158202380Y-97041833D02*
X158202380Y-97518023D01*
X158678571Y-97565642D01*
X158630952Y-97518023D01*
X158583333Y-97422785D01*
X158583333Y-97184690D01*
X158630952Y-97089452D01*
X158678571Y-97041833D01*
X158773809Y-96994214D01*
X159011904Y-96994214D01*
X159107142Y-97041833D01*
X159154761Y-97089452D01*
X159202380Y-97184690D01*
X159202380Y-97422785D01*
X159154761Y-97518023D01*
X159107142Y-97565642D01*
D10*
X108253095Y-128324047D02*
X107583095Y-128324047D01*
X107583095Y-128068809D01*
X107615000Y-128005000D01*
X107646904Y-127973095D01*
X107710714Y-127941190D01*
X107806428Y-127941190D01*
X107870238Y-127973095D01*
X107902142Y-128005000D01*
X107934047Y-128068809D01*
X107934047Y-128324047D01*
X108253095Y-127558333D02*
X108221190Y-127622142D01*
X108189285Y-127654047D01*
X108125476Y-127685952D01*
X107934047Y-127685952D01*
X107870238Y-127654047D01*
X107838333Y-127622142D01*
X107806428Y-127558333D01*
X107806428Y-127462619D01*
X107838333Y-127398809D01*
X107870238Y-127366904D01*
X107934047Y-127335000D01*
X108125476Y-127335000D01*
X108189285Y-127366904D01*
X108221190Y-127398809D01*
X108253095Y-127462619D01*
X108253095Y-127558333D01*
X107806428Y-127111666D02*
X108253095Y-126984047D01*
X107934047Y-126856428D01*
X108253095Y-126728809D01*
X107806428Y-126601190D01*
X108221190Y-126090714D02*
X108253095Y-126154523D01*
X108253095Y-126282142D01*
X108221190Y-126345952D01*
X108157380Y-126377857D01*
X107902142Y-126377857D01*
X107838333Y-126345952D01*
X107806428Y-126282142D01*
X107806428Y-126154523D01*
X107838333Y-126090714D01*
X107902142Y-126058809D01*
X107965952Y-126058809D01*
X108029761Y-126377857D01*
X108253095Y-125771666D02*
X107806428Y-125771666D01*
X107934047Y-125771666D02*
X107870238Y-125739761D01*
X107838333Y-125707857D01*
X107806428Y-125644047D01*
X107806428Y-125580238D01*
X148013571Y-118999095D02*
X148013571Y-118329095D01*
X148236904Y-118807666D01*
X148460238Y-118329095D01*
X148460238Y-118999095D01*
X148779285Y-118999095D02*
X148779285Y-118329095D01*
X149066428Y-118967190D02*
X149162142Y-118999095D01*
X149321666Y-118999095D01*
X149385476Y-118967190D01*
X149417380Y-118935285D01*
X149449285Y-118871476D01*
X149449285Y-118807666D01*
X149417380Y-118743857D01*
X149385476Y-118711952D01*
X149321666Y-118680047D01*
X149194047Y-118648142D01*
X149130238Y-118616238D01*
X149098333Y-118584333D01*
X149066428Y-118520523D01*
X149066428Y-118456714D01*
X149098333Y-118392904D01*
X149130238Y-118361000D01*
X149194047Y-118329095D01*
X149353571Y-118329095D01*
X149449285Y-118361000D01*
X149864047Y-118329095D02*
X149991666Y-118329095D01*
X150055476Y-118361000D01*
X150119285Y-118424809D01*
X150151190Y-118552428D01*
X150151190Y-118775761D01*
X150119285Y-118903380D01*
X150055476Y-118967190D01*
X149991666Y-118999095D01*
X149864047Y-118999095D01*
X149800238Y-118967190D01*
X149736428Y-118903380D01*
X149704523Y-118775761D01*
X149704523Y-118552428D01*
X149736428Y-118424809D01*
X149800238Y-118361000D01*
X149864047Y-118329095D01*
X150438333Y-118935285D02*
X150470238Y-118967190D01*
X150438333Y-118999095D01*
X150406428Y-118967190D01*
X150438333Y-118935285D01*
X150438333Y-118999095D01*
X150438333Y-118584333D02*
X150470238Y-118616238D01*
X150438333Y-118648142D01*
X150406428Y-118616238D01*
X150438333Y-118584333D01*
X150438333Y-118648142D01*
X150789285Y-118999095D02*
X150916904Y-118999095D01*
X150980714Y-118967190D01*
X151012619Y-118935285D01*
X151076428Y-118839571D01*
X151108333Y-118711952D01*
X151108333Y-118456714D01*
X151076428Y-118392904D01*
X151044523Y-118361000D01*
X150980714Y-118329095D01*
X150853095Y-118329095D01*
X150789285Y-118361000D01*
X150757380Y-118392904D01*
X150725476Y-118456714D01*
X150725476Y-118616238D01*
X150757380Y-118680047D01*
X150789285Y-118711952D01*
X150853095Y-118743857D01*
X150980714Y-118743857D01*
X151044523Y-118711952D01*
X151076428Y-118680047D01*
X151108333Y-118616238D01*
D11*
X146502380Y-97946595D02*
X146502380Y-98518023D01*
X146502380Y-98232309D02*
X145502380Y-98232309D01*
X145645238Y-98327547D01*
X145740476Y-98422785D01*
X145788095Y-98518023D01*
X145502380Y-97041833D02*
X145502380Y-97518023D01*
X145978571Y-97565642D01*
X145930952Y-97518023D01*
X145883333Y-97422785D01*
X145883333Y-97184690D01*
X145930952Y-97089452D01*
X145978571Y-97041833D01*
X146073809Y-96994214D01*
X146311904Y-96994214D01*
X146407142Y-97041833D01*
X146454761Y-97089452D01*
X146502380Y-97184690D01*
X146502380Y-97422785D01*
X146454761Y-97518023D01*
X146407142Y-97565642D01*
D10*
X127205714Y-116712095D02*
X127652380Y-117382095D01*
X127652380Y-116712095D02*
X127205714Y-117382095D01*
X127907619Y-117382095D02*
X127907619Y-116712095D01*
X128067142Y-116712095D01*
X128162857Y-116744000D01*
X128226666Y-116807809D01*
X128258571Y-116871619D01*
X128290476Y-116999238D01*
X128290476Y-117094952D01*
X128258571Y-117222571D01*
X128226666Y-117286380D01*
X128162857Y-117350190D01*
X128067142Y-117382095D01*
X127907619Y-117382095D01*
X128896666Y-117382095D02*
X128577619Y-117382095D01*
X128577619Y-116712095D01*
X129120000Y-117318285D02*
X129151904Y-117350190D01*
X129120000Y-117382095D01*
X129088095Y-117350190D01*
X129120000Y-117318285D01*
X129120000Y-117382095D01*
X129120000Y-116967333D02*
X129151904Y-116999238D01*
X129120000Y-117031142D01*
X129088095Y-116999238D01*
X129120000Y-116967333D01*
X129120000Y-117031142D01*
X129375238Y-116712095D02*
X129821904Y-117382095D01*
X129821904Y-116712095D02*
X129375238Y-117382095D01*
X116887857Y-98581476D02*
X116887857Y-98071000D01*
X117143095Y-98326238D02*
X116632619Y-98326238D01*
X116473095Y-97432904D02*
X116473095Y-97751952D01*
X116792142Y-97783857D01*
X116760238Y-97751952D01*
X116728333Y-97688142D01*
X116728333Y-97528619D01*
X116760238Y-97464809D01*
X116792142Y-97432904D01*
X116855952Y-97401000D01*
X117015476Y-97401000D01*
X117079285Y-97432904D01*
X117111190Y-97464809D01*
X117143095Y-97528619D01*
X117143095Y-97688142D01*
X117111190Y-97751952D01*
X117079285Y-97783857D01*
X116473095Y-97209571D02*
X117143095Y-96986238D01*
X116473095Y-96762904D01*
D11*
%TO.C,Q1*%
X113797619Y-98095238D02*
X113750000Y-98190476D01*
X113654761Y-98285714D01*
X113511904Y-98428571D01*
X113464285Y-98523809D01*
X113464285Y-98619047D01*
X113702380Y-98571428D02*
X113654761Y-98666666D01*
X113559523Y-98761904D01*
X113369047Y-98809523D01*
X113035714Y-98809523D01*
X112845238Y-98761904D01*
X112750000Y-98666666D01*
X112702380Y-98571428D01*
X112702380Y-98380952D01*
X112750000Y-98285714D01*
X112845238Y-98190476D01*
X113035714Y-98142857D01*
X113369047Y-98142857D01*
X113559523Y-98190476D01*
X113654761Y-98285714D01*
X113702380Y-98380952D01*
X113702380Y-98571428D01*
X113702380Y-97190476D02*
X113702380Y-97761904D01*
X113702380Y-97476190D02*
X112702380Y-97476190D01*
X112845238Y-97571428D01*
X112940476Y-97666666D01*
X112988095Y-97761904D01*
D12*
%TO.C,C5*%
X115766666Y-120928571D02*
X115742857Y-120952380D01*
X115671428Y-120976190D01*
X115623809Y-120976190D01*
X115552380Y-120952380D01*
X115504761Y-120904761D01*
X115480952Y-120857142D01*
X115457142Y-120761904D01*
X115457142Y-120690476D01*
X115480952Y-120595238D01*
X115504761Y-120547619D01*
X115552380Y-120500000D01*
X115623809Y-120476190D01*
X115671428Y-120476190D01*
X115742857Y-120500000D01*
X115766666Y-120523809D01*
X116219047Y-120476190D02*
X115980952Y-120476190D01*
X115957142Y-120714285D01*
X115980952Y-120690476D01*
X116028571Y-120666666D01*
X116147619Y-120666666D01*
X116195238Y-120690476D01*
X116219047Y-120714285D01*
X116242857Y-120761904D01*
X116242857Y-120880952D01*
X116219047Y-120928571D01*
X116195238Y-120952380D01*
X116147619Y-120976190D01*
X116028571Y-120976190D01*
X115980952Y-120952380D01*
X115957142Y-120928571D01*
%TO.C,D2*%
X168286952Y-110622190D02*
X168286952Y-110122190D01*
X168406000Y-110122190D01*
X168477428Y-110146000D01*
X168525047Y-110193619D01*
X168548857Y-110241238D01*
X168572666Y-110336476D01*
X168572666Y-110407904D01*
X168548857Y-110503142D01*
X168525047Y-110550761D01*
X168477428Y-110598380D01*
X168406000Y-110622190D01*
X168286952Y-110622190D01*
X168763142Y-110169809D02*
X168786952Y-110146000D01*
X168834571Y-110122190D01*
X168953619Y-110122190D01*
X169001238Y-110146000D01*
X169025047Y-110169809D01*
X169048857Y-110217428D01*
X169048857Y-110265047D01*
X169025047Y-110336476D01*
X168739333Y-110622190D01*
X169048857Y-110622190D01*
%TO.C,C2*%
X161166666Y-112514571D02*
X161142857Y-112538380D01*
X161071428Y-112562190D01*
X161023809Y-112562190D01*
X160952380Y-112538380D01*
X160904761Y-112490761D01*
X160880952Y-112443142D01*
X160857142Y-112347904D01*
X160857142Y-112276476D01*
X160880952Y-112181238D01*
X160904761Y-112133619D01*
X160952380Y-112086000D01*
X161023809Y-112062190D01*
X161071428Y-112062190D01*
X161142857Y-112086000D01*
X161166666Y-112109809D01*
X161357142Y-112109809D02*
X161380952Y-112086000D01*
X161428571Y-112062190D01*
X161547619Y-112062190D01*
X161595238Y-112086000D01*
X161619047Y-112109809D01*
X161642857Y-112157428D01*
X161642857Y-112205047D01*
X161619047Y-112276476D01*
X161333333Y-112562190D01*
X161642857Y-112562190D01*
%TO.C,R8*%
X109426190Y-130183333D02*
X109188095Y-130350000D01*
X109426190Y-130469047D02*
X108926190Y-130469047D01*
X108926190Y-130278571D01*
X108950000Y-130230952D01*
X108973809Y-130207142D01*
X109021428Y-130183333D01*
X109092857Y-130183333D01*
X109140476Y-130207142D01*
X109164285Y-130230952D01*
X109188095Y-130278571D01*
X109188095Y-130469047D01*
X109140476Y-129897619D02*
X109116666Y-129945238D01*
X109092857Y-129969047D01*
X109045238Y-129992857D01*
X109021428Y-129992857D01*
X108973809Y-129969047D01*
X108950000Y-129945238D01*
X108926190Y-129897619D01*
X108926190Y-129802380D01*
X108950000Y-129754761D01*
X108973809Y-129730952D01*
X109021428Y-129707142D01*
X109045238Y-129707142D01*
X109092857Y-129730952D01*
X109116666Y-129754761D01*
X109140476Y-129802380D01*
X109140476Y-129897619D01*
X109164285Y-129945238D01*
X109188095Y-129969047D01*
X109235714Y-129992857D01*
X109330952Y-129992857D01*
X109378571Y-129969047D01*
X109402380Y-129945238D01*
X109426190Y-129897619D01*
X109426190Y-129802380D01*
X109402380Y-129754761D01*
X109378571Y-129730952D01*
X109330952Y-129707142D01*
X109235714Y-129707142D01*
X109188095Y-129730952D01*
X109164285Y-129754761D01*
X109140476Y-129802380D01*
D11*
%TO.C,J1*%
X113962380Y-103442333D02*
X114676666Y-103442333D01*
X114819523Y-103489952D01*
X114914761Y-103585190D01*
X114962380Y-103728047D01*
X114962380Y-103823285D01*
X114962380Y-102442333D02*
X114962380Y-103013761D01*
X114962380Y-102728047D02*
X113962380Y-102728047D01*
X114105238Y-102823285D01*
X114200476Y-102918523D01*
X114248095Y-103013761D01*
D12*
%TO.C,D3*%
X104230952Y-116176190D02*
X104230952Y-115676190D01*
X104350000Y-115676190D01*
X104421428Y-115700000D01*
X104469047Y-115747619D01*
X104492857Y-115795238D01*
X104516666Y-115890476D01*
X104516666Y-115961904D01*
X104492857Y-116057142D01*
X104469047Y-116104761D01*
X104421428Y-116152380D01*
X104350000Y-116176190D01*
X104230952Y-116176190D01*
X104683333Y-115676190D02*
X104992857Y-115676190D01*
X104826190Y-115866666D01*
X104897619Y-115866666D01*
X104945238Y-115890476D01*
X104969047Y-115914285D01*
X104992857Y-115961904D01*
X104992857Y-116080952D01*
X104969047Y-116128571D01*
X104945238Y-116152380D01*
X104897619Y-116176190D01*
X104754761Y-116176190D01*
X104707142Y-116152380D01*
X104683333Y-116128571D01*
D11*
%TO.C,U3*%
X148138095Y-116052380D02*
X148138095Y-116861904D01*
X148185714Y-116957142D01*
X148233333Y-117004761D01*
X148328571Y-117052380D01*
X148519047Y-117052380D01*
X148614285Y-117004761D01*
X148661904Y-116957142D01*
X148709523Y-116861904D01*
X148709523Y-116052380D01*
X149090476Y-116052380D02*
X149709523Y-116052380D01*
X149376190Y-116433333D01*
X149519047Y-116433333D01*
X149614285Y-116480952D01*
X149661904Y-116528571D01*
X149709523Y-116623809D01*
X149709523Y-116861904D01*
X149661904Y-116957142D01*
X149614285Y-117004761D01*
X149519047Y-117052380D01*
X149233333Y-117052380D01*
X149138095Y-117004761D01*
X149090476Y-116957142D01*
D12*
%TO.C,R7*%
X108926190Y-122003333D02*
X108688095Y-122170000D01*
X108926190Y-122289047D02*
X108426190Y-122289047D01*
X108426190Y-122098571D01*
X108450000Y-122050952D01*
X108473809Y-122027142D01*
X108521428Y-122003333D01*
X108592857Y-122003333D01*
X108640476Y-122027142D01*
X108664285Y-122050952D01*
X108688095Y-122098571D01*
X108688095Y-122289047D01*
X108426190Y-121836666D02*
X108426190Y-121503333D01*
X108926190Y-121717619D01*
D11*
%TO.C,J4*%
X122134380Y-130381333D02*
X122848666Y-130381333D01*
X122991523Y-130428952D01*
X123086761Y-130524190D01*
X123134380Y-130667047D01*
X123134380Y-130762285D01*
X122467714Y-129476571D02*
X123134380Y-129476571D01*
X122086761Y-129714666D02*
X122801047Y-129952761D01*
X122801047Y-129333714D01*
D12*
%TO.C,R2*%
X165143666Y-112641190D02*
X164977000Y-112403095D01*
X164857952Y-112641190D02*
X164857952Y-112141190D01*
X165048428Y-112141190D01*
X165096047Y-112165000D01*
X165119857Y-112188809D01*
X165143666Y-112236428D01*
X165143666Y-112307857D01*
X165119857Y-112355476D01*
X165096047Y-112379285D01*
X165048428Y-112403095D01*
X164857952Y-112403095D01*
X165334142Y-112188809D02*
X165357952Y-112165000D01*
X165405571Y-112141190D01*
X165524619Y-112141190D01*
X165572238Y-112165000D01*
X165596047Y-112188809D01*
X165619857Y-112236428D01*
X165619857Y-112284047D01*
X165596047Y-112355476D01*
X165310333Y-112641190D01*
X165619857Y-112641190D01*
%TO.C,SW1*%
X112452380Y-90316666D02*
X112476190Y-90245238D01*
X112476190Y-90126190D01*
X112452380Y-90078571D01*
X112428571Y-90054761D01*
X112380952Y-90030952D01*
X112333333Y-90030952D01*
X112285714Y-90054761D01*
X112261904Y-90078571D01*
X112238095Y-90126190D01*
X112214285Y-90221428D01*
X112190476Y-90269047D01*
X112166666Y-90292857D01*
X112119047Y-90316666D01*
X112071428Y-90316666D01*
X112023809Y-90292857D01*
X112000000Y-90269047D01*
X111976190Y-90221428D01*
X111976190Y-90102380D01*
X112000000Y-90030952D01*
X111976190Y-89864285D02*
X112476190Y-89745238D01*
X112119047Y-89650000D01*
X112476190Y-89554761D01*
X111976190Y-89435714D01*
X112476190Y-88983333D02*
X112476190Y-89269047D01*
X112476190Y-89126190D02*
X111976190Y-89126190D01*
X112047619Y-89173809D01*
X112095238Y-89221428D01*
X112119047Y-89269047D01*
D11*
%TO.C,U1*%
X120737380Y-112648904D02*
X121546904Y-112648904D01*
X121642142Y-112601285D01*
X121689761Y-112553666D01*
X121737380Y-112458428D01*
X121737380Y-112267952D01*
X121689761Y-112172714D01*
X121642142Y-112125095D01*
X121546904Y-112077476D01*
X120737380Y-112077476D01*
X121737380Y-111077476D02*
X121737380Y-111648904D01*
X121737380Y-111363190D02*
X120737380Y-111363190D01*
X120880238Y-111458428D01*
X120975476Y-111553666D01*
X121023095Y-111648904D01*
%TO.C,J2*%
X168235380Y-103457333D02*
X168949666Y-103457333D01*
X169092523Y-103504952D01*
X169187761Y-103600190D01*
X169235380Y-103743047D01*
X169235380Y-103838285D01*
X168330619Y-103028761D02*
X168283000Y-102981142D01*
X168235380Y-102885904D01*
X168235380Y-102647809D01*
X168283000Y-102552571D01*
X168330619Y-102504952D01*
X168425857Y-102457333D01*
X168521095Y-102457333D01*
X168663952Y-102504952D01*
X169235380Y-103076380D01*
X169235380Y-102457333D01*
D12*
%TO.C,D4*%
X106530952Y-116176190D02*
X106530952Y-115676190D01*
X106650000Y-115676190D01*
X106721428Y-115700000D01*
X106769047Y-115747619D01*
X106792857Y-115795238D01*
X106816666Y-115890476D01*
X106816666Y-115961904D01*
X106792857Y-116057142D01*
X106769047Y-116104761D01*
X106721428Y-116152380D01*
X106650000Y-116176190D01*
X106530952Y-116176190D01*
X107245238Y-115842857D02*
X107245238Y-116176190D01*
X107126190Y-115652380D02*
X107007142Y-116009523D01*
X107316666Y-116009523D01*
D11*
%TO.C,J3*%
X109702380Y-108333333D02*
X110416666Y-108333333D01*
X110559523Y-108380952D01*
X110654761Y-108476190D01*
X110702380Y-108619047D01*
X110702380Y-108714285D01*
X109702380Y-107952380D02*
X109702380Y-107333333D01*
X110083333Y-107666666D01*
X110083333Y-107523809D01*
X110130952Y-107428571D01*
X110178571Y-107380952D01*
X110273809Y-107333333D01*
X110511904Y-107333333D01*
X110607142Y-107380952D01*
X110654761Y-107428571D01*
X110702380Y-107523809D01*
X110702380Y-107809523D01*
X110654761Y-107904761D01*
X110607142Y-107952380D01*
%TO.C,U2*%
X131038095Y-116052380D02*
X131038095Y-116861904D01*
X131085714Y-116957142D01*
X131133333Y-117004761D01*
X131228571Y-117052380D01*
X131419047Y-117052380D01*
X131514285Y-117004761D01*
X131561904Y-116957142D01*
X131609523Y-116861904D01*
X131609523Y-116052380D01*
X132038095Y-116147619D02*
X132085714Y-116100000D01*
X132180952Y-116052380D01*
X132419047Y-116052380D01*
X132514285Y-116100000D01*
X132561904Y-116147619D01*
X132609523Y-116242857D01*
X132609523Y-116338095D01*
X132561904Y-116480952D01*
X131990476Y-117052380D01*
X132609523Y-117052380D01*
D12*
%TO.C,C1*%
X144116666Y-112498571D02*
X144092857Y-112522380D01*
X144021428Y-112546190D01*
X143973809Y-112546190D01*
X143902380Y-112522380D01*
X143854761Y-112474761D01*
X143830952Y-112427142D01*
X143807142Y-112331904D01*
X143807142Y-112260476D01*
X143830952Y-112165238D01*
X143854761Y-112117619D01*
X143902380Y-112070000D01*
X143973809Y-112046190D01*
X144021428Y-112046190D01*
X144092857Y-112070000D01*
X144116666Y-112093809D01*
X144592857Y-112546190D02*
X144307142Y-112546190D01*
X144450000Y-112546190D02*
X144450000Y-112046190D01*
X144402380Y-112117619D01*
X144354761Y-112165238D01*
X144307142Y-112189047D01*
%TO.C,C3*%
X110278571Y-116033333D02*
X110302380Y-116057142D01*
X110326190Y-116128571D01*
X110326190Y-116176190D01*
X110302380Y-116247619D01*
X110254761Y-116295238D01*
X110207142Y-116319047D01*
X110111904Y-116342857D01*
X110040476Y-116342857D01*
X109945238Y-116319047D01*
X109897619Y-116295238D01*
X109850000Y-116247619D01*
X109826190Y-116176190D01*
X109826190Y-116128571D01*
X109850000Y-116057142D01*
X109873809Y-116033333D01*
X109826190Y-115866666D02*
X109826190Y-115557142D01*
X110016666Y-115723809D01*
X110016666Y-115652380D01*
X110040476Y-115604761D01*
X110064285Y-115580952D01*
X110111904Y-115557142D01*
X110230952Y-115557142D01*
X110278571Y-115580952D01*
X110302380Y-115604761D01*
X110326190Y-115652380D01*
X110326190Y-115795238D01*
X110302380Y-115842857D01*
X110278571Y-115866666D01*
%TO.C,R1*%
X113816666Y-86826190D02*
X113650000Y-86588095D01*
X113530952Y-86826190D02*
X113530952Y-86326190D01*
X113721428Y-86326190D01*
X113769047Y-86350000D01*
X113792857Y-86373809D01*
X113816666Y-86421428D01*
X113816666Y-86492857D01*
X113792857Y-86540476D01*
X113769047Y-86564285D01*
X113721428Y-86588095D01*
X113530952Y-86588095D01*
X114292857Y-86826190D02*
X114007142Y-86826190D01*
X114150000Y-86826190D02*
X114150000Y-86326190D01*
X114102380Y-86397619D01*
X114054761Y-86445238D01*
X114007142Y-86469047D01*
%TO.C,C6*%
X117439332Y-120928571D02*
X117415523Y-120952380D01*
X117344094Y-120976190D01*
X117296475Y-120976190D01*
X117225046Y-120952380D01*
X117177427Y-120904761D01*
X117153618Y-120857142D01*
X117129808Y-120761904D01*
X117129808Y-120690476D01*
X117153618Y-120595238D01*
X117177427Y-120547619D01*
X117225046Y-120500000D01*
X117296475Y-120476190D01*
X117344094Y-120476190D01*
X117415523Y-120500000D01*
X117439332Y-120523809D01*
X117867904Y-120476190D02*
X117772666Y-120476190D01*
X117725046Y-120500000D01*
X117701237Y-120523809D01*
X117653618Y-120595238D01*
X117629808Y-120690476D01*
X117629808Y-120880952D01*
X117653618Y-120928571D01*
X117677427Y-120952380D01*
X117725046Y-120976190D01*
X117820285Y-120976190D01*
X117867904Y-120952380D01*
X117891713Y-120928571D01*
X117915523Y-120880952D01*
X117915523Y-120761904D01*
X117891713Y-120714285D01*
X117867904Y-120690476D01*
X117820285Y-120666666D01*
X117725046Y-120666666D01*
X117677427Y-120690476D01*
X117653618Y-120714285D01*
X117629808Y-120761904D01*
%TO.C,R6*%
X106526190Y-122003333D02*
X106288095Y-122170000D01*
X106526190Y-122289047D02*
X106026190Y-122289047D01*
X106026190Y-122098571D01*
X106050000Y-122050952D01*
X106073809Y-122027142D01*
X106121428Y-122003333D01*
X106192857Y-122003333D01*
X106240476Y-122027142D01*
X106264285Y-122050952D01*
X106288095Y-122098571D01*
X106288095Y-122289047D01*
X106026190Y-121574761D02*
X106026190Y-121670000D01*
X106050000Y-121717619D01*
X106073809Y-121741428D01*
X106145238Y-121789047D01*
X106240476Y-121812857D01*
X106430952Y-121812857D01*
X106478571Y-121789047D01*
X106502380Y-121765238D01*
X106526190Y-121717619D01*
X106526190Y-121622380D01*
X106502380Y-121574761D01*
X106478571Y-121550952D01*
X106430952Y-121527142D01*
X106311904Y-121527142D01*
X106264285Y-121550952D01*
X106240476Y-121574761D01*
X106216666Y-121622380D01*
X106216666Y-121717619D01*
X106240476Y-121765238D01*
X106264285Y-121789047D01*
X106311904Y-121812857D01*
%TO.C,R3*%
X118726190Y-116333333D02*
X118488095Y-116500000D01*
X118726190Y-116619047D02*
X118226190Y-116619047D01*
X118226190Y-116428571D01*
X118250000Y-116380952D01*
X118273809Y-116357142D01*
X118321428Y-116333333D01*
X118392857Y-116333333D01*
X118440476Y-116357142D01*
X118464285Y-116380952D01*
X118488095Y-116428571D01*
X118488095Y-116619047D01*
X118226190Y-116166666D02*
X118226190Y-115857142D01*
X118416666Y-116023809D01*
X118416666Y-115952380D01*
X118440476Y-115904761D01*
X118464285Y-115880952D01*
X118511904Y-115857142D01*
X118630952Y-115857142D01*
X118678571Y-115880952D01*
X118702380Y-115904761D01*
X118726190Y-115952380D01*
X118726190Y-116095238D01*
X118702380Y-116142857D01*
X118678571Y-116166666D01*
%TO.C,C4*%
X110328571Y-118583333D02*
X110352380Y-118607142D01*
X110376190Y-118678571D01*
X110376190Y-118726190D01*
X110352380Y-118797619D01*
X110304761Y-118845238D01*
X110257142Y-118869047D01*
X110161904Y-118892857D01*
X110090476Y-118892857D01*
X109995238Y-118869047D01*
X109947619Y-118845238D01*
X109900000Y-118797619D01*
X109876190Y-118726190D01*
X109876190Y-118678571D01*
X109900000Y-118607142D01*
X109923809Y-118583333D01*
X110042857Y-118154761D02*
X110376190Y-118154761D01*
X109852380Y-118273809D02*
X110209523Y-118392857D01*
X110209523Y-118083333D01*
D11*
%TO.C,J5*%
X168032180Y-130838533D02*
X168746466Y-130838533D01*
X168889323Y-130886152D01*
X168984561Y-130981390D01*
X169032180Y-131124247D01*
X169032180Y-131219485D01*
X168032180Y-129886152D02*
X168032180Y-130362342D01*
X168508371Y-130409961D01*
X168460752Y-130362342D01*
X168413133Y-130267104D01*
X168413133Y-130029009D01*
X168460752Y-129933771D01*
X168508371Y-129886152D01*
X168603609Y-129838533D01*
X168841704Y-129838533D01*
X168936942Y-129886152D01*
X168984561Y-129933771D01*
X169032180Y-130029009D01*
X169032180Y-130267104D01*
X168984561Y-130362342D01*
X168936942Y-130409961D01*
D12*
%TO.C,D5*%
X105126190Y-127359047D02*
X104626190Y-127359047D01*
X104626190Y-127240000D01*
X104650000Y-127168571D01*
X104697619Y-127120952D01*
X104745238Y-127097142D01*
X104840476Y-127073333D01*
X104911904Y-127073333D01*
X105007142Y-127097142D01*
X105054761Y-127120952D01*
X105102380Y-127168571D01*
X105126190Y-127240000D01*
X105126190Y-127359047D01*
X104626190Y-126620952D02*
X104626190Y-126859047D01*
X104864285Y-126882857D01*
X104840476Y-126859047D01*
X104816666Y-126811428D01*
X104816666Y-126692380D01*
X104840476Y-126644761D01*
X104864285Y-126620952D01*
X104911904Y-126597142D01*
X105030952Y-126597142D01*
X105078571Y-126620952D01*
X105102380Y-126644761D01*
X105126190Y-126692380D01*
X105126190Y-126811428D01*
X105102380Y-126859047D01*
X105078571Y-126882857D01*
%TO.C,D1*%
X112152952Y-109726190D02*
X112152952Y-109226190D01*
X112272000Y-109226190D01*
X112343428Y-109250000D01*
X112391047Y-109297619D01*
X112414857Y-109345238D01*
X112438666Y-109440476D01*
X112438666Y-109511904D01*
X112414857Y-109607142D01*
X112391047Y-109654761D01*
X112343428Y-109702380D01*
X112272000Y-109726190D01*
X112152952Y-109726190D01*
X112914857Y-109726190D02*
X112629142Y-109726190D01*
X112772000Y-109726190D02*
X112772000Y-109226190D01*
X112724380Y-109297619D01*
X112676761Y-109345238D01*
X112629142Y-109369047D01*
%TO.C,R5*%
X120916666Y-120976190D02*
X120750000Y-120738095D01*
X120630952Y-120976190D02*
X120630952Y-120476190D01*
X120821428Y-120476190D01*
X120869047Y-120500000D01*
X120892857Y-120523809D01*
X120916666Y-120571428D01*
X120916666Y-120642857D01*
X120892857Y-120690476D01*
X120869047Y-120714285D01*
X120821428Y-120738095D01*
X120630952Y-120738095D01*
X121369047Y-120476190D02*
X121130952Y-120476190D01*
X121107142Y-120714285D01*
X121130952Y-120690476D01*
X121178571Y-120666666D01*
X121297619Y-120666666D01*
X121345238Y-120690476D01*
X121369047Y-120714285D01*
X121392857Y-120761904D01*
X121392857Y-120880952D01*
X121369047Y-120928571D01*
X121345238Y-120952380D01*
X121297619Y-120976190D01*
X121178571Y-120976190D01*
X121130952Y-120952380D01*
X121107142Y-120928571D01*
%TO.C,R4*%
X119166666Y-120976190D02*
X119000000Y-120738095D01*
X118880952Y-120976190D02*
X118880952Y-120476190D01*
X119071428Y-120476190D01*
X119119047Y-120500000D01*
X119142857Y-120523809D01*
X119166666Y-120571428D01*
X119166666Y-120642857D01*
X119142857Y-120690476D01*
X119119047Y-120714285D01*
X119071428Y-120738095D01*
X118880952Y-120738095D01*
X119595238Y-120642857D02*
X119595238Y-120976190D01*
X119476190Y-120452380D02*
X119357142Y-120809523D01*
X119666666Y-120809523D01*
D13*
%TO.C,Q1*%
X112416000Y-101046000D02*
X112416000Y-102546000D01*
X105516000Y-101046000D02*
X105516000Y-102546000D01*
X112416000Y-102546000D02*
X112146000Y-102546000D01*
X112146000Y-102546000D02*
X112146000Y-103646000D01*
X105516000Y-102546000D02*
X105786000Y-102546000D01*
X105786000Y-102546000D02*
X105786000Y-105376000D01*
%TO.C,C5*%
X116334000Y-118731420D02*
X116334000Y-119012580D01*
X115314000Y-118731420D02*
X115314000Y-119012580D01*
%TO.C,D2*%
X169616000Y-114207000D02*
X169616000Y-111522000D01*
X167696000Y-111522000D02*
X167696000Y-114207000D01*
X167696000Y-114207000D02*
X169616000Y-114207000D01*
%TO.C,C2*%
X161109420Y-114276000D02*
X161390580Y-114276000D01*
X161109420Y-113256000D02*
X161390580Y-113256000D01*
%TO.C,R8*%
X106862742Y-129577500D02*
X107337258Y-129577500D01*
X106862742Y-130622500D02*
X107337258Y-130622500D01*
%TO.C,J1*%
X122680000Y-100509000D02*
X123700000Y-100509000D01*
X127760000Y-105709000D02*
X128780000Y-105709000D01*
X116080000Y-107149000D02*
X116080000Y-105709000D01*
X115510000Y-100509000D02*
X116080000Y-100509000D01*
X137920000Y-100509000D02*
X138940000Y-100509000D01*
X125220000Y-100509000D02*
X126240000Y-100509000D01*
X140460000Y-105709000D02*
X141030000Y-105709000D01*
X115510000Y-105709000D02*
X115510000Y-100509000D01*
X117600000Y-105709000D02*
X118620000Y-105709000D01*
X130300000Y-105709000D02*
X131320000Y-105709000D01*
X132840000Y-105709000D02*
X133860000Y-105709000D01*
X122680000Y-105709000D02*
X123700000Y-105709000D01*
X135380000Y-100509000D02*
X136400000Y-100509000D01*
X120140000Y-100509000D02*
X121160000Y-100509000D01*
X137920000Y-105709000D02*
X138940000Y-105709000D01*
X140460000Y-100509000D02*
X141030000Y-100509000D01*
X120140000Y-105709000D02*
X121160000Y-105709000D01*
X117600000Y-100509000D02*
X118620000Y-100509000D01*
X141030000Y-105709000D02*
X141030000Y-100509000D01*
X125220000Y-105709000D02*
X126240000Y-105709000D01*
X135380000Y-105709000D02*
X136400000Y-105709000D01*
X130300000Y-100509000D02*
X131320000Y-100509000D01*
X127760000Y-100509000D02*
X128780000Y-100509000D01*
X115510000Y-105709000D02*
X116080000Y-105709000D01*
X132840000Y-100509000D02*
X133860000Y-100509000D01*
%TO.C,D3*%
X106116000Y-119668000D02*
X106116000Y-116983000D01*
X104196000Y-119668000D02*
X106116000Y-119668000D01*
X104196000Y-116983000D02*
X104196000Y-119668000D01*
%TO.C,U3*%
X158760666Y-113766000D02*
X158760666Y-115096000D01*
X158760666Y-112496000D02*
X156160666Y-112496000D01*
X158760666Y-115096000D02*
X157430666Y-115096000D01*
X158760666Y-109896000D02*
X158760666Y-112496000D01*
X148480666Y-109896000D02*
X148480666Y-115096000D01*
X156160666Y-112496000D02*
X156160666Y-115096000D01*
X158760666Y-109896000D02*
X148480666Y-109896000D01*
X156160666Y-115096000D02*
X148480666Y-115096000D01*
%TO.C,R7*%
X106919500Y-121682742D02*
X106919500Y-122157258D01*
X107964500Y-121682742D02*
X107964500Y-122157258D01*
%TO.C,J4*%
X125222000Y-131124000D02*
X123892000Y-131124000D01*
X123892000Y-128524000D02*
X123892000Y-110684000D01*
X126552000Y-110684000D02*
X123892000Y-110684000D01*
X126552000Y-128524000D02*
X123892000Y-128524000D01*
X126552000Y-128524000D02*
X126552000Y-110684000D01*
X123892000Y-131124000D02*
X123892000Y-129794000D01*
%TO.C,R2*%
X165464258Y-113142500D02*
X164989742Y-113142500D01*
X165464258Y-114187500D02*
X164989742Y-114187500D01*
%TO.C,SW1*%
X105950000Y-87662000D02*
X109950000Y-87662000D01*
X109950000Y-87662000D02*
X109950000Y-91662000D01*
X109950000Y-91662000D02*
X105950000Y-91662000D01*
X105950000Y-91662000D02*
X105950000Y-87662000D01*
X109068034Y-89662000D02*
G75*
G03*
X109068034Y-89662000I-1118034J0D01*
G01*
%TO.C,U1*%
X116950000Y-114690000D02*
X116450000Y-114690000D01*
X116450000Y-111370000D02*
X116950000Y-111370000D01*
X119270000Y-114690000D02*
X119770000Y-114690000D01*
X116450000Y-114690000D02*
X116450000Y-114190000D01*
X119770000Y-114690000D02*
X119770000Y-114190000D01*
X119770000Y-111370000D02*
X119770000Y-111870000D01*
X119270000Y-111370000D02*
X119770000Y-111370000D01*
%TO.C,J2*%
X167700000Y-105709000D02*
X167700000Y-100509000D01*
X154430000Y-105709000D02*
X155450000Y-105709000D01*
X142180000Y-105709000D02*
X142750000Y-105709000D01*
X151890000Y-100509000D02*
X152910000Y-100509000D01*
X151890000Y-105709000D02*
X152910000Y-105709000D01*
X156970000Y-100509000D02*
X157990000Y-100509000D01*
X146810000Y-105709000D02*
X147830000Y-105709000D01*
X162050000Y-100509000D02*
X163070000Y-100509000D01*
X144270000Y-105709000D02*
X145290000Y-105709000D01*
X167130000Y-100509000D02*
X167700000Y-100509000D01*
X164590000Y-100509000D02*
X165610000Y-100509000D01*
X142180000Y-105709000D02*
X142180000Y-100509000D01*
X164590000Y-105709000D02*
X165610000Y-105709000D01*
X156970000Y-105709000D02*
X157990000Y-105709000D01*
X149350000Y-100509000D02*
X150370000Y-100509000D01*
X159510000Y-105709000D02*
X160530000Y-105709000D01*
X142180000Y-100509000D02*
X142750000Y-100509000D01*
X154430000Y-100509000D02*
X155450000Y-100509000D01*
X167130000Y-105709000D02*
X167700000Y-105709000D01*
X142750000Y-107149000D02*
X142750000Y-105709000D01*
X149350000Y-105709000D02*
X150370000Y-105709000D01*
X162050000Y-105709000D02*
X163070000Y-105709000D01*
X146810000Y-100509000D02*
X147830000Y-100509000D01*
X144270000Y-100509000D02*
X145290000Y-100509000D01*
X159510000Y-100509000D02*
X160530000Y-100509000D01*
%TO.C,D4*%
X106482000Y-116983000D02*
X106482000Y-119668000D01*
X106482000Y-119668000D02*
X108402000Y-119668000D01*
X108402000Y-119668000D02*
X108402000Y-116983000D01*
%TO.C,J3*%
X108566500Y-109044000D02*
X108116500Y-109044000D01*
X108566500Y-109044000D02*
X108566500Y-109494000D01*
X108016500Y-114644000D02*
X108016500Y-114194000D01*
X106166500Y-114644000D02*
X108016500Y-114644000D01*
X103616500Y-114644000D02*
X103866500Y-114644000D01*
X106166500Y-106844000D02*
X108016500Y-106844000D01*
X108016500Y-106844000D02*
X108016500Y-107294000D01*
X103616500Y-106844000D02*
X103866500Y-106844000D01*
%TO.C,U2*%
X141430000Y-109896000D02*
X141430000Y-112496000D01*
X138830000Y-112496000D02*
X138830000Y-115096000D01*
X141430000Y-112496000D02*
X138830000Y-112496000D01*
X141430000Y-115096000D02*
X140100000Y-115096000D01*
X141430000Y-113766000D02*
X141430000Y-115096000D01*
X141430000Y-109896000D02*
X131150000Y-109896000D01*
X131150000Y-109896000D02*
X131150000Y-115096000D01*
X138830000Y-115096000D02*
X131150000Y-115096000D01*
%TO.C,C1*%
X144059420Y-114260000D02*
X144340580Y-114260000D01*
X144059420Y-113240000D02*
X144340580Y-113240000D01*
%TO.C,C3*%
X112154580Y-115441000D02*
X111873420Y-115441000D01*
X112154580Y-116461000D02*
X111873420Y-116461000D01*
%TO.C,R1*%
X113662742Y-87234500D02*
X114137258Y-87234500D01*
X113662742Y-88279500D02*
X114137258Y-88279500D01*
%TO.C,C6*%
X118042666Y-118731420D02*
X118042666Y-119012580D01*
X117022666Y-118731420D02*
X117022666Y-119012580D01*
%TO.C,R6*%
X105678500Y-121682742D02*
X105678500Y-122157258D01*
X104633500Y-121682742D02*
X104633500Y-122157258D01*
%TO.C,R3*%
X120537258Y-115677500D02*
X120062742Y-115677500D01*
X120537258Y-116722500D02*
X120062742Y-116722500D01*
%TO.C,C4*%
X112154580Y-119001000D02*
X111873420Y-119001000D01*
X112154580Y-117981000D02*
X111873420Y-117981000D01*
%TO.C,J5*%
X166734800Y-128727200D02*
X164074800Y-128727200D01*
X164074800Y-131327200D02*
X164074800Y-129997200D01*
X164074800Y-128727200D02*
X164074800Y-121047200D01*
X165404800Y-131327200D02*
X164074800Y-131327200D01*
X166734800Y-128727200D02*
X166734800Y-121047200D01*
X166734800Y-121047200D02*
X164074800Y-121047200D01*
%TO.C,D5*%
X107260000Y-128685000D02*
X107260000Y-126000000D01*
X105340000Y-126000000D02*
X105340000Y-128685000D01*
X105340000Y-128685000D02*
X107260000Y-128685000D01*
%TO.C,D1*%
X110962000Y-111110000D02*
X110962000Y-112410000D01*
X114082000Y-112410000D02*
X114082000Y-110410000D01*
%TO.C,R5*%
X120427500Y-118634742D02*
X120427500Y-119109258D01*
X121472500Y-118634742D02*
X121472500Y-119109258D01*
%TO.C,R4*%
X119763832Y-119109258D02*
X119763832Y-118634742D01*
X118718832Y-119109258D02*
X118718832Y-118634742D01*
%TD*%
%LPC*%
D14*
%TO.C,Q1*%
X106686000Y-104276000D03*
D15*
X108966000Y-97976000D03*
D14*
X108966000Y-104276000D03*
X111246000Y-104276000D03*
%TD*%
D16*
%TO.C,C5*%
X115824000Y-118097000D03*
X115824000Y-119647000D03*
%TD*%
D17*
%TO.C,D2*%
X168656000Y-113459500D03*
X168656000Y-111584500D03*
%TD*%
D18*
%TO.C,C2*%
X160475000Y-113766000D03*
X162025000Y-113766000D03*
%TD*%
D19*
%TO.C,R8*%
X106275000Y-130100000D03*
X107925000Y-130100000D03*
%TD*%
D20*
%TO.C,J1*%
X116840000Y-105634000D03*
X116840000Y-100584000D03*
X119380000Y-105634000D03*
X119380000Y-100584000D03*
X121920000Y-105634000D03*
X121920000Y-100584000D03*
X124460000Y-105634000D03*
X124460000Y-100584000D03*
X127000000Y-105634000D03*
X127000000Y-100584000D03*
X129540000Y-105634000D03*
X129540000Y-100584000D03*
X132080000Y-105634000D03*
X132080000Y-100584000D03*
X134620000Y-105634000D03*
X134620000Y-100584000D03*
X137160000Y-105634000D03*
X137160000Y-100584000D03*
X139700000Y-105634000D03*
X139700000Y-100584000D03*
%TD*%
D17*
%TO.C,D3*%
X105156000Y-118920500D03*
X105156000Y-117045500D03*
%TD*%
D21*
%TO.C,U3*%
X157430666Y-113766000D03*
D22*
X157430666Y-111226000D03*
X154890666Y-113766000D03*
X154890666Y-111226000D03*
X152350666Y-113766000D03*
X152350666Y-111226000D03*
X149810666Y-113766000D03*
X149810666Y-111226000D03*
%TD*%
D23*
%TO.C,R7*%
X107442000Y-121095000D03*
X107442000Y-122745000D03*
%TD*%
D21*
%TO.C,J4*%
X125222000Y-129794000D03*
D22*
X125222000Y-127254000D03*
X125222000Y-124714000D03*
X125222000Y-122174000D03*
X125222000Y-119634000D03*
X125222000Y-117094000D03*
X125222000Y-114554000D03*
X125222000Y-112014000D03*
%TD*%
D24*
%TO.C,R2*%
X166052000Y-113665000D03*
X164402000Y-113665000D03*
%TD*%
D25*
%TO.C,SW1*%
X110937500Y-87784000D03*
D26*
X104962500Y-87796500D03*
D27*
X110950000Y-91537000D03*
X104950000Y-91537000D03*
%TD*%
D28*
%TO.C,U1*%
X116860000Y-111780000D03*
D29*
X116560000Y-112280000D03*
X116560000Y-112780000D03*
X116560000Y-113280000D03*
X116560000Y-113780000D03*
D28*
X116860000Y-114280000D03*
D30*
X117360000Y-114580000D03*
X117860000Y-114580000D03*
X118360000Y-114580000D03*
X118860000Y-114580000D03*
D28*
X119360000Y-114280000D03*
D29*
X119660000Y-113780000D03*
X119660000Y-113280000D03*
X119660000Y-112780000D03*
X119660000Y-112280000D03*
D28*
X119360000Y-111780000D03*
D30*
X118860000Y-111480000D03*
X118360000Y-111480000D03*
X117860000Y-111480000D03*
X117360000Y-111480000D03*
D31*
X118110000Y-113030000D03*
%TD*%
D20*
%TO.C,J2*%
X143510000Y-105634000D03*
X143510000Y-100584000D03*
X146050000Y-105634000D03*
X146050000Y-100584000D03*
X148590000Y-105634000D03*
X148590000Y-100584000D03*
X151130000Y-105634000D03*
X151130000Y-100584000D03*
X153670000Y-105634000D03*
X153670000Y-100584000D03*
X156210000Y-105634000D03*
X156210000Y-100584000D03*
X158750000Y-105634000D03*
X158750000Y-100584000D03*
X161290000Y-105634000D03*
X161290000Y-100584000D03*
X163830000Y-105634000D03*
X163830000Y-100584000D03*
X166370000Y-105634000D03*
X166370000Y-100584000D03*
%TD*%
D17*
%TO.C,D4*%
X107442000Y-118920500D03*
X107442000Y-117045500D03*
%TD*%
D32*
%TO.C,J3*%
X107716500Y-109444000D03*
X107716500Y-110094000D03*
X107716500Y-110744000D03*
X107716500Y-111394000D03*
X107716500Y-112044000D03*
D33*
X107716500Y-113244000D03*
D34*
X105016500Y-107844000D03*
D35*
X105016500Y-109744000D03*
X105016500Y-111744000D03*
D36*
X105016500Y-107244000D03*
X105016500Y-114244000D03*
D33*
X107716500Y-108244000D03*
D34*
X105016500Y-113644000D03*
%TD*%
D21*
%TO.C,U2*%
X140100000Y-113766000D03*
D22*
X140100000Y-111226000D03*
X137560000Y-113766000D03*
X137560000Y-111226000D03*
X135020000Y-113766000D03*
X135020000Y-111226000D03*
X132480000Y-113766000D03*
X132480000Y-111226000D03*
%TD*%
D18*
%TO.C,C1*%
X143425000Y-113750000D03*
X144975000Y-113750000D03*
%TD*%
D37*
%TO.C,C3*%
X112789000Y-115951000D03*
X111239000Y-115951000D03*
%TD*%
D19*
%TO.C,R1*%
X113075000Y-87757000D03*
X114725000Y-87757000D03*
%TD*%
D16*
%TO.C,C6*%
X117532666Y-118097000D03*
X117532666Y-119647000D03*
%TD*%
D23*
%TO.C,R6*%
X105156000Y-121095000D03*
X105156000Y-122745000D03*
%TD*%
D24*
%TO.C,R3*%
X121125000Y-116200000D03*
X119475000Y-116200000D03*
%TD*%
D37*
%TO.C,C4*%
X112789000Y-118491000D03*
X111239000Y-118491000D03*
%TD*%
D21*
%TO.C,J5*%
X165404800Y-129997200D03*
D22*
X165404800Y-127457200D03*
X165404800Y-124917200D03*
X165404800Y-122377200D03*
%TD*%
D17*
%TO.C,D5*%
X106300000Y-127937500D03*
X106300000Y-126062500D03*
%TD*%
D38*
%TO.C,D1*%
X113272000Y-110760000D03*
D39*
X111572000Y-110760000D03*
X111572000Y-112760000D03*
X113472000Y-112760000D03*
%TD*%
D23*
%TO.C,R5*%
X120950000Y-118047000D03*
X120950000Y-119697000D03*
%TD*%
D40*
%TO.C,R4*%
X119241332Y-119697000D03*
X119241332Y-118047000D03*
%TD*%
D21*
%TO.C,J6*%
X116840000Y-93980000D03*
D22*
X116840000Y-91440000D03*
X119380000Y-93980000D03*
X119380000Y-91440000D03*
X121920000Y-93980000D03*
X121920000Y-91440000D03*
X124460000Y-93980000D03*
X124460000Y-91440000D03*
X127000000Y-93980000D03*
X127000000Y-91440000D03*
X129540000Y-93980000D03*
X129540000Y-91440000D03*
X132080000Y-93980000D03*
X132080000Y-91440000D03*
X134620000Y-93980000D03*
X134620000Y-91440000D03*
X137160000Y-93980000D03*
X137160000Y-91440000D03*
X139700000Y-93980000D03*
X139700000Y-91440000D03*
X142240000Y-93980000D03*
X142240000Y-91440000D03*
X144780000Y-93980000D03*
X144780000Y-91440000D03*
X147320000Y-93980000D03*
X147320000Y-91440000D03*
X149860000Y-93980000D03*
X149860000Y-91440000D03*
X152400000Y-93980000D03*
X152400000Y-91440000D03*
X154940000Y-93980000D03*
X154940000Y-91440000D03*
X157480000Y-93980000D03*
X157480000Y-91440000D03*
X160020000Y-93980000D03*
X160020000Y-91440000D03*
X162560000Y-93980000D03*
X162560000Y-91440000D03*
X165100000Y-93980000D03*
X165100000Y-91440000D03*
%TD*%
M02*
