%TF.GenerationSoftware,KiCad,Pcbnew,(6.0.9-dirty)*%
%TF.CreationDate,2022-12-30T08:50:27-06:00*%
%TF.ProjectId,parthiv_pcb_v2,70617274-6869-4765-9f70-63625f76322e,rev?*%
%TF.SameCoordinates,Original*%
%TF.FileFunction,Soldermask,Top*%
%TF.FilePolarity,Negative*%
%FSLAX46Y46*%
G04 Gerber Fmt 4.6, Leading zero omitted, Abs format (unit mm)*
G04 Created by KiCad (PCBNEW (6.0.9-dirty)) date 2022-12-30 08:50:27*
%MOMM*%
%LPD*%
G01*
G04 APERTURE LIST*
G04 Aperture macros list*
%AMRoundRect*
0 Rectangle with rounded corners*
0 $1 Rounding radius*
0 $2 $3 $4 $5 $6 $7 $8 $9 X,Y pos of 4 corners*
0 Add a 4 corners polygon primitive as box body*
4,1,4,$2,$3,$4,$5,$6,$7,$8,$9,$2,$3,0*
0 Add four circle primitives for the rounded corners*
1,1,$1+$1,$2,$3*
1,1,$1+$1,$4,$5*
1,1,$1+$1,$6,$7*
1,1,$1+$1,$8,$9*
0 Add four rect primitives between the rounded corners*
20,1,$1+$1,$2,$3,$4,$5,0*
20,1,$1+$1,$4,$5,$6,$7,0*
20,1,$1+$1,$6,$7,$8,$9,0*
20,1,$1+$1,$8,$9,$2,$3,0*%
G04 Aperture macros list end*
%ADD10R,1.200000X2.200000*%
%ADD11R,5.800000X6.400000*%
%ADD12RoundRect,0.225000X-0.250000X0.225000X-0.250000X-0.225000X0.250000X-0.225000X0.250000X0.225000X0*%
%ADD13RoundRect,0.243750X0.456250X-0.243750X0.456250X0.243750X-0.456250X0.243750X-0.456250X-0.243750X0*%
%ADD14RoundRect,0.225000X-0.225000X-0.250000X0.225000X-0.250000X0.225000X0.250000X-0.225000X0.250000X0*%
%ADD15RoundRect,0.200000X-0.200000X-0.275000X0.200000X-0.275000X0.200000X0.275000X-0.200000X0.275000X0*%
%ADD16R,1.000000X3.150000*%
%ADD17R,1.700000X1.700000*%
%ADD18O,1.700000X1.700000*%
%ADD19RoundRect,0.200000X-0.275000X0.200000X-0.275000X-0.200000X0.275000X-0.200000X0.275000X0.200000X0*%
%ADD20RoundRect,0.200000X0.200000X0.275000X-0.200000X0.275000X-0.200000X-0.275000X0.200000X-0.275000X0*%
%ADD21RoundRect,0.251500X-0.386000X-0.251500X0.386000X-0.251500X0.386000X0.251500X-0.386000X0.251500X0*%
%ADD22RoundRect,0.257750X-0.379750X-0.257750X0.379750X-0.257750X0.379750X0.257750X-0.379750X0.257750X0*%
%ADD23RoundRect,0.237500X-0.387500X-0.237500X0.387500X-0.237500X0.387500X0.237500X-0.387500X0.237500X0*%
%ADD24R,0.300000X0.300000*%
%ADD25R,0.900000X0.300000*%
%ADD26R,0.300000X0.900000*%
%ADD27R,1.800000X1.800000*%
%ADD28R,1.350000X0.400000*%
%ADD29C,1.450000*%
%ADD30R,1.900000X1.200000*%
%ADD31R,1.900000X1.500000*%
%ADD32O,1.900000X1.200000*%
%ADD33RoundRect,0.225000X0.225000X0.250000X-0.225000X0.250000X-0.225000X-0.250000X0.225000X-0.250000X0*%
%ADD34R,1.000000X0.700000*%
%ADD35R,0.600000X0.700000*%
%ADD36RoundRect,0.200000X0.275000X-0.200000X0.275000X0.200000X-0.275000X0.200000X-0.275000X-0.200000X0*%
G04 APERTURE END LIST*
D10*
%TO.C,Q1*%
X106686000Y-104276000D03*
D11*
X108966000Y-97976000D03*
D10*
X108966000Y-104276000D03*
X111246000Y-104276000D03*
%TD*%
D12*
%TO.C,C5*%
X115824000Y-118097000D03*
X115824000Y-119647000D03*
%TD*%
D13*
%TO.C,D2*%
X168656000Y-113459500D03*
X168656000Y-111584500D03*
%TD*%
D14*
%TO.C,C2*%
X160475000Y-113766000D03*
X162025000Y-113766000D03*
%TD*%
D15*
%TO.C,R8*%
X106275000Y-130100000D03*
X107925000Y-130100000D03*
%TD*%
D16*
%TO.C,J1*%
X116840000Y-105634000D03*
X116840000Y-100584000D03*
X119380000Y-105634000D03*
X119380000Y-100584000D03*
X121920000Y-105634000D03*
X121920000Y-100584000D03*
X124460000Y-105634000D03*
X124460000Y-100584000D03*
X127000000Y-105634000D03*
X127000000Y-100584000D03*
X129540000Y-105634000D03*
X129540000Y-100584000D03*
X132080000Y-105634000D03*
X132080000Y-100584000D03*
X134620000Y-105634000D03*
X134620000Y-100584000D03*
X137160000Y-105634000D03*
X137160000Y-100584000D03*
X139700000Y-105634000D03*
X139700000Y-100584000D03*
%TD*%
D13*
%TO.C,D3*%
X105156000Y-118920500D03*
X105156000Y-117045500D03*
%TD*%
D17*
%TO.C,U3*%
X157430666Y-113766000D03*
D18*
X157430666Y-111226000D03*
X154890666Y-113766000D03*
X154890666Y-111226000D03*
X152350666Y-113766000D03*
X152350666Y-111226000D03*
X149810666Y-113766000D03*
X149810666Y-111226000D03*
%TD*%
D19*
%TO.C,R7*%
X107442000Y-121095000D03*
X107442000Y-122745000D03*
%TD*%
D17*
%TO.C,J4*%
X125222000Y-129794000D03*
D18*
X125222000Y-127254000D03*
X125222000Y-124714000D03*
X125222000Y-122174000D03*
X125222000Y-119634000D03*
X125222000Y-117094000D03*
X125222000Y-114554000D03*
X125222000Y-112014000D03*
%TD*%
D20*
%TO.C,R2*%
X166052000Y-113665000D03*
X164402000Y-113665000D03*
%TD*%
D21*
%TO.C,SW1*%
X110937500Y-87784000D03*
D22*
X104962500Y-87796500D03*
D23*
X110950000Y-91537000D03*
X104950000Y-91537000D03*
%TD*%
D24*
%TO.C,U1*%
X116860000Y-111780000D03*
D25*
X116560000Y-112280000D03*
X116560000Y-112780000D03*
X116560000Y-113280000D03*
X116560000Y-113780000D03*
D24*
X116860000Y-114280000D03*
D26*
X117360000Y-114580000D03*
X117860000Y-114580000D03*
X118360000Y-114580000D03*
X118860000Y-114580000D03*
D24*
X119360000Y-114280000D03*
D25*
X119660000Y-113780000D03*
X119660000Y-113280000D03*
X119660000Y-112780000D03*
X119660000Y-112280000D03*
D24*
X119360000Y-111780000D03*
D26*
X118860000Y-111480000D03*
X118360000Y-111480000D03*
X117860000Y-111480000D03*
X117360000Y-111480000D03*
D27*
X118110000Y-113030000D03*
%TD*%
D16*
%TO.C,J2*%
X143510000Y-105634000D03*
X143510000Y-100584000D03*
X146050000Y-105634000D03*
X146050000Y-100584000D03*
X148590000Y-105634000D03*
X148590000Y-100584000D03*
X151130000Y-105634000D03*
X151130000Y-100584000D03*
X153670000Y-105634000D03*
X153670000Y-100584000D03*
X156210000Y-105634000D03*
X156210000Y-100584000D03*
X158750000Y-105634000D03*
X158750000Y-100584000D03*
X161290000Y-105634000D03*
X161290000Y-100584000D03*
X163830000Y-105634000D03*
X163830000Y-100584000D03*
X166370000Y-105634000D03*
X166370000Y-100584000D03*
%TD*%
D13*
%TO.C,D4*%
X107442000Y-118920500D03*
X107442000Y-117045500D03*
%TD*%
D28*
%TO.C,J3*%
X107716500Y-109444000D03*
X107716500Y-110094000D03*
X107716500Y-110744000D03*
X107716500Y-111394000D03*
X107716500Y-112044000D03*
D29*
X107716500Y-113244000D03*
D30*
X105016500Y-107844000D03*
D31*
X105016500Y-109744000D03*
X105016500Y-111744000D03*
D32*
X105016500Y-107244000D03*
X105016500Y-114244000D03*
D29*
X107716500Y-108244000D03*
D30*
X105016500Y-113644000D03*
%TD*%
D17*
%TO.C,U2*%
X140100000Y-113766000D03*
D18*
X140100000Y-111226000D03*
X137560000Y-113766000D03*
X137560000Y-111226000D03*
X135020000Y-113766000D03*
X135020000Y-111226000D03*
X132480000Y-113766000D03*
X132480000Y-111226000D03*
%TD*%
D14*
%TO.C,C1*%
X143425000Y-113750000D03*
X144975000Y-113750000D03*
%TD*%
D33*
%TO.C,C3*%
X112789000Y-115951000D03*
X111239000Y-115951000D03*
%TD*%
D15*
%TO.C,R1*%
X113075000Y-87757000D03*
X114725000Y-87757000D03*
%TD*%
D12*
%TO.C,C6*%
X117532666Y-118097000D03*
X117532666Y-119647000D03*
%TD*%
D19*
%TO.C,R6*%
X105156000Y-121095000D03*
X105156000Y-122745000D03*
%TD*%
D20*
%TO.C,R3*%
X121125000Y-116200000D03*
X119475000Y-116200000D03*
%TD*%
D33*
%TO.C,C4*%
X112789000Y-118491000D03*
X111239000Y-118491000D03*
%TD*%
D17*
%TO.C,J5*%
X165404800Y-129997200D03*
D18*
X165404800Y-127457200D03*
X165404800Y-124917200D03*
X165404800Y-122377200D03*
%TD*%
D13*
%TO.C,D5*%
X106300000Y-127937500D03*
X106300000Y-126062500D03*
%TD*%
D34*
%TO.C,D1*%
X113272000Y-110760000D03*
D35*
X111572000Y-110760000D03*
X111572000Y-112760000D03*
X113472000Y-112760000D03*
%TD*%
D19*
%TO.C,R5*%
X120950000Y-118047000D03*
X120950000Y-119697000D03*
%TD*%
D36*
%TO.C,R4*%
X119241332Y-119697000D03*
X119241332Y-118047000D03*
%TD*%
D17*
%TO.C,J6*%
X116840000Y-93980000D03*
D18*
X116840000Y-91440000D03*
X119380000Y-93980000D03*
X119380000Y-91440000D03*
X121920000Y-93980000D03*
X121920000Y-91440000D03*
X124460000Y-93980000D03*
X124460000Y-91440000D03*
X127000000Y-93980000D03*
X127000000Y-91440000D03*
X129540000Y-93980000D03*
X129540000Y-91440000D03*
X132080000Y-93980000D03*
X132080000Y-91440000D03*
X134620000Y-93980000D03*
X134620000Y-91440000D03*
X137160000Y-93980000D03*
X137160000Y-91440000D03*
X139700000Y-93980000D03*
X139700000Y-91440000D03*
X142240000Y-93980000D03*
X142240000Y-91440000D03*
X144780000Y-93980000D03*
X144780000Y-91440000D03*
X147320000Y-93980000D03*
X147320000Y-91440000D03*
X149860000Y-93980000D03*
X149860000Y-91440000D03*
X152400000Y-93980000D03*
X152400000Y-91440000D03*
X154940000Y-93980000D03*
X154940000Y-91440000D03*
X157480000Y-93980000D03*
X157480000Y-91440000D03*
X160020000Y-93980000D03*
X160020000Y-91440000D03*
X162560000Y-93980000D03*
X162560000Y-91440000D03*
X165100000Y-93980000D03*
X165100000Y-91440000D03*
%TD*%
M02*
