M48
; DRILL file {KiCad (6.0.9-dirty)} date Fri 30 Dec 2022 08:50:27 AM CST
; FORMAT={-:-/ absolute / inch / decimal}
; #@! TF.CreationDate,2022-12-30T08:50:27-06:00
; #@! TF.GenerationSoftware,Kicad,Pcbnew,(6.0.9-dirty)
; #@! TF.FileFunction,Plated,1,2,PTH
FMAT,2
INCH
; #@! TA.AperFunction,Plated,PTH,ViaDrill
T1C0.0157
; #@! TA.AperFunction,Plated,PTH,ComponentDrill
T2C0.0236
; #@! TA.AperFunction,Plated,PTH,ComponentDrill
T3C0.0335
; #@! TA.AperFunction,Plated,PTH,ComponentDrill
T4C0.0394
%
G90
G05
T1
X4.15Y-4.075
X4.17Y-4.31
X4.17Y-4.41
X4.184Y-3.4559
X4.185Y-4.6083
X4.185Y-4.9
X4.19Y-3.6041
X4.2756Y-4.5197
X4.2992Y-4.7677
X4.32Y-3.4559
X4.32Y-3.6041
X4.4291Y-4.4394
X4.4331Y-4.7835
X4.475Y-4.05
X4.5118Y-3.9764
X4.5177Y-4.5669
X4.5276Y-4.4508
X4.59Y-4.56
X4.5965Y-4.3406
X4.6Y-4.3
X4.64Y-4.3
X4.69Y-4.32
X4.7992Y-4.0915
X4.815Y-4.5787
X4.84Y-3.51
X4.8465Y-3.9606
X4.8504Y-4.4331
X4.8543Y-3.8327
X4.8976Y-4.3031
X4.9114Y-3.5138
X5.0472Y-3.8652
X5.0472Y-4.0551
X5.0531Y-3.5039
X5.0531Y-3.7648
X5.1264Y-3.4705
X5.1488Y-4.2185
X5.1496Y-4.0148
X5.1988Y-4.3
X5.2461Y-3.4484
X5.2488Y-4.0523
X5.2508Y-3.9028
X5.2982Y-4.0915
X5.3313Y-3.7618
X5.3313Y-3.9925
X5.3494Y-4.6126
X5.4528Y-3.9764
X5.496Y-3.794
X5.505Y-4.055
X5.537Y-3.4654
X5.5539Y-3.9618
X5.565Y-3.7618
X5.6277Y-4.2559
X5.6277Y-4.379
X5.69Y-4.08
X5.6998Y-3.497
X5.725Y-3.96
X5.7531Y-3.7795
X5.781Y-4.317
X5.798Y-3.5272
X5.83Y-4.1
X5.8484Y-4.3052
X5.8732Y-3.5276
X5.8967Y-3.8278
X5.9Y-4.064
X5.9469Y-3.5404
X5.9921Y-3.4646
X6.0Y-3.7992
X6.0Y-3.905
X6.0072Y-4.2372
X6.0433Y-3.7547
X6.05Y-4.1
X6.05Y-4.32
X6.061Y-4.632
X6.065Y-3.98
X6.13Y-3.995
X6.1307Y-3.4653
X6.1437Y-4.4272
X6.195Y-4.18
X6.1969Y-3.8134
X6.2Y-3.9
X6.2848Y-3.8748
X6.3Y-4.195
X6.3146Y-3.8031
X6.35Y-4.025
X6.35Y-4.225
X6.4Y-4.2707
X6.402Y-4.221
X6.405Y-3.844
X6.415Y-4.665
X6.43Y-4.575
X6.4476Y-3.7965
X6.45Y-4.025
X6.474Y-4.642
X6.495Y-3.96
X6.6106Y-4.5754
X6.6392Y-4.2323
T3
X4.2408Y-4.2616
X4.2408Y-4.4584
T4
X4.6Y-3.6
X4.6Y-3.7
X4.7Y-3.6
X4.7Y-3.7
X4.8Y-3.6
X4.8Y-3.7
X4.9Y-3.6
X4.9Y-3.7
X4.93Y-4.41
X4.93Y-4.51
X4.93Y-4.61
X4.93Y-4.71
X4.93Y-4.81
X4.93Y-4.91
X4.93Y-5.01
X4.93Y-5.11
X5.0Y-3.6
X5.0Y-3.7
X5.1Y-3.6
X5.1Y-3.7
X5.2Y-3.6
X5.2Y-3.7
X5.2157Y-4.379
X5.2157Y-4.479
X5.3Y-3.6
X5.3Y-3.7
X5.3157Y-4.379
X5.3157Y-4.479
X5.4Y-3.6
X5.4Y-3.7
X5.4157Y-4.379
X5.4157Y-4.479
X5.5Y-3.6
X5.5Y-3.7
X5.5157Y-4.379
X5.5157Y-4.479
X5.6Y-3.6
X5.6Y-3.7
X5.7Y-3.6
X5.7Y-3.7
X5.8Y-3.6
X5.8Y-3.7
X5.8981Y-4.379
X5.8981Y-4.479
X5.9Y-3.6
X5.9Y-3.7
X5.9981Y-4.379
X5.9981Y-4.479
X6.0Y-3.6
X6.0Y-3.7
X6.0981Y-4.379
X6.0981Y-4.479
X6.1Y-3.6
X6.1Y-3.7
X6.1981Y-4.379
X6.1981Y-4.479
X6.2Y-3.6
X6.2Y-3.7
X6.3Y-3.6
X6.3Y-3.7
X6.4Y-3.6
X6.4Y-3.7
X6.5Y-3.6
X6.5Y-3.7
X6.512Y-4.818
X6.512Y-4.918
X6.512Y-5.018
X6.512Y-5.118
T2
G00X4.1207Y-4.2222
M15
G01X4.1483Y-4.2222
M16
G05
G00X4.1483Y-4.4978
M15
G01X4.1207Y-4.4978
M16
G05
T0
M30
