%TF.GenerationSoftware,KiCad,Pcbnew,(6.0.9-dirty)*%
%TF.CreationDate,2022-12-30T08:50:27-06:00*%
%TF.ProjectId,parthiv_pcb_v2,70617274-6869-4765-9f70-63625f76322e,rev?*%
%TF.SameCoordinates,Original*%
%TF.FileFunction,Copper,L2,Bot*%
%TF.FilePolarity,Positive*%
%FSLAX46Y46*%
G04 Gerber Fmt 4.6, Leading zero omitted, Abs format (unit mm)*
G04 Created by KiCad (PCBNEW (6.0.9-dirty)) date 2022-12-30 08:50:27*
%MOMM*%
%LPD*%
G01*
G04 APERTURE LIST*
%TA.AperFunction,ComponentPad*%
%ADD10R,1.700000X1.700000*%
%TD*%
%TA.AperFunction,ComponentPad*%
%ADD11O,1.700000X1.700000*%
%TD*%
%TA.AperFunction,ComponentPad*%
%ADD12C,1.450000*%
%TD*%
%TA.AperFunction,ComponentPad*%
%ADD13O,1.900000X1.200000*%
%TD*%
%TA.AperFunction,ViaPad*%
%ADD14C,0.800000*%
%TD*%
%TA.AperFunction,Conductor*%
%ADD15C,0.500000*%
%TD*%
%TA.AperFunction,Conductor*%
%ADD16C,0.250000*%
%TD*%
%TA.AperFunction,Conductor*%
%ADD17C,1.000000*%
%TD*%
G04 APERTURE END LIST*
D10*
%TO.P,U3,1,VCC*%
%TO.N,+3V3*%
X157430666Y-113766000D03*
D11*
%TO.P,U3,2,GND*%
%TO.N,GND*%
X157430666Y-111226000D03*
%TO.P,U3,3,~{CSN}*%
%TO.N,GPIO7*%
X154890666Y-113766000D03*
%TO.P,U3,4,CE*%
%TO.N,GPIO5*%
X154890666Y-111226000D03*
%TO.P,U3,5,MOSI*%
%TO.N,GPIO10*%
X152350666Y-113766000D03*
%TO.P,U3,6,SCK*%
%TO.N,GPIO11*%
X152350666Y-111226000D03*
%TO.P,U3,7,IRQ*%
%TO.N,GPIO23*%
X149810666Y-113766000D03*
%TO.P,U3,8,MISO*%
%TO.N,GPIO9*%
X149810666Y-111226000D03*
%TD*%
D10*
%TO.P,J4,1,VCC*%
%TO.N,+3V3*%
X125222000Y-129794000D03*
D11*
%TO.P,J4,2,GND*%
%TO.N,GND*%
X125222000Y-127254000D03*
%TO.P,J4,3,SCL*%
%TO.N,GPIO3*%
X125222000Y-124714000D03*
%TO.P,J4,4,SDA*%
%TO.N,GPIO2*%
X125222000Y-122174000D03*
%TO.P,J4,5,XDA*%
%TO.N,unconnected-(J4-Pad5)*%
X125222000Y-119634000D03*
%TO.P,J4,6,XCL*%
%TO.N,unconnected-(J4-Pad6)*%
X125222000Y-117094000D03*
%TO.P,J4,7,AD0*%
%TO.N,GND*%
X125222000Y-114554000D03*
%TO.P,J4,8,INT*%
%TO.N,GPIO4*%
X125222000Y-112014000D03*
%TD*%
D12*
%TO.P,J3,6,Shield*%
%TO.N,GND*%
X107716500Y-113244000D03*
D13*
X105016500Y-107244000D03*
X105016500Y-114244000D03*
D12*
X107716500Y-108244000D03*
%TD*%
D10*
%TO.P,U2,1,VCC*%
%TO.N,+3V3*%
X140100000Y-113766000D03*
D11*
%TO.P,U2,2,GND*%
%TO.N,GND*%
X140100000Y-111226000D03*
%TO.P,U2,3,~{CSN}*%
%TO.N,GPIO8*%
X137560000Y-113766000D03*
%TO.P,U2,4,CE*%
%TO.N,GPIO6*%
X137560000Y-111226000D03*
%TO.P,U2,5,MOSI*%
%TO.N,GPIO10*%
X135020000Y-113766000D03*
%TO.P,U2,6,SCK*%
%TO.N,GPIO11*%
X135020000Y-111226000D03*
%TO.P,U2,7,IRQ*%
%TO.N,GPIO22*%
X132480000Y-113766000D03*
%TO.P,U2,8,MISO*%
%TO.N,GPIO9*%
X132480000Y-111226000D03*
%TD*%
D10*
%TO.P,J5,1,VCC*%
%TO.N,+3V3*%
X165404800Y-129997200D03*
D11*
%TO.P,J5,2,TRIG*%
%TO.N,GPIO26*%
X165404800Y-127457200D03*
%TO.P,J5,3,ECHO*%
%TO.N,GPIO24*%
X165404800Y-124917200D03*
%TO.P,J5,4,GND*%
%TO.N,GND*%
X165404800Y-122377200D03*
%TD*%
D10*
%TO.P,J6,1,3V3*%
%TO.N,+3V3*%
X116840000Y-93980000D03*
D11*
%TO.P,J6,2,5V*%
%TO.N,+5V*%
X116840000Y-91440000D03*
%TO.P,J6,3,SDA/GPIO2*%
%TO.N,GPIO2*%
X119380000Y-93980000D03*
%TO.P,J6,4,5V*%
%TO.N,+5V*%
X119380000Y-91440000D03*
%TO.P,J6,5,SCL/GPIO3*%
%TO.N,GPIO3*%
X121920000Y-93980000D03*
%TO.P,J6,6,GND*%
%TO.N,GND*%
X121920000Y-91440000D03*
%TO.P,J6,7,GCLK0/GPIO4*%
%TO.N,GPIO4*%
X124460000Y-93980000D03*
%TO.P,J6,8,GPIO14/TXD*%
%TO.N,GPIO14*%
X124460000Y-91440000D03*
%TO.P,J6,9,GND*%
%TO.N,GND*%
X127000000Y-93980000D03*
%TO.P,J6,10,GPIO15/RXD*%
%TO.N,GPIO15*%
X127000000Y-91440000D03*
%TO.P,J6,11,GPIO17*%
%TO.N,GPIO17*%
X129540000Y-93980000D03*
%TO.P,J6,12,GPIO18/PWM0*%
%TO.N,GPIO18*%
X129540000Y-91440000D03*
%TO.P,J6,13,GPIO27*%
%TO.N,GPIO27*%
X132080000Y-93980000D03*
%TO.P,J6,14,GND*%
%TO.N,GND*%
X132080000Y-91440000D03*
%TO.P,J6,15,GPIO22*%
%TO.N,GPIO22*%
X134620000Y-93980000D03*
%TO.P,J6,16,GPIO23*%
%TO.N,GPIO23*%
X134620000Y-91440000D03*
%TO.P,J6,17,3V3*%
%TO.N,+3V3*%
X137160000Y-93980000D03*
%TO.P,J6,18,GPIO24*%
%TO.N,GPIO24*%
X137160000Y-91440000D03*
%TO.P,J6,19,MOSI0/GPIO10*%
%TO.N,GPIO10*%
X139700000Y-93980000D03*
%TO.P,J6,20,GND*%
%TO.N,GND*%
X139700000Y-91440000D03*
%TO.P,J6,21,MISO0/GPIO9*%
%TO.N,GPIO9*%
X142240000Y-93980000D03*
%TO.P,J6,22,GPIO25*%
%TO.N,GPIO25*%
X142240000Y-91440000D03*
%TO.P,J6,23,SCLK0/GPIO11*%
%TO.N,GPIO11*%
X144780000Y-93980000D03*
%TO.P,J6,24,~{CE0}/GPIO8*%
%TO.N,GPIO8*%
X144780000Y-91440000D03*
%TO.P,J6,25,GND*%
%TO.N,GND*%
X147320000Y-93980000D03*
%TO.P,J6,26,~{CE1}/GPIO7*%
%TO.N,GPIO7*%
X147320000Y-91440000D03*
%TO.P,J6,27,ID_SD/GPIO0*%
%TO.N,GPIO0*%
X149860000Y-93980000D03*
%TO.P,J6,28,ID_SC/GPIO1*%
%TO.N,GPIO1*%
X149860000Y-91440000D03*
%TO.P,J6,29,GCLK1/GPIO5*%
%TO.N,GPIO5*%
X152400000Y-93980000D03*
%TO.P,J6,30,GND*%
%TO.N,GND*%
X152400000Y-91440000D03*
%TO.P,J6,31,GCLK2/GPIO6*%
%TO.N,GPIO6*%
X154940000Y-93980000D03*
%TO.P,J6,32,PWM0/GPIO12*%
%TO.N,GPIO12*%
X154940000Y-91440000D03*
%TO.P,J6,33,PWM1/GPIO13*%
%TO.N,GPIO13*%
X157480000Y-93980000D03*
%TO.P,J6,34,GND*%
%TO.N,GND*%
X157480000Y-91440000D03*
%TO.P,J6,35,GPIO19/MISO1*%
%TO.N,GPIO19*%
X160020000Y-93980000D03*
%TO.P,J6,36,GPIO16*%
%TO.N,GPIO16*%
X160020000Y-91440000D03*
%TO.P,J6,37,GPIO26*%
%TO.N,GPIO26*%
X162560000Y-93980000D03*
%TO.P,J6,38,GPIO20/MOSI1*%
%TO.N,GPIO20*%
X162560000Y-91440000D03*
%TO.P,J6,39,GND*%
%TO.N,GND*%
X165100000Y-93980000D03*
%TO.P,J6,40,GPIO21/SCLK1*%
%TO.N,GPIO21*%
X165100000Y-91440000D03*
%TD*%
D14*
%TO.N,+3V3*%
X114750000Y-116000000D03*
X141070000Y-100630000D03*
X146837400Y-109651800D03*
X164973000Y-100584000D03*
X138500000Y-101000000D03*
X163830000Y-102235000D03*
X122300000Y-116300000D03*
%TO.N,+5V*%
X106300000Y-124460000D03*
X116586000Y-115824000D03*
X106300000Y-117050000D03*
X114600000Y-101000000D03*
%TO.N,GND*%
X105918000Y-109474000D03*
X142944000Y-108100000D03*
X142944000Y-111226000D03*
X108600000Y-114800000D03*
X105918000Y-112014000D03*
X128200000Y-103000000D03*
%TO.N,/CP2102N/USBD+*%
X115000000Y-113050000D03*
X112500000Y-112760000D03*
%TO.N,/CP2102N/nTXLED*%
X116750000Y-110250000D03*
X109200000Y-121100000D03*
%TO.N,GPIO27*%
X162610800Y-107213400D03*
X161290000Y-102235000D03*
X133250000Y-87590000D03*
X168634500Y-107500000D03*
%TO.N,GPIO2*%
X124400000Y-109300000D03*
%TO.N,GPIO3*%
X123200000Y-112600000D03*
%TO.N,GPIO14*%
X119126000Y-109728000D03*
X144526000Y-103632000D03*
X123300000Y-97350000D03*
X122936000Y-89154000D03*
%TO.N,GPIO15*%
X145415000Y-100584000D03*
X124750000Y-89250000D03*
X117856000Y-109220000D03*
X139598400Y-96367600D03*
%TO.N,GPIO17*%
X139827000Y-102997000D03*
%TO.N,GPIO18*%
X130210000Y-88150000D03*
X167910000Y-116214400D03*
%TO.N,GPIO22*%
X135874000Y-117160000D03*
X157353000Y-106172000D03*
X130780000Y-107150000D03*
X153949400Y-117652800D03*
%TO.N,GPIO23*%
X140640000Y-88020000D03*
X155702000Y-101473000D03*
X164439600Y-117906800D03*
X149860000Y-103225000D03*
%TO.N,GPIO24*%
X157480000Y-99060000D03*
X157400000Y-96860000D03*
X160020000Y-106553000D03*
X146130000Y-96000000D03*
X153500000Y-95370000D03*
%TO.N,GPIO10*%
X134575000Y-103925000D03*
%TO.N,GPIO9*%
X133320500Y-102929500D03*
X128200000Y-98175000D03*
%TO.N,GPIO25*%
X155720850Y-88019150D03*
X160390000Y-96600000D03*
X159634701Y-98420701D03*
X152200000Y-88000000D03*
%TO.N,GPIO11*%
X141350000Y-95550000D03*
X148549000Y-109351000D03*
X135415000Y-101409000D03*
X135415000Y-95550000D03*
%TO.N,GPIO8*%
X128350000Y-89000000D03*
X130800000Y-101975000D03*
X144775000Y-88825000D03*
X128350000Y-95625000D03*
X132050000Y-109220000D03*
%TO.N,GPIO7*%
X153670000Y-109728000D03*
%TO.N,GPIO0*%
X121900000Y-103925000D03*
X151050000Y-89925000D03*
%TO.N,GPIO1*%
X123100000Y-100600000D03*
X149180000Y-89600000D03*
%TO.N,GPIO5*%
X162560000Y-108475000D03*
X149775000Y-97225000D03*
X162687000Y-97637600D03*
X152400000Y-96500000D03*
%TO.N,GPIO12*%
X133370000Y-99130000D03*
X147270000Y-89590000D03*
%TO.N,GPIO13*%
X152400000Y-99187000D03*
%TO.N,GPIO19*%
X163322000Y-116205000D03*
X152583000Y-107625000D03*
X163770000Y-96430000D03*
X156050000Y-112450000D03*
%TO.N,GPIO16*%
X148082000Y-104140000D03*
%TO.N,GPIO26*%
X161290000Y-107315000D03*
X162941000Y-118491000D03*
%TO.N,GPIO20*%
X153670000Y-104140000D03*
%TO.N,GPIO21*%
X154051000Y-101092000D03*
%TO.N,VBUS*%
X106426000Y-91543000D03*
X109728000Y-91543000D03*
X113665000Y-102870000D03*
%TO.N,/CP2102N/nRESET*%
X106273600Y-87781000D03*
X105410000Y-103505000D03*
X109728000Y-87781000D03*
%TO.N,/CP2102N/nRXLED*%
X112600000Y-121500000D03*
X116840000Y-109220000D03*
%TD*%
D15*
%TO.N,+5V*%
X110550000Y-117050000D02*
X106300000Y-117050000D01*
X116586000Y-114173000D02*
X116039000Y-114720000D01*
X114600000Y-101000000D02*
X114600000Y-110297918D01*
X116586000Y-112283918D02*
X116586000Y-114173000D01*
X116039000Y-114720000D02*
X112880000Y-114720000D01*
D16*
X106300000Y-117050000D02*
X106300000Y-124460000D01*
D15*
X116586000Y-114173000D02*
X116586000Y-115824000D01*
X112880000Y-114720000D02*
X110550000Y-117050000D01*
X114600000Y-110297918D02*
X116586000Y-112283918D01*
D16*
%TO.N,GND*%
X127000000Y-93980000D02*
X127000000Y-101800000D01*
X148495000Y-92805000D02*
X151035000Y-92805000D01*
X147320000Y-93980000D02*
X148495000Y-92805000D01*
X151035000Y-92805000D02*
X152400000Y-91440000D01*
D17*
X142944000Y-108100000D02*
X142944000Y-111226000D01*
D16*
X127000000Y-101800000D02*
X128200000Y-103000000D01*
%TO.N,/CP2102N/USBD+*%
X114710000Y-112760000D02*
X115000000Y-113050000D01*
X112500000Y-112760000D02*
X114710000Y-112760000D01*
%TO.N,/CP2102N/nTXLED*%
X113285305Y-120150000D02*
X117475000Y-115960305D01*
X113285305Y-120150000D02*
X110150000Y-120150000D01*
X116750000Y-110250000D02*
X116750000Y-110273000D01*
X117475000Y-110998000D02*
X117475000Y-115960305D01*
X110150000Y-120150000D02*
X109200000Y-121100000D01*
X116750000Y-110273000D02*
X117475000Y-110998000D01*
%TO.N,GPIO27*%
X163580000Y-86580000D02*
X168634500Y-91634500D01*
X162331400Y-107213400D02*
X162610800Y-107213400D01*
X139970000Y-86580000D02*
X163580000Y-86580000D01*
X133250000Y-87590000D02*
X138960000Y-87590000D01*
X161290000Y-106172000D02*
X162331400Y-107213400D01*
X168634500Y-91634500D02*
X168634500Y-107500000D01*
X161290000Y-102235000D02*
X161290000Y-106172000D01*
X138960000Y-87590000D02*
X139970000Y-86580000D01*
%TO.N,GPIO2*%
X124400000Y-109300000D02*
X126397000Y-111297000D01*
X126397000Y-120877000D02*
X125115000Y-122159000D01*
X126397000Y-111297000D02*
X126397000Y-120877000D01*
%TO.N,GPIO3*%
X123200000Y-112600000D02*
X123200000Y-122784000D01*
X123200000Y-122784000D02*
X125115000Y-124699000D01*
%TO.N,GPIO14*%
X140040000Y-107540000D02*
X131415305Y-107540000D01*
X130905305Y-108050000D02*
X127320000Y-108050000D01*
X144526000Y-103632000D02*
X143948000Y-103632000D01*
X116237000Y-90265000D02*
X115316000Y-91186000D01*
X115950000Y-106200000D02*
X119126000Y-109376000D01*
X131415305Y-107540000D02*
X130905305Y-108050000D01*
X122375000Y-103105000D02*
X122375000Y-98275000D01*
X121835000Y-90265000D02*
X116237000Y-90265000D01*
X122375000Y-98275000D02*
X123300000Y-97350000D01*
X115316000Y-99938299D02*
X115950000Y-100572299D01*
X115316000Y-91186000D02*
X115316000Y-99938299D01*
X127320000Y-108050000D02*
X122375000Y-103105000D01*
X143948000Y-103632000D02*
X140040000Y-107540000D01*
X122800000Y-89300000D02*
X121835000Y-90265000D01*
X115950000Y-100572299D02*
X115950000Y-106200000D01*
X119126000Y-109376000D02*
X119126000Y-109728000D01*
%TO.N,GPIO15*%
X123929000Y-88429000D02*
X122635695Y-88429000D01*
X114866000Y-90999604D02*
X114866000Y-100124695D01*
X115500000Y-100758695D02*
X115500000Y-106390000D01*
X117856000Y-108746000D02*
X117856000Y-109220000D01*
X121259695Y-89805000D02*
X121259695Y-89815000D01*
X121259695Y-89815000D02*
X116050604Y-89815000D01*
X122635695Y-88429000D02*
X121259695Y-89805000D01*
X144740000Y-99900000D02*
X144740000Y-99909000D01*
X116050604Y-89815000D02*
X114866000Y-90999604D01*
X124750000Y-89250000D02*
X123929000Y-88429000D01*
X114866000Y-100124695D02*
X115500000Y-100758695D01*
X144740000Y-99909000D02*
X145415000Y-100584000D01*
X141207600Y-96367600D02*
X144740000Y-99900000D01*
X115500000Y-106390000D02*
X117856000Y-108746000D01*
X139598400Y-96367600D02*
X141207600Y-96367600D01*
%TO.N,GPIO17*%
X129540000Y-93980000D02*
X130715000Y-92805000D01*
X136335000Y-100515000D02*
X138817000Y-102997000D01*
X135296701Y-92805000D02*
X135985000Y-93493299D01*
X135985000Y-93493299D02*
X135985000Y-95095000D01*
X135985000Y-95095000D02*
X136335000Y-95445000D01*
X130715000Y-92805000D02*
X135296701Y-92805000D01*
X138817000Y-102997000D02*
X139827000Y-102997000D01*
X136335000Y-95445000D02*
X136335000Y-100515000D01*
%TO.N,GPIO18*%
X167910000Y-91813604D02*
X167910000Y-116214400D01*
X130383604Y-88323604D02*
X138936396Y-88323604D01*
X140190000Y-87070000D02*
X150080000Y-87070000D01*
X152294695Y-89174695D02*
X165271091Y-89174695D01*
X130210000Y-88150000D02*
X130383604Y-88323604D01*
X138936396Y-88323604D02*
X140190000Y-87070000D01*
X150210000Y-87090000D02*
X152294695Y-89174695D01*
X165271091Y-89174695D02*
X167910000Y-91813604D01*
%TO.N,GPIO22*%
X160290000Y-114615305D02*
X157745305Y-117160000D01*
X131300000Y-105970000D02*
X131010000Y-106260000D01*
X135874000Y-117160000D02*
X132480000Y-113766000D01*
X131010000Y-106260000D02*
X130780000Y-106490000D01*
X130780000Y-106490000D02*
X130780000Y-107150000D01*
X153949400Y-117652800D02*
X154442200Y-117160000D01*
X131305000Y-105970000D02*
X134620000Y-102655000D01*
X134620000Y-102655000D02*
X134620000Y-93980000D01*
X154442200Y-117160000D02*
X157745305Y-117160000D01*
X157353000Y-106172000D02*
X160290000Y-109109000D01*
X160290000Y-109109000D02*
X160290000Y-114615305D01*
X131305000Y-105970000D02*
X131300000Y-105970000D01*
%TO.N,GPIO23*%
X155702000Y-101473000D02*
X155627000Y-101473000D01*
X149730305Y-87580000D02*
X141080000Y-87580000D01*
X167460000Y-92000000D02*
X165084695Y-89624695D01*
X155627000Y-101473000D02*
X153875000Y-103225000D01*
X164592000Y-117906800D02*
X167460000Y-115038800D01*
X165084695Y-89624695D02*
X151775000Y-89624695D01*
X151775000Y-89624695D02*
X149730305Y-87580000D01*
X167460000Y-115038800D02*
X167460000Y-92000000D01*
X164439600Y-117906800D02*
X164592000Y-117906800D01*
X141080000Y-87580000D02*
X140640000Y-88020000D01*
X153875000Y-103225000D02*
X149860000Y-103225000D01*
%TO.N,GPIO24*%
X157400000Y-96860000D02*
X157400000Y-98980000D01*
X160020000Y-108202604D02*
X160909000Y-109091604D01*
X151440000Y-96000000D02*
X151980000Y-95460000D01*
X160909000Y-109091604D02*
X160909000Y-120421400D01*
X152070000Y-95370000D02*
X153500000Y-95370000D01*
X160909000Y-120421400D02*
X165404800Y-124917200D01*
X151980000Y-95460000D02*
X152070000Y-95370000D01*
X157400000Y-98980000D02*
X157480000Y-99060000D01*
X160020000Y-106553000D02*
X160020000Y-108202604D01*
X146130000Y-96000000D02*
X151440000Y-96000000D01*
%TO.N,GPIO10*%
X151175666Y-112591000D02*
X152350666Y-113766000D01*
X136654000Y-115400000D02*
X144120695Y-115400000D01*
X146929695Y-112591000D02*
X151175666Y-112591000D01*
X143620000Y-102800000D02*
X143620000Y-101414505D01*
X138785600Y-96580105D02*
X138785600Y-94894400D01*
X142495000Y-103925000D02*
X143620000Y-102800000D01*
X134575000Y-103925000D02*
X142495000Y-103925000D01*
X138785600Y-94894400D02*
X139700000Y-93980000D01*
X144120695Y-115400000D02*
X146929695Y-112591000D01*
X135020000Y-113766000D02*
X136654000Y-115400000D01*
X143620000Y-101414505D02*
X138785600Y-96580105D01*
%TO.N,GPIO9*%
X133845000Y-112591000D02*
X135506701Y-112591000D01*
X136375000Y-113459299D02*
X136375000Y-114242701D01*
X135506701Y-112591000D02*
X136375000Y-113459299D01*
X128200000Y-100825000D02*
X130304500Y-102929500D01*
X147658299Y-111226000D02*
X149810666Y-111226000D01*
X143934299Y-114950000D02*
X147658299Y-111226000D01*
X137082299Y-114950000D02*
X143934299Y-114950000D01*
X128200000Y-98175000D02*
X128200000Y-100825000D01*
X130304500Y-102929500D02*
X133320500Y-102929500D01*
X136375000Y-114242701D02*
X137082299Y-114950000D01*
X132480000Y-111226000D02*
X133845000Y-112591000D01*
%TO.N,GPIO25*%
X160390000Y-97665402D02*
X159634701Y-98420701D01*
X155701701Y-88000000D02*
X152200000Y-88000000D01*
X160390000Y-96600000D02*
X160390000Y-97665402D01*
%TO.N,GPIO11*%
X148549000Y-109351000D02*
X150475666Y-109351000D01*
X150475666Y-109351000D02*
X152350666Y-111226000D01*
X135415000Y-101409000D02*
X135415000Y-95550000D01*
X141350000Y-95550000D02*
X143210000Y-95550000D01*
X143210000Y-95550000D02*
X144780000Y-93980000D01*
%TO.N,GPIO8*%
X132050000Y-109220000D02*
X134865701Y-109220000D01*
X130825000Y-89350000D02*
X144250000Y-89350000D01*
X144250000Y-89350000D02*
X144775000Y-88825000D01*
X134865701Y-109220000D02*
X136325000Y-110679299D01*
X128700000Y-89350000D02*
X130825000Y-89350000D01*
X136325000Y-112531000D02*
X137560000Y-113766000D01*
X128350000Y-89000000D02*
X128700000Y-89350000D01*
X130800000Y-101975000D02*
X129986396Y-101975000D01*
X128350000Y-97125000D02*
X128350000Y-95625000D01*
X128925000Y-97700000D02*
X128350000Y-97125000D01*
X129986396Y-101975000D02*
X128925000Y-100913604D01*
X136325000Y-110679299D02*
X136325000Y-112531000D01*
X128925000Y-100913604D02*
X128925000Y-97700000D01*
%TO.N,GPIO7*%
X153670000Y-109728000D02*
X153670000Y-112545334D01*
X153670000Y-112545334D02*
X154890666Y-113766000D01*
%TO.N,GPIO0*%
X143460000Y-88900000D02*
X129380000Y-88900000D01*
X128755000Y-88275000D02*
X127325000Y-88275000D01*
X151050000Y-89925000D02*
X149155000Y-88030000D01*
X129380000Y-88900000D02*
X128755000Y-88275000D01*
X149155000Y-88030000D02*
X144330000Y-88030000D01*
X144330000Y-88030000D02*
X143460000Y-88900000D01*
X121900000Y-95661701D02*
X121900000Y-103925000D01*
X123225000Y-94336701D02*
X121900000Y-95661701D01*
X123225000Y-90775000D02*
X123225000Y-94336701D01*
X125600000Y-90000000D02*
X124000000Y-90000000D01*
X124000000Y-90000000D02*
X123225000Y-90775000D01*
X127325000Y-88275000D02*
X125600000Y-90000000D01*
%TO.N,GPIO1*%
X126450000Y-89800000D02*
X145833604Y-89800000D01*
X125635000Y-90615000D02*
X126450000Y-89800000D01*
X147003604Y-88630000D02*
X148210000Y-88630000D01*
X123100000Y-100600000D02*
X125635000Y-98065000D01*
X145833604Y-89800000D02*
X147003604Y-88630000D01*
X148210000Y-88630000D02*
X149180000Y-89600000D01*
X125635000Y-98065000D02*
X125635000Y-90615000D01*
%TO.N,GPIO5*%
X162699400Y-97650000D02*
X162687000Y-97637600D01*
X163600000Y-97650000D02*
X162699400Y-97650000D01*
X163600000Y-97650000D02*
X165750000Y-99800000D01*
X150500000Y-96500000D02*
X149775000Y-97225000D01*
X152400000Y-96500000D02*
X150500000Y-96500000D01*
X165750000Y-106625000D02*
X163900000Y-108475000D01*
X162560000Y-108475000D02*
X163900000Y-108475000D01*
X165750000Y-99800000D02*
X165750000Y-106625000D01*
%TO.N,GPIO6*%
X137560000Y-111226000D02*
X143616000Y-105170000D01*
X151361000Y-98003695D02*
X152118386Y-98003695D01*
X143616000Y-105170000D02*
X144194695Y-105170000D01*
X152118386Y-98003695D02*
X154940000Y-95182081D01*
X154940000Y-95182081D02*
X154940000Y-93980000D01*
X144194695Y-105170000D02*
X151361000Y-98003695D01*
%TO.N,GPIO12*%
X128360000Y-90430000D02*
X128540000Y-90250000D01*
X128540000Y-90250000D02*
X146020000Y-90250000D01*
X146020000Y-90250000D02*
X146680000Y-89590000D01*
X128360000Y-94461701D02*
X133028299Y-99130000D01*
X128360000Y-94461701D02*
X128360000Y-90430000D01*
X133028299Y-99130000D02*
X133370000Y-99130000D01*
X146680000Y-89590000D02*
X147270000Y-89590000D01*
%TO.N,GPIO13*%
X157480000Y-93980000D02*
X152400000Y-99060000D01*
X152400000Y-99060000D02*
X152400000Y-99187000D01*
%TO.N,GPIO19*%
X152583000Y-107625000D02*
X153850000Y-107625000D01*
X156065666Y-109840666D02*
X156065666Y-112434334D01*
X163770000Y-96430000D02*
X166529000Y-99189000D01*
X153850000Y-107625000D02*
X156065666Y-109840666D01*
X165164000Y-116205000D02*
X166529000Y-114840000D01*
X166529000Y-99189000D02*
X166529000Y-114840000D01*
X163322000Y-116205000D02*
X165164000Y-116205000D01*
%TO.N,GPIO16*%
X158840000Y-92620000D02*
X160020000Y-91440000D01*
X148082000Y-102328000D02*
X150400000Y-100010000D01*
X158840000Y-94281701D02*
X158840000Y-92620000D01*
X153111701Y-100010000D02*
X158840000Y-94281701D01*
X150400000Y-100010000D02*
X153111701Y-100010000D01*
X148082000Y-104140000D02*
X148082000Y-102328000D01*
%TO.N,GPIO26*%
X161359000Y-112649000D02*
X161359000Y-116909000D01*
X161359000Y-116909000D02*
X162941000Y-118491000D01*
X161290000Y-107315000D02*
X161359000Y-107384000D01*
X161359000Y-107384000D02*
X161359000Y-112649000D01*
%TO.N,GPIO20*%
X155702000Y-104140000D02*
X153670000Y-104140000D01*
X161720000Y-96852000D02*
X161720000Y-98122000D01*
X163376305Y-95195695D02*
X161720000Y-96852000D01*
X161720000Y-98122000D02*
X155702000Y-104140000D01*
X163735000Y-95195695D02*
X163376305Y-95195695D01*
X162560000Y-91440000D02*
X163735000Y-92615000D01*
X163735000Y-92615000D02*
X163735000Y-95195695D01*
%TO.N,GPIO21*%
X161270000Y-97810000D02*
X159004000Y-100076000D01*
X159004000Y-100076000D02*
X155956000Y-100076000D01*
X161270000Y-91068299D02*
X161270000Y-97810000D01*
X163870000Y-90210000D02*
X162128299Y-90210000D01*
X155956000Y-100076000D02*
X154940000Y-101092000D01*
X162128299Y-90210000D02*
X161270000Y-91068299D01*
X154940000Y-101092000D02*
X154051000Y-101092000D01*
X165100000Y-91440000D02*
X163870000Y-90210000D01*
%TO.N,VBUS*%
X109728000Y-91543000D02*
X106426000Y-91543000D01*
X109728000Y-91543000D02*
X113665000Y-95480000D01*
X113665000Y-95480000D02*
X113665000Y-102870000D01*
%TO.N,/CP2102N/nRESET*%
X109162695Y-87781000D02*
X109728000Y-87781000D01*
X106273600Y-87781000D02*
X106273600Y-90670095D01*
X105410000Y-91533695D02*
X109162695Y-87781000D01*
X105410000Y-103505000D02*
X105410000Y-91533695D01*
X106273600Y-90670095D02*
X105410000Y-91533695D01*
%TO.N,/CP2102N/nRXLED*%
X117925000Y-116175000D02*
X117925000Y-110314305D01*
X112600000Y-121500000D02*
X117925000Y-116175000D01*
X117925000Y-110314305D02*
X116840000Y-109229305D01*
X116840000Y-109229305D02*
X116840000Y-109220000D01*
%TD*%
%TA.AperFunction,Conductor*%
%TO.N,GND*%
G36*
X108942121Y-106020002D02*
G01*
X108988614Y-106073658D01*
X109000000Y-106126000D01*
X109000000Y-107527737D01*
X108979998Y-107595858D01*
X108926342Y-107642351D01*
X108856068Y-107652455D01*
X108791488Y-107622961D01*
X108770788Y-107600009D01*
X108760141Y-107584804D01*
X108749661Y-107576427D01*
X108736215Y-107583495D01*
X108088522Y-108231188D01*
X108080908Y-108245132D01*
X108081039Y-108246965D01*
X108085290Y-108253580D01*
X108736936Y-108905226D01*
X108748711Y-108911656D01*
X108760727Y-108902359D01*
X108770788Y-108887991D01*
X108826245Y-108843663D01*
X108896865Y-108836355D01*
X108960225Y-108868387D01*
X108996209Y-108929588D01*
X109000000Y-108960263D01*
X109000000Y-112527737D01*
X108979998Y-112595858D01*
X108926342Y-112642351D01*
X108856068Y-112652455D01*
X108791488Y-112622961D01*
X108770788Y-112600009D01*
X108760141Y-112584804D01*
X108749661Y-112576427D01*
X108736215Y-112583495D01*
X108088522Y-113231188D01*
X108080908Y-113245132D01*
X108081039Y-113246965D01*
X108085290Y-113253580D01*
X108736936Y-113905226D01*
X108748711Y-113911656D01*
X108760727Y-113902359D01*
X108770788Y-113887991D01*
X108826245Y-113843663D01*
X108896865Y-113836355D01*
X108960225Y-113868387D01*
X108996209Y-113929588D01*
X109000000Y-113960263D01*
X109000000Y-114874000D01*
X108979998Y-114942121D01*
X108926342Y-114988614D01*
X108874000Y-115000000D01*
X106427665Y-115000000D01*
X106359544Y-114979998D01*
X106313051Y-114926342D01*
X106302947Y-114856068D01*
X106318601Y-114810905D01*
X106375510Y-114712533D01*
X106380484Y-114701669D01*
X106445907Y-114513273D01*
X106446148Y-114512284D01*
X106444680Y-114501992D01*
X106431115Y-114498000D01*
X104888500Y-114498000D01*
X104820379Y-114477998D01*
X104773886Y-114424342D01*
X104762500Y-114372000D01*
X104762500Y-114276211D01*
X107048844Y-114276211D01*
X107058140Y-114288226D01*
X107093137Y-114312731D01*
X107102632Y-114318214D01*
X107288196Y-114404744D01*
X107298488Y-114408490D01*
X107496259Y-114461482D01*
X107507054Y-114463385D01*
X107711025Y-114481231D01*
X107721975Y-114481231D01*
X107925946Y-114463385D01*
X107936741Y-114461482D01*
X108134512Y-114408490D01*
X108144804Y-114404744D01*
X108330368Y-114318214D01*
X108339863Y-114312731D01*
X108375697Y-114287640D01*
X108384073Y-114277161D01*
X108377005Y-114263715D01*
X107729312Y-113616022D01*
X107715368Y-113608408D01*
X107713535Y-113608539D01*
X107706920Y-113612790D01*
X107055274Y-114264436D01*
X107048844Y-114276211D01*
X104762500Y-114276211D01*
X104762500Y-113971885D01*
X105270500Y-113971885D01*
X105274975Y-113987124D01*
X105276365Y-113988329D01*
X105284048Y-113990000D01*
X106426902Y-113990000D01*
X106440432Y-113986027D01*
X106444596Y-113957062D01*
X106474089Y-113892481D01*
X106533815Y-113854097D01*
X106604812Y-113854097D01*
X106664538Y-113892480D01*
X106672525Y-113902720D01*
X106672858Y-113903195D01*
X106683339Y-113911573D01*
X106696785Y-113904505D01*
X107344478Y-113256812D01*
X107352092Y-113242868D01*
X107351961Y-113241035D01*
X107347710Y-113234420D01*
X106696064Y-112582774D01*
X106684289Y-112576344D01*
X106672274Y-112585640D01*
X106647769Y-112620637D01*
X106642286Y-112630132D01*
X106555756Y-112815696D01*
X106552010Y-112825988D01*
X106499018Y-113023759D01*
X106497115Y-113034554D01*
X106479269Y-113238525D01*
X106479269Y-113249475D01*
X106497115Y-113453446D01*
X106499018Y-113464238D01*
X106515927Y-113527344D01*
X106514237Y-113598321D01*
X106474443Y-113657117D01*
X106409179Y-113685065D01*
X106339165Y-113673292D01*
X106291451Y-113632856D01*
X106212538Y-113521610D01*
X106204739Y-113512575D01*
X106060669Y-113374658D01*
X106051304Y-113367262D01*
X105883759Y-113259079D01*
X105873155Y-113253583D01*
X105688188Y-113179039D01*
X105676730Y-113175645D01*
X105479572Y-113137143D01*
X105470709Y-113136066D01*
X105468000Y-113136000D01*
X105288615Y-113136000D01*
X105273376Y-113140475D01*
X105272171Y-113141865D01*
X105270500Y-113149548D01*
X105270500Y-113971885D01*
X104762500Y-113971885D01*
X104762500Y-113154115D01*
X104758025Y-113138876D01*
X104756635Y-113137671D01*
X104748952Y-113136000D01*
X104616668Y-113136000D01*
X104610692Y-113136285D01*
X104462006Y-113150471D01*
X104450272Y-113152730D01*
X104258901Y-113208872D01*
X104247825Y-113213302D01*
X104070522Y-113304619D01*
X104060476Y-113311069D01*
X104023533Y-113340088D01*
X103957608Y-113366438D01*
X103887902Y-113352963D01*
X103836546Y-113303942D01*
X103819700Y-113241002D01*
X103819700Y-112210839D01*
X107048927Y-112210839D01*
X107055995Y-112224285D01*
X107703688Y-112871978D01*
X107717632Y-112879592D01*
X107719465Y-112879461D01*
X107726080Y-112875210D01*
X108377726Y-112223564D01*
X108384156Y-112211789D01*
X108374860Y-112199774D01*
X108339863Y-112175269D01*
X108330368Y-112169786D01*
X108144804Y-112083256D01*
X108134512Y-112079510D01*
X107936741Y-112026518D01*
X107925946Y-112024615D01*
X107721975Y-112006769D01*
X107711025Y-112006769D01*
X107507054Y-112024615D01*
X107496259Y-112026518D01*
X107298488Y-112079510D01*
X107288196Y-112083256D01*
X107102632Y-112169786D01*
X107093137Y-112175269D01*
X107057303Y-112200360D01*
X107048927Y-112210839D01*
X103819700Y-112210839D01*
X103819700Y-109276211D01*
X107048844Y-109276211D01*
X107058140Y-109288226D01*
X107093137Y-109312731D01*
X107102632Y-109318214D01*
X107288196Y-109404744D01*
X107298488Y-109408490D01*
X107496259Y-109461482D01*
X107507054Y-109463385D01*
X107711025Y-109481231D01*
X107721975Y-109481231D01*
X107925946Y-109463385D01*
X107936741Y-109461482D01*
X108134512Y-109408490D01*
X108144804Y-109404744D01*
X108330368Y-109318214D01*
X108339863Y-109312731D01*
X108375697Y-109287640D01*
X108384073Y-109277161D01*
X108377005Y-109263715D01*
X107729312Y-108616022D01*
X107715368Y-108608408D01*
X107713535Y-108608539D01*
X107706920Y-108612790D01*
X107055274Y-109264436D01*
X107048844Y-109276211D01*
X103819700Y-109276211D01*
X103819700Y-108247480D01*
X103839702Y-108179359D01*
X103893358Y-108132866D01*
X103963632Y-108122762D01*
X104014048Y-108141628D01*
X104149241Y-108228921D01*
X104159845Y-108234417D01*
X104344812Y-108308961D01*
X104356270Y-108312355D01*
X104553428Y-108350857D01*
X104562291Y-108351934D01*
X104565000Y-108352000D01*
X104744385Y-108352000D01*
X104759624Y-108347525D01*
X104760829Y-108346135D01*
X104762500Y-108338452D01*
X104762500Y-108333885D01*
X105270500Y-108333885D01*
X105274975Y-108349124D01*
X105276365Y-108350329D01*
X105284048Y-108352000D01*
X105416332Y-108352000D01*
X105422308Y-108351715D01*
X105570994Y-108337529D01*
X105582728Y-108335270D01*
X105774099Y-108279128D01*
X105785175Y-108274698D01*
X105962478Y-108183381D01*
X105972524Y-108176931D01*
X106129357Y-108053738D01*
X106138006Y-108045501D01*
X106268712Y-107894877D01*
X106275647Y-107885153D01*
X106283275Y-107871968D01*
X106334700Y-107823019D01*
X106404426Y-107809644D01*
X106470314Y-107836089D01*
X106511445Y-107893957D01*
X106514046Y-107967674D01*
X106499018Y-108023759D01*
X106497115Y-108034554D01*
X106479269Y-108238525D01*
X106479269Y-108249475D01*
X106497115Y-108453446D01*
X106499018Y-108464241D01*
X106552010Y-108662012D01*
X106555756Y-108672304D01*
X106642286Y-108857868D01*
X106647769Y-108867363D01*
X106672860Y-108903197D01*
X106683339Y-108911573D01*
X106696785Y-108904505D01*
X107344478Y-108256812D01*
X107352092Y-108242868D01*
X107351961Y-108241035D01*
X107347710Y-108234420D01*
X106696064Y-107582774D01*
X106684289Y-107576344D01*
X106657139Y-107597349D01*
X106656197Y-107596132D01*
X106620570Y-107624610D01*
X106549951Y-107631920D01*
X106486590Y-107599889D01*
X106450605Y-107538688D01*
X106448075Y-107525799D01*
X106444680Y-107501992D01*
X106431115Y-107498000D01*
X105288615Y-107498000D01*
X105273376Y-107502475D01*
X105272171Y-107503865D01*
X105270500Y-107511548D01*
X105270500Y-108333885D01*
X104762500Y-108333885D01*
X104762500Y-107210839D01*
X107048927Y-107210839D01*
X107055995Y-107224285D01*
X107703688Y-107871978D01*
X107717632Y-107879592D01*
X107719465Y-107879461D01*
X107726080Y-107875210D01*
X108377726Y-107223564D01*
X108384156Y-107211789D01*
X108374860Y-107199774D01*
X108339863Y-107175269D01*
X108330368Y-107169786D01*
X108144804Y-107083256D01*
X108134512Y-107079510D01*
X107936741Y-107026518D01*
X107925946Y-107024615D01*
X107721975Y-107006769D01*
X107711025Y-107006769D01*
X107507054Y-107024615D01*
X107496259Y-107026518D01*
X107298488Y-107079510D01*
X107288196Y-107083256D01*
X107102632Y-107169786D01*
X107093137Y-107175269D01*
X107057303Y-107200360D01*
X107048927Y-107210839D01*
X104762500Y-107210839D01*
X104762500Y-107116000D01*
X104782502Y-107047879D01*
X104836158Y-107001386D01*
X104888500Y-106990000D01*
X106426902Y-106990000D01*
X106440433Y-106986027D01*
X106441788Y-106976601D01*
X106420306Y-106887463D01*
X106416417Y-106876168D01*
X106333871Y-106694618D01*
X106327924Y-106684276D01*
X106212532Y-106521603D01*
X106204739Y-106512575D01*
X106060669Y-106374658D01*
X106051304Y-106367262D01*
X105883759Y-106259079D01*
X105873155Y-106253583D01*
X105846563Y-106242866D01*
X105790857Y-106198851D01*
X105767790Y-106131706D01*
X105784687Y-106062749D01*
X105836182Y-106013874D01*
X105893661Y-106000000D01*
X108874000Y-106000000D01*
X108942121Y-106020002D01*
G37*
%TD.AperFunction*%
%TD*%
%TA.AperFunction,Conductor*%
%TO.N,+3V3*%
G36*
X139155526Y-86282502D02*
G01*
X139202019Y-86336158D01*
X139212123Y-86406432D01*
X139182629Y-86471012D01*
X139176504Y-86477592D01*
X138934261Y-86719834D01*
X138734499Y-86919596D01*
X138672187Y-86953621D01*
X138645404Y-86956500D01*
X133958200Y-86956500D01*
X133890079Y-86936498D01*
X133870853Y-86920157D01*
X133870580Y-86920460D01*
X133865668Y-86916037D01*
X133861253Y-86911134D01*
X133839671Y-86895454D01*
X133712094Y-86802763D01*
X133712093Y-86802762D01*
X133706752Y-86798882D01*
X133700724Y-86796198D01*
X133700722Y-86796197D01*
X133538319Y-86723891D01*
X133538318Y-86723891D01*
X133532288Y-86721206D01*
X133438887Y-86701353D01*
X133351944Y-86682872D01*
X133351939Y-86682872D01*
X133345487Y-86681500D01*
X133154513Y-86681500D01*
X133148061Y-86682872D01*
X133148056Y-86682872D01*
X133061112Y-86701353D01*
X132967712Y-86721206D01*
X132961682Y-86723891D01*
X132961681Y-86723891D01*
X132799278Y-86796197D01*
X132799276Y-86796198D01*
X132793248Y-86798882D01*
X132638747Y-86911134D01*
X132634326Y-86916044D01*
X132634325Y-86916045D01*
X132564348Y-86993763D01*
X132510960Y-87053056D01*
X132472675Y-87119367D01*
X132438362Y-87178800D01*
X132415473Y-87218444D01*
X132356458Y-87400072D01*
X132347225Y-87487924D01*
X132337834Y-87577274D01*
X132310821Y-87642931D01*
X132252600Y-87683561D01*
X132212524Y-87690104D01*
X131066270Y-87690104D01*
X130998149Y-87670102D01*
X130957152Y-87627106D01*
X130952341Y-87618774D01*
X130949040Y-87613056D01*
X130821253Y-87471134D01*
X130666752Y-87358882D01*
X130660724Y-87356198D01*
X130660722Y-87356197D01*
X130498319Y-87283891D01*
X130498318Y-87283891D01*
X130492288Y-87281206D01*
X130398887Y-87261353D01*
X130311944Y-87242872D01*
X130311939Y-87242872D01*
X130305487Y-87241500D01*
X130114513Y-87241500D01*
X130108061Y-87242872D01*
X130108056Y-87242872D01*
X130021113Y-87261353D01*
X129927712Y-87281206D01*
X129921682Y-87283891D01*
X129921681Y-87283891D01*
X129759278Y-87356197D01*
X129759276Y-87356198D01*
X129753248Y-87358882D01*
X129598747Y-87471134D01*
X129470960Y-87613056D01*
X129387038Y-87758414D01*
X129376639Y-87776425D01*
X129325257Y-87825418D01*
X129255543Y-87838854D01*
X129189632Y-87812468D01*
X129178425Y-87802520D01*
X129174770Y-87798865D01*
X129171573Y-87796385D01*
X129162551Y-87788680D01*
X129147382Y-87774435D01*
X129130321Y-87758414D01*
X129123375Y-87754595D01*
X129123372Y-87754593D01*
X129112566Y-87748652D01*
X129096047Y-87737801D01*
X129095583Y-87737441D01*
X129080041Y-87725386D01*
X129072772Y-87722241D01*
X129072768Y-87722238D01*
X129039463Y-87707826D01*
X129028813Y-87702609D01*
X128990060Y-87681305D01*
X128970437Y-87676267D01*
X128951734Y-87669863D01*
X128940420Y-87664967D01*
X128940419Y-87664967D01*
X128933145Y-87661819D01*
X128925322Y-87660580D01*
X128925312Y-87660577D01*
X128889476Y-87654901D01*
X128877856Y-87652495D01*
X128842711Y-87643472D01*
X128842710Y-87643472D01*
X128835030Y-87641500D01*
X128814776Y-87641500D01*
X128795065Y-87639949D01*
X128792534Y-87639548D01*
X128775057Y-87636780D01*
X128767165Y-87637526D01*
X128731039Y-87640941D01*
X128719181Y-87641500D01*
X127403763Y-87641500D01*
X127392579Y-87640973D01*
X127385091Y-87639299D01*
X127377168Y-87639548D01*
X127317033Y-87641438D01*
X127313075Y-87641500D01*
X127285144Y-87641500D01*
X127281229Y-87641995D01*
X127281225Y-87641995D01*
X127281167Y-87642003D01*
X127281138Y-87642006D01*
X127269296Y-87642939D01*
X127225110Y-87644327D01*
X127207744Y-87649372D01*
X127205658Y-87649978D01*
X127186306Y-87653986D01*
X127174068Y-87655532D01*
X127174066Y-87655533D01*
X127166203Y-87656526D01*
X127125086Y-87672806D01*
X127113885Y-87676641D01*
X127071406Y-87688982D01*
X127064587Y-87693015D01*
X127064582Y-87693017D01*
X127053971Y-87699293D01*
X127036221Y-87707990D01*
X127017383Y-87715448D01*
X127010967Y-87720109D01*
X127010966Y-87720110D01*
X126981625Y-87741428D01*
X126971701Y-87747947D01*
X126940460Y-87766422D01*
X126940455Y-87766426D01*
X126933637Y-87770458D01*
X126919313Y-87784782D01*
X126904281Y-87797621D01*
X126887893Y-87809528D01*
X126863412Y-87839121D01*
X126859712Y-87843593D01*
X126851722Y-87852373D01*
X125787921Y-88916174D01*
X125725609Y-88950200D01*
X125654794Y-88945135D01*
X125597958Y-88902588D01*
X125585444Y-88881267D01*
X125584527Y-88878444D01*
X125565501Y-88845489D01*
X125492341Y-88718774D01*
X125489040Y-88713056D01*
X125361253Y-88571134D01*
X125206752Y-88458882D01*
X125200724Y-88456198D01*
X125200722Y-88456197D01*
X125038319Y-88383891D01*
X125038318Y-88383891D01*
X125032288Y-88381206D01*
X124938888Y-88361353D01*
X124851944Y-88342872D01*
X124851939Y-88342872D01*
X124845487Y-88341500D01*
X124789595Y-88341500D01*
X124721474Y-88321498D01*
X124700500Y-88304595D01*
X124432652Y-88036747D01*
X124425112Y-88028461D01*
X124421000Y-88021982D01*
X124371348Y-87975356D01*
X124368507Y-87972602D01*
X124348770Y-87952865D01*
X124345573Y-87950385D01*
X124336551Y-87942680D01*
X124323122Y-87930069D01*
X124304321Y-87912414D01*
X124297375Y-87908595D01*
X124297372Y-87908593D01*
X124286566Y-87902652D01*
X124270047Y-87891801D01*
X124269583Y-87891441D01*
X124254041Y-87879386D01*
X124246772Y-87876241D01*
X124246768Y-87876238D01*
X124213463Y-87861826D01*
X124202813Y-87856609D01*
X124164060Y-87835305D01*
X124144437Y-87830267D01*
X124125734Y-87823863D01*
X124114420Y-87818967D01*
X124114419Y-87818967D01*
X124107145Y-87815819D01*
X124099322Y-87814580D01*
X124099312Y-87814577D01*
X124063476Y-87808901D01*
X124051856Y-87806495D01*
X124016711Y-87797472D01*
X124016710Y-87797472D01*
X124009030Y-87795500D01*
X123988776Y-87795500D01*
X123969065Y-87793949D01*
X123961464Y-87792745D01*
X123949057Y-87790780D01*
X123919786Y-87793547D01*
X123905039Y-87794941D01*
X123893181Y-87795500D01*
X122714462Y-87795500D01*
X122703279Y-87794973D01*
X122695786Y-87793298D01*
X122687860Y-87793547D01*
X122687859Y-87793547D01*
X122627696Y-87795438D01*
X122623738Y-87795500D01*
X122595839Y-87795500D01*
X122591849Y-87796004D01*
X122580015Y-87796936D01*
X122535806Y-87798326D01*
X122528192Y-87800538D01*
X122528187Y-87800539D01*
X122516354Y-87803977D01*
X122496991Y-87807988D01*
X122476898Y-87810526D01*
X122469531Y-87813443D01*
X122469526Y-87813444D01*
X122435787Y-87826802D01*
X122424560Y-87830646D01*
X122382102Y-87842982D01*
X122375276Y-87847019D01*
X122364667Y-87853293D01*
X122346919Y-87861988D01*
X122328078Y-87869448D01*
X122321662Y-87874110D01*
X122321661Y-87874110D01*
X122292308Y-87895436D01*
X122282388Y-87901952D01*
X122251160Y-87920420D01*
X122251157Y-87920422D01*
X122244333Y-87924458D01*
X122230012Y-87938779D01*
X122214979Y-87951619D01*
X122198588Y-87963528D01*
X122189912Y-87974016D01*
X122170397Y-87997605D01*
X122162407Y-88006384D01*
X121024195Y-89144595D01*
X120961883Y-89178621D01*
X120935100Y-89181500D01*
X116129371Y-89181500D01*
X116118188Y-89180973D01*
X116110695Y-89179298D01*
X116102769Y-89179547D01*
X116102768Y-89179547D01*
X116042618Y-89181438D01*
X116038659Y-89181500D01*
X116010748Y-89181500D01*
X116006814Y-89181997D01*
X116006813Y-89181997D01*
X116006748Y-89182005D01*
X115994911Y-89182938D01*
X115962653Y-89183952D01*
X115958634Y-89184078D01*
X115950715Y-89184327D01*
X115931261Y-89189979D01*
X115911904Y-89193987D01*
X115899674Y-89195532D01*
X115899673Y-89195532D01*
X115891807Y-89196526D01*
X115884436Y-89199445D01*
X115884434Y-89199445D01*
X115850692Y-89212804D01*
X115839462Y-89216649D01*
X115804621Y-89226771D01*
X115804620Y-89226771D01*
X115797011Y-89228982D01*
X115790192Y-89233015D01*
X115790187Y-89233017D01*
X115779576Y-89239293D01*
X115761828Y-89247988D01*
X115742987Y-89255448D01*
X115736571Y-89260110D01*
X115736570Y-89260110D01*
X115707217Y-89281436D01*
X115697297Y-89287952D01*
X115666069Y-89306420D01*
X115666066Y-89306422D01*
X115659242Y-89310458D01*
X115644921Y-89324779D01*
X115629888Y-89337619D01*
X115613497Y-89349528D01*
X115608446Y-89355634D01*
X115585306Y-89383605D01*
X115577316Y-89392384D01*
X114473747Y-90495952D01*
X114465461Y-90503492D01*
X114458982Y-90507604D01*
X114453557Y-90513381D01*
X114412357Y-90557255D01*
X114409602Y-90560097D01*
X114389865Y-90579834D01*
X114387385Y-90583031D01*
X114379682Y-90592051D01*
X114349414Y-90624283D01*
X114345595Y-90631229D01*
X114345593Y-90631232D01*
X114339652Y-90642038D01*
X114328801Y-90658557D01*
X114316386Y-90674563D01*
X114313241Y-90681832D01*
X114313238Y-90681836D01*
X114298826Y-90715141D01*
X114293609Y-90725791D01*
X114272305Y-90764544D01*
X114270334Y-90772219D01*
X114270334Y-90772220D01*
X114267267Y-90784166D01*
X114260863Y-90802870D01*
X114252819Y-90821459D01*
X114251580Y-90829282D01*
X114251577Y-90829292D01*
X114245901Y-90865128D01*
X114243495Y-90876748D01*
X114236229Y-90905051D01*
X114232500Y-90919574D01*
X114232500Y-90939828D01*
X114230949Y-90959538D01*
X114227780Y-90979547D01*
X114228526Y-90987439D01*
X114231941Y-91023565D01*
X114232500Y-91035423D01*
X114232500Y-94847406D01*
X114212498Y-94915527D01*
X114158842Y-94962020D01*
X114088568Y-94972124D01*
X114023988Y-94942630D01*
X114017405Y-94936501D01*
X112360971Y-93280066D01*
X110675122Y-91594217D01*
X110641096Y-91531905D01*
X110638907Y-91518292D01*
X110635258Y-91483568D01*
X110628930Y-91423365D01*
X110622232Y-91359635D01*
X110622232Y-91359633D01*
X110621542Y-91353072D01*
X110562527Y-91171444D01*
X110531160Y-91117114D01*
X110516282Y-91091346D01*
X110467040Y-91006056D01*
X110339253Y-90864134D01*
X110202180Y-90764544D01*
X110190094Y-90755763D01*
X110190093Y-90755762D01*
X110184752Y-90751882D01*
X110178724Y-90749198D01*
X110178722Y-90749197D01*
X110016319Y-90676891D01*
X110016318Y-90676891D01*
X110010288Y-90674206D01*
X109916888Y-90654353D01*
X109829944Y-90635872D01*
X109829939Y-90635872D01*
X109823487Y-90634500D01*
X109632513Y-90634500D01*
X109626061Y-90635872D01*
X109626056Y-90635872D01*
X109539112Y-90654353D01*
X109445712Y-90674206D01*
X109439682Y-90676891D01*
X109439681Y-90676891D01*
X109277278Y-90749197D01*
X109277276Y-90749198D01*
X109271248Y-90751882D01*
X109265907Y-90755762D01*
X109265906Y-90755763D01*
X109253820Y-90764544D01*
X109116747Y-90864134D01*
X109112332Y-90869037D01*
X109107420Y-90873460D01*
X109106295Y-90872211D01*
X109052986Y-90905051D01*
X109019800Y-90909500D01*
X107234289Y-90909500D01*
X107166168Y-90889498D01*
X107119675Y-90835842D01*
X107109571Y-90765568D01*
X107139065Y-90700988D01*
X107145194Y-90694405D01*
X109207408Y-88632191D01*
X109269720Y-88598165D01*
X109340535Y-88603230D01*
X109347735Y-88606172D01*
X109445712Y-88649794D01*
X109539112Y-88669647D01*
X109626056Y-88688128D01*
X109626061Y-88688128D01*
X109632513Y-88689500D01*
X109823487Y-88689500D01*
X109829939Y-88688128D01*
X109829944Y-88688128D01*
X109916888Y-88669647D01*
X110010288Y-88649794D01*
X110016319Y-88647109D01*
X110178722Y-88574803D01*
X110178724Y-88574802D01*
X110184752Y-88572118D01*
X110339253Y-88459866D01*
X110401525Y-88390706D01*
X110462621Y-88322852D01*
X110462625Y-88322847D01*
X110467040Y-88317944D01*
X110562527Y-88152556D01*
X110621542Y-87970928D01*
X110622810Y-87958869D01*
X110640814Y-87787565D01*
X110641504Y-87781000D01*
X110637712Y-87744924D01*
X110622232Y-87597635D01*
X110622232Y-87597633D01*
X110621542Y-87591072D01*
X110562527Y-87409444D01*
X110553492Y-87393794D01*
X110522597Y-87340284D01*
X110467040Y-87244056D01*
X110450881Y-87226109D01*
X110343675Y-87107045D01*
X110343674Y-87107044D01*
X110339253Y-87102134D01*
X110184752Y-86989882D01*
X110178724Y-86987198D01*
X110178722Y-86987197D01*
X110016319Y-86914891D01*
X110016318Y-86914891D01*
X110010288Y-86912206D01*
X109916888Y-86892353D01*
X109829944Y-86873872D01*
X109829939Y-86873872D01*
X109823487Y-86872500D01*
X109632513Y-86872500D01*
X109626061Y-86873872D01*
X109626056Y-86873872D01*
X109539112Y-86892353D01*
X109445712Y-86912206D01*
X109439682Y-86914891D01*
X109439681Y-86914891D01*
X109277278Y-86987197D01*
X109277276Y-86987198D01*
X109271248Y-86989882D01*
X109116747Y-87102134D01*
X109101228Y-87119369D01*
X109040786Y-87156607D01*
X109023400Y-87160062D01*
X109003898Y-87162526D01*
X108996529Y-87165443D01*
X108996527Y-87165444D01*
X108962792Y-87178800D01*
X108951564Y-87182645D01*
X108909102Y-87194982D01*
X108902280Y-87199016D01*
X108902274Y-87199019D01*
X108891663Y-87205294D01*
X108873913Y-87213990D01*
X108862451Y-87218528D01*
X108862446Y-87218531D01*
X108855078Y-87221448D01*
X108848663Y-87226109D01*
X108819320Y-87247427D01*
X108809402Y-87253943D01*
X108790714Y-87264995D01*
X108771332Y-87276458D01*
X108757008Y-87290782D01*
X108741976Y-87303621D01*
X108725588Y-87315528D01*
X108705108Y-87340284D01*
X108697407Y-87349593D01*
X108689417Y-87358373D01*
X107122195Y-88925595D01*
X107059883Y-88959621D01*
X106989068Y-88954556D01*
X106932232Y-88912009D01*
X106907421Y-88845489D01*
X106907100Y-88836500D01*
X106907100Y-88483524D01*
X106927102Y-88415403D01*
X106939458Y-88399221D01*
X107012640Y-88317944D01*
X107108127Y-88152556D01*
X107167142Y-87970928D01*
X107168410Y-87958869D01*
X107186414Y-87787565D01*
X107187104Y-87781000D01*
X107183312Y-87744924D01*
X107167832Y-87597635D01*
X107167832Y-87597633D01*
X107167142Y-87591072D01*
X107108127Y-87409444D01*
X107099092Y-87393794D01*
X107068197Y-87340284D01*
X107012640Y-87244056D01*
X106996481Y-87226109D01*
X106889275Y-87107045D01*
X106889274Y-87107044D01*
X106884853Y-87102134D01*
X106730352Y-86989882D01*
X106724324Y-86987198D01*
X106724322Y-86987197D01*
X106561919Y-86914891D01*
X106561918Y-86914891D01*
X106555888Y-86912206D01*
X106462488Y-86892353D01*
X106375544Y-86873872D01*
X106375539Y-86873872D01*
X106369087Y-86872500D01*
X106178113Y-86872500D01*
X106171661Y-86873872D01*
X106171656Y-86873872D01*
X106084712Y-86892353D01*
X105991312Y-86912206D01*
X105985282Y-86914891D01*
X105985281Y-86914891D01*
X105822878Y-86987197D01*
X105822876Y-86987198D01*
X105816848Y-86989882D01*
X105662347Y-87102134D01*
X105657926Y-87107044D01*
X105657925Y-87107045D01*
X105550720Y-87226109D01*
X105534560Y-87244056D01*
X105479003Y-87340284D01*
X105448109Y-87393794D01*
X105439073Y-87409444D01*
X105380058Y-87591072D01*
X105379368Y-87597633D01*
X105379368Y-87597635D01*
X105363888Y-87744924D01*
X105360096Y-87781000D01*
X105360786Y-87787565D01*
X105378791Y-87958869D01*
X105380058Y-87970928D01*
X105439073Y-88152556D01*
X105534560Y-88317944D01*
X105607737Y-88399215D01*
X105638453Y-88463221D01*
X105640100Y-88483524D01*
X105640100Y-90355500D01*
X105620098Y-90423621D01*
X105603195Y-90444595D01*
X105017747Y-91030043D01*
X105009461Y-91037583D01*
X105002982Y-91041695D01*
X104997557Y-91047472D01*
X104956357Y-91091346D01*
X104953602Y-91094188D01*
X104933865Y-91113925D01*
X104931385Y-91117122D01*
X104923682Y-91126142D01*
X104893414Y-91158374D01*
X104889595Y-91165320D01*
X104889593Y-91165323D01*
X104883652Y-91176129D01*
X104872801Y-91192648D01*
X104860386Y-91208654D01*
X104857241Y-91215923D01*
X104857238Y-91215927D01*
X104842826Y-91249232D01*
X104837609Y-91259882D01*
X104816305Y-91298635D01*
X104814334Y-91306310D01*
X104814334Y-91306311D01*
X104811267Y-91318257D01*
X104804863Y-91336961D01*
X104796819Y-91355550D01*
X104795580Y-91363373D01*
X104795577Y-91363383D01*
X104789901Y-91399219D01*
X104787495Y-91410839D01*
X104776500Y-91453665D01*
X104776500Y-91473919D01*
X104774949Y-91493629D01*
X104771780Y-91513638D01*
X104772526Y-91521530D01*
X104775941Y-91557656D01*
X104776500Y-91569514D01*
X104776500Y-102802476D01*
X104756498Y-102870597D01*
X104744142Y-102886779D01*
X104670960Y-102968056D01*
X104575473Y-103133444D01*
X104516458Y-103315072D01*
X104515768Y-103321633D01*
X104515768Y-103321635D01*
X104501662Y-103455846D01*
X104496496Y-103505000D01*
X104497186Y-103511565D01*
X104514254Y-103673955D01*
X104516458Y-103694928D01*
X104575473Y-103876556D01*
X104578776Y-103882278D01*
X104578777Y-103882279D01*
X104607575Y-103932158D01*
X104670960Y-104041944D01*
X104798747Y-104183866D01*
X104953248Y-104296118D01*
X104959276Y-104298802D01*
X104959278Y-104298803D01*
X105045185Y-104337051D01*
X105127712Y-104373794D01*
X105221113Y-104393647D01*
X105308056Y-104412128D01*
X105308061Y-104412128D01*
X105314513Y-104413500D01*
X105505487Y-104413500D01*
X105511939Y-104412128D01*
X105511944Y-104412128D01*
X105598887Y-104393647D01*
X105692288Y-104373794D01*
X105774815Y-104337051D01*
X105860722Y-104298803D01*
X105860724Y-104298802D01*
X105866752Y-104296118D01*
X106021253Y-104183866D01*
X106149040Y-104041944D01*
X106212425Y-103932158D01*
X106241223Y-103882279D01*
X106241224Y-103882278D01*
X106244527Y-103876556D01*
X106303542Y-103694928D01*
X106305747Y-103673955D01*
X106322814Y-103511565D01*
X106323504Y-103505000D01*
X106318338Y-103455846D01*
X106304232Y-103321635D01*
X106304232Y-103321633D01*
X106303542Y-103315072D01*
X106244527Y-103133444D01*
X106149040Y-102968056D01*
X106075863Y-102886785D01*
X106045147Y-102822779D01*
X106043500Y-102802476D01*
X106043500Y-92546091D01*
X106063502Y-92477970D01*
X106117158Y-92431477D01*
X106187432Y-92421373D01*
X106195697Y-92422844D01*
X106324056Y-92450128D01*
X106324061Y-92450128D01*
X106330513Y-92451500D01*
X106521487Y-92451500D01*
X106527939Y-92450128D01*
X106527944Y-92450128D01*
X106631504Y-92428115D01*
X106708288Y-92411794D01*
X106725875Y-92403964D01*
X106876722Y-92336803D01*
X106876724Y-92336802D01*
X106882752Y-92334118D01*
X106892361Y-92327137D01*
X107031914Y-92225745D01*
X107037253Y-92221866D01*
X107041668Y-92216963D01*
X107046580Y-92212540D01*
X107047705Y-92213789D01*
X107101014Y-92180949D01*
X107134200Y-92176500D01*
X109019800Y-92176500D01*
X109087921Y-92196502D01*
X109107147Y-92212843D01*
X109107420Y-92212540D01*
X109112332Y-92216963D01*
X109116747Y-92221866D01*
X109122086Y-92225745D01*
X109261640Y-92327137D01*
X109271248Y-92334118D01*
X109277276Y-92336802D01*
X109277278Y-92336803D01*
X109428125Y-92403964D01*
X109445712Y-92411794D01*
X109522496Y-92428115D01*
X109626056Y-92450128D01*
X109626061Y-92450128D01*
X109632513Y-92451500D01*
X109688406Y-92451500D01*
X109756527Y-92471502D01*
X109777501Y-92488405D01*
X112994595Y-95705500D01*
X113028621Y-95767812D01*
X113031500Y-95794595D01*
X113031500Y-102167476D01*
X113011498Y-102235597D01*
X112999142Y-102251779D01*
X112925960Y-102333056D01*
X112830473Y-102498444D01*
X112771458Y-102680072D01*
X112770768Y-102686633D01*
X112770768Y-102686635D01*
X112762720Y-102763206D01*
X112751496Y-102870000D01*
X112752186Y-102876565D01*
X112768846Y-103035072D01*
X112771458Y-103059928D01*
X112830473Y-103241556D01*
X112833776Y-103247278D01*
X112833777Y-103247279D01*
X112838500Y-103255460D01*
X112925960Y-103406944D01*
X112930378Y-103411851D01*
X112930379Y-103411852D01*
X113049325Y-103543955D01*
X113053747Y-103548866D01*
X113208248Y-103661118D01*
X113214276Y-103663802D01*
X113214278Y-103663803D01*
X113374352Y-103735072D01*
X113382712Y-103738794D01*
X113476112Y-103758647D01*
X113563056Y-103777128D01*
X113563061Y-103777128D01*
X113569513Y-103778500D01*
X113715500Y-103778500D01*
X113783621Y-103798502D01*
X113830114Y-103852158D01*
X113841500Y-103904500D01*
X113841500Y-110230848D01*
X113840067Y-110249798D01*
X113838633Y-110259226D01*
X113836801Y-110271267D01*
X113837394Y-110278559D01*
X113837394Y-110278562D01*
X113841085Y-110323936D01*
X113841500Y-110334151D01*
X113841500Y-110342211D01*
X113841925Y-110345855D01*
X113844789Y-110370425D01*
X113845222Y-110374800D01*
X113850520Y-110439928D01*
X113851140Y-110447555D01*
X113853396Y-110454519D01*
X113854587Y-110460478D01*
X113855971Y-110466333D01*
X113856818Y-110473599D01*
X113881735Y-110542245D01*
X113883152Y-110546373D01*
X113898617Y-110594109D01*
X113905649Y-110615817D01*
X113909445Y-110622072D01*
X113911951Y-110627546D01*
X113914670Y-110632976D01*
X113917167Y-110639855D01*
X113921180Y-110645975D01*
X113921180Y-110645976D01*
X113957186Y-110700894D01*
X113959523Y-110704598D01*
X113997405Y-110767025D01*
X114001121Y-110771233D01*
X114001122Y-110771234D01*
X114004803Y-110775402D01*
X114004776Y-110775426D01*
X114007429Y-110778418D01*
X114010132Y-110781651D01*
X114014144Y-110787770D01*
X114056535Y-110827928D01*
X114070383Y-110841046D01*
X114072825Y-110843424D01*
X115155806Y-111926405D01*
X115189832Y-111988717D01*
X115184767Y-112059532D01*
X115142220Y-112116368D01*
X115075700Y-112141179D01*
X115066711Y-112141500D01*
X114904513Y-112141500D01*
X114898052Y-112142873D01*
X114893620Y-112143339D01*
X114860734Y-112142477D01*
X114844474Y-112139901D01*
X114832857Y-112137495D01*
X114797711Y-112128472D01*
X114797710Y-112128472D01*
X114790030Y-112126500D01*
X114769776Y-112126500D01*
X114750065Y-112124949D01*
X114737886Y-112123020D01*
X114730057Y-112121780D01*
X114722165Y-112122526D01*
X114686039Y-112125941D01*
X114674181Y-112126500D01*
X113208200Y-112126500D01*
X113140079Y-112106498D01*
X113120853Y-112090157D01*
X113120580Y-112090460D01*
X113115668Y-112086037D01*
X113111253Y-112081134D01*
X113079616Y-112058148D01*
X112962094Y-111972763D01*
X112962093Y-111972762D01*
X112956752Y-111968882D01*
X112950724Y-111966198D01*
X112950722Y-111966197D01*
X112788319Y-111893891D01*
X112788318Y-111893891D01*
X112782288Y-111891206D01*
X112688887Y-111871353D01*
X112601944Y-111852872D01*
X112601939Y-111852872D01*
X112595487Y-111851500D01*
X112404513Y-111851500D01*
X112398061Y-111852872D01*
X112398056Y-111852872D01*
X112311112Y-111871353D01*
X112217712Y-111891206D01*
X112211682Y-111893891D01*
X112211681Y-111893891D01*
X112049278Y-111966197D01*
X112049276Y-111966198D01*
X112043248Y-111968882D01*
X112037907Y-111972762D01*
X112037906Y-111972763D01*
X111987843Y-112009136D01*
X111888747Y-112081134D01*
X111884326Y-112086044D01*
X111884325Y-112086045D01*
X111769011Y-112214115D01*
X111760960Y-112223056D01*
X111665473Y-112388444D01*
X111606458Y-112570072D01*
X111605768Y-112576633D01*
X111605768Y-112576635D01*
X111599760Y-112633800D01*
X111586496Y-112760000D01*
X111587186Y-112766565D01*
X111605068Y-112936700D01*
X111606458Y-112949928D01*
X111665473Y-113131556D01*
X111668776Y-113137278D01*
X111668777Y-113137279D01*
X111676482Y-113150624D01*
X111760960Y-113296944D01*
X111765378Y-113301851D01*
X111765379Y-113301852D01*
X111791967Y-113331381D01*
X111888747Y-113438866D01*
X111913018Y-113456500D01*
X112016288Y-113531530D01*
X112043248Y-113551118D01*
X112049276Y-113553802D01*
X112049278Y-113553803D01*
X112211681Y-113626109D01*
X112217712Y-113628794D01*
X112311113Y-113648647D01*
X112398056Y-113667128D01*
X112398061Y-113667128D01*
X112404513Y-113668500D01*
X112595487Y-113668500D01*
X112601939Y-113667128D01*
X112601944Y-113667128D01*
X112688887Y-113648647D01*
X112782288Y-113628794D01*
X112788319Y-113626109D01*
X112950722Y-113553803D01*
X112950724Y-113553802D01*
X112956752Y-113551118D01*
X112983713Y-113531530D01*
X113089671Y-113454546D01*
X113111253Y-113438866D01*
X113115668Y-113433963D01*
X113120580Y-113429540D01*
X113121705Y-113430789D01*
X113175014Y-113397949D01*
X113208200Y-113393500D01*
X114076529Y-113393500D01*
X114144650Y-113413502D01*
X114185648Y-113456500D01*
X114260960Y-113586944D01*
X114265378Y-113591851D01*
X114265379Y-113591852D01*
X114363126Y-113700411D01*
X114388747Y-113728866D01*
X114395215Y-113733565D01*
X114395709Y-113734205D01*
X114398998Y-113737167D01*
X114398456Y-113737769D01*
X114438568Y-113789788D01*
X114444642Y-113860525D01*
X114411509Y-113923316D01*
X114349688Y-113958226D01*
X114321152Y-113961500D01*
X112947070Y-113961500D01*
X112928120Y-113960067D01*
X112913885Y-113957901D01*
X112913881Y-113957901D01*
X112906651Y-113956801D01*
X112899359Y-113957394D01*
X112899356Y-113957394D01*
X112853982Y-113961085D01*
X112843767Y-113961500D01*
X112835707Y-113961500D01*
X112832073Y-113961924D01*
X112832067Y-113961924D01*
X112819042Y-113963443D01*
X112807480Y-113964791D01*
X112803132Y-113965221D01*
X112781059Y-113967016D01*
X112737662Y-113970546D01*
X112737659Y-113970547D01*
X112730364Y-113971140D01*
X112723400Y-113973396D01*
X112717461Y-113974583D01*
X112711590Y-113975970D01*
X112704319Y-113976818D01*
X112697443Y-113979314D01*
X112697434Y-113979316D01*
X112635702Y-114001725D01*
X112631598Y-114003135D01*
X112562101Y-114025648D01*
X112555846Y-114029444D01*
X112550387Y-114031943D01*
X112544939Y-114034671D01*
X112538063Y-114037167D01*
X112477010Y-114077195D01*
X112473337Y-114079513D01*
X112410893Y-114117405D01*
X112402517Y-114124802D01*
X112402493Y-114124775D01*
X112399499Y-114127430D01*
X112396268Y-114130132D01*
X112390148Y-114134144D01*
X112385116Y-114139456D01*
X112336872Y-114190383D01*
X112334494Y-114192825D01*
X110272724Y-116254595D01*
X110210412Y-116288621D01*
X110183629Y-116291500D01*
X106842587Y-116291500D01*
X106768528Y-116267437D01*
X106762098Y-116262765D01*
X106762091Y-116262761D01*
X106756752Y-116258882D01*
X106750724Y-116256198D01*
X106750722Y-116256197D01*
X106588319Y-116183891D01*
X106588318Y-116183891D01*
X106582288Y-116181206D01*
X106488887Y-116161353D01*
X106401944Y-116142872D01*
X106401939Y-116142872D01*
X106395487Y-116141500D01*
X106204513Y-116141500D01*
X106198061Y-116142872D01*
X106198056Y-116142872D01*
X106111113Y-116161353D01*
X106017712Y-116181206D01*
X106011682Y-116183891D01*
X106011681Y-116183891D01*
X105849278Y-116256197D01*
X105849276Y-116256198D01*
X105843248Y-116258882D01*
X105837907Y-116262762D01*
X105837906Y-116262763D01*
X105831473Y-116267437D01*
X105688747Y-116371134D01*
X105684326Y-116376044D01*
X105684325Y-116376045D01*
X105589703Y-116481134D01*
X105560960Y-116513056D01*
X105502686Y-116613990D01*
X105475416Y-116661223D01*
X105465473Y-116678444D01*
X105406458Y-116860072D01*
X105405768Y-116866633D01*
X105405768Y-116866635D01*
X105394899Y-116970051D01*
X105386496Y-117050000D01*
X105387186Y-117056565D01*
X105396384Y-117144075D01*
X105406458Y-117239928D01*
X105465473Y-117421556D01*
X105560960Y-117586944D01*
X105634137Y-117668215D01*
X105664853Y-117732221D01*
X105666500Y-117752524D01*
X105666500Y-123757476D01*
X105646498Y-123825597D01*
X105634142Y-123841779D01*
X105560960Y-123923056D01*
X105557659Y-123928774D01*
X105473472Y-124074590D01*
X105465473Y-124088444D01*
X105406458Y-124270072D01*
X105386496Y-124460000D01*
X105406458Y-124649928D01*
X105465473Y-124831556D01*
X105560960Y-124996944D01*
X105565378Y-125001851D01*
X105565379Y-125001852D01*
X105570035Y-125007023D01*
X105688747Y-125138866D01*
X105843248Y-125251118D01*
X105849276Y-125253802D01*
X105849278Y-125253803D01*
X105997502Y-125319796D01*
X106017712Y-125328794D01*
X106111113Y-125348647D01*
X106198056Y-125367128D01*
X106198061Y-125367128D01*
X106204513Y-125368500D01*
X106395487Y-125368500D01*
X106401939Y-125367128D01*
X106401944Y-125367128D01*
X106488887Y-125348647D01*
X106582288Y-125328794D01*
X106602498Y-125319796D01*
X106750722Y-125253803D01*
X106750724Y-125253802D01*
X106756752Y-125251118D01*
X106911253Y-125138866D01*
X107029965Y-125007023D01*
X107034621Y-125001852D01*
X107034622Y-125001851D01*
X107039040Y-124996944D01*
X107134527Y-124831556D01*
X107193542Y-124649928D01*
X107213504Y-124460000D01*
X107193542Y-124270072D01*
X107134527Y-124088444D01*
X107126529Y-124074590D01*
X107042341Y-123928774D01*
X107039040Y-123923056D01*
X106965863Y-123841785D01*
X106935147Y-123777779D01*
X106933500Y-123757476D01*
X106933500Y-117934500D01*
X106953502Y-117866379D01*
X107007158Y-117819886D01*
X107059500Y-117808500D01*
X110482930Y-117808500D01*
X110501880Y-117809933D01*
X110516115Y-117812099D01*
X110516119Y-117812099D01*
X110523349Y-117813199D01*
X110530641Y-117812606D01*
X110530644Y-117812606D01*
X110576018Y-117808915D01*
X110586233Y-117808500D01*
X110594293Y-117808500D01*
X110607583Y-117806951D01*
X110622507Y-117805211D01*
X110626882Y-117804778D01*
X110692339Y-117799454D01*
X110692342Y-117799453D01*
X110699637Y-117798860D01*
X110706601Y-117796604D01*
X110712560Y-117795413D01*
X110718415Y-117794029D01*
X110725681Y-117793182D01*
X110794327Y-117768265D01*
X110798455Y-117766848D01*
X110860936Y-117746607D01*
X110860938Y-117746606D01*
X110867899Y-117744351D01*
X110874154Y-117740555D01*
X110879628Y-117738049D01*
X110885058Y-117735330D01*
X110891937Y-117732833D01*
X110912194Y-117719552D01*
X110952976Y-117692814D01*
X110956680Y-117690477D01*
X111019107Y-117652595D01*
X111027484Y-117645197D01*
X111027508Y-117645224D01*
X111030500Y-117642571D01*
X111033733Y-117639868D01*
X111039852Y-117635856D01*
X111093128Y-117579617D01*
X111095506Y-117577175D01*
X113157276Y-115515405D01*
X113219588Y-115481379D01*
X113246371Y-115478500D01*
X115570634Y-115478500D01*
X115638755Y-115498502D01*
X115685248Y-115552158D01*
X115695352Y-115622432D01*
X115694275Y-115628479D01*
X115692458Y-115634072D01*
X115691768Y-115640633D01*
X115691768Y-115640635D01*
X115684635Y-115708500D01*
X115672496Y-115824000D01*
X115673186Y-115830565D01*
X115690539Y-115995666D01*
X115692458Y-116013928D01*
X115751473Y-116195556D01*
X115754776Y-116201278D01*
X115754777Y-116201279D01*
X115774117Y-116234776D01*
X115846960Y-116360944D01*
X115905834Y-116426330D01*
X115924015Y-116446522D01*
X115954732Y-116510530D01*
X115945967Y-116580983D01*
X115919473Y-116619927D01*
X113059805Y-119479595D01*
X112997493Y-119513621D01*
X112970710Y-119516500D01*
X110228767Y-119516500D01*
X110217584Y-119515973D01*
X110210091Y-119514298D01*
X110202165Y-119514547D01*
X110202164Y-119514547D01*
X110142001Y-119516438D01*
X110138043Y-119516500D01*
X110110144Y-119516500D01*
X110106154Y-119517004D01*
X110094320Y-119517936D01*
X110050111Y-119519326D01*
X110042497Y-119521538D01*
X110042492Y-119521539D01*
X110030659Y-119524977D01*
X110011296Y-119528988D01*
X109991203Y-119531526D01*
X109983836Y-119534443D01*
X109983831Y-119534444D01*
X109950092Y-119547802D01*
X109938865Y-119551646D01*
X109896407Y-119563982D01*
X109889581Y-119568019D01*
X109878972Y-119574293D01*
X109861224Y-119582988D01*
X109842383Y-119590448D01*
X109835967Y-119595110D01*
X109835966Y-119595110D01*
X109806613Y-119616436D01*
X109796693Y-119622952D01*
X109765465Y-119641420D01*
X109765462Y-119641422D01*
X109758638Y-119645458D01*
X109744317Y-119659779D01*
X109729284Y-119672619D01*
X109712893Y-119684528D01*
X109707842Y-119690633D01*
X109707837Y-119690638D01*
X109684701Y-119718604D01*
X109676713Y-119727382D01*
X109249500Y-120154595D01*
X109187188Y-120188621D01*
X109160405Y-120191500D01*
X109104513Y-120191500D01*
X109098061Y-120192872D01*
X109098056Y-120192872D01*
X109011112Y-120211353D01*
X108917712Y-120231206D01*
X108911682Y-120233891D01*
X108911681Y-120233891D01*
X108749278Y-120306197D01*
X108749276Y-120306198D01*
X108743248Y-120308882D01*
X108737907Y-120312762D01*
X108737906Y-120312763D01*
X108696794Y-120342633D01*
X108588747Y-120421134D01*
X108584326Y-120426044D01*
X108584325Y-120426045D01*
X108472481Y-120550261D01*
X108460960Y-120563056D01*
X108365473Y-120728444D01*
X108306458Y-120910072D01*
X108305768Y-120916633D01*
X108305768Y-120916635D01*
X108295102Y-121018118D01*
X108286496Y-121100000D01*
X108306458Y-121289928D01*
X108365473Y-121471556D01*
X108460960Y-121636944D01*
X108465378Y-121641851D01*
X108465379Y-121641852D01*
X108551762Y-121737790D01*
X108588747Y-121778866D01*
X108743248Y-121891118D01*
X108749276Y-121893802D01*
X108749278Y-121893803D01*
X108911681Y-121966109D01*
X108917712Y-121968794D01*
X109011113Y-121988647D01*
X109098056Y-122007128D01*
X109098061Y-122007128D01*
X109104513Y-122008500D01*
X109295487Y-122008500D01*
X109301939Y-122007128D01*
X109301944Y-122007128D01*
X109388887Y-121988647D01*
X109482288Y-121968794D01*
X109488319Y-121966109D01*
X109650722Y-121893803D01*
X109650724Y-121893802D01*
X109656752Y-121891118D01*
X109811253Y-121778866D01*
X109848238Y-121737790D01*
X109934621Y-121641852D01*
X109934622Y-121641851D01*
X109939040Y-121636944D01*
X110034527Y-121471556D01*
X110093542Y-121289928D01*
X110110907Y-121124708D01*
X110137920Y-121059051D01*
X110147122Y-121048782D01*
X110375501Y-120820404D01*
X110437813Y-120786379D01*
X110464596Y-120783500D01*
X111746388Y-120783500D01*
X111814509Y-120803502D01*
X111861002Y-120857158D01*
X111871106Y-120927432D01*
X111855507Y-120972500D01*
X111768777Y-121122721D01*
X111765473Y-121128444D01*
X111706458Y-121310072D01*
X111705768Y-121316633D01*
X111705768Y-121316635D01*
X111691879Y-121448782D01*
X111686496Y-121500000D01*
X111687186Y-121506565D01*
X111699368Y-121622466D01*
X111706458Y-121689928D01*
X111765473Y-121871556D01*
X111860960Y-122036944D01*
X111865378Y-122041851D01*
X111865379Y-122041852D01*
X111966863Y-122154561D01*
X111988747Y-122178866D01*
X112143248Y-122291118D01*
X112149276Y-122293802D01*
X112149278Y-122293803D01*
X112284904Y-122354187D01*
X112317712Y-122368794D01*
X112411113Y-122388647D01*
X112498056Y-122407128D01*
X112498061Y-122407128D01*
X112504513Y-122408500D01*
X112695487Y-122408500D01*
X112701939Y-122407128D01*
X112701944Y-122407128D01*
X112788887Y-122388647D01*
X112882288Y-122368794D01*
X112915096Y-122354187D01*
X113050722Y-122293803D01*
X113050724Y-122293802D01*
X113056752Y-122291118D01*
X113211253Y-122178866D01*
X113233137Y-122154561D01*
X113334621Y-122041852D01*
X113334622Y-122041851D01*
X113339040Y-122036944D01*
X113434527Y-121871556D01*
X113493542Y-121689928D01*
X113500633Y-121622466D01*
X113510907Y-121524707D01*
X113537920Y-121459050D01*
X113547122Y-121448782D01*
X118317247Y-116678657D01*
X118325537Y-116671113D01*
X118332018Y-116667000D01*
X118378659Y-116617332D01*
X118381413Y-116614491D01*
X118401134Y-116594770D01*
X118403612Y-116591575D01*
X118411318Y-116582553D01*
X118436158Y-116556101D01*
X118441586Y-116550321D01*
X118451346Y-116532568D01*
X118462199Y-116516045D01*
X118466477Y-116510530D01*
X118474613Y-116500041D01*
X118492176Y-116459457D01*
X118497383Y-116448827D01*
X118518695Y-116410060D01*
X118520666Y-116402383D01*
X118520668Y-116402378D01*
X118523732Y-116390442D01*
X118530138Y-116371730D01*
X118532077Y-116367251D01*
X118538181Y-116353145D01*
X118539421Y-116345317D01*
X118539423Y-116345310D01*
X118545099Y-116309476D01*
X118547505Y-116297856D01*
X118556528Y-116262711D01*
X118556528Y-116262710D01*
X118558500Y-116255030D01*
X118558500Y-116234776D01*
X118560051Y-116215065D01*
X118561980Y-116202886D01*
X118563220Y-116195057D01*
X118562165Y-116183891D01*
X118559059Y-116151039D01*
X118558500Y-116139181D01*
X118558500Y-112600000D01*
X122286496Y-112600000D01*
X122287186Y-112606565D01*
X122304910Y-112775196D01*
X122306458Y-112789928D01*
X122365473Y-112971556D01*
X122368776Y-112977278D01*
X122368777Y-112977279D01*
X122397764Y-113027485D01*
X122460960Y-113136944D01*
X122534137Y-113218215D01*
X122564853Y-113282221D01*
X122566500Y-113302524D01*
X122566500Y-122705233D01*
X122565973Y-122716416D01*
X122564298Y-122723909D01*
X122564547Y-122731835D01*
X122564547Y-122731836D01*
X122566438Y-122791986D01*
X122566500Y-122795945D01*
X122566500Y-122823856D01*
X122566997Y-122827790D01*
X122566997Y-122827791D01*
X122567005Y-122827856D01*
X122567938Y-122839693D01*
X122569327Y-122883889D01*
X122574978Y-122903339D01*
X122578987Y-122922700D01*
X122581526Y-122942797D01*
X122584445Y-122950168D01*
X122584445Y-122950170D01*
X122597804Y-122983912D01*
X122601649Y-122995142D01*
X122613982Y-123037593D01*
X122618015Y-123044412D01*
X122618017Y-123044417D01*
X122624293Y-123055028D01*
X122632988Y-123072776D01*
X122640448Y-123091617D01*
X122645110Y-123098033D01*
X122645110Y-123098034D01*
X122666436Y-123127387D01*
X122672952Y-123137307D01*
X122695458Y-123175362D01*
X122709779Y-123189683D01*
X122722619Y-123204716D01*
X122734528Y-123221107D01*
X122740634Y-123226158D01*
X122768605Y-123249298D01*
X122777384Y-123257288D01*
X123851803Y-124331707D01*
X123885829Y-124394019D01*
X123884299Y-124448315D01*
X123885339Y-124448513D01*
X123884371Y-124453587D01*
X123882989Y-124458570D01*
X123859251Y-124680695D01*
X123859548Y-124685848D01*
X123859548Y-124685851D01*
X123865011Y-124780590D01*
X123872110Y-124903715D01*
X123873247Y-124908761D01*
X123873248Y-124908767D01*
X123874393Y-124913846D01*
X123921222Y-125121639D01*
X123959461Y-125215811D01*
X124001685Y-125319796D01*
X124005266Y-125328616D01*
X124121987Y-125519088D01*
X124268250Y-125687938D01*
X124440126Y-125830632D01*
X124510595Y-125871811D01*
X124513445Y-125873476D01*
X124562169Y-125925114D01*
X124575240Y-125994897D01*
X124548509Y-126060669D01*
X124508055Y-126094027D01*
X124495607Y-126100507D01*
X124491474Y-126103610D01*
X124491471Y-126103612D01*
X124344664Y-126213838D01*
X124316965Y-126234635D01*
X124162629Y-126396138D01*
X124036743Y-126580680D01*
X123942688Y-126783305D01*
X123882989Y-126998570D01*
X123859251Y-127220695D01*
X123859548Y-127225848D01*
X123859548Y-127225851D01*
X123865011Y-127320590D01*
X123872110Y-127443715D01*
X123873247Y-127448761D01*
X123873248Y-127448767D01*
X123874393Y-127453846D01*
X123921222Y-127661639D01*
X123959461Y-127755811D01*
X124001685Y-127859796D01*
X124005266Y-127868616D01*
X124121987Y-128059088D01*
X124268250Y-128227938D01*
X124272225Y-128231238D01*
X124272231Y-128231244D01*
X124277425Y-128235556D01*
X124317059Y-128294460D01*
X124318555Y-128365441D01*
X124281439Y-128425962D01*
X124241168Y-128450480D01*
X124133946Y-128490676D01*
X124118351Y-128499214D01*
X124016276Y-128575715D01*
X124003715Y-128588276D01*
X123927214Y-128690351D01*
X123918676Y-128705946D01*
X123873522Y-128826394D01*
X123869895Y-128841649D01*
X123864369Y-128892514D01*
X123864000Y-128899328D01*
X123864000Y-129521885D01*
X123868475Y-129537124D01*
X123869865Y-129538329D01*
X123877548Y-129540000D01*
X126561884Y-129540000D01*
X126577123Y-129535525D01*
X126578328Y-129534135D01*
X126579999Y-129526452D01*
X126579999Y-128899331D01*
X126579629Y-128892510D01*
X126574105Y-128841648D01*
X126570479Y-128826396D01*
X126525324Y-128705946D01*
X126516786Y-128690351D01*
X126440285Y-128588276D01*
X126427724Y-128575715D01*
X126325649Y-128499214D01*
X126310054Y-128490676D01*
X126199813Y-128449348D01*
X126143049Y-128406706D01*
X126118349Y-128340145D01*
X126133557Y-128270796D01*
X126155104Y-128242115D01*
X126256430Y-128141144D01*
X126256440Y-128141132D01*
X126260096Y-128137489D01*
X126319594Y-128054689D01*
X126387435Y-127960277D01*
X126390453Y-127956077D01*
X126435546Y-127864839D01*
X126487136Y-127760453D01*
X126487137Y-127760451D01*
X126489430Y-127755811D01*
X126554370Y-127542069D01*
X126583529Y-127320590D01*
X126585156Y-127254000D01*
X126566852Y-127031361D01*
X126512431Y-126814702D01*
X126423354Y-126609840D01*
X126329051Y-126464070D01*
X126304822Y-126426617D01*
X126304820Y-126426614D01*
X126302014Y-126422277D01*
X126151670Y-126257051D01*
X126147619Y-126253852D01*
X126147615Y-126253848D01*
X125980414Y-126121800D01*
X125980410Y-126121798D01*
X125976359Y-126118598D01*
X125935053Y-126095796D01*
X125885084Y-126045364D01*
X125870312Y-125975921D01*
X125895428Y-125909516D01*
X125922780Y-125882909D01*
X125966603Y-125851650D01*
X126101860Y-125755173D01*
X126130945Y-125726190D01*
X126256435Y-125601137D01*
X126260096Y-125597489D01*
X126319594Y-125514689D01*
X126387435Y-125420277D01*
X126390453Y-125416077D01*
X126435546Y-125324839D01*
X126487136Y-125220453D01*
X126487137Y-125220451D01*
X126489430Y-125215811D01*
X126554370Y-125002069D01*
X126583529Y-124780590D01*
X126585156Y-124714000D01*
X126566852Y-124491361D01*
X126512431Y-124274702D01*
X126423354Y-124069840D01*
X126328395Y-123923056D01*
X126304822Y-123886617D01*
X126304820Y-123886614D01*
X126302014Y-123882277D01*
X126151670Y-123717051D01*
X126147619Y-123713852D01*
X126147615Y-123713848D01*
X125980414Y-123581800D01*
X125980410Y-123581798D01*
X125976359Y-123578598D01*
X125935053Y-123555796D01*
X125885084Y-123505364D01*
X125870312Y-123435921D01*
X125895428Y-123369516D01*
X125922780Y-123342909D01*
X126032934Y-123264337D01*
X126101860Y-123215173D01*
X126260096Y-123057489D01*
X126390453Y-122876077D01*
X126414318Y-122827791D01*
X126487136Y-122680453D01*
X126487137Y-122680451D01*
X126489430Y-122675811D01*
X126554370Y-122462069D01*
X126583529Y-122240590D01*
X126585156Y-122174000D01*
X126566852Y-121951361D01*
X126563472Y-121937902D01*
X126514329Y-121742257D01*
X126517133Y-121671316D01*
X126547438Y-121622466D01*
X126645198Y-121524707D01*
X126789258Y-121380647D01*
X126797537Y-121373113D01*
X126804018Y-121369000D01*
X126850644Y-121319348D01*
X126853398Y-121316507D01*
X126873135Y-121296770D01*
X126875615Y-121293573D01*
X126883320Y-121284551D01*
X126908159Y-121258100D01*
X126913586Y-121252321D01*
X126917405Y-121245375D01*
X126917407Y-121245372D01*
X126923348Y-121234566D01*
X126934199Y-121218047D01*
X126941758Y-121208301D01*
X126946614Y-121202041D01*
X126949759Y-121194772D01*
X126949762Y-121194768D01*
X126964174Y-121161463D01*
X126969391Y-121150813D01*
X126990695Y-121112060D01*
X126993792Y-121100000D01*
X126995733Y-121092438D01*
X127002137Y-121073734D01*
X127007033Y-121062420D01*
X127007033Y-121062419D01*
X127010181Y-121055145D01*
X127011420Y-121047322D01*
X127011423Y-121047312D01*
X127017099Y-121011476D01*
X127019505Y-120999856D01*
X127028528Y-120964711D01*
X127028528Y-120964710D01*
X127030500Y-120957030D01*
X127030500Y-120936776D01*
X127032051Y-120917065D01*
X127033980Y-120904886D01*
X127035220Y-120897057D01*
X127031059Y-120853038D01*
X127030500Y-120841181D01*
X127030500Y-111375763D01*
X127031027Y-111364579D01*
X127032701Y-111357091D01*
X127030562Y-111289032D01*
X127030500Y-111285075D01*
X127030500Y-111257144D01*
X127029994Y-111253138D01*
X127029061Y-111241292D01*
X127027922Y-111205037D01*
X127027673Y-111197110D01*
X127022022Y-111177658D01*
X127018014Y-111158306D01*
X127016468Y-111146068D01*
X127016467Y-111146066D01*
X127015474Y-111138203D01*
X126999194Y-111097086D01*
X126995359Y-111085885D01*
X126983018Y-111043406D01*
X126978985Y-111036587D01*
X126978983Y-111036582D01*
X126972707Y-111025971D01*
X126964010Y-111008221D01*
X126956552Y-110989383D01*
X126942884Y-110970570D01*
X126930572Y-110953625D01*
X126924053Y-110943701D01*
X126905578Y-110912460D01*
X126905574Y-110912455D01*
X126901542Y-110905637D01*
X126887218Y-110891313D01*
X126874376Y-110876278D01*
X126862472Y-110859893D01*
X126828406Y-110831711D01*
X126819627Y-110823722D01*
X125347122Y-109351217D01*
X125313096Y-109288905D01*
X125310907Y-109275292D01*
X125294232Y-109116635D01*
X125294232Y-109116633D01*
X125293542Y-109110072D01*
X125234527Y-108928444D01*
X125224290Y-108910712D01*
X125180239Y-108834414D01*
X125139040Y-108763056D01*
X125132022Y-108755261D01*
X125015675Y-108626045D01*
X125015674Y-108626044D01*
X125011253Y-108621134D01*
X124895804Y-108537255D01*
X124862094Y-108512763D01*
X124862093Y-108512762D01*
X124856752Y-108508882D01*
X124850724Y-108506198D01*
X124850722Y-108506197D01*
X124688319Y-108433891D01*
X124688318Y-108433891D01*
X124682288Y-108431206D01*
X124578740Y-108409196D01*
X124501944Y-108392872D01*
X124501939Y-108392872D01*
X124495487Y-108391500D01*
X124304513Y-108391500D01*
X124298061Y-108392872D01*
X124298056Y-108392872D01*
X124221260Y-108409196D01*
X124117712Y-108431206D01*
X124111682Y-108433891D01*
X124111681Y-108433891D01*
X123949278Y-108506197D01*
X123949276Y-108506198D01*
X123943248Y-108508882D01*
X123937907Y-108512762D01*
X123937906Y-108512763D01*
X123904196Y-108537255D01*
X123788747Y-108621134D01*
X123784326Y-108626044D01*
X123784325Y-108626045D01*
X123667979Y-108755261D01*
X123660960Y-108763056D01*
X123619761Y-108834414D01*
X123575711Y-108910712D01*
X123565473Y-108928444D01*
X123506458Y-109110072D01*
X123505768Y-109116633D01*
X123505768Y-109116635D01*
X123501447Y-109157745D01*
X123486496Y-109300000D01*
X123487186Y-109306565D01*
X123501599Y-109443693D01*
X123506458Y-109489928D01*
X123565473Y-109671556D01*
X123660960Y-109836944D01*
X123665378Y-109841851D01*
X123665379Y-109841852D01*
X123724667Y-109907698D01*
X123788747Y-109978866D01*
X123852183Y-110024955D01*
X123935154Y-110085237D01*
X123943248Y-110091118D01*
X123949276Y-110093802D01*
X123949278Y-110093803D01*
X124057796Y-110142118D01*
X124117712Y-110168794D01*
X124211113Y-110188647D01*
X124298056Y-110207128D01*
X124298061Y-110207128D01*
X124304513Y-110208500D01*
X124360406Y-110208500D01*
X124428527Y-110228502D01*
X124449501Y-110245405D01*
X124750404Y-110546308D01*
X124784430Y-110608620D01*
X124779365Y-110679435D01*
X124736818Y-110736271D01*
X124703395Y-110753639D01*
X124703440Y-110753746D01*
X124702123Y-110754300D01*
X124700450Y-110755169D01*
X124698675Y-110755749D01*
X124698673Y-110755750D01*
X124693756Y-110757357D01*
X124689164Y-110759747D01*
X124689165Y-110759747D01*
X124550922Y-110831712D01*
X124495607Y-110860507D01*
X124491474Y-110863610D01*
X124491471Y-110863612D01*
X124323960Y-110989383D01*
X124316965Y-110994635D01*
X124270358Y-111043406D01*
X124229784Y-111085865D01*
X124162629Y-111156138D01*
X124159715Y-111160410D01*
X124159714Y-111160411D01*
X124134680Y-111197110D01*
X124036743Y-111340680D01*
X124020458Y-111375763D01*
X123978230Y-111466737D01*
X123942688Y-111543305D01*
X123882989Y-111758570D01*
X123881620Y-111758190D01*
X123852181Y-111815546D01*
X123790759Y-111851154D01*
X123719837Y-111847902D01*
X123686777Y-111830697D01*
X123656752Y-111808882D01*
X123650724Y-111806198D01*
X123650722Y-111806197D01*
X123488319Y-111733891D01*
X123488318Y-111733891D01*
X123482288Y-111731206D01*
X123388887Y-111711353D01*
X123301944Y-111692872D01*
X123301939Y-111692872D01*
X123295487Y-111691500D01*
X123104513Y-111691500D01*
X123098061Y-111692872D01*
X123098056Y-111692872D01*
X123011113Y-111711353D01*
X122917712Y-111731206D01*
X122911682Y-111733891D01*
X122911681Y-111733891D01*
X122749278Y-111806197D01*
X122749276Y-111806198D01*
X122743248Y-111808882D01*
X122737909Y-111812761D01*
X122737906Y-111812763D01*
X122689542Y-111847902D01*
X122588747Y-111921134D01*
X122584326Y-111926044D01*
X122584325Y-111926045D01*
X122545755Y-111968882D01*
X122460960Y-112063056D01*
X122413053Y-112146033D01*
X122369523Y-112221430D01*
X122365473Y-112228444D01*
X122306458Y-112410072D01*
X122305768Y-112416633D01*
X122305768Y-112416635D01*
X122289369Y-112572669D01*
X122286496Y-112600000D01*
X118558500Y-112600000D01*
X118558500Y-110663833D01*
X118578502Y-110595712D01*
X118632158Y-110549219D01*
X118702432Y-110539115D01*
X118735749Y-110548726D01*
X118835202Y-110593005D01*
X118843712Y-110596794D01*
X118933208Y-110615817D01*
X119024056Y-110635128D01*
X119024061Y-110635128D01*
X119030513Y-110636500D01*
X119221487Y-110636500D01*
X119227939Y-110635128D01*
X119227944Y-110635128D01*
X119318792Y-110615817D01*
X119408288Y-110596794D01*
X119415123Y-110593751D01*
X119576722Y-110521803D01*
X119576724Y-110521802D01*
X119582752Y-110519118D01*
X119737253Y-110406866D01*
X119741675Y-110401955D01*
X119860621Y-110269852D01*
X119860622Y-110269851D01*
X119865040Y-110264944D01*
X119935954Y-110142118D01*
X119957223Y-110105279D01*
X119957224Y-110105278D01*
X119960527Y-110099556D01*
X120019542Y-109917928D01*
X120020312Y-109910608D01*
X120038814Y-109734565D01*
X120038814Y-109734563D01*
X120039504Y-109728000D01*
X120035482Y-109689730D01*
X120020232Y-109544635D01*
X120020232Y-109544633D01*
X120019542Y-109538072D01*
X119960527Y-109356444D01*
X119865040Y-109191056D01*
X119824282Y-109145789D01*
X119741675Y-109054045D01*
X119741674Y-109054044D01*
X119737253Y-109049134D01*
X119609599Y-108956387D01*
X119594531Y-108943103D01*
X119591472Y-108938893D01*
X119557406Y-108910711D01*
X119548627Y-108902722D01*
X116620405Y-105974500D01*
X116586379Y-105912188D01*
X116583500Y-105885405D01*
X116583500Y-100651062D01*
X116584027Y-100639878D01*
X116585701Y-100632390D01*
X116583562Y-100564331D01*
X116583500Y-100560374D01*
X116583500Y-100532443D01*
X116582994Y-100528437D01*
X116582061Y-100516591D01*
X116580922Y-100480336D01*
X116580673Y-100472409D01*
X116575022Y-100452957D01*
X116571014Y-100433605D01*
X116569468Y-100421367D01*
X116569467Y-100421365D01*
X116568474Y-100413502D01*
X116552194Y-100372385D01*
X116548359Y-100361184D01*
X116536018Y-100318705D01*
X116531985Y-100311886D01*
X116531983Y-100311881D01*
X116525707Y-100301270D01*
X116517010Y-100283520D01*
X116509552Y-100264682D01*
X116483571Y-100228922D01*
X116477053Y-100219000D01*
X116458578Y-100187759D01*
X116458574Y-100187754D01*
X116454542Y-100180936D01*
X116440218Y-100166612D01*
X116427376Y-100151577D01*
X116415472Y-100135192D01*
X116381406Y-100107010D01*
X116372627Y-100099021D01*
X115986405Y-99712799D01*
X115952379Y-99650487D01*
X115949500Y-99623704D01*
X115949500Y-95464000D01*
X115969502Y-95395879D01*
X116023158Y-95349386D01*
X116075500Y-95338000D01*
X116567885Y-95338000D01*
X116583124Y-95333525D01*
X116584329Y-95332135D01*
X116586000Y-95324452D01*
X116586000Y-93852000D01*
X116606002Y-93783879D01*
X116659658Y-93737386D01*
X116712000Y-93726000D01*
X116968000Y-93726000D01*
X117036121Y-93746002D01*
X117082614Y-93799658D01*
X117094000Y-93852000D01*
X117094000Y-95319884D01*
X117098475Y-95335123D01*
X117099865Y-95336328D01*
X117107548Y-95337999D01*
X117734669Y-95337999D01*
X117741490Y-95337629D01*
X117792352Y-95332105D01*
X117807604Y-95328479D01*
X117928054Y-95283324D01*
X117943649Y-95274786D01*
X118045724Y-95198285D01*
X118058285Y-95185724D01*
X118134786Y-95083649D01*
X118143324Y-95068054D01*
X118184225Y-94958952D01*
X118226867Y-94902188D01*
X118293428Y-94877488D01*
X118362777Y-94892696D01*
X118397444Y-94920684D01*
X118422865Y-94950031D01*
X118422869Y-94950035D01*
X118426250Y-94953938D01*
X118598126Y-95096632D01*
X118791000Y-95209338D01*
X118999692Y-95289030D01*
X119004760Y-95290061D01*
X119004763Y-95290062D01*
X119096928Y-95308813D01*
X119218597Y-95333567D01*
X119223772Y-95333757D01*
X119223774Y-95333757D01*
X119436673Y-95341564D01*
X119436677Y-95341564D01*
X119441837Y-95341753D01*
X119446957Y-95341097D01*
X119446959Y-95341097D01*
X119658288Y-95314025D01*
X119658289Y-95314025D01*
X119663416Y-95313368D01*
X119668376Y-95311880D01*
X119872429Y-95250661D01*
X119872434Y-95250659D01*
X119877384Y-95249174D01*
X120077994Y-95150896D01*
X120259860Y-95021173D01*
X120268006Y-95013056D01*
X120370847Y-94910573D01*
X120418096Y-94863489D01*
X120440296Y-94832595D01*
X120548453Y-94682077D01*
X120549776Y-94683028D01*
X120596645Y-94639857D01*
X120666580Y-94627625D01*
X120732026Y-94655144D01*
X120759875Y-94686994D01*
X120819987Y-94785088D01*
X120966250Y-94953938D01*
X121138126Y-95096632D01*
X121294034Y-95187737D01*
X121342757Y-95239374D01*
X121355828Y-95309157D01*
X121346100Y-95346563D01*
X121332826Y-95377239D01*
X121327609Y-95387888D01*
X121306305Y-95426641D01*
X121304334Y-95434316D01*
X121304334Y-95434317D01*
X121301267Y-95446263D01*
X121294863Y-95464967D01*
X121286819Y-95483556D01*
X121285580Y-95491379D01*
X121285577Y-95491389D01*
X121279901Y-95527225D01*
X121277495Y-95538845D01*
X121266500Y-95581671D01*
X121266500Y-95601925D01*
X121264949Y-95621635D01*
X121261780Y-95641644D01*
X121262526Y-95649536D01*
X121265941Y-95685662D01*
X121266500Y-95697520D01*
X121266500Y-103222476D01*
X121246498Y-103290597D01*
X121234142Y-103306779D01*
X121160960Y-103388056D01*
X121144932Y-103415818D01*
X121072166Y-103541852D01*
X121065473Y-103553444D01*
X121006458Y-103735072D01*
X121005768Y-103741633D01*
X121005768Y-103741635D01*
X121000975Y-103787237D01*
X120986496Y-103925000D01*
X120987186Y-103931565D01*
X121003955Y-104091109D01*
X121006458Y-104114928D01*
X121065473Y-104296556D01*
X121160960Y-104461944D01*
X121288747Y-104603866D01*
X121443248Y-104716118D01*
X121449276Y-104718802D01*
X121449278Y-104718803D01*
X121582123Y-104777949D01*
X121617712Y-104793794D01*
X121691791Y-104809540D01*
X121798056Y-104832128D01*
X121798061Y-104832128D01*
X121804513Y-104833500D01*
X121995487Y-104833500D01*
X122001939Y-104832128D01*
X122001944Y-104832128D01*
X122108209Y-104809540D01*
X122182288Y-104793794D01*
X122217877Y-104777949D01*
X122350722Y-104718803D01*
X122350724Y-104718802D01*
X122356752Y-104716118D01*
X122511253Y-104603866D01*
X122639040Y-104461944D01*
X122639897Y-104462716D01*
X122690955Y-104423346D01*
X122761691Y-104417271D01*
X122825762Y-104451666D01*
X124821475Y-106447380D01*
X126816348Y-108442253D01*
X126823888Y-108450539D01*
X126828000Y-108457018D01*
X126833777Y-108462443D01*
X126877651Y-108503643D01*
X126880493Y-108506398D01*
X126900230Y-108526135D01*
X126903427Y-108528615D01*
X126912447Y-108536318D01*
X126944679Y-108566586D01*
X126951625Y-108570405D01*
X126951628Y-108570407D01*
X126962434Y-108576348D01*
X126978953Y-108587199D01*
X126994959Y-108599614D01*
X127002228Y-108602759D01*
X127002232Y-108602762D01*
X127035537Y-108617174D01*
X127046187Y-108622391D01*
X127084940Y-108643695D01*
X127100165Y-108647604D01*
X127104562Y-108648733D01*
X127123267Y-108655137D01*
X127141855Y-108663181D01*
X127149678Y-108664420D01*
X127149688Y-108664423D01*
X127185524Y-108670099D01*
X127197144Y-108672505D01*
X127228959Y-108680673D01*
X127239970Y-108683500D01*
X127260224Y-108683500D01*
X127279934Y-108685051D01*
X127299943Y-108688220D01*
X127307835Y-108687474D01*
X127326580Y-108685702D01*
X127343962Y-108684059D01*
X127355819Y-108683500D01*
X130826538Y-108683500D01*
X130837721Y-108684027D01*
X130845214Y-108685702D01*
X130853140Y-108685453D01*
X130853141Y-108685453D01*
X130913291Y-108683562D01*
X130917250Y-108683500D01*
X130945161Y-108683500D01*
X130949096Y-108683003D01*
X130949161Y-108682995D01*
X130960998Y-108682062D01*
X130993256Y-108681048D01*
X130997275Y-108680922D01*
X131005194Y-108680673D01*
X131024648Y-108675021D01*
X131044005Y-108671013D01*
X131056231Y-108669469D01*
X131056236Y-108669468D01*
X131064102Y-108668474D01*
X131071477Y-108665554D01*
X131074394Y-108664805D01*
X131145349Y-108667238D01*
X131203725Y-108707646D01*
X131230988Y-108773200D01*
X131220836Y-108838094D01*
X131218773Y-108842729D01*
X131215473Y-108848444D01*
X131156458Y-109030072D01*
X131155768Y-109036633D01*
X131155768Y-109036635D01*
X131142000Y-109167635D01*
X131136496Y-109220000D01*
X131137186Y-109226565D01*
X131152826Y-109375368D01*
X131156458Y-109409928D01*
X131215473Y-109591556D01*
X131218776Y-109597278D01*
X131218777Y-109597279D01*
X131237398Y-109629531D01*
X131310960Y-109756944D01*
X131315378Y-109761851D01*
X131315379Y-109761852D01*
X131415206Y-109872721D01*
X131438747Y-109898866D01*
X131533557Y-109967750D01*
X131578288Y-110000249D01*
X131621642Y-110056472D01*
X131627717Y-110127208D01*
X131594585Y-110189999D01*
X131579878Y-110202946D01*
X131574965Y-110206635D01*
X131420629Y-110368138D01*
X131417720Y-110372403D01*
X131417714Y-110372411D01*
X131371657Y-110439928D01*
X131294743Y-110552680D01*
X131268777Y-110608620D01*
X131225945Y-110700894D01*
X131200688Y-110755305D01*
X131140989Y-110970570D01*
X131117251Y-111192695D01*
X131117548Y-111197848D01*
X131117548Y-111197851D01*
X131126054Y-111345375D01*
X131130110Y-111415715D01*
X131131247Y-111420761D01*
X131131248Y-111420767D01*
X131141608Y-111466737D01*
X131179222Y-111633639D01*
X131218840Y-111731206D01*
X131248095Y-111803253D01*
X131263266Y-111840616D01*
X131310228Y-111917251D01*
X131377291Y-112026688D01*
X131379987Y-112031088D01*
X131526250Y-112199938D01*
X131698126Y-112342632D01*
X131759860Y-112378706D01*
X131771445Y-112385476D01*
X131820169Y-112437114D01*
X131833240Y-112506897D01*
X131806509Y-112572669D01*
X131766055Y-112606027D01*
X131753607Y-112612507D01*
X131749474Y-112615610D01*
X131749471Y-112615612D01*
X131668071Y-112676729D01*
X131574965Y-112746635D01*
X131420629Y-112908138D01*
X131417715Y-112912410D01*
X131417714Y-112912411D01*
X131377368Y-112971556D01*
X131294743Y-113092680D01*
X131264361Y-113158133D01*
X131218234Y-113257506D01*
X131200688Y-113295305D01*
X131140989Y-113510570D01*
X131117251Y-113732695D01*
X131117548Y-113737848D01*
X131117548Y-113737851D01*
X131126109Y-113886330D01*
X131130110Y-113955715D01*
X131131247Y-113960761D01*
X131131248Y-113960767D01*
X131145362Y-114023394D01*
X131179222Y-114173639D01*
X131229951Y-114298570D01*
X131258481Y-114368831D01*
X131263266Y-114380616D01*
X131314942Y-114464944D01*
X131377291Y-114566688D01*
X131379987Y-114571088D01*
X131526250Y-114739938D01*
X131698126Y-114882632D01*
X131891000Y-114995338D01*
X132099692Y-115075030D01*
X132104760Y-115076061D01*
X132104763Y-115076062D01*
X132212012Y-115097882D01*
X132318597Y-115119567D01*
X132323772Y-115119757D01*
X132323774Y-115119757D01*
X132536673Y-115127564D01*
X132536677Y-115127564D01*
X132541837Y-115127753D01*
X132546957Y-115127097D01*
X132546959Y-115127097D01*
X132758288Y-115100025D01*
X132758289Y-115100025D01*
X132763416Y-115099368D01*
X132768367Y-115097883D01*
X132768370Y-115097882D01*
X132809829Y-115085444D01*
X132880825Y-115085028D01*
X132935131Y-115117035D01*
X134926878Y-117108783D01*
X134960904Y-117171095D01*
X134963093Y-117184708D01*
X134969557Y-117246206D01*
X134980458Y-117349928D01*
X135039473Y-117531556D01*
X135134960Y-117696944D01*
X135139378Y-117701851D01*
X135139379Y-117701852D01*
X135235023Y-117808075D01*
X135262747Y-117838866D01*
X135417248Y-117951118D01*
X135423276Y-117953802D01*
X135423278Y-117953803D01*
X135581744Y-118024356D01*
X135591712Y-118028794D01*
X135685112Y-118048647D01*
X135772056Y-118067128D01*
X135772061Y-118067128D01*
X135778513Y-118068500D01*
X135969487Y-118068500D01*
X135975939Y-118067128D01*
X135975944Y-118067128D01*
X136062888Y-118048647D01*
X136156288Y-118028794D01*
X136166256Y-118024356D01*
X136324722Y-117953803D01*
X136324724Y-117953802D01*
X136330752Y-117951118D01*
X136485253Y-117838866D01*
X136512977Y-117808075D01*
X136608621Y-117701852D01*
X136608622Y-117701851D01*
X136613040Y-117696944D01*
X136708527Y-117531556D01*
X136767542Y-117349928D01*
X136775363Y-117275521D01*
X136786814Y-117166565D01*
X136787504Y-117160000D01*
X136783465Y-117121574D01*
X136768232Y-116976635D01*
X136768232Y-116976633D01*
X136767542Y-116970072D01*
X136708527Y-116788444D01*
X136613040Y-116623056D01*
X136596882Y-116605110D01*
X136489675Y-116486045D01*
X136489674Y-116486044D01*
X136485253Y-116481134D01*
X136330752Y-116368882D01*
X136324724Y-116366198D01*
X136324722Y-116366197D01*
X136162319Y-116293891D01*
X136162318Y-116293891D01*
X136156288Y-116291206D01*
X136062887Y-116271353D01*
X135975944Y-116252872D01*
X135975939Y-116252872D01*
X135969487Y-116251500D01*
X135913594Y-116251500D01*
X135845473Y-116231498D01*
X135824499Y-116214595D01*
X134951317Y-115341413D01*
X134917291Y-115279101D01*
X134922356Y-115208286D01*
X134964903Y-115151450D01*
X135031423Y-115126639D01*
X135045024Y-115126403D01*
X135060845Y-115126983D01*
X135076674Y-115127564D01*
X135076678Y-115127564D01*
X135081837Y-115127753D01*
X135086957Y-115127097D01*
X135086959Y-115127097D01*
X135298288Y-115100025D01*
X135298289Y-115100025D01*
X135303416Y-115099368D01*
X135345341Y-115086790D01*
X135349827Y-115085444D01*
X135420823Y-115085028D01*
X135475131Y-115117035D01*
X136150353Y-115792258D01*
X136157887Y-115800537D01*
X136162000Y-115807018D01*
X136194057Y-115837121D01*
X136211651Y-115853643D01*
X136214493Y-115856398D01*
X136234230Y-115876135D01*
X136237427Y-115878615D01*
X136246447Y-115886318D01*
X136278679Y-115916586D01*
X136285625Y-115920405D01*
X136285628Y-115920407D01*
X136296434Y-115926348D01*
X136312953Y-115937199D01*
X136328959Y-115949614D01*
X136336228Y-115952759D01*
X136336232Y-115952762D01*
X136369537Y-115967174D01*
X136380187Y-115972391D01*
X136418940Y-115993695D01*
X136426615Y-115995666D01*
X136426616Y-115995666D01*
X136438562Y-115998733D01*
X136457267Y-116005137D01*
X136475855Y-116013181D01*
X136483678Y-116014420D01*
X136483688Y-116014423D01*
X136519524Y-116020099D01*
X136531144Y-116022505D01*
X136562959Y-116030673D01*
X136573970Y-116033500D01*
X136594224Y-116033500D01*
X136613934Y-116035051D01*
X136633943Y-116038220D01*
X136641835Y-116037474D01*
X136660580Y-116035702D01*
X136677962Y-116034059D01*
X136689819Y-116033500D01*
X144041928Y-116033500D01*
X144053111Y-116034027D01*
X144060604Y-116035702D01*
X144068530Y-116035453D01*
X144068531Y-116035453D01*
X144128681Y-116033562D01*
X144132640Y-116033500D01*
X144160551Y-116033500D01*
X144164486Y-116033003D01*
X144164551Y-116032995D01*
X144176388Y-116032062D01*
X144209070Y-116031035D01*
X144212665Y-116030922D01*
X144220584Y-116030673D01*
X144240038Y-116025021D01*
X144259395Y-116021013D01*
X144271625Y-116019468D01*
X144271626Y-116019468D01*
X144279492Y-116018474D01*
X144286863Y-116015555D01*
X144286865Y-116015555D01*
X144320607Y-116002196D01*
X144331837Y-115998351D01*
X144366678Y-115988229D01*
X144366679Y-115988229D01*
X144374288Y-115986018D01*
X144381107Y-115981985D01*
X144381112Y-115981983D01*
X144391723Y-115975707D01*
X144409471Y-115967012D01*
X144428312Y-115959552D01*
X144464082Y-115933564D01*
X144474002Y-115927048D01*
X144505230Y-115908580D01*
X144505233Y-115908578D01*
X144512057Y-115904542D01*
X144526378Y-115890221D01*
X144541412Y-115877380D01*
X144551389Y-115870131D01*
X144557802Y-115865472D01*
X144585993Y-115831395D01*
X144593983Y-115822616D01*
X147155195Y-113261405D01*
X147217507Y-113227379D01*
X147244290Y-113224500D01*
X148385292Y-113224500D01*
X148453413Y-113244502D01*
X148499906Y-113298158D01*
X148510010Y-113368432D01*
X148506711Y-113384164D01*
X148471655Y-113510570D01*
X148447917Y-113732695D01*
X148448214Y-113737848D01*
X148448214Y-113737851D01*
X148456775Y-113886330D01*
X148460776Y-113955715D01*
X148461913Y-113960761D01*
X148461914Y-113960767D01*
X148476028Y-114023394D01*
X148509888Y-114173639D01*
X148560617Y-114298570D01*
X148589147Y-114368831D01*
X148593932Y-114380616D01*
X148645608Y-114464944D01*
X148707957Y-114566688D01*
X148710653Y-114571088D01*
X148856916Y-114739938D01*
X149028792Y-114882632D01*
X149221666Y-114995338D01*
X149430358Y-115075030D01*
X149435426Y-115076061D01*
X149435429Y-115076062D01*
X149542678Y-115097882D01*
X149649263Y-115119567D01*
X149654438Y-115119757D01*
X149654440Y-115119757D01*
X149867339Y-115127564D01*
X149867343Y-115127564D01*
X149872503Y-115127753D01*
X149877623Y-115127097D01*
X149877625Y-115127097D01*
X150088954Y-115100025D01*
X150088955Y-115100025D01*
X150094082Y-115099368D01*
X150122367Y-115090882D01*
X150303095Y-115036661D01*
X150303100Y-115036659D01*
X150308050Y-115035174D01*
X150508660Y-114936896D01*
X150690526Y-114807173D01*
X150700114Y-114797619D01*
X150830702Y-114667486D01*
X150848762Y-114649489D01*
X150908260Y-114566689D01*
X150979119Y-114468077D01*
X150980442Y-114469028D01*
X151027311Y-114425857D01*
X151097246Y-114413625D01*
X151162692Y-114441144D01*
X151190541Y-114472994D01*
X151250653Y-114571088D01*
X151396916Y-114739938D01*
X151568792Y-114882632D01*
X151761666Y-114995338D01*
X151970358Y-115075030D01*
X151975426Y-115076061D01*
X151975429Y-115076062D01*
X152082678Y-115097882D01*
X152189263Y-115119567D01*
X152194438Y-115119757D01*
X152194440Y-115119757D01*
X152407339Y-115127564D01*
X152407343Y-115127564D01*
X152412503Y-115127753D01*
X152417623Y-115127097D01*
X152417625Y-115127097D01*
X152628954Y-115100025D01*
X152628955Y-115100025D01*
X152634082Y-115099368D01*
X152662367Y-115090882D01*
X152843095Y-115036661D01*
X152843100Y-115036659D01*
X152848050Y-115035174D01*
X153048660Y-114936896D01*
X153230526Y-114807173D01*
X153240114Y-114797619D01*
X153370702Y-114667486D01*
X153388762Y-114649489D01*
X153448260Y-114566689D01*
X153519119Y-114468077D01*
X153520442Y-114469028D01*
X153567311Y-114425857D01*
X153637246Y-114413625D01*
X153702692Y-114441144D01*
X153730541Y-114472994D01*
X153790653Y-114571088D01*
X153936916Y-114739938D01*
X154108792Y-114882632D01*
X154301666Y-114995338D01*
X154510358Y-115075030D01*
X154515426Y-115076061D01*
X154515429Y-115076062D01*
X154622678Y-115097882D01*
X154729263Y-115119567D01*
X154734438Y-115119757D01*
X154734440Y-115119757D01*
X154947339Y-115127564D01*
X154947343Y-115127564D01*
X154952503Y-115127753D01*
X154957623Y-115127097D01*
X154957625Y-115127097D01*
X155168954Y-115100025D01*
X155168955Y-115100025D01*
X155174082Y-115099368D01*
X155202367Y-115090882D01*
X155383095Y-115036661D01*
X155383100Y-115036659D01*
X155388050Y-115035174D01*
X155588660Y-114936896D01*
X155770526Y-114807173D01*
X155780114Y-114797619D01*
X155879145Y-114698933D01*
X155941517Y-114665017D01*
X156012324Y-114670205D01*
X156069085Y-114712851D01*
X156086067Y-114743954D01*
X156127342Y-114854054D01*
X156135880Y-114869649D01*
X156212381Y-114971724D01*
X156224942Y-114984285D01*
X156327017Y-115060786D01*
X156342612Y-115069324D01*
X156463060Y-115114478D01*
X156478315Y-115118105D01*
X156529180Y-115123631D01*
X156535994Y-115124000D01*
X157158551Y-115124000D01*
X157173790Y-115119525D01*
X157174995Y-115118135D01*
X157176666Y-115110452D01*
X157176666Y-115105884D01*
X157684666Y-115105884D01*
X157689141Y-115121123D01*
X157690531Y-115122328D01*
X157698214Y-115123999D01*
X158325335Y-115123999D01*
X158332156Y-115123629D01*
X158383018Y-115118105D01*
X158398270Y-115114479D01*
X158518720Y-115069324D01*
X158534315Y-115060786D01*
X158636390Y-114984285D01*
X158648951Y-114971724D01*
X158725452Y-114869649D01*
X158733990Y-114854054D01*
X158779144Y-114733606D01*
X158782771Y-114718351D01*
X158788297Y-114667486D01*
X158788666Y-114660672D01*
X158788666Y-114038115D01*
X158784191Y-114022876D01*
X158782801Y-114021671D01*
X158775118Y-114020000D01*
X157702781Y-114020000D01*
X157687542Y-114024475D01*
X157686337Y-114025865D01*
X157684666Y-114033548D01*
X157684666Y-115105884D01*
X157176666Y-115105884D01*
X157176666Y-113638000D01*
X157196668Y-113569879D01*
X157250324Y-113523386D01*
X157302666Y-113512000D01*
X158770550Y-113512000D01*
X158785789Y-113507525D01*
X158786994Y-113506135D01*
X158788665Y-113498452D01*
X158788665Y-112871331D01*
X158788295Y-112864510D01*
X158782771Y-112813648D01*
X158779145Y-112798396D01*
X158733990Y-112677946D01*
X158725452Y-112662351D01*
X158648951Y-112560276D01*
X158636390Y-112547715D01*
X158534315Y-112471214D01*
X158518720Y-112462676D01*
X158408479Y-112421348D01*
X158351715Y-112378706D01*
X158327015Y-112312145D01*
X158342223Y-112242796D01*
X158363770Y-112214115D01*
X158465096Y-112113144D01*
X158465106Y-112113132D01*
X158468762Y-112109489D01*
X158482654Y-112090157D01*
X158596101Y-111932277D01*
X158599119Y-111928077D01*
X158602551Y-111921134D01*
X158695802Y-111732453D01*
X158695803Y-111732451D01*
X158698096Y-111727811D01*
X158752637Y-111548297D01*
X158761531Y-111519023D01*
X158761531Y-111519021D01*
X158763036Y-111514069D01*
X158792195Y-111292590D01*
X158792681Y-111272687D01*
X158793740Y-111229365D01*
X158793740Y-111229361D01*
X158793822Y-111226000D01*
X158775518Y-111003361D01*
X158721097Y-110786702D01*
X158632020Y-110581840D01*
X158588933Y-110515237D01*
X158513488Y-110398617D01*
X158513486Y-110398614D01*
X158510680Y-110394277D01*
X158360336Y-110229051D01*
X158356285Y-110225852D01*
X158356281Y-110225848D01*
X158189080Y-110093800D01*
X158189076Y-110093798D01*
X158185025Y-110090598D01*
X158159199Y-110076341D01*
X158092220Y-110039367D01*
X157989455Y-109982638D01*
X157984586Y-109980914D01*
X157984582Y-109980912D01*
X157783753Y-109909795D01*
X157783749Y-109909794D01*
X157778878Y-109908069D01*
X157773785Y-109907162D01*
X157773782Y-109907161D01*
X157564039Y-109869800D01*
X157564033Y-109869799D01*
X157558950Y-109868894D01*
X157485118Y-109867992D01*
X157340747Y-109866228D01*
X157340745Y-109866228D01*
X157335577Y-109866165D01*
X157114757Y-109899955D01*
X156902422Y-109969357D01*
X156884547Y-109978662D01*
X156814888Y-109992376D01*
X156748873Y-109966252D01*
X156707461Y-109908584D01*
X156700428Y-109870857D01*
X156700367Y-109868894D01*
X156699228Y-109832666D01*
X156699166Y-109828709D01*
X156699166Y-109800810D01*
X156698662Y-109796819D01*
X156697729Y-109784977D01*
X156696589Y-109748702D01*
X156696340Y-109740777D01*
X156694128Y-109733163D01*
X156694127Y-109733158D01*
X156690689Y-109721325D01*
X156686678Y-109701961D01*
X156685133Y-109689730D01*
X156684140Y-109681869D01*
X156681223Y-109674502D01*
X156681222Y-109674497D01*
X156667864Y-109640758D01*
X156664020Y-109629531D01*
X156653896Y-109594688D01*
X156651684Y-109587073D01*
X156641373Y-109569638D01*
X156632678Y-109551890D01*
X156625218Y-109533049D01*
X156599230Y-109497279D01*
X156592714Y-109487359D01*
X156574246Y-109456131D01*
X156574244Y-109456128D01*
X156570208Y-109449304D01*
X156555887Y-109434983D01*
X156543046Y-109419949D01*
X156531138Y-109403559D01*
X156497061Y-109375368D01*
X156488282Y-109367378D01*
X154353652Y-107232747D01*
X154346112Y-107224461D01*
X154342000Y-107217982D01*
X154292348Y-107171356D01*
X154289507Y-107168602D01*
X154269770Y-107148865D01*
X154266573Y-107146385D01*
X154257551Y-107138680D01*
X154231100Y-107113841D01*
X154225321Y-107108414D01*
X154218375Y-107104595D01*
X154218372Y-107104593D01*
X154207566Y-107098652D01*
X154191047Y-107087801D01*
X154181634Y-107080500D01*
X154175041Y-107075386D01*
X154167772Y-107072241D01*
X154167768Y-107072238D01*
X154134463Y-107057826D01*
X154123813Y-107052609D01*
X154085060Y-107031305D01*
X154065437Y-107026267D01*
X154046734Y-107019863D01*
X154035420Y-107014967D01*
X154035419Y-107014967D01*
X154028145Y-107011819D01*
X154020322Y-107010580D01*
X154020312Y-107010577D01*
X153984476Y-107004901D01*
X153972856Y-107002495D01*
X153937711Y-106993472D01*
X153937710Y-106993472D01*
X153930030Y-106991500D01*
X153909776Y-106991500D01*
X153890065Y-106989949D01*
X153877886Y-106988020D01*
X153870057Y-106986780D01*
X153862165Y-106987526D01*
X153826039Y-106990941D01*
X153814181Y-106991500D01*
X153291200Y-106991500D01*
X153223079Y-106971498D01*
X153203853Y-106955157D01*
X153203580Y-106955460D01*
X153198668Y-106951037D01*
X153194253Y-106946134D01*
X153119329Y-106891698D01*
X153045094Y-106837763D01*
X153045093Y-106837762D01*
X153039752Y-106833882D01*
X153033724Y-106831198D01*
X153033722Y-106831197D01*
X152871319Y-106758891D01*
X152871318Y-106758891D01*
X152865288Y-106756206D01*
X152771887Y-106736353D01*
X152684944Y-106717872D01*
X152684939Y-106717872D01*
X152678487Y-106716500D01*
X152487513Y-106716500D01*
X152481061Y-106717872D01*
X152481056Y-106717872D01*
X152394113Y-106736353D01*
X152300712Y-106756206D01*
X152294682Y-106758891D01*
X152294681Y-106758891D01*
X152132278Y-106831197D01*
X152132276Y-106831198D01*
X152126248Y-106833882D01*
X152120907Y-106837762D01*
X152120906Y-106837763D01*
X152099400Y-106853388D01*
X151971747Y-106946134D01*
X151967326Y-106951044D01*
X151967325Y-106951045D01*
X151858203Y-107072238D01*
X151843960Y-107088056D01*
X151810280Y-107146392D01*
X151764648Y-107225429D01*
X151748473Y-107253444D01*
X151689458Y-107435072D01*
X151688768Y-107441633D01*
X151688768Y-107441635D01*
X151676698Y-107556474D01*
X151669496Y-107625000D01*
X151670186Y-107631565D01*
X151679453Y-107719731D01*
X151689458Y-107814928D01*
X151748473Y-107996556D01*
X151843960Y-108161944D01*
X151848378Y-108166851D01*
X151848379Y-108166852D01*
X151862693Y-108182749D01*
X151971747Y-108303866D01*
X152007277Y-108329680D01*
X152116721Y-108409196D01*
X152126248Y-108416118D01*
X152132276Y-108418802D01*
X152132278Y-108418803D01*
X152280715Y-108484891D01*
X152300712Y-108493794D01*
X152389954Y-108512763D01*
X152481056Y-108532128D01*
X152481061Y-108532128D01*
X152487513Y-108533500D01*
X152678487Y-108533500D01*
X152684939Y-108532128D01*
X152684944Y-108532128D01*
X152776046Y-108512763D01*
X152865288Y-108493794D01*
X152885285Y-108484891D01*
X153033722Y-108418803D01*
X153033724Y-108418802D01*
X153039752Y-108416118D01*
X153049280Y-108409196D01*
X153183746Y-108311500D01*
X153194253Y-108303866D01*
X153198668Y-108298963D01*
X153203580Y-108294540D01*
X153204705Y-108295789D01*
X153258014Y-108262949D01*
X153291200Y-108258500D01*
X153535406Y-108258500D01*
X153603527Y-108278502D01*
X153624497Y-108295401D01*
X153951229Y-108622133D01*
X153985254Y-108684445D01*
X153980189Y-108755261D01*
X153937642Y-108812096D01*
X153871122Y-108836907D01*
X153835935Y-108834474D01*
X153771951Y-108820873D01*
X153771942Y-108820872D01*
X153765487Y-108819500D01*
X153574513Y-108819500D01*
X153568061Y-108820872D01*
X153568056Y-108820872D01*
X153481113Y-108839353D01*
X153387712Y-108859206D01*
X153381682Y-108861891D01*
X153381681Y-108861891D01*
X153219278Y-108934197D01*
X153219276Y-108934198D01*
X153213248Y-108936882D01*
X153207907Y-108940762D01*
X153207906Y-108940763D01*
X153181067Y-108960263D01*
X153058747Y-109049134D01*
X153054326Y-109054044D01*
X153054325Y-109054045D01*
X152971719Y-109145789D01*
X152930960Y-109191056D01*
X152835473Y-109356444D01*
X152776458Y-109538072D01*
X152775768Y-109544633D01*
X152775768Y-109544635D01*
X152760518Y-109689730D01*
X152756496Y-109728000D01*
X152759155Y-109753292D01*
X152759373Y-109755370D01*
X152746601Y-109825208D01*
X152698100Y-109877055D01*
X152629267Y-109894450D01*
X152611969Y-109892588D01*
X152553796Y-109882226D01*
X152484039Y-109869800D01*
X152484033Y-109869799D01*
X152478950Y-109868894D01*
X152405118Y-109867992D01*
X152260747Y-109866228D01*
X152260745Y-109866228D01*
X152255577Y-109866165D01*
X152034757Y-109899955D01*
X152023850Y-109903520D01*
X152022198Y-109904060D01*
X151951234Y-109906210D01*
X151893960Y-109873389D01*
X150979318Y-108958747D01*
X150971778Y-108950461D01*
X150967666Y-108943982D01*
X150957813Y-108934729D01*
X150918015Y-108897357D01*
X150915173Y-108894602D01*
X150895436Y-108874865D01*
X150892239Y-108872385D01*
X150883217Y-108864680D01*
X150872612Y-108854721D01*
X150850987Y-108834414D01*
X150844041Y-108830595D01*
X150844038Y-108830593D01*
X150833232Y-108824652D01*
X150816713Y-108813801D01*
X150810714Y-108809148D01*
X150800707Y-108801386D01*
X150793438Y-108798241D01*
X150793434Y-108798238D01*
X150760129Y-108783826D01*
X150749479Y-108778609D01*
X150710726Y-108757305D01*
X150702766Y-108755261D01*
X150691104Y-108752267D01*
X150672400Y-108745863D01*
X150661086Y-108740967D01*
X150661085Y-108740967D01*
X150653811Y-108737819D01*
X150645988Y-108736580D01*
X150645978Y-108736577D01*
X150610142Y-108730901D01*
X150598522Y-108728495D01*
X150563377Y-108719472D01*
X150563376Y-108719472D01*
X150555696Y-108717500D01*
X150535442Y-108717500D01*
X150515731Y-108715949D01*
X150503552Y-108714020D01*
X150495723Y-108712780D01*
X150487831Y-108713526D01*
X150451705Y-108716941D01*
X150439847Y-108717500D01*
X149257200Y-108717500D01*
X149189079Y-108697498D01*
X149169853Y-108681157D01*
X149169580Y-108681460D01*
X149164668Y-108677037D01*
X149160253Y-108672134D01*
X149128044Y-108648733D01*
X149011094Y-108563763D01*
X149011093Y-108563762D01*
X149005752Y-108559882D01*
X148999724Y-108557198D01*
X148999722Y-108557197D01*
X148837319Y-108484891D01*
X148837318Y-108484891D01*
X148831288Y-108482206D01*
X148737887Y-108462353D01*
X148650944Y-108443872D01*
X148650939Y-108443872D01*
X148644487Y-108442500D01*
X148453513Y-108442500D01*
X148447061Y-108443872D01*
X148447056Y-108443872D01*
X148360113Y-108462353D01*
X148266712Y-108482206D01*
X148260682Y-108484891D01*
X148260681Y-108484891D01*
X148098278Y-108557197D01*
X148098276Y-108557198D01*
X148092248Y-108559882D01*
X148086907Y-108563762D01*
X148086906Y-108563763D01*
X148052897Y-108588472D01*
X147937747Y-108672134D01*
X147933326Y-108677044D01*
X147933325Y-108677045D01*
X147824203Y-108798238D01*
X147809960Y-108814056D01*
X147759285Y-108901827D01*
X147724420Y-108962216D01*
X147714473Y-108979444D01*
X147655458Y-109161072D01*
X147654768Y-109167633D01*
X147654768Y-109167635D01*
X147649954Y-109213435D01*
X147635496Y-109351000D01*
X147636186Y-109357565D01*
X147650758Y-109496206D01*
X147655458Y-109540928D01*
X147714473Y-109722556D01*
X147809960Y-109887944D01*
X147814378Y-109892851D01*
X147814379Y-109892852D01*
X147891643Y-109978662D01*
X147937747Y-110029866D01*
X148092248Y-110142118D01*
X148098276Y-110144802D01*
X148098278Y-110144803D01*
X148241345Y-110208500D01*
X148266712Y-110219794D01*
X148360113Y-110239647D01*
X148447056Y-110258128D01*
X148447061Y-110258128D01*
X148453513Y-110259500D01*
X148586928Y-110259500D01*
X148655049Y-110279502D01*
X148701542Y-110333158D01*
X148711646Y-110403432D01*
X148691017Y-110456502D01*
X148635761Y-110537505D01*
X148580849Y-110582507D01*
X148531673Y-110592500D01*
X147737066Y-110592500D01*
X147725883Y-110591973D01*
X147718390Y-110590298D01*
X147710464Y-110590547D01*
X147710463Y-110590547D01*
X147650313Y-110592438D01*
X147646354Y-110592500D01*
X147618443Y-110592500D01*
X147614509Y-110592997D01*
X147614508Y-110592997D01*
X147614443Y-110593005D01*
X147602606Y-110593938D01*
X147570789Y-110594938D01*
X147566328Y-110595078D01*
X147558409Y-110595327D01*
X147548637Y-110598166D01*
X147538957Y-110600978D01*
X147519605Y-110604986D01*
X147512534Y-110605880D01*
X147499502Y-110607526D01*
X147492133Y-110610443D01*
X147492131Y-110610444D01*
X147458396Y-110623800D01*
X147447168Y-110627645D01*
X147404706Y-110639982D01*
X147397884Y-110644016D01*
X147397878Y-110644019D01*
X147387267Y-110650294D01*
X147369517Y-110658990D01*
X147358055Y-110663528D01*
X147358050Y-110663531D01*
X147350682Y-110666448D01*
X147344267Y-110671109D01*
X147314924Y-110692427D01*
X147305006Y-110698943D01*
X147298603Y-110702730D01*
X147266936Y-110721458D01*
X147252612Y-110735782D01*
X147237580Y-110748621D01*
X147221192Y-110760528D01*
X147195388Y-110791720D01*
X147193011Y-110794593D01*
X147185021Y-110803373D01*
X143708799Y-114279595D01*
X143646487Y-114313621D01*
X143619704Y-114316500D01*
X141584000Y-114316500D01*
X141515879Y-114296498D01*
X141469386Y-114242842D01*
X141458000Y-114190500D01*
X141458000Y-114038115D01*
X141453525Y-114022876D01*
X141452135Y-114021671D01*
X141444452Y-114020000D01*
X139972000Y-114020000D01*
X139903879Y-113999998D01*
X139857386Y-113946342D01*
X139846000Y-113894000D01*
X139846000Y-113638000D01*
X139866002Y-113569879D01*
X139919658Y-113523386D01*
X139972000Y-113512000D01*
X141439884Y-113512000D01*
X141455123Y-113507525D01*
X141456328Y-113506135D01*
X141457999Y-113498452D01*
X141457999Y-112871331D01*
X141457629Y-112864510D01*
X141452105Y-112813648D01*
X141448479Y-112798396D01*
X141403324Y-112677946D01*
X141394786Y-112662351D01*
X141318285Y-112560276D01*
X141305724Y-112547715D01*
X141203649Y-112471214D01*
X141188054Y-112462676D01*
X141077813Y-112421348D01*
X141021049Y-112378706D01*
X140996349Y-112312145D01*
X141011557Y-112242796D01*
X141033104Y-112214115D01*
X141134430Y-112113144D01*
X141134440Y-112113132D01*
X141138096Y-112109489D01*
X141151988Y-112090157D01*
X141265435Y-111932277D01*
X141268453Y-111928077D01*
X141271885Y-111921134D01*
X141365136Y-111732453D01*
X141365137Y-111732451D01*
X141367430Y-111727811D01*
X141421971Y-111548297D01*
X141430865Y-111519023D01*
X141430865Y-111519021D01*
X141432370Y-111514069D01*
X141461529Y-111292590D01*
X141462015Y-111272687D01*
X141463074Y-111229365D01*
X141463074Y-111229361D01*
X141463156Y-111226000D01*
X141444852Y-111003361D01*
X141390431Y-110786702D01*
X141301354Y-110581840D01*
X141258267Y-110515237D01*
X141182822Y-110398617D01*
X141182820Y-110398614D01*
X141180014Y-110394277D01*
X141029670Y-110229051D01*
X141025619Y-110225852D01*
X141025615Y-110225848D01*
X140858414Y-110093800D01*
X140858410Y-110093798D01*
X140854359Y-110090598D01*
X140828533Y-110076341D01*
X140761554Y-110039367D01*
X140658789Y-109982638D01*
X140653920Y-109980914D01*
X140653916Y-109980912D01*
X140453087Y-109909795D01*
X140453083Y-109909794D01*
X140448212Y-109908069D01*
X140443119Y-109907162D01*
X140443116Y-109907161D01*
X140233373Y-109869800D01*
X140233367Y-109869799D01*
X140228284Y-109868894D01*
X140117009Y-109867535D01*
X140049140Y-109846702D01*
X140003306Y-109792483D01*
X139994061Y-109722091D01*
X140024340Y-109657875D01*
X140029455Y-109652449D01*
X141720405Y-107961499D01*
X141782717Y-107927473D01*
X141853532Y-107932538D01*
X141910368Y-107975085D01*
X141935179Y-108041605D01*
X141935500Y-108050594D01*
X141935500Y-111275769D01*
X141935800Y-111278825D01*
X141935800Y-111278832D01*
X141941445Y-111336401D01*
X141949920Y-111422833D01*
X142007084Y-111612169D01*
X142099934Y-111786796D01*
X142159230Y-111859500D01*
X142221040Y-111935287D01*
X142221043Y-111935290D01*
X142224935Y-111940062D01*
X142229682Y-111943989D01*
X142229684Y-111943991D01*
X142372575Y-112062201D01*
X142372579Y-112062203D01*
X142377325Y-112066130D01*
X142551299Y-112160198D01*
X142740232Y-112218682D01*
X142746357Y-112219326D01*
X142746358Y-112219326D01*
X142930796Y-112238711D01*
X142930798Y-112238711D01*
X142936925Y-112239355D01*
X143019424Y-112231847D01*
X143127749Y-112221989D01*
X143127752Y-112221988D01*
X143133888Y-112221430D01*
X143139794Y-112219692D01*
X143139798Y-112219691D01*
X143244924Y-112188751D01*
X143323619Y-112165590D01*
X143329077Y-112162737D01*
X143329081Y-112162735D01*
X143438958Y-112105292D01*
X143498890Y-112073960D01*
X143653025Y-111950032D01*
X143780154Y-111798526D01*
X143783121Y-111793128D01*
X143783125Y-111793123D01*
X143872467Y-111630608D01*
X143875433Y-111625213D01*
X143877846Y-111617608D01*
X143933373Y-111442564D01*
X143933373Y-111442563D01*
X143935235Y-111436694D01*
X143952500Y-111282773D01*
X143952500Y-108050231D01*
X143951814Y-108043227D01*
X143945132Y-107975085D01*
X143938080Y-107903167D01*
X143880916Y-107713831D01*
X143788066Y-107539204D01*
X143714166Y-107448594D01*
X143666960Y-107390713D01*
X143666957Y-107390710D01*
X143663065Y-107385938D01*
X143623697Y-107353370D01*
X143515425Y-107263799D01*
X143515421Y-107263797D01*
X143510675Y-107259870D01*
X143336701Y-107165802D01*
X143147768Y-107107318D01*
X143141643Y-107106674D01*
X143141642Y-107106674D01*
X142957204Y-107087289D01*
X142957202Y-107087289D01*
X142951075Y-107086645D01*
X142906270Y-107090723D01*
X142836619Y-107076976D01*
X142785455Y-107027755D01*
X142769024Y-106958686D01*
X142792543Y-106891698D01*
X142805758Y-106876146D01*
X143841499Y-105840405D01*
X143903811Y-105806379D01*
X143930594Y-105803500D01*
X144115928Y-105803500D01*
X144127111Y-105804027D01*
X144134604Y-105805702D01*
X144142530Y-105805453D01*
X144142531Y-105805453D01*
X144202681Y-105803562D01*
X144206640Y-105803500D01*
X144234551Y-105803500D01*
X144238486Y-105803003D01*
X144238551Y-105802995D01*
X144250388Y-105802062D01*
X144282646Y-105801048D01*
X144286665Y-105800922D01*
X144294584Y-105800673D01*
X144314038Y-105795021D01*
X144333395Y-105791013D01*
X144345625Y-105789468D01*
X144345626Y-105789468D01*
X144353492Y-105788474D01*
X144360863Y-105785555D01*
X144360865Y-105785555D01*
X144394607Y-105772196D01*
X144405837Y-105768351D01*
X144440678Y-105758229D01*
X144440679Y-105758229D01*
X144448288Y-105756018D01*
X144455107Y-105751985D01*
X144455112Y-105751983D01*
X144465723Y-105745707D01*
X144483471Y-105737012D01*
X144502312Y-105729552D01*
X144520499Y-105716339D01*
X144538082Y-105703564D01*
X144548002Y-105697048D01*
X144579230Y-105678580D01*
X144579233Y-105678578D01*
X144586057Y-105674542D01*
X144600378Y-105660221D01*
X144615412Y-105647380D01*
X144625389Y-105640131D01*
X144631802Y-105635472D01*
X144659993Y-105601395D01*
X144667983Y-105592616D01*
X147233405Y-103027194D01*
X147295717Y-102993168D01*
X147366532Y-102998233D01*
X147423368Y-103040780D01*
X147448179Y-103107300D01*
X147448500Y-103116289D01*
X147448500Y-103437476D01*
X147428498Y-103505597D01*
X147416142Y-103521779D01*
X147342960Y-103603056D01*
X147247473Y-103768444D01*
X147188458Y-103950072D01*
X147168496Y-104140000D01*
X147169186Y-104146565D01*
X147185187Y-104298803D01*
X147188458Y-104329928D01*
X147247473Y-104511556D01*
X147342960Y-104676944D01*
X147347378Y-104681851D01*
X147347379Y-104681852D01*
X147448172Y-104793794D01*
X147470747Y-104818866D01*
X147625248Y-104931118D01*
X147631276Y-104933802D01*
X147631278Y-104933803D01*
X147793681Y-105006109D01*
X147799712Y-105008794D01*
X147893113Y-105028647D01*
X147980056Y-105047128D01*
X147980061Y-105047128D01*
X147986513Y-105048500D01*
X148177487Y-105048500D01*
X148183939Y-105047128D01*
X148183944Y-105047128D01*
X148270888Y-105028647D01*
X148364288Y-105008794D01*
X148370319Y-105006109D01*
X148532722Y-104933803D01*
X148532724Y-104933802D01*
X148538752Y-104931118D01*
X148693253Y-104818866D01*
X148715828Y-104793794D01*
X148816621Y-104681852D01*
X148816622Y-104681851D01*
X148821040Y-104676944D01*
X148916527Y-104511556D01*
X148975542Y-104329928D01*
X148978814Y-104298803D01*
X148994814Y-104146565D01*
X148995504Y-104140000D01*
X148975542Y-103950072D01*
X148975266Y-103949224D01*
X148980505Y-103880549D01*
X149023319Y-103823914D01*
X149089956Y-103799418D01*
X149159258Y-103814837D01*
X149191985Y-103840826D01*
X149248747Y-103903866D01*
X149303703Y-103943794D01*
X149377857Y-103997670D01*
X149403248Y-104016118D01*
X149409276Y-104018802D01*
X149409278Y-104018803D01*
X149571681Y-104091109D01*
X149577712Y-104093794D01*
X149646263Y-104108365D01*
X149758056Y-104132128D01*
X149758061Y-104132128D01*
X149764513Y-104133500D01*
X149955487Y-104133500D01*
X149961939Y-104132128D01*
X149961944Y-104132128D01*
X150073737Y-104108365D01*
X150142288Y-104093794D01*
X150148319Y-104091109D01*
X150310722Y-104018803D01*
X150310724Y-104018802D01*
X150316752Y-104016118D01*
X150342144Y-103997670D01*
X150464875Y-103908500D01*
X150471253Y-103903866D01*
X150475668Y-103898963D01*
X150480580Y-103894540D01*
X150481705Y-103895789D01*
X150535014Y-103862949D01*
X150568200Y-103858500D01*
X152646145Y-103858500D01*
X152714266Y-103878502D01*
X152760759Y-103932158D01*
X152771455Y-103997670D01*
X152761352Y-104093794D01*
X152756496Y-104140000D01*
X152757186Y-104146565D01*
X152773187Y-104298803D01*
X152776458Y-104329928D01*
X152835473Y-104511556D01*
X152930960Y-104676944D01*
X152935378Y-104681851D01*
X152935379Y-104681852D01*
X153036172Y-104793794D01*
X153058747Y-104818866D01*
X153213248Y-104931118D01*
X153219276Y-104933802D01*
X153219278Y-104933803D01*
X153381681Y-105006109D01*
X153387712Y-105008794D01*
X153481113Y-105028647D01*
X153568056Y-105047128D01*
X153568061Y-105047128D01*
X153574513Y-105048500D01*
X153765487Y-105048500D01*
X153771939Y-105047128D01*
X153771944Y-105047128D01*
X153858888Y-105028647D01*
X153952288Y-105008794D01*
X153958319Y-105006109D01*
X154120722Y-104933803D01*
X154120724Y-104933802D01*
X154126752Y-104931118D01*
X154281253Y-104818866D01*
X154285668Y-104813963D01*
X154290580Y-104809540D01*
X154291705Y-104810789D01*
X154345014Y-104777949D01*
X154378200Y-104773500D01*
X155623233Y-104773500D01*
X155634416Y-104774027D01*
X155641909Y-104775702D01*
X155649835Y-104775453D01*
X155649836Y-104775453D01*
X155709986Y-104773562D01*
X155713945Y-104773500D01*
X155741856Y-104773500D01*
X155745791Y-104773003D01*
X155745856Y-104772995D01*
X155757693Y-104772062D01*
X155789951Y-104771048D01*
X155793970Y-104770922D01*
X155801889Y-104770673D01*
X155821343Y-104765021D01*
X155840700Y-104761013D01*
X155852930Y-104759468D01*
X155852931Y-104759468D01*
X155860797Y-104758474D01*
X155868168Y-104755555D01*
X155868170Y-104755555D01*
X155901912Y-104742196D01*
X155913142Y-104738351D01*
X155947983Y-104728229D01*
X155947984Y-104728229D01*
X155955593Y-104726018D01*
X155962412Y-104721985D01*
X155962417Y-104721983D01*
X155973028Y-104715707D01*
X155990776Y-104707012D01*
X156009617Y-104699552D01*
X156045387Y-104673564D01*
X156055307Y-104667048D01*
X156086535Y-104648580D01*
X156086538Y-104648578D01*
X156093362Y-104644542D01*
X156107683Y-104630221D01*
X156122717Y-104617380D01*
X156132694Y-104610131D01*
X156139107Y-104605472D01*
X156167298Y-104571395D01*
X156175288Y-104562616D01*
X162112247Y-98625657D01*
X162120537Y-98618113D01*
X162127018Y-98614000D01*
X162173659Y-98564332D01*
X162176413Y-98561491D01*
X162196134Y-98541770D01*
X162198612Y-98538575D01*
X162206315Y-98529556D01*
X162218848Y-98516210D01*
X162280058Y-98480243D01*
X162350998Y-98483079D01*
X162361948Y-98487355D01*
X162398673Y-98503706D01*
X162398679Y-98503708D01*
X162404712Y-98506394D01*
X162498112Y-98526247D01*
X162585056Y-98544728D01*
X162585061Y-98544728D01*
X162591513Y-98546100D01*
X162782487Y-98546100D01*
X162788939Y-98544728D01*
X162788944Y-98544728D01*
X162875888Y-98526247D01*
X162969288Y-98506394D01*
X162975319Y-98503709D01*
X163137722Y-98431403D01*
X163137724Y-98431402D01*
X163143752Y-98428718D01*
X163149094Y-98424837D01*
X163253073Y-98349292D01*
X163319941Y-98325433D01*
X163389093Y-98341514D01*
X163416229Y-98362133D01*
X165079595Y-100025499D01*
X165113621Y-100087811D01*
X165116500Y-100114594D01*
X165116500Y-106310406D01*
X165096498Y-106378527D01*
X165079595Y-106399501D01*
X163674500Y-107804595D01*
X163612188Y-107838621D01*
X163585405Y-107841500D01*
X163515449Y-107841500D01*
X163447328Y-107821498D01*
X163400835Y-107767842D01*
X163390731Y-107697568D01*
X163406329Y-107652503D01*
X163445327Y-107584956D01*
X163504342Y-107403328D01*
X163506837Y-107379595D01*
X163523614Y-107219965D01*
X163524304Y-107213400D01*
X163517816Y-107151669D01*
X163505032Y-107030035D01*
X163505032Y-107030033D01*
X163504342Y-107023472D01*
X163445327Y-106841844D01*
X163349840Y-106676456D01*
X163292755Y-106613056D01*
X163226475Y-106539445D01*
X163226474Y-106539444D01*
X163222053Y-106534534D01*
X163119770Y-106460221D01*
X163072894Y-106426163D01*
X163072893Y-106426162D01*
X163067552Y-106422282D01*
X163061524Y-106419598D01*
X163061522Y-106419597D01*
X162899119Y-106347291D01*
X162899118Y-106347291D01*
X162893088Y-106344606D01*
X162775859Y-106319688D01*
X162712744Y-106306272D01*
X162712739Y-106306272D01*
X162706287Y-106304900D01*
X162515313Y-106304900D01*
X162508858Y-106306272D01*
X162508849Y-106306273D01*
X162420170Y-106325123D01*
X162349379Y-106319722D01*
X162304877Y-106290972D01*
X161960405Y-105946500D01*
X161926379Y-105884188D01*
X161923500Y-105857405D01*
X161923500Y-102937524D01*
X161943502Y-102869403D01*
X161955858Y-102853221D01*
X162029040Y-102771944D01*
X162124527Y-102606556D01*
X162183542Y-102424928D01*
X162188107Y-102381500D01*
X162202814Y-102241565D01*
X162203504Y-102235000D01*
X162195288Y-102156829D01*
X162184232Y-102051635D01*
X162184232Y-102051633D01*
X162183542Y-102045072D01*
X162124527Y-101863444D01*
X162120056Y-101855699D01*
X162071077Y-101770866D01*
X162029040Y-101698056D01*
X162003064Y-101669206D01*
X161905675Y-101561045D01*
X161905674Y-101561044D01*
X161901253Y-101556134D01*
X161781040Y-101468794D01*
X161752094Y-101447763D01*
X161752093Y-101447762D01*
X161746752Y-101443882D01*
X161740724Y-101441198D01*
X161740722Y-101441197D01*
X161578319Y-101368891D01*
X161578318Y-101368891D01*
X161572288Y-101366206D01*
X161478887Y-101346353D01*
X161391944Y-101327872D01*
X161391939Y-101327872D01*
X161385487Y-101326500D01*
X161194513Y-101326500D01*
X161188061Y-101327872D01*
X161188056Y-101327872D01*
X161101113Y-101346353D01*
X161007712Y-101366206D01*
X161001682Y-101368891D01*
X161001681Y-101368891D01*
X160839278Y-101441197D01*
X160839276Y-101441198D01*
X160833248Y-101443882D01*
X160827907Y-101447762D01*
X160827906Y-101447763D01*
X160798960Y-101468794D01*
X160678747Y-101556134D01*
X160674326Y-101561044D01*
X160674325Y-101561045D01*
X160576937Y-101669206D01*
X160550960Y-101698056D01*
X160508923Y-101770866D01*
X160459945Y-101855699D01*
X160455473Y-101863444D01*
X160396458Y-102045072D01*
X160395768Y-102051633D01*
X160395768Y-102051635D01*
X160384712Y-102156829D01*
X160376496Y-102235000D01*
X160377186Y-102241565D01*
X160391894Y-102381500D01*
X160396458Y-102424928D01*
X160455473Y-102606556D01*
X160550960Y-102771944D01*
X160624137Y-102853215D01*
X160654853Y-102917221D01*
X160656500Y-102937524D01*
X160656500Y-105648218D01*
X160636498Y-105716339D01*
X160582842Y-105762832D01*
X160512568Y-105772936D01*
X160477270Y-105760718D01*
X160476752Y-105761882D01*
X160308319Y-105686891D01*
X160308318Y-105686891D01*
X160302288Y-105684206D01*
X160208887Y-105664353D01*
X160121944Y-105645872D01*
X160121939Y-105645872D01*
X160115487Y-105644500D01*
X159924513Y-105644500D01*
X159918061Y-105645872D01*
X159918056Y-105645872D01*
X159831113Y-105664353D01*
X159737712Y-105684206D01*
X159731682Y-105686891D01*
X159731681Y-105686891D01*
X159569278Y-105759197D01*
X159569276Y-105759198D01*
X159563248Y-105761882D01*
X159557907Y-105765762D01*
X159557906Y-105765763D01*
X159530665Y-105785555D01*
X159408747Y-105874134D01*
X159404326Y-105879044D01*
X159404325Y-105879045D01*
X159286868Y-106009495D01*
X159280960Y-106016056D01*
X159245127Y-106078120D01*
X159190792Y-106172232D01*
X159185473Y-106181444D01*
X159126458Y-106363072D01*
X159125768Y-106369633D01*
X159125768Y-106369635D01*
X159109706Y-106522458D01*
X159106496Y-106553000D01*
X159107186Y-106559565D01*
X159125278Y-106731703D01*
X159112506Y-106801541D01*
X159064004Y-106853388D01*
X158995171Y-106870782D01*
X158927861Y-106848201D01*
X158910873Y-106833968D01*
X158300122Y-106223217D01*
X158266096Y-106160905D01*
X158263907Y-106147292D01*
X158247232Y-105988635D01*
X158247232Y-105988633D01*
X158246542Y-105982072D01*
X158187527Y-105800444D01*
X158092040Y-105635056D01*
X158057619Y-105596827D01*
X157968675Y-105498045D01*
X157968674Y-105498044D01*
X157964253Y-105493134D01*
X157809752Y-105380882D01*
X157803724Y-105378198D01*
X157803722Y-105378197D01*
X157641319Y-105305891D01*
X157641318Y-105305891D01*
X157635288Y-105303206D01*
X157541888Y-105283353D01*
X157454944Y-105264872D01*
X157454939Y-105264872D01*
X157448487Y-105263500D01*
X157257513Y-105263500D01*
X157251061Y-105264872D01*
X157251056Y-105264872D01*
X157164113Y-105283353D01*
X157070712Y-105303206D01*
X157064682Y-105305891D01*
X157064681Y-105305891D01*
X156902278Y-105378197D01*
X156902276Y-105378198D01*
X156896248Y-105380882D01*
X156741747Y-105493134D01*
X156737326Y-105498044D01*
X156737325Y-105498045D01*
X156648382Y-105596827D01*
X156613960Y-105635056D01*
X156518473Y-105800444D01*
X156459458Y-105982072D01*
X156458768Y-105988633D01*
X156458768Y-105988635D01*
X156443332Y-106135500D01*
X156439496Y-106172000D01*
X156440186Y-106178565D01*
X156457920Y-106347291D01*
X156459458Y-106361928D01*
X156518473Y-106543556D01*
X156521776Y-106549278D01*
X156521777Y-106549279D01*
X156527716Y-106559565D01*
X156613960Y-106708944D01*
X156618378Y-106713851D01*
X156618379Y-106713852D01*
X156737223Y-106845842D01*
X156741747Y-106850866D01*
X156769159Y-106870782D01*
X156885708Y-106955460D01*
X156896248Y-106963118D01*
X156902276Y-106965802D01*
X156902278Y-106965803D01*
X157049399Y-107031305D01*
X157070712Y-107040794D01*
X157139743Y-107055467D01*
X157251056Y-107079128D01*
X157251061Y-107079128D01*
X157257513Y-107080500D01*
X157313406Y-107080500D01*
X157381527Y-107100502D01*
X157402501Y-107117405D01*
X159619595Y-109334499D01*
X159653621Y-109396811D01*
X159656500Y-109423594D01*
X159656500Y-114300710D01*
X159636498Y-114368831D01*
X159619595Y-114389805D01*
X157519805Y-116489595D01*
X157457493Y-116523621D01*
X157430710Y-116526500D01*
X154520963Y-116526500D01*
X154509779Y-116525973D01*
X154502291Y-116524299D01*
X154494368Y-116524548D01*
X154434233Y-116526438D01*
X154430275Y-116526500D01*
X154402344Y-116526500D01*
X154398429Y-116526995D01*
X154398425Y-116526995D01*
X154398367Y-116527003D01*
X154398338Y-116527006D01*
X154386496Y-116527939D01*
X154342310Y-116529327D01*
X154331154Y-116532568D01*
X154322858Y-116534978D01*
X154303506Y-116538986D01*
X154291268Y-116540532D01*
X154291266Y-116540533D01*
X154283403Y-116541526D01*
X154242286Y-116557806D01*
X154231085Y-116561641D01*
X154188606Y-116573982D01*
X154181787Y-116578015D01*
X154181782Y-116578017D01*
X154171171Y-116584293D01*
X154153421Y-116592990D01*
X154134583Y-116600448D01*
X154128167Y-116605109D01*
X154128166Y-116605110D01*
X154098825Y-116626428D01*
X154088901Y-116632947D01*
X154057660Y-116651422D01*
X154057655Y-116651426D01*
X154050837Y-116655458D01*
X154036513Y-116669782D01*
X154021481Y-116682621D01*
X154005093Y-116694528D01*
X154000039Y-116700637D01*
X153994261Y-116706063D01*
X153992873Y-116704585D01*
X153942879Y-116738353D01*
X153904627Y-116744300D01*
X153853913Y-116744300D01*
X153847461Y-116745672D01*
X153847456Y-116745672D01*
X153760513Y-116764153D01*
X153667112Y-116784006D01*
X153661082Y-116786691D01*
X153661081Y-116786691D01*
X153498678Y-116858997D01*
X153498676Y-116858998D01*
X153492648Y-116861682D01*
X153487307Y-116865562D01*
X153487306Y-116865563D01*
X153443832Y-116897149D01*
X153338147Y-116973934D01*
X153333726Y-116978844D01*
X153333725Y-116978845D01*
X153216729Y-117108783D01*
X153210360Y-117115856D01*
X153114873Y-117281244D01*
X153055858Y-117462872D01*
X153055168Y-117469433D01*
X153055168Y-117469435D01*
X153038829Y-117624891D01*
X153035896Y-117652800D01*
X153036586Y-117659365D01*
X153052261Y-117808500D01*
X153055858Y-117842728D01*
X153114873Y-118024356D01*
X153118176Y-118030078D01*
X153118177Y-118030079D01*
X153152086Y-118088810D01*
X153210360Y-118189744D01*
X153214778Y-118194651D01*
X153214779Y-118194652D01*
X153302967Y-118292595D01*
X153338147Y-118331666D01*
X153492648Y-118443918D01*
X153498676Y-118446602D01*
X153498678Y-118446603D01*
X153653894Y-118515709D01*
X153667112Y-118521594D01*
X153760512Y-118541447D01*
X153847456Y-118559928D01*
X153847461Y-118559928D01*
X153853913Y-118561300D01*
X154044887Y-118561300D01*
X154051339Y-118559928D01*
X154051344Y-118559928D01*
X154138288Y-118541447D01*
X154231688Y-118521594D01*
X154244906Y-118515709D01*
X154400122Y-118446603D01*
X154400124Y-118446602D01*
X154406152Y-118443918D01*
X154560653Y-118331666D01*
X154595833Y-118292595D01*
X154684021Y-118194652D01*
X154684022Y-118194651D01*
X154688440Y-118189744D01*
X154746714Y-118088810D01*
X154780623Y-118030079D01*
X154780624Y-118030078D01*
X154783927Y-118024356D01*
X154830648Y-117880563D01*
X154870722Y-117821958D01*
X154936118Y-117794321D01*
X154950481Y-117793500D01*
X157666538Y-117793500D01*
X157677721Y-117794027D01*
X157685214Y-117795702D01*
X157693140Y-117795453D01*
X157693141Y-117795453D01*
X157753291Y-117793562D01*
X157757250Y-117793500D01*
X157785161Y-117793500D01*
X157789096Y-117793003D01*
X157789161Y-117792995D01*
X157800998Y-117792062D01*
X157833256Y-117791048D01*
X157837275Y-117790922D01*
X157845194Y-117790673D01*
X157864648Y-117785021D01*
X157884005Y-117781013D01*
X157896235Y-117779468D01*
X157896236Y-117779468D01*
X157904102Y-117778474D01*
X157911473Y-117775555D01*
X157911475Y-117775555D01*
X157945217Y-117762196D01*
X157956447Y-117758351D01*
X157991288Y-117748229D01*
X157991289Y-117748229D01*
X157998898Y-117746018D01*
X158005717Y-117741985D01*
X158005722Y-117741983D01*
X158016333Y-117735707D01*
X158034081Y-117727012D01*
X158052922Y-117719552D01*
X158061119Y-117713597D01*
X158088692Y-117693564D01*
X158098612Y-117687048D01*
X158129840Y-117668580D01*
X158129843Y-117668578D01*
X158136667Y-117664542D01*
X158150988Y-117650221D01*
X158166022Y-117637380D01*
X158175999Y-117630131D01*
X158182412Y-117625472D01*
X158210603Y-117591395D01*
X158218593Y-117582616D01*
X160060405Y-115740804D01*
X160122717Y-115706778D01*
X160193532Y-115711843D01*
X160250368Y-115754390D01*
X160275179Y-115820910D01*
X160275500Y-115829899D01*
X160275500Y-120342633D01*
X160274973Y-120353816D01*
X160273298Y-120361309D01*
X160273547Y-120369235D01*
X160273547Y-120369236D01*
X160275438Y-120429386D01*
X160275500Y-120433345D01*
X160275500Y-120461256D01*
X160275997Y-120465190D01*
X160275997Y-120465191D01*
X160276005Y-120465256D01*
X160276938Y-120477093D01*
X160278327Y-120521289D01*
X160283978Y-120540739D01*
X160287987Y-120560100D01*
X160290526Y-120580197D01*
X160293445Y-120587568D01*
X160293445Y-120587570D01*
X160306804Y-120621312D01*
X160310649Y-120632542D01*
X160322982Y-120674993D01*
X160327015Y-120681812D01*
X160327017Y-120681817D01*
X160333293Y-120692428D01*
X160341988Y-120710176D01*
X160349448Y-120729017D01*
X160354110Y-120735433D01*
X160354110Y-120735434D01*
X160375436Y-120764787D01*
X160381952Y-120774707D01*
X160398982Y-120803502D01*
X160404458Y-120812762D01*
X160418779Y-120827083D01*
X160431619Y-120842116D01*
X160443528Y-120858507D01*
X160449634Y-120863558D01*
X160477605Y-120886698D01*
X160486384Y-120894688D01*
X164054578Y-124462882D01*
X164088604Y-124525194D01*
X164086900Y-124585648D01*
X164065789Y-124661770D01*
X164065241Y-124666900D01*
X164065240Y-124666904D01*
X164061733Y-124699722D01*
X164042051Y-124883895D01*
X164042348Y-124889048D01*
X164042348Y-124889051D01*
X164048569Y-124996939D01*
X164054910Y-125106915D01*
X164056047Y-125111961D01*
X164056048Y-125111967D01*
X164075919Y-125200139D01*
X164104022Y-125324839D01*
X164188066Y-125531816D01*
X164304787Y-125722288D01*
X164451050Y-125891138D01*
X164622926Y-126033832D01*
X164642661Y-126045364D01*
X164696245Y-126076676D01*
X164744969Y-126128314D01*
X164758040Y-126198097D01*
X164731309Y-126263869D01*
X164690855Y-126297227D01*
X164678407Y-126303707D01*
X164674274Y-126306810D01*
X164674271Y-126306812D01*
X164555300Y-126396138D01*
X164499765Y-126437835D01*
X164345429Y-126599338D01*
X164219543Y-126783880D01*
X164125488Y-126986505D01*
X164065789Y-127201770D01*
X164042051Y-127423895D01*
X164042348Y-127429048D01*
X164042348Y-127429051D01*
X164047811Y-127523790D01*
X164054910Y-127646915D01*
X164056047Y-127651961D01*
X164056048Y-127651967D01*
X164075919Y-127740139D01*
X164104022Y-127864839D01*
X164188066Y-128071816D01*
X164190765Y-128076220D01*
X164288406Y-128235556D01*
X164304787Y-128262288D01*
X164451050Y-128431138D01*
X164455025Y-128434438D01*
X164455031Y-128434444D01*
X164460225Y-128438756D01*
X164499859Y-128497660D01*
X164501355Y-128568641D01*
X164464239Y-128629162D01*
X164423968Y-128653680D01*
X164316746Y-128693876D01*
X164301151Y-128702414D01*
X164199076Y-128778915D01*
X164186515Y-128791476D01*
X164110014Y-128893551D01*
X164101476Y-128909146D01*
X164056322Y-129029594D01*
X164052695Y-129044849D01*
X164047169Y-129095714D01*
X164046800Y-129102528D01*
X164046800Y-129725085D01*
X164051275Y-129740324D01*
X164052665Y-129741529D01*
X164060348Y-129743200D01*
X166744684Y-129743200D01*
X166759923Y-129738725D01*
X166761128Y-129737335D01*
X166762799Y-129729652D01*
X166762799Y-129102531D01*
X166762429Y-129095710D01*
X166756905Y-129044848D01*
X166753279Y-129029596D01*
X166708124Y-128909146D01*
X166699586Y-128893551D01*
X166623085Y-128791476D01*
X166610524Y-128778915D01*
X166508449Y-128702414D01*
X166492854Y-128693876D01*
X166382613Y-128652548D01*
X166325849Y-128609906D01*
X166301149Y-128543345D01*
X166316357Y-128473996D01*
X166337904Y-128445315D01*
X166439230Y-128344344D01*
X166439240Y-128344332D01*
X166442896Y-128340689D01*
X166475603Y-128295173D01*
X166570235Y-128163477D01*
X166573253Y-128159277D01*
X166584022Y-128137489D01*
X166669936Y-127963653D01*
X166669937Y-127963651D01*
X166672230Y-127959011D01*
X166737170Y-127745269D01*
X166766329Y-127523790D01*
X166767956Y-127457200D01*
X166749652Y-127234561D01*
X166695231Y-127017902D01*
X166606154Y-126813040D01*
X166484814Y-126625477D01*
X166334470Y-126460251D01*
X166330419Y-126457052D01*
X166330415Y-126457048D01*
X166163214Y-126325000D01*
X166163210Y-126324998D01*
X166159159Y-126321798D01*
X166117853Y-126298996D01*
X166067884Y-126248564D01*
X166053112Y-126179121D01*
X166078228Y-126112716D01*
X166105580Y-126086109D01*
X166162702Y-126045364D01*
X166284660Y-125958373D01*
X166318036Y-125925114D01*
X166439235Y-125804337D01*
X166442896Y-125800689D01*
X166475603Y-125755173D01*
X166570235Y-125623477D01*
X166573253Y-125619277D01*
X166582219Y-125601137D01*
X166669936Y-125423653D01*
X166669937Y-125423651D01*
X166672230Y-125419011D01*
X166737170Y-125205269D01*
X166766329Y-124983790D01*
X166767956Y-124917200D01*
X166749652Y-124694561D01*
X166695231Y-124477902D01*
X166606154Y-124273040D01*
X166566706Y-124212062D01*
X166487622Y-124089817D01*
X166487620Y-124089814D01*
X166484814Y-124085477D01*
X166334470Y-123920251D01*
X166330419Y-123917052D01*
X166330415Y-123917048D01*
X166163214Y-123785000D01*
X166163210Y-123784998D01*
X166159159Y-123781798D01*
X166117853Y-123758996D01*
X166067884Y-123708564D01*
X166053112Y-123639121D01*
X166078228Y-123572716D01*
X166105580Y-123546109D01*
X166162702Y-123505364D01*
X166284660Y-123418373D01*
X166442896Y-123260689D01*
X166471339Y-123221107D01*
X166570235Y-123083477D01*
X166573253Y-123079277D01*
X166581020Y-123063563D01*
X166669936Y-122883653D01*
X166669937Y-122883651D01*
X166672230Y-122879011D01*
X166737170Y-122665269D01*
X166766329Y-122443790D01*
X166766411Y-122440440D01*
X166767874Y-122380565D01*
X166767874Y-122380561D01*
X166767956Y-122377200D01*
X166749652Y-122154561D01*
X166695231Y-121937902D01*
X166606154Y-121733040D01*
X166540288Y-121631226D01*
X166487622Y-121549817D01*
X166487620Y-121549814D01*
X166484814Y-121545477D01*
X166334470Y-121380251D01*
X166330419Y-121377052D01*
X166330415Y-121377048D01*
X166163214Y-121245000D01*
X166163210Y-121244998D01*
X166159159Y-121241798D01*
X165963589Y-121133838D01*
X165958720Y-121132114D01*
X165958716Y-121132112D01*
X165757887Y-121060995D01*
X165757883Y-121060994D01*
X165753012Y-121059269D01*
X165747919Y-121058362D01*
X165747916Y-121058361D01*
X165538173Y-121021000D01*
X165538167Y-121020999D01*
X165533084Y-121020094D01*
X165459252Y-121019192D01*
X165314881Y-121017428D01*
X165314879Y-121017428D01*
X165309711Y-121017365D01*
X165088891Y-121051155D01*
X164876556Y-121120557D01*
X164849332Y-121134729D01*
X164708002Y-121208301D01*
X164678407Y-121223707D01*
X164674274Y-121226810D01*
X164674271Y-121226812D01*
X164549609Y-121320411D01*
X164499765Y-121357835D01*
X164481405Y-121377048D01*
X164370183Y-121493435D01*
X164345429Y-121519338D01*
X164342515Y-121523610D01*
X164342514Y-121523611D01*
X164330204Y-121541657D01*
X164219543Y-121703880D01*
X164184736Y-121778866D01*
X164141711Y-121871556D01*
X164125488Y-121906505D01*
X164065789Y-122121770D01*
X164042051Y-122343895D01*
X164042348Y-122349053D01*
X164042222Y-122354224D01*
X164040714Y-122354187D01*
X164026211Y-122416682D01*
X163975320Y-122466186D01*
X163905744Y-122480317D01*
X163839573Y-122454589D01*
X163827374Y-122443869D01*
X161579405Y-120195900D01*
X161545379Y-120133588D01*
X161542500Y-120106805D01*
X161542500Y-118292595D01*
X161562502Y-118224474D01*
X161616158Y-118177981D01*
X161686432Y-118167877D01*
X161751012Y-118197371D01*
X161757590Y-118203494D01*
X161877433Y-118323338D01*
X161993879Y-118439784D01*
X162027904Y-118502096D01*
X162030093Y-118515709D01*
X162038596Y-118596606D01*
X162047458Y-118680928D01*
X162106473Y-118862556D01*
X162201960Y-119027944D01*
X162329747Y-119169866D01*
X162484248Y-119282118D01*
X162490276Y-119284802D01*
X162490278Y-119284803D01*
X162652681Y-119357109D01*
X162658712Y-119359794D01*
X162747046Y-119378570D01*
X162839056Y-119398128D01*
X162839061Y-119398128D01*
X162845513Y-119399500D01*
X163036487Y-119399500D01*
X163042939Y-119398128D01*
X163042944Y-119398128D01*
X163134954Y-119378570D01*
X163223288Y-119359794D01*
X163229319Y-119357109D01*
X163391722Y-119284803D01*
X163391724Y-119284802D01*
X163397752Y-119282118D01*
X163552253Y-119169866D01*
X163680040Y-119027944D01*
X163775527Y-118862556D01*
X163805456Y-118770445D01*
X163845530Y-118711840D01*
X163910927Y-118684203D01*
X163980557Y-118696253D01*
X163982848Y-118697918D01*
X164157312Y-118775594D01*
X164250712Y-118795447D01*
X164337656Y-118813928D01*
X164337661Y-118813928D01*
X164344113Y-118815300D01*
X164535087Y-118815300D01*
X164541539Y-118813928D01*
X164541544Y-118813928D01*
X164628488Y-118795447D01*
X164721888Y-118775594D01*
X164865083Y-118711840D01*
X164890322Y-118700603D01*
X164890324Y-118700602D01*
X164896352Y-118697918D01*
X165050853Y-118585666D01*
X165110961Y-118518909D01*
X165174221Y-118448652D01*
X165174222Y-118448651D01*
X165178640Y-118443744D01*
X165274127Y-118278356D01*
X165333142Y-118096728D01*
X165333833Y-118090157D01*
X165333978Y-118089473D01*
X165368130Y-118026574D01*
X166864672Y-116530032D01*
X166926984Y-116496006D01*
X166997799Y-116501071D01*
X167054635Y-116543618D01*
X167070306Y-116573839D01*
X167070747Y-116573643D01*
X167073431Y-116579671D01*
X167075473Y-116585956D01*
X167078776Y-116591678D01*
X167078777Y-116591679D01*
X167100194Y-116628774D01*
X167170960Y-116751344D01*
X167175378Y-116756251D01*
X167175379Y-116756252D01*
X167263206Y-116853794D01*
X167298747Y-116893266D01*
X167395820Y-116963794D01*
X167444006Y-116998803D01*
X167453248Y-117005518D01*
X167459276Y-117008202D01*
X167459278Y-117008203D01*
X167621681Y-117080509D01*
X167627712Y-117083194D01*
X167721112Y-117103047D01*
X167808056Y-117121528D01*
X167808061Y-117121528D01*
X167814513Y-117122900D01*
X168005487Y-117122900D01*
X168011939Y-117121528D01*
X168011944Y-117121528D01*
X168098888Y-117103047D01*
X168192288Y-117083194D01*
X168198319Y-117080509D01*
X168360722Y-117008203D01*
X168360724Y-117008202D01*
X168366752Y-117005518D01*
X168375995Y-116998803D01*
X168424180Y-116963794D01*
X168521253Y-116893266D01*
X168556794Y-116853794D01*
X168644621Y-116756252D01*
X168644622Y-116756251D01*
X168649040Y-116751344D01*
X168719806Y-116628774D01*
X168741223Y-116591679D01*
X168741224Y-116591678D01*
X168744527Y-116585956D01*
X168803542Y-116404328D01*
X168805002Y-116390442D01*
X168822814Y-116220965D01*
X168823504Y-116214400D01*
X168804857Y-116036980D01*
X168804232Y-116031035D01*
X168804232Y-116031033D01*
X168803542Y-116024472D01*
X168744527Y-115842844D01*
X168733648Y-115824000D01*
X168652341Y-115683174D01*
X168649040Y-115677456D01*
X168575863Y-115596185D01*
X168545147Y-115532179D01*
X168543500Y-115511876D01*
X168543500Y-108534500D01*
X168563502Y-108466379D01*
X168617158Y-108419886D01*
X168669500Y-108408500D01*
X168729987Y-108408500D01*
X168736439Y-108407128D01*
X168736444Y-108407128D01*
X168823632Y-108388595D01*
X168916788Y-108368794D01*
X168953700Y-108352360D01*
X169085222Y-108293803D01*
X169085224Y-108293802D01*
X169091252Y-108291118D01*
X169108617Y-108278502D01*
X169146657Y-108250864D01*
X169245753Y-108178866D01*
X169250585Y-108173500D01*
X169369121Y-108041852D01*
X169369122Y-108041851D01*
X169373540Y-108036944D01*
X169453015Y-107899289D01*
X169465723Y-107877279D01*
X169465724Y-107877278D01*
X169469027Y-107871556D01*
X169472667Y-107860354D01*
X169512740Y-107801748D01*
X169578136Y-107774110D01*
X169648093Y-107786216D01*
X169700400Y-107834222D01*
X169718500Y-107899289D01*
X169718500Y-131699500D01*
X169698498Y-131767621D01*
X169644842Y-131814114D01*
X169592500Y-131825500D01*
X103945700Y-131825500D01*
X103877579Y-131805498D01*
X103831086Y-131751842D01*
X103819700Y-131699500D01*
X103819700Y-130688669D01*
X123864001Y-130688669D01*
X123864371Y-130695490D01*
X123869895Y-130746352D01*
X123873521Y-130761604D01*
X123918676Y-130882054D01*
X123927214Y-130897649D01*
X124003715Y-130999724D01*
X124016276Y-131012285D01*
X124118351Y-131088786D01*
X124133946Y-131097324D01*
X124254394Y-131142478D01*
X124269649Y-131146105D01*
X124320514Y-131151631D01*
X124327328Y-131152000D01*
X124949885Y-131152000D01*
X124965124Y-131147525D01*
X124966329Y-131146135D01*
X124968000Y-131138452D01*
X124968000Y-131133884D01*
X125476000Y-131133884D01*
X125480475Y-131149123D01*
X125481865Y-131150328D01*
X125489548Y-131151999D01*
X126116669Y-131151999D01*
X126123490Y-131151629D01*
X126174352Y-131146105D01*
X126189604Y-131142479D01*
X126310054Y-131097324D01*
X126325649Y-131088786D01*
X126427724Y-131012285D01*
X126440285Y-130999724D01*
X126516786Y-130897649D01*
X126519950Y-130891869D01*
X164046801Y-130891869D01*
X164047171Y-130898690D01*
X164052695Y-130949552D01*
X164056321Y-130964804D01*
X164101476Y-131085254D01*
X164110014Y-131100849D01*
X164186515Y-131202924D01*
X164199076Y-131215485D01*
X164301151Y-131291986D01*
X164316746Y-131300524D01*
X164437194Y-131345678D01*
X164452449Y-131349305D01*
X164503314Y-131354831D01*
X164510128Y-131355200D01*
X165132685Y-131355200D01*
X165147924Y-131350725D01*
X165149129Y-131349335D01*
X165150800Y-131341652D01*
X165150800Y-131337084D01*
X165658800Y-131337084D01*
X165663275Y-131352323D01*
X165664665Y-131353528D01*
X165672348Y-131355199D01*
X166299469Y-131355199D01*
X166306290Y-131354829D01*
X166357152Y-131349305D01*
X166372404Y-131345679D01*
X166492854Y-131300524D01*
X166508449Y-131291986D01*
X166610524Y-131215485D01*
X166623085Y-131202924D01*
X166699586Y-131100849D01*
X166708124Y-131085254D01*
X166753278Y-130964806D01*
X166756905Y-130949551D01*
X166762431Y-130898686D01*
X166762800Y-130891872D01*
X166762800Y-130269315D01*
X166758325Y-130254076D01*
X166756935Y-130252871D01*
X166749252Y-130251200D01*
X165676915Y-130251200D01*
X165661676Y-130255675D01*
X165660471Y-130257065D01*
X165658800Y-130264748D01*
X165658800Y-131337084D01*
X165150800Y-131337084D01*
X165150800Y-130269315D01*
X165146325Y-130254076D01*
X165144935Y-130252871D01*
X165137252Y-130251200D01*
X164064916Y-130251200D01*
X164049677Y-130255675D01*
X164048472Y-130257065D01*
X164046801Y-130264748D01*
X164046801Y-130891869D01*
X126519950Y-130891869D01*
X126525324Y-130882054D01*
X126570478Y-130761606D01*
X126574105Y-130746351D01*
X126579631Y-130695486D01*
X126580000Y-130688672D01*
X126580000Y-130066115D01*
X126575525Y-130050876D01*
X126574135Y-130049671D01*
X126566452Y-130048000D01*
X125494115Y-130048000D01*
X125478876Y-130052475D01*
X125477671Y-130053865D01*
X125476000Y-130061548D01*
X125476000Y-131133884D01*
X124968000Y-131133884D01*
X124968000Y-130066115D01*
X124963525Y-130050876D01*
X124962135Y-130049671D01*
X124954452Y-130048000D01*
X123882116Y-130048000D01*
X123866877Y-130052475D01*
X123865672Y-130053865D01*
X123864001Y-130061548D01*
X123864001Y-130688669D01*
X103819700Y-130688669D01*
X103819700Y-115248074D01*
X103839702Y-115179953D01*
X103893358Y-115133460D01*
X103963632Y-115123356D01*
X104014048Y-115142223D01*
X104149003Y-115229363D01*
X104149007Y-115229365D01*
X104154048Y-115232620D01*
X104192395Y-115248074D01*
X104344668Y-115309442D01*
X104344671Y-115309443D01*
X104350237Y-115311686D01*
X104557837Y-115352228D01*
X104563399Y-115352500D01*
X105419346Y-115352500D01*
X105577066Y-115337452D01*
X105780034Y-115277908D01*
X105785362Y-115275164D01*
X105801359Y-115266925D01*
X105871078Y-115253516D01*
X105936979Y-115279929D01*
X105954273Y-115296426D01*
X105971466Y-115316268D01*
X105974859Y-115319208D01*
X106075115Y-115406081D01*
X106075118Y-115406083D01*
X106081926Y-115411982D01*
X106090124Y-115415726D01*
X106121727Y-115430159D01*
X106214875Y-115472698D01*
X106234635Y-115478500D01*
X106278673Y-115491431D01*
X106278677Y-115491432D01*
X106282996Y-115492700D01*
X106287445Y-115493340D01*
X106287451Y-115493341D01*
X106423218Y-115512861D01*
X106423223Y-115512861D01*
X106427665Y-115513500D01*
X107995476Y-115513500D01*
X108069537Y-115537564D01*
X108112284Y-115568621D01*
X108143248Y-115591118D01*
X108149276Y-115593802D01*
X108149278Y-115593803D01*
X108311681Y-115666109D01*
X108317712Y-115668794D01*
X108411112Y-115688647D01*
X108498056Y-115707128D01*
X108498061Y-115707128D01*
X108504513Y-115708500D01*
X108695487Y-115708500D01*
X108701939Y-115707128D01*
X108701944Y-115707128D01*
X108788888Y-115688647D01*
X108882288Y-115668794D01*
X108888319Y-115666109D01*
X109050722Y-115593803D01*
X109050724Y-115593802D01*
X109056752Y-115591118D01*
X109211253Y-115478866D01*
X109266270Y-115417763D01*
X109334621Y-115341852D01*
X109334622Y-115341851D01*
X109339040Y-115336944D01*
X109342339Y-115331231D01*
X109342342Y-115331226D01*
X109390163Y-115248397D01*
X109404057Y-115228885D01*
X109406081Y-115226550D01*
X109406083Y-115226547D01*
X109411982Y-115219739D01*
X109415724Y-115211545D01*
X109415726Y-115211542D01*
X109431189Y-115177682D01*
X109431189Y-115177681D01*
X109431941Y-115176035D01*
X109434527Y-115171556D01*
X109435775Y-115167715D01*
X109435959Y-115167499D01*
X109435860Y-115167454D01*
X109447383Y-115142223D01*
X109472698Y-115086790D01*
X109492700Y-115018669D01*
X109495790Y-114997181D01*
X109512861Y-114878447D01*
X109512861Y-114878442D01*
X109513500Y-114874000D01*
X109513500Y-114800038D01*
X109513504Y-114800000D01*
X109513500Y-114799962D01*
X109513500Y-113960263D01*
X109509623Y-113897281D01*
X109505832Y-113866606D01*
X109494259Y-113804575D01*
X109438865Y-113669322D01*
X109402881Y-113608121D01*
X109311627Y-113493956D01*
X109304248Y-113488789D01*
X109304246Y-113488787D01*
X109208233Y-113421556D01*
X109191904Y-113410122D01*
X109128544Y-113378090D01*
X109086550Y-113363927D01*
X109028397Y-113323206D01*
X109001489Y-113257506D01*
X109014373Y-113187688D01*
X109062958Y-113135919D01*
X109091321Y-113123640D01*
X109131010Y-113111986D01*
X109139657Y-113109447D01*
X109147236Y-113104577D01*
X109147239Y-113104575D01*
X109207825Y-113065638D01*
X109262612Y-113030429D01*
X109316268Y-112983936D01*
X109359298Y-112934277D01*
X109406081Y-112880287D01*
X109406083Y-112880284D01*
X109411982Y-112873476D01*
X109420613Y-112854578D01*
X109456865Y-112775196D01*
X109472698Y-112740527D01*
X109479673Y-112716773D01*
X109491431Y-112676729D01*
X109491432Y-112676725D01*
X109492700Y-112672406D01*
X109501313Y-112612507D01*
X109512861Y-112532184D01*
X109512861Y-112532179D01*
X109513500Y-112527737D01*
X109513500Y-108960263D01*
X109509623Y-108897281D01*
X109505832Y-108866606D01*
X109494259Y-108804575D01*
X109444465Y-108682995D01*
X109440573Y-108673492D01*
X109440572Y-108673490D01*
X109438865Y-108669322D01*
X109421554Y-108639879D01*
X109405162Y-108612000D01*
X109405160Y-108611997D01*
X109402881Y-108608121D01*
X109345180Y-108535934D01*
X109317253Y-108500994D01*
X109317251Y-108500992D01*
X109311627Y-108493956D01*
X109304248Y-108488789D01*
X109304246Y-108488787D01*
X109225848Y-108433891D01*
X109191904Y-108410122D01*
X109128544Y-108378090D01*
X109086550Y-108363927D01*
X109028397Y-108323206D01*
X109001489Y-108257506D01*
X109014373Y-108187688D01*
X109062958Y-108135919D01*
X109091321Y-108123640D01*
X109131010Y-108111986D01*
X109139657Y-108109447D01*
X109147236Y-108104577D01*
X109147239Y-108104575D01*
X109207825Y-108065638D01*
X109262612Y-108030429D01*
X109316268Y-107983936D01*
X109360805Y-107932538D01*
X109406081Y-107880287D01*
X109406083Y-107880284D01*
X109411982Y-107873476D01*
X109472698Y-107740527D01*
X109492700Y-107672406D01*
X109495563Y-107652499D01*
X109512861Y-107532184D01*
X109512861Y-107532179D01*
X109513500Y-107527737D01*
X109513500Y-106126000D01*
X109511662Y-106108900D01*
X109502128Y-106020215D01*
X109502127Y-106020208D01*
X109501766Y-106016851D01*
X109501048Y-106013550D01*
X109491094Y-105967790D01*
X109491093Y-105967785D01*
X109490380Y-105964509D01*
X109455710Y-105860343D01*
X109376692Y-105737388D01*
X109365863Y-105724890D01*
X109333139Y-105687125D01*
X109330199Y-105683732D01*
X109289214Y-105648218D01*
X109226550Y-105593919D01*
X109226547Y-105593917D01*
X109219739Y-105588018D01*
X109086790Y-105527302D01*
X109043902Y-105514709D01*
X109022992Y-105508569D01*
X109022988Y-105508568D01*
X109018669Y-105507300D01*
X109014220Y-105506660D01*
X109014214Y-105506659D01*
X108878447Y-105487139D01*
X108878442Y-105487139D01*
X108874000Y-105486500D01*
X105893661Y-105486500D01*
X105889973Y-105486939D01*
X105889969Y-105486939D01*
X105776878Y-105500394D01*
X105776871Y-105500395D01*
X105773175Y-105500835D01*
X105715696Y-105514709D01*
X105712189Y-105516010D01*
X105712183Y-105516012D01*
X105676717Y-105529171D01*
X105601932Y-105556918D01*
X105482681Y-105641423D01*
X105479419Y-105644519D01*
X105477436Y-105646401D01*
X105431186Y-105690298D01*
X105428393Y-105693833D01*
X105428391Y-105693835D01*
X105423462Y-105700073D01*
X105340575Y-105804976D01*
X105337205Y-105813338D01*
X105308652Y-105884188D01*
X105285942Y-105940538D01*
X105284873Y-105944901D01*
X105284871Y-105944907D01*
X105270114Y-106005131D01*
X105269045Y-106009495D01*
X105268608Y-106013961D01*
X105268607Y-106013968D01*
X105267845Y-106021764D01*
X105241307Y-106087615D01*
X105183381Y-106128664D01*
X105142443Y-106135500D01*
X104893613Y-106135500D01*
X104825492Y-106115498D01*
X104778999Y-106061842D01*
X104768897Y-106027439D01*
X104765035Y-106000578D01*
X104762691Y-105992593D01*
X104726397Y-105868990D01*
X104723858Y-105860343D01*
X104718988Y-105852764D01*
X104718986Y-105852761D01*
X104667685Y-105772936D01*
X104644840Y-105737388D01*
X104634011Y-105724890D01*
X104601287Y-105687125D01*
X104598347Y-105683732D01*
X104557362Y-105648218D01*
X104494698Y-105593919D01*
X104494695Y-105593917D01*
X104487887Y-105588018D01*
X104354938Y-105527302D01*
X104312050Y-105514709D01*
X104291140Y-105508569D01*
X104291136Y-105508568D01*
X104286817Y-105507300D01*
X104282368Y-105506660D01*
X104282362Y-105506659D01*
X104146595Y-105487139D01*
X104146590Y-105487139D01*
X104142148Y-105486500D01*
X103945700Y-105486500D01*
X103877579Y-105466498D01*
X103831086Y-105412842D01*
X103819700Y-105360500D01*
X103819700Y-86388500D01*
X103839702Y-86320379D01*
X103893358Y-86273886D01*
X103945700Y-86262500D01*
X139087405Y-86262500D01*
X139155526Y-86282502D01*
G37*
%TD.AperFunction*%
%TA.AperFunction,Conductor*%
G36*
X137356121Y-93746002D02*
G01*
X137402614Y-93799658D01*
X137414000Y-93852000D01*
X137414000Y-95298517D01*
X137418064Y-95312359D01*
X137431478Y-95314393D01*
X137438184Y-95313534D01*
X137448262Y-95311392D01*
X137652255Y-95250191D01*
X137661842Y-95246433D01*
X137853095Y-95152739D01*
X137861945Y-95147464D01*
X137952932Y-95082564D01*
X138020006Y-95059290D01*
X138089014Y-95075974D01*
X138138048Y-95127318D01*
X138152100Y-95185143D01*
X138152100Y-96501338D01*
X138151573Y-96512521D01*
X138149898Y-96520014D01*
X138150147Y-96527940D01*
X138150147Y-96527941D01*
X138152038Y-96588091D01*
X138152100Y-96592050D01*
X138152100Y-96619961D01*
X138152597Y-96623895D01*
X138152597Y-96623896D01*
X138152605Y-96623961D01*
X138153538Y-96635798D01*
X138154927Y-96679994D01*
X138160578Y-96699444D01*
X138164587Y-96718805D01*
X138167126Y-96738902D01*
X138170045Y-96746273D01*
X138170045Y-96746275D01*
X138183404Y-96780017D01*
X138187249Y-96791247D01*
X138193585Y-96813056D01*
X138199582Y-96833698D01*
X138203615Y-96840517D01*
X138203617Y-96840522D01*
X138209893Y-96851133D01*
X138218588Y-96868881D01*
X138226048Y-96887722D01*
X138230710Y-96894138D01*
X138230710Y-96894139D01*
X138252036Y-96923492D01*
X138258552Y-96933412D01*
X138281058Y-96971467D01*
X138295379Y-96985788D01*
X138308219Y-97000821D01*
X138320128Y-97017212D01*
X138354205Y-97045403D01*
X138362984Y-97053393D01*
X142949595Y-101640005D01*
X142983621Y-101702317D01*
X142986500Y-101729100D01*
X142986500Y-102485405D01*
X142966498Y-102553526D01*
X142949595Y-102574500D01*
X142269500Y-103254595D01*
X142207188Y-103288621D01*
X142180405Y-103291500D01*
X140849488Y-103291500D01*
X140781367Y-103271498D01*
X140734874Y-103217842D01*
X140724178Y-103152329D01*
X140725503Y-103139729D01*
X140740504Y-102997000D01*
X140729264Y-102890060D01*
X140721232Y-102813635D01*
X140721232Y-102813633D01*
X140720542Y-102807072D01*
X140661527Y-102625444D01*
X140650029Y-102605528D01*
X140569341Y-102465774D01*
X140566040Y-102460056D01*
X140540064Y-102431206D01*
X140442675Y-102323045D01*
X140442674Y-102323044D01*
X140438253Y-102318134D01*
X140317903Y-102230694D01*
X140289094Y-102209763D01*
X140289093Y-102209762D01*
X140283752Y-102205882D01*
X140277724Y-102203198D01*
X140277722Y-102203197D01*
X140115319Y-102130891D01*
X140115318Y-102130891D01*
X140109288Y-102128206D01*
X140012425Y-102107617D01*
X139928944Y-102089872D01*
X139928939Y-102089872D01*
X139922487Y-102088500D01*
X139731513Y-102088500D01*
X139725061Y-102089872D01*
X139725056Y-102089872D01*
X139641575Y-102107617D01*
X139544712Y-102128206D01*
X139538682Y-102130891D01*
X139538681Y-102130891D01*
X139376278Y-102203197D01*
X139376276Y-102203198D01*
X139370248Y-102205882D01*
X139364907Y-102209762D01*
X139364906Y-102209763D01*
X139313991Y-102246755D01*
X139215747Y-102318134D01*
X139211333Y-102323036D01*
X139209474Y-102324710D01*
X139145466Y-102355426D01*
X139075013Y-102346660D01*
X139036071Y-102320167D01*
X138022913Y-101307008D01*
X137005405Y-100289500D01*
X136971379Y-100227188D01*
X136968500Y-100200405D01*
X136968500Y-95523768D01*
X136969027Y-95512585D01*
X136970702Y-95505092D01*
X136969817Y-95476915D01*
X136968562Y-95437002D01*
X136968500Y-95433044D01*
X136968500Y-95405144D01*
X136967996Y-95401153D01*
X136967063Y-95389311D01*
X136966935Y-95385221D01*
X136965674Y-95345111D01*
X136963462Y-95337497D01*
X136963461Y-95337492D01*
X136960023Y-95325659D01*
X136956012Y-95306295D01*
X136955030Y-95298517D01*
X136953474Y-95286203D01*
X136950557Y-95278836D01*
X136950556Y-95278831D01*
X136937198Y-95245092D01*
X136933354Y-95233865D01*
X136923230Y-95199019D01*
X136923229Y-95199016D01*
X136921018Y-95191407D01*
X136916983Y-95184585D01*
X136916364Y-95183154D01*
X136906000Y-95133112D01*
X136906000Y-93852000D01*
X136926002Y-93783879D01*
X136979658Y-93737386D01*
X137032000Y-93726000D01*
X137288000Y-93726000D01*
X137356121Y-93746002D01*
G37*
%TD.AperFunction*%
%TD*%
M02*
