%TF.GenerationSoftware,KiCad,Pcbnew,(6.0.9-dirty)*%
%TF.CreationDate,2022-12-30T08:50:27-06:00*%
%TF.ProjectId,parthiv_pcb_v2,70617274-6869-4765-9f70-63625f76322e,rev?*%
%TF.SameCoordinates,Original*%
%TF.FileFunction,Soldermask,Bot*%
%TF.FilePolarity,Negative*%
%FSLAX46Y46*%
G04 Gerber Fmt 4.6, Leading zero omitted, Abs format (unit mm)*
G04 Created by KiCad (PCBNEW (6.0.9-dirty)) date 2022-12-30 08:50:27*
%MOMM*%
%LPD*%
G01*
G04 APERTURE LIST*
%ADD10R,1.700000X1.700000*%
%ADD11O,1.700000X1.700000*%
%ADD12C,1.450000*%
%ADD13O,1.900000X1.200000*%
G04 APERTURE END LIST*
D10*
%TO.C,U3*%
X157430666Y-113766000D03*
D11*
X157430666Y-111226000D03*
X154890666Y-113766000D03*
X154890666Y-111226000D03*
X152350666Y-113766000D03*
X152350666Y-111226000D03*
X149810666Y-113766000D03*
X149810666Y-111226000D03*
%TD*%
D10*
%TO.C,J4*%
X125222000Y-129794000D03*
D11*
X125222000Y-127254000D03*
X125222000Y-124714000D03*
X125222000Y-122174000D03*
X125222000Y-119634000D03*
X125222000Y-117094000D03*
X125222000Y-114554000D03*
X125222000Y-112014000D03*
%TD*%
D12*
%TO.C,J3*%
X107716500Y-113244000D03*
D13*
X105016500Y-107244000D03*
X105016500Y-114244000D03*
D12*
X107716500Y-108244000D03*
%TD*%
D10*
%TO.C,U2*%
X140100000Y-113766000D03*
D11*
X140100000Y-111226000D03*
X137560000Y-113766000D03*
X137560000Y-111226000D03*
X135020000Y-113766000D03*
X135020000Y-111226000D03*
X132480000Y-113766000D03*
X132480000Y-111226000D03*
%TD*%
D10*
%TO.C,J5*%
X165404800Y-129997200D03*
D11*
X165404800Y-127457200D03*
X165404800Y-124917200D03*
X165404800Y-122377200D03*
%TD*%
D10*
%TO.C,J6*%
X116840000Y-93980000D03*
D11*
X116840000Y-91440000D03*
X119380000Y-93980000D03*
X119380000Y-91440000D03*
X121920000Y-93980000D03*
X121920000Y-91440000D03*
X124460000Y-93980000D03*
X124460000Y-91440000D03*
X127000000Y-93980000D03*
X127000000Y-91440000D03*
X129540000Y-93980000D03*
X129540000Y-91440000D03*
X132080000Y-93980000D03*
X132080000Y-91440000D03*
X134620000Y-93980000D03*
X134620000Y-91440000D03*
X137160000Y-93980000D03*
X137160000Y-91440000D03*
X139700000Y-93980000D03*
X139700000Y-91440000D03*
X142240000Y-93980000D03*
X142240000Y-91440000D03*
X144780000Y-93980000D03*
X144780000Y-91440000D03*
X147320000Y-93980000D03*
X147320000Y-91440000D03*
X149860000Y-93980000D03*
X149860000Y-91440000D03*
X152400000Y-93980000D03*
X152400000Y-91440000D03*
X154940000Y-93980000D03*
X154940000Y-91440000D03*
X157480000Y-93980000D03*
X157480000Y-91440000D03*
X160020000Y-93980000D03*
X160020000Y-91440000D03*
X162560000Y-93980000D03*
X162560000Y-91440000D03*
X165100000Y-93980000D03*
X165100000Y-91440000D03*
%TD*%
M02*
