%TF.GenerationSoftware,KiCad,Pcbnew,(6.0.9-dirty)*%
%TF.CreationDate,2022-12-30T08:50:27-06:00*%
%TF.ProjectId,parthiv_pcb_v2,70617274-6869-4765-9f70-63625f76322e,rev?*%
%TF.SameCoordinates,Original*%
%TF.FileFunction,Legend,Bot*%
%TF.FilePolarity,Positive*%
%FSLAX46Y46*%
G04 Gerber Fmt 4.6, Leading zero omitted, Abs format (unit mm)*
G04 Created by KiCad (PCBNEW (6.0.9-dirty)) date 2022-12-30 08:50:27*
%MOMM*%
%LPD*%
G01*
G04 APERTURE LIST*
%ADD10C,0.150000*%
%ADD11C,0.120000*%
%ADD12R,1.700000X1.700000*%
%ADD13O,1.700000X1.700000*%
%ADD14C,1.450000*%
%ADD15O,1.900000X1.200000*%
G04 APERTURE END LIST*
D10*
X107557819Y-129968047D02*
X106843533Y-129968047D01*
X106700676Y-130015666D01*
X106605438Y-130110904D01*
X106557819Y-130253761D01*
X106557819Y-130349000D01*
X106557819Y-129015666D02*
X106557819Y-129491857D01*
X107557819Y-129491857D01*
X106653057Y-128110904D02*
X106605438Y-128158523D01*
X106557819Y-128301380D01*
X106557819Y-128396619D01*
X106605438Y-128539476D01*
X106700676Y-128634714D01*
X106795914Y-128682333D01*
X106986390Y-128729952D01*
X107129247Y-128729952D01*
X107319723Y-128682333D01*
X107414961Y-128634714D01*
X107510200Y-128539476D01*
X107557819Y-128396619D01*
X107557819Y-128301380D01*
X107510200Y-128158523D01*
X107462580Y-128110904D01*
X107557819Y-127396619D02*
X106843533Y-127396619D01*
X106700676Y-127444238D01*
X106605438Y-127539476D01*
X106557819Y-127682333D01*
X106557819Y-127777571D01*
X106557819Y-126444238D02*
X106557819Y-126920428D01*
X107557819Y-126920428D01*
X106653057Y-125539476D02*
X106605438Y-125587095D01*
X106557819Y-125729952D01*
X106557819Y-125825190D01*
X106605438Y-125968047D01*
X106700676Y-126063285D01*
X106795914Y-126110904D01*
X106986390Y-126158523D01*
X107129247Y-126158523D01*
X107319723Y-126110904D01*
X107414961Y-126063285D01*
X107510200Y-125968047D01*
X107557819Y-125825190D01*
X107557819Y-125729952D01*
X107510200Y-125587095D01*
X107462580Y-125539476D01*
X107557819Y-124825190D02*
X106843533Y-124825190D01*
X106700676Y-124872809D01*
X106605438Y-124968047D01*
X106557819Y-125110904D01*
X106557819Y-125206142D01*
X106557819Y-123872809D02*
X106557819Y-124349000D01*
X107557819Y-124349000D01*
X106653057Y-122968047D02*
X106605438Y-123015666D01*
X106557819Y-123158523D01*
X106557819Y-123253761D01*
X106605438Y-123396619D01*
X106700676Y-123491857D01*
X106795914Y-123539476D01*
X106986390Y-123587095D01*
X107129247Y-123587095D01*
X107319723Y-123539476D01*
X107414961Y-123491857D01*
X107510200Y-123396619D01*
X107557819Y-123253761D01*
X107557819Y-123158523D01*
X107510200Y-123015666D01*
X107462580Y-122968047D01*
X107557819Y-122253761D02*
X106843533Y-122253761D01*
X106700676Y-122301380D01*
X106605438Y-122396619D01*
X106557819Y-122539476D01*
X106557819Y-122634714D01*
X106557819Y-121301380D02*
X106557819Y-121777571D01*
X107557819Y-121777571D01*
X106653057Y-120396619D02*
X106605438Y-120444238D01*
X106557819Y-120587095D01*
X106557819Y-120682333D01*
X106605438Y-120825190D01*
X106700676Y-120920428D01*
X106795914Y-120968047D01*
X106986390Y-121015666D01*
X107129247Y-121015666D01*
X107319723Y-120968047D01*
X107414961Y-120920428D01*
X107510200Y-120825190D01*
X107557819Y-120682333D01*
X107557819Y-120587095D01*
X107510200Y-120444238D01*
X107462580Y-120396619D01*
%TO.C,J6*%
X113522380Y-92376666D02*
X114236666Y-92376666D01*
X114379523Y-92329047D01*
X114474761Y-92233809D01*
X114522380Y-92090952D01*
X114522380Y-91995714D01*
X113522380Y-93281428D02*
X113522380Y-93090952D01*
X113570000Y-92995714D01*
X113617619Y-92948095D01*
X113760476Y-92852857D01*
X113950952Y-92805238D01*
X114331904Y-92805238D01*
X114427142Y-92852857D01*
X114474761Y-92900476D01*
X114522380Y-92995714D01*
X114522380Y-93186190D01*
X114474761Y-93281428D01*
X114427142Y-93329047D01*
X114331904Y-93376666D01*
X114093809Y-93376666D01*
X113998571Y-93329047D01*
X113950952Y-93281428D01*
X113903333Y-93186190D01*
X113903333Y-92995714D01*
X113950952Y-92900476D01*
X113998571Y-92852857D01*
X114093809Y-92805238D01*
D11*
X115510000Y-92710000D02*
X118110000Y-92710000D01*
X115510000Y-90110000D02*
X115510000Y-92710000D01*
X118110000Y-92710000D02*
X118110000Y-95310000D01*
X115510000Y-90110000D02*
X166430000Y-90110000D01*
X115510000Y-95310000D02*
X116840000Y-95310000D01*
X118110000Y-95310000D02*
X166430000Y-95310000D01*
X166430000Y-90110000D02*
X166430000Y-95310000D01*
X115510000Y-93980000D02*
X115510000Y-95310000D01*
%TD*%
%LPC*%
D12*
%TO.C,U3*%
X157430666Y-113766000D03*
D13*
X157430666Y-111226000D03*
X154890666Y-113766000D03*
X154890666Y-111226000D03*
X152350666Y-113766000D03*
X152350666Y-111226000D03*
X149810666Y-113766000D03*
X149810666Y-111226000D03*
%TD*%
D12*
%TO.C,J4*%
X125222000Y-129794000D03*
D13*
X125222000Y-127254000D03*
X125222000Y-124714000D03*
X125222000Y-122174000D03*
X125222000Y-119634000D03*
X125222000Y-117094000D03*
X125222000Y-114554000D03*
X125222000Y-112014000D03*
%TD*%
D14*
%TO.C,J3*%
X107716500Y-113244000D03*
D15*
X105016500Y-107244000D03*
X105016500Y-114244000D03*
D14*
X107716500Y-108244000D03*
%TD*%
D12*
%TO.C,U2*%
X140100000Y-113766000D03*
D13*
X140100000Y-111226000D03*
X137560000Y-113766000D03*
X137560000Y-111226000D03*
X135020000Y-113766000D03*
X135020000Y-111226000D03*
X132480000Y-113766000D03*
X132480000Y-111226000D03*
%TD*%
D12*
%TO.C,J5*%
X165404800Y-129997200D03*
D13*
X165404800Y-127457200D03*
X165404800Y-124917200D03*
X165404800Y-122377200D03*
%TD*%
D12*
%TO.C,J6*%
X116840000Y-93980000D03*
D13*
X116840000Y-91440000D03*
X119380000Y-93980000D03*
X119380000Y-91440000D03*
X121920000Y-93980000D03*
X121920000Y-91440000D03*
X124460000Y-93980000D03*
X124460000Y-91440000D03*
X127000000Y-93980000D03*
X127000000Y-91440000D03*
X129540000Y-93980000D03*
X129540000Y-91440000D03*
X132080000Y-93980000D03*
X132080000Y-91440000D03*
X134620000Y-93980000D03*
X134620000Y-91440000D03*
X137160000Y-93980000D03*
X137160000Y-91440000D03*
X139700000Y-93980000D03*
X139700000Y-91440000D03*
X142240000Y-93980000D03*
X142240000Y-91440000D03*
X144780000Y-93980000D03*
X144780000Y-91440000D03*
X147320000Y-93980000D03*
X147320000Y-91440000D03*
X149860000Y-93980000D03*
X149860000Y-91440000D03*
X152400000Y-93980000D03*
X152400000Y-91440000D03*
X154940000Y-93980000D03*
X154940000Y-91440000D03*
X157480000Y-93980000D03*
X157480000Y-91440000D03*
X160020000Y-93980000D03*
X160020000Y-91440000D03*
X162560000Y-93980000D03*
X162560000Y-91440000D03*
X165100000Y-93980000D03*
X165100000Y-91440000D03*
%TD*%
M02*
