%TF.GenerationSoftware,KiCad,Pcbnew,(6.0.9-dirty)*%
%TF.CreationDate,2022-12-30T08:50:27-06:00*%
%TF.ProjectId,parthiv_pcb_v2,70617274-6869-4765-9f70-63625f76322e,rev?*%
%TF.SameCoordinates,Original*%
%TF.FileFunction,Other,Comment*%
%FSLAX46Y46*%
G04 Gerber Fmt 4.6, Leading zero omitted, Abs format (unit mm)*
G04 Created by KiCad (PCBNEW (6.0.9-dirty)) date 2022-12-30 08:50:27*
%MOMM*%
%LPD*%
G01*
G04 APERTURE LIST*
%ADD10C,0.100000*%
%ADD11C,0.150000*%
G04 APERTURE END LIST*
D10*
X161979571Y-126919000D02*
X161915761Y-126887095D01*
X161820047Y-126887095D01*
X161724333Y-126919000D01*
X161660523Y-126982809D01*
X161628619Y-127046619D01*
X161596714Y-127174238D01*
X161596714Y-127269952D01*
X161628619Y-127397571D01*
X161660523Y-127461380D01*
X161724333Y-127525190D01*
X161820047Y-127557095D01*
X161883857Y-127557095D01*
X161979571Y-127525190D01*
X162011476Y-127493285D01*
X162011476Y-127269952D01*
X161883857Y-127269952D01*
X162298619Y-127557095D02*
X162298619Y-126887095D01*
X162681476Y-127557095D01*
X162681476Y-126887095D01*
X163000523Y-127557095D02*
X163000523Y-126887095D01*
X163160047Y-126887095D01*
X163255761Y-126919000D01*
X163319571Y-126982809D01*
X163351476Y-127046619D01*
X163383380Y-127174238D01*
X163383380Y-127269952D01*
X163351476Y-127397571D01*
X163319571Y-127461380D01*
X163255761Y-127525190D01*
X163160047Y-127557095D01*
X163000523Y-127557095D01*
X161756238Y-129427095D02*
X162171000Y-129427095D01*
X161947666Y-129682333D01*
X162043380Y-129682333D01*
X162107190Y-129714238D01*
X162139095Y-129746142D01*
X162171000Y-129809952D01*
X162171000Y-129969476D01*
X162139095Y-130033285D01*
X162107190Y-130065190D01*
X162043380Y-130097095D01*
X161851952Y-130097095D01*
X161788142Y-130065190D01*
X161756238Y-130033285D01*
X162362428Y-129427095D02*
X162585761Y-130097095D01*
X162809095Y-129427095D01*
X162968619Y-129427095D02*
X163383380Y-129427095D01*
X163160047Y-129682333D01*
X163255761Y-129682333D01*
X163319571Y-129714238D01*
X163351476Y-129746142D01*
X163383380Y-129809952D01*
X163383380Y-129969476D01*
X163351476Y-130033285D01*
X163319571Y-130065190D01*
X163255761Y-130097095D01*
X163064333Y-130097095D01*
X163000523Y-130065190D01*
X162968619Y-130033285D01*
X159491000Y-122477095D02*
X159491000Y-121807095D01*
X159650523Y-121807095D01*
X159746238Y-121839000D01*
X159810047Y-121902809D01*
X159841952Y-121966619D01*
X159873857Y-122094238D01*
X159873857Y-122189952D01*
X159841952Y-122317571D01*
X159810047Y-122381380D01*
X159746238Y-122445190D01*
X159650523Y-122477095D01*
X159491000Y-122477095D01*
X160288619Y-121807095D02*
X160416238Y-121807095D01*
X160480047Y-121839000D01*
X160543857Y-121902809D01*
X160575761Y-122030428D01*
X160575761Y-122253761D01*
X160543857Y-122381380D01*
X160480047Y-122445190D01*
X160416238Y-122477095D01*
X160288619Y-122477095D01*
X160224809Y-122445190D01*
X160161000Y-122381380D01*
X160129095Y-122253761D01*
X160129095Y-122030428D01*
X160161000Y-121902809D01*
X160224809Y-121839000D01*
X160288619Y-121807095D01*
X160862904Y-121807095D02*
X160862904Y-122349476D01*
X160894809Y-122413285D01*
X160926714Y-122445190D01*
X160990523Y-122477095D01*
X161118142Y-122477095D01*
X161181952Y-122445190D01*
X161213857Y-122413285D01*
X161245761Y-122349476D01*
X161245761Y-121807095D01*
X161469095Y-121807095D02*
X161851952Y-121807095D01*
X161660523Y-122477095D02*
X161660523Y-121807095D01*
X162075285Y-122413285D02*
X162107190Y-122445190D01*
X162075285Y-122477095D01*
X162043380Y-122445190D01*
X162075285Y-122413285D01*
X162075285Y-122477095D01*
X162075285Y-122062333D02*
X162107190Y-122094238D01*
X162075285Y-122126142D01*
X162043380Y-122094238D01*
X162075285Y-122062333D01*
X162075285Y-122126142D01*
X162362428Y-121870904D02*
X162394333Y-121839000D01*
X162458142Y-121807095D01*
X162617666Y-121807095D01*
X162681476Y-121839000D01*
X162713380Y-121870904D01*
X162745285Y-121934714D01*
X162745285Y-121998523D01*
X162713380Y-122094238D01*
X162330523Y-122477095D01*
X162745285Y-122477095D01*
X163160047Y-121807095D02*
X163223857Y-121807095D01*
X163287666Y-121839000D01*
X163319571Y-121870904D01*
X163351476Y-121934714D01*
X163383380Y-122062333D01*
X163383380Y-122221857D01*
X163351476Y-122349476D01*
X163319571Y-122413285D01*
X163287666Y-122445190D01*
X163223857Y-122477095D01*
X163160047Y-122477095D01*
X163096238Y-122445190D01*
X163064333Y-122413285D01*
X163032428Y-122349476D01*
X163000523Y-122221857D01*
X163000523Y-122062333D01*
X163032428Y-121934714D01*
X163064333Y-121870904D01*
X163096238Y-121839000D01*
X163160047Y-121807095D01*
D11*
X168552761Y-128343999D02*
X168600380Y-128201142D01*
X168600380Y-127963047D01*
X168552761Y-127867809D01*
X168505142Y-127820190D01*
X168409904Y-127772571D01*
X168314666Y-127772571D01*
X168219428Y-127820190D01*
X168171809Y-127867809D01*
X168124190Y-127963047D01*
X168076571Y-128153523D01*
X168028952Y-128248761D01*
X167981333Y-128296380D01*
X167886095Y-128343999D01*
X167790857Y-128343999D01*
X167695619Y-128296380D01*
X167648000Y-128248761D01*
X167600380Y-128153523D01*
X167600380Y-127915428D01*
X167648000Y-127772571D01*
X168600380Y-127343999D02*
X167600380Y-127343999D01*
X167600380Y-126963047D01*
X167648000Y-126867809D01*
X167695619Y-126820190D01*
X167790857Y-126772571D01*
X167933714Y-126772571D01*
X168028952Y-126820190D01*
X168076571Y-126867809D01*
X168124190Y-126963047D01*
X168124190Y-127343999D01*
X168600380Y-126343999D02*
X167600380Y-126343999D01*
X168076571Y-126343999D02*
X168076571Y-125772571D01*
X168600380Y-125772571D02*
X167600380Y-125772571D01*
X167600380Y-125105904D02*
X167600380Y-125010666D01*
X167648000Y-124915428D01*
X167695619Y-124867809D01*
X167790857Y-124820190D01*
X167981333Y-124772571D01*
X168219428Y-124772571D01*
X168409904Y-124820190D01*
X168505142Y-124867809D01*
X168552761Y-124915428D01*
X168600380Y-125010666D01*
X168600380Y-125105904D01*
X168552761Y-125201142D01*
X168505142Y-125248761D01*
X168409904Y-125296380D01*
X168219428Y-125343999D01*
X167981333Y-125343999D01*
X167790857Y-125296380D01*
X167695619Y-125248761D01*
X167648000Y-125201142D01*
X167600380Y-125105904D01*
X167600380Y-123915428D02*
X167600380Y-124105904D01*
X167648000Y-124201142D01*
X167695619Y-124248761D01*
X167838476Y-124343999D01*
X168028952Y-124391618D01*
X168409904Y-124391618D01*
X168505142Y-124343999D01*
X168552761Y-124296380D01*
X168600380Y-124201142D01*
X168600380Y-124010666D01*
X168552761Y-123915428D01*
X168505142Y-123867809D01*
X168409904Y-123820190D01*
X168171809Y-123820190D01*
X168076571Y-123867809D01*
X168028952Y-123915428D01*
X167981333Y-124010666D01*
X167981333Y-124201142D01*
X168028952Y-124296380D01*
X168076571Y-124343999D01*
X168171809Y-124391618D01*
X167933714Y-122963047D02*
X168600380Y-122963047D01*
X167552761Y-123201142D02*
X168267047Y-123439238D01*
X168267047Y-122820190D01*
X167600380Y-121963047D02*
X167600380Y-122439238D01*
X168076571Y-122486857D01*
X168028952Y-122439238D01*
X167981333Y-122343999D01*
X167981333Y-122105904D01*
X168028952Y-122010666D01*
X168076571Y-121963047D01*
X168171809Y-121915428D01*
X168409904Y-121915428D01*
X168505142Y-121963047D01*
X168552761Y-122010666D01*
X168600380Y-122105904D01*
X168600380Y-122343999D01*
X168552761Y-122439238D01*
X168505142Y-122486857D01*
X168600380Y-120724952D02*
X167600380Y-120724952D01*
X167695619Y-120296380D02*
X167648000Y-120248761D01*
X167600380Y-120153523D01*
X167600380Y-119915428D01*
X167648000Y-119820190D01*
X167695619Y-119772571D01*
X167790857Y-119724952D01*
X167886095Y-119724952D01*
X168028952Y-119772571D01*
X168600380Y-120343999D01*
X168600380Y-119724952D01*
X168552761Y-119343999D02*
X168600380Y-119201142D01*
X168600380Y-118963047D01*
X168552761Y-118867809D01*
X168505142Y-118820190D01*
X168409904Y-118772571D01*
X168314666Y-118772571D01*
X168219428Y-118820190D01*
X168171809Y-118867809D01*
X168124190Y-118963047D01*
X168076571Y-119153523D01*
X168028952Y-119248761D01*
X167981333Y-119296380D01*
X167886095Y-119343999D01*
X167790857Y-119343999D01*
X167695619Y-119296380D01*
X167648000Y-119248761D01*
X167600380Y-119153523D01*
X167600380Y-118915428D01*
X167648000Y-118772571D01*
X168600380Y-117582095D02*
X167600380Y-117582095D01*
X168314666Y-117248761D01*
X167600380Y-116915428D01*
X168600380Y-116915428D01*
X168600380Y-116439238D02*
X167933714Y-116439238D01*
X167600380Y-116439238D02*
X167648000Y-116486857D01*
X167695619Y-116439238D01*
X167648000Y-116391618D01*
X167600380Y-116439238D01*
X167695619Y-116439238D01*
X168552761Y-115534476D02*
X168600380Y-115629714D01*
X168600380Y-115820190D01*
X168552761Y-115915428D01*
X168505142Y-115963047D01*
X168409904Y-116010666D01*
X168124190Y-116010666D01*
X168028952Y-115963047D01*
X167981333Y-115915428D01*
X167933714Y-115820190D01*
X167933714Y-115629714D01*
X167981333Y-115534476D01*
D10*
X159682428Y-117365190D02*
X159778142Y-117397095D01*
X159937666Y-117397095D01*
X160001476Y-117365190D01*
X160033380Y-117333285D01*
X160065285Y-117269476D01*
X160065285Y-117205666D01*
X160033380Y-117141857D01*
X160001476Y-117109952D01*
X159937666Y-117078047D01*
X159810047Y-117046142D01*
X159746238Y-117014238D01*
X159714333Y-116982333D01*
X159682428Y-116918523D01*
X159682428Y-116854714D01*
X159714333Y-116790904D01*
X159746238Y-116759000D01*
X159810047Y-116727095D01*
X159969571Y-116727095D01*
X160065285Y-116759000D01*
X160352428Y-117046142D02*
X160575761Y-117046142D01*
X160671476Y-117397095D02*
X160352428Y-117397095D01*
X160352428Y-116727095D01*
X160671476Y-116727095D01*
X161277666Y-117397095D02*
X160958619Y-117397095D01*
X160958619Y-116727095D01*
X161501000Y-117333285D02*
X161532904Y-117365190D01*
X161501000Y-117397095D01*
X161469095Y-117365190D01*
X161501000Y-117333285D01*
X161501000Y-117397095D01*
X161501000Y-116982333D02*
X161532904Y-117014238D01*
X161501000Y-117046142D01*
X161469095Y-117014238D01*
X161501000Y-116982333D01*
X161501000Y-117046142D01*
X161756238Y-116727095D02*
X162171000Y-116727095D01*
X161947666Y-116982333D01*
X162043380Y-116982333D01*
X162107190Y-117014238D01*
X162139095Y-117046142D01*
X162171000Y-117109952D01*
X162171000Y-117269476D01*
X162139095Y-117333285D01*
X162107190Y-117365190D01*
X162043380Y-117397095D01*
X161851952Y-117397095D01*
X161788142Y-117365190D01*
X161756238Y-117333285D01*
X162362428Y-116727095D02*
X162585761Y-117397095D01*
X162809095Y-116727095D01*
X162968619Y-116727095D02*
X163383380Y-116727095D01*
X163160047Y-116982333D01*
X163255761Y-116982333D01*
X163319571Y-117014238D01*
X163351476Y-117046142D01*
X163383380Y-117109952D01*
X163383380Y-117269476D01*
X163351476Y-117333285D01*
X163319571Y-117365190D01*
X163255761Y-117397095D01*
X163064333Y-117397095D01*
X163000523Y-117365190D01*
X162968619Y-117333285D01*
X159746238Y-124666142D02*
X159841952Y-124698047D01*
X159873857Y-124729952D01*
X159905761Y-124793761D01*
X159905761Y-124889476D01*
X159873857Y-124953285D01*
X159841952Y-124985190D01*
X159778142Y-125017095D01*
X159522904Y-125017095D01*
X159522904Y-124347095D01*
X159746238Y-124347095D01*
X159810047Y-124379000D01*
X159841952Y-124410904D01*
X159873857Y-124474714D01*
X159873857Y-124538523D01*
X159841952Y-124602333D01*
X159810047Y-124634238D01*
X159746238Y-124666142D01*
X159522904Y-124666142D01*
X160575761Y-124953285D02*
X160543857Y-124985190D01*
X160448142Y-125017095D01*
X160384333Y-125017095D01*
X160288619Y-124985190D01*
X160224809Y-124921380D01*
X160192904Y-124857571D01*
X160161000Y-124729952D01*
X160161000Y-124634238D01*
X160192904Y-124506619D01*
X160224809Y-124442809D01*
X160288619Y-124379000D01*
X160384333Y-124347095D01*
X160448142Y-124347095D01*
X160543857Y-124379000D01*
X160575761Y-124410904D01*
X161181952Y-125017095D02*
X160862904Y-125017095D01*
X160862904Y-124347095D01*
X161405285Y-125017095D02*
X161405285Y-124347095D01*
X161788142Y-125017095D02*
X161501000Y-124634238D01*
X161788142Y-124347095D02*
X161405285Y-124729952D01*
X162075285Y-124953285D02*
X162107190Y-124985190D01*
X162075285Y-125017095D01*
X162043380Y-124985190D01*
X162075285Y-124953285D01*
X162075285Y-125017095D01*
X162075285Y-124602333D02*
X162107190Y-124634238D01*
X162075285Y-124666142D01*
X162043380Y-124634238D01*
X162075285Y-124602333D01*
X162075285Y-124666142D01*
X162745285Y-125017095D02*
X162362428Y-125017095D01*
X162553857Y-125017095D02*
X162553857Y-124347095D01*
X162490047Y-124442809D01*
X162426238Y-124506619D01*
X162362428Y-124538523D01*
X163128142Y-124634238D02*
X163064333Y-124602333D01*
X163032428Y-124570428D01*
X163000523Y-124506619D01*
X163000523Y-124474714D01*
X163032428Y-124410904D01*
X163064333Y-124379000D01*
X163128142Y-124347095D01*
X163255761Y-124347095D01*
X163319571Y-124379000D01*
X163351476Y-124410904D01*
X163383380Y-124474714D01*
X163383380Y-124506619D01*
X163351476Y-124570428D01*
X163319571Y-124602333D01*
X163255761Y-124634238D01*
X163128142Y-124634238D01*
X163064333Y-124666142D01*
X163032428Y-124698047D01*
X163000523Y-124761857D01*
X163000523Y-124889476D01*
X163032428Y-124953285D01*
X163064333Y-124985190D01*
X163128142Y-125017095D01*
X163255761Y-125017095D01*
X163319571Y-124985190D01*
X163351476Y-124953285D01*
X163383380Y-124889476D01*
X163383380Y-124761857D01*
X163351476Y-124698047D01*
X163319571Y-124666142D01*
X163255761Y-124634238D01*
X159969571Y-119937095D02*
X159650523Y-119937095D01*
X159650523Y-119267095D01*
X160575761Y-119937095D02*
X160352428Y-119618047D01*
X160192904Y-119937095D02*
X160192904Y-119267095D01*
X160448142Y-119267095D01*
X160511952Y-119299000D01*
X160543857Y-119330904D01*
X160575761Y-119394714D01*
X160575761Y-119490428D01*
X160543857Y-119554238D01*
X160511952Y-119586142D01*
X160448142Y-119618047D01*
X160192904Y-119618047D01*
X161245761Y-119873285D02*
X161213857Y-119905190D01*
X161118142Y-119937095D01*
X161054333Y-119937095D01*
X160958619Y-119905190D01*
X160894809Y-119841380D01*
X160862904Y-119777571D01*
X160831000Y-119649952D01*
X160831000Y-119554238D01*
X160862904Y-119426619D01*
X160894809Y-119362809D01*
X160958619Y-119299000D01*
X161054333Y-119267095D01*
X161118142Y-119267095D01*
X161213857Y-119299000D01*
X161245761Y-119330904D01*
X161851952Y-119937095D02*
X161532904Y-119937095D01*
X161532904Y-119267095D01*
X162075285Y-119873285D02*
X162107190Y-119905190D01*
X162075285Y-119937095D01*
X162043380Y-119905190D01*
X162075285Y-119873285D01*
X162075285Y-119937095D01*
X162075285Y-119522333D02*
X162107190Y-119554238D01*
X162075285Y-119586142D01*
X162043380Y-119554238D01*
X162075285Y-119522333D01*
X162075285Y-119586142D01*
X162745285Y-119937095D02*
X162362428Y-119937095D01*
X162553857Y-119937095D02*
X162553857Y-119267095D01*
X162490047Y-119362809D01*
X162426238Y-119426619D01*
X162362428Y-119458523D01*
X163064333Y-119937095D02*
X163191952Y-119937095D01*
X163255761Y-119905190D01*
X163287666Y-119873285D01*
X163351476Y-119777571D01*
X163383380Y-119649952D01*
X163383380Y-119394714D01*
X163351476Y-119330904D01*
X163319571Y-119299000D01*
X163255761Y-119267095D01*
X163128142Y-119267095D01*
X163064333Y-119299000D01*
X163032428Y-119330904D01*
X163000523Y-119394714D01*
X163000523Y-119554238D01*
X163032428Y-119618047D01*
X163064333Y-119649952D01*
X163128142Y-119681857D01*
X163255761Y-119681857D01*
X163319571Y-119649952D01*
X163351476Y-119618047D01*
X163383380Y-119554238D01*
M02*
